<svg preserveAspectRatio="none" width="100%" height="100%" overflow="visible" style="display: block;" viewBox="0 0 16.4876 21" fill="none" xmlns="http://www.w3.org/2000/svg">
<path id="Vector" d="M10.4876 6C11.0809 6 11.661 5.82405 12.1543 5.49441C12.6477 5.16477 13.0322 4.69623 13.2592 4.14805C13.4863 3.59987 13.5457 2.99667 13.43 2.41473C13.3142 1.83279 13.0285 1.29824 12.6089 0.878681C12.1894 0.459123 11.6548 0.173401 11.0729 0.0576455C10.4909 -0.0581102 9.88773 0.00129985 9.33955 0.228363C8.79137 0.455426 8.32283 0.839943 7.99319 1.33329C7.66355 1.82664 7.4876 2.40666 7.4876 3C7.4876 3.79565 7.80367 4.55871 8.36628 5.12132C8.92889 5.68393 9.69195 6 10.4876 6ZM10.4876 1.5C10.7843 1.5 11.0743 1.58797 11.321 1.7528C11.5676 1.91762 11.7599 2.15189 11.8734 2.42598C11.9869 2.70007 12.0167 3.00167 11.9588 3.29264C11.9009 3.58361 11.758 3.85088 11.5483 4.06066C11.3385 4.27044 11.0712 4.4133 10.7802 4.47118C10.4893 4.52906 10.1877 4.49935 9.91357 4.38582C9.63948 4.27229 9.40522 4.08003 9.24039 3.83336C9.07557 3.58668 8.9876 3.29667 8.9876 3C8.9876 2.60218 9.14563 2.22065 9.42694 1.93934C9.70824 1.65804 10.0898 1.5 10.4876 1.5ZM16.4876 12C16.4876 12.1989 16.4086 12.3897 16.2679 12.5303C16.1273 12.671 15.9365 12.75 15.7376 12.75C12.4273 12.75 10.7735 11.0803 9.4451 9.73875C9.18822 9.47906 8.9426 9.2325 8.6951 9.00375L7.43604 11.8988L10.9235 14.3897C11.0207 14.4591 11.0999 14.5507 11.1545 14.6568C11.2091 14.763 11.2376 14.8806 11.2376 15V20.25C11.2376 20.4489 11.1586 20.6397 11.0179 20.7803C10.8773 20.921 10.6865 21 10.4876 21C10.2887 21 10.0979 20.921 9.95727 20.7803C9.81662 20.6397 9.7376 20.4489 9.7376 20.25V15.3863L6.82479 13.305L3.67572 20.5491C3.61744 20.6831 3.52126 20.7972 3.39901 20.8773C3.27676 20.9574 3.13376 21.0001 2.9876 21C2.88461 21.0002 2.78272 20.9788 2.68853 20.9372C2.50621 20.8579 2.36282 20.7095 2.28987 20.5246C2.21691 20.3397 2.22037 20.1333 2.29947 19.9509L7.36947 8.29125C6.49666 8.13656 5.40822 8.40375 4.11635 9.09563C3.08603 9.66395 2.12442 10.3487 1.25041 11.1366C1.10452 11.2672 0.913309 11.3357 0.717637 11.3272C0.521965 11.3188 0.337362 11.2341 0.203286 11.0913C0.0692114 10.9486 -0.0036977 10.759 0.000144502 10.5632C0.0039867 10.3674 0.0842752 10.1808 0.223848 10.0434C0.458223 9.82313 6.00729 4.67813 9.47885 7.69219C9.83791 8.00344 10.1801 8.34844 10.5101 8.68313C11.8179 10.0031 13.0526 11.25 15.7376 11.25C15.9365 11.25 16.1273 11.329 16.2679 11.4697C16.4086 11.6103 16.4876 11.8011 16.4876 12Z" fill="var(--fill-0, #212121)"/>
</svg>
