<svg preserveAspectRatio="none" width="100%" height="100%" overflow="visible" style="display: block;" viewBox="0 0 18 18.2272" fill="none" xmlns="http://www.w3.org/2000/svg">
<path id="Vector" d="M11.4255 10.5083L9.55279 8.66977L9.43687 8.56464C9.07366 8.2594 8.61469 8.09161 8.14026 8.09062C7.66582 8.08964 7.20616 8.25552 6.84169 8.55924L6.71948 8.66977L1.11845 14.1728C1.03004 14.2595 0.918014 14.3182 0.796417 14.3414C0.674821 14.3647 0.549058 14.3516 0.434884 14.3037C0.320711 14.2559 0.223204 14.1753 0.15458 14.0723C0.0859557 13.9693 0.0492658 13.8483 0.0491067 13.7244V2.92048C0.0491067 2.14592 0.356799 1.40308 0.904495 0.855388C1.45219 0.307692 2.19502 0 2.96958 0H13.3036C14.0781 0 14.821 0.307692 15.3687 0.855388C15.9164 1.40308 16.2241 2.14592 16.2241 2.92048V7.19965C15.7948 7.16184 15.3624 7.2187 14.9575 7.3662C14.5525 7.5137 14.1849 7.74826 13.8805 8.05333L11.4255 10.5083ZM9.48449 4.71949C9.48449 5.2562 9.6977 5.77093 10.0772 6.15044C10.4567 6.52995 10.9714 6.74316 11.5082 6.74316C12.0449 6.74316 12.5596 6.52995 12.9391 6.15044C13.3186 5.77093 13.5318 5.2562 13.5318 4.71949C13.5318 4.18266 13.3186 3.66782 12.939 3.28823C12.5594 2.90863 12.0445 2.69538 11.5077 2.69538C10.9709 2.69538 10.456 2.90863 10.0764 3.28823C9.69685 3.66782 9.48359 4.18266 9.48359 4.71949H9.48449ZM11.5082 4.04374C11.6874 4.04374 11.8593 4.11493 11.986 4.24166C12.1127 4.36839 12.1839 4.54027 12.1839 4.71949C12.1839 4.89871 12.1127 5.07059 11.986 5.19732C11.8593 5.32405 11.6874 5.39524 11.5082 5.39524C11.3289 5.39524 11.1571 5.32405 11.0303 5.19732C10.9036 5.07059 10.8324 4.89871 10.8324 4.71949C10.8324 4.54027 10.9036 4.36839 11.0303 4.24166C11.1571 4.11493 11.3289 4.04374 11.5082 4.04374ZM7.66391 9.63128L7.7394 9.56748C7.85314 9.48468 7.98995 9.43956 8.13063 9.43843C8.27131 9.4373 8.40882 9.48023 8.52388 9.56119L8.60835 9.63128L10.473 11.4617L8.5769 13.3578C8.18416 13.7505 7.89647 14.2357 7.74029 14.7686C7.43027 14.287 6.95851 13.9464 6.47146 13.7505C5.85052 13.5007 5.22599 13.6067 4.73175 13.782L4.63111 13.8179C4.19978 13.9689 3.85471 13.4513 4.15485 13.1071L4.34356 12.8905L7.66391 9.63128ZM14.5158 8.68864L9.21221 13.9931C8.9031 14.3023 8.68381 14.6896 8.5778 15.1137L8.19319 16.6521C7.87419 16.8049 7.55518 16.8336 7.17507 16.7465C7.06185 16.7195 7.01332 16.5892 7.06095 16.4832C7.44735 15.6187 6.89021 14.8872 6.13538 14.5844C5.27721 14.2384 4.13508 15.0472 3.17716 15.7238C2.64519 16.1013 2.17072 16.4364 1.83284 16.511C1.36107 16.6162 0.788661 16.4005 0.367214 16.1696C0.179405 16.068 -0.0704081 16.2343 0.0185541 16.4284C0.236017 16.9037 0.675437 17.4465 1.55517 17.5561C2.43581 17.6648 3.14212 17.2443 3.84663 16.8237C4.37051 16.511 4.8935 16.1983 5.48748 16.1058C5.56476 16.0941 5.61688 16.1848 5.58184 16.2549C5.36437 16.6899 5.26193 17.486 5.77773 17.8886C6.53975 18.4835 8.68653 18.151 9.21761 17.9677C9.26249 17.963 9.30695 17.9549 9.3506 17.9434L10.9951 17.5327C11.4196 17.4266 11.8073 17.207 12.1165 16.8974L17.421 11.5938C17.7963 11.2066 18.0042 10.6873 17.9999 10.148C17.9957 9.60875 17.7795 9.09281 17.3981 8.71154C17.0167 8.33028 16.5007 8.11428 15.9615 8.11016C15.4222 8.10605 14.903 8.31415 14.5158 8.68954V8.68864Z" fill="var(--fill-0, #212121)"/>
</svg>
