<svg preserveAspectRatio="none" width="100%" height="100%" overflow="visible" style="display: block;" viewBox="0 0 15 18.0005" fill="none" xmlns="http://www.w3.org/2000/svg">
<path id="Vector" d="M14.2322 0.187976C13.9979 0.0581613 13.7332 -0.00656336 13.4654 0.000525649C13.1977 0.00761466 12.9368 0.0862588 12.7097 0.228289L1.5 7.24079V0.750476C1.5 0.551564 1.42098 0.360799 1.28033 0.220146C1.13968 0.0794941 0.948912 0.000476297 0.75 0.000476297C0.551088 0.000476297 0.360322 0.0794941 0.21967 0.220146C0.0790178 0.360799 0 0.551564 0 0.750476V17.2505C0 17.4494 0.0790178 17.6402 0.21967 17.7808C0.360322 17.9215 0.551088 18.0005 0.75 18.0005C0.948912 18.0005 1.13968 17.9215 1.28033 17.7808C1.42098 17.6402 1.5 17.4494 1.5 17.2505V10.7602L12.7097 17.7708C12.9354 17.9125 13.195 17.9913 13.4614 17.999C13.7278 18.0067 13.9915 17.9431 14.2251 17.8147C14.4586 17.6863 14.6536 17.4978 14.7899 17.2687C14.9261 17.0396 14.9987 16.7783 15 16.5117V1.48923C15 1.22351 14.9287 0.962656 14.7937 0.733808C14.6587 0.50496 14.4648 0.316479 14.2322 0.187976ZM13.5 16.5005L1.515 9.00048L13.5 1.50704V16.5005Z" fill="var(--fill-0, #212121)"/>
</svg>
