<svg preserveAspectRatio="none" width="100%" height="100%" overflow="visible" style="display: block;" viewBox="0 0 19.125 19.125" fill="none" xmlns="http://www.w3.org/2000/svg">
<path id="Vector" d="M13.71 6.915C13.8153 7.02047 13.8745 7.16344 13.8745 7.3125C13.8745 7.46156 13.8153 7.60453 13.71 7.71L8.46 12.96C8.35454 13.0653 8.21157 13.1245 8.0625 13.1245C7.91344 13.1245 7.77047 13.0653 7.665 12.96L5.415 10.71C5.31564 10.6034 5.26155 10.4623 5.26412 10.3166C5.26669 10.1709 5.32573 10.0318 5.42879 9.92878C5.53185 9.82572 5.67089 9.76669 5.81661 9.76412C5.96234 9.76155 6.10337 9.81564 6.21 9.915L8.0625 11.7666L12.915 6.915C13.0205 6.80966 13.1634 6.75049 13.3125 6.75049C13.4616 6.75049 13.6045 6.80966 13.71 6.915ZM19.125 9.5625C19.125 11.4538 18.5642 13.3026 17.5134 14.8751C16.4627 16.4477 14.9692 17.6733 13.2219 18.3971C11.4746 19.1209 9.5519 19.3102 7.69695 18.9413C5.84201 18.5723 4.13814 17.6615 2.8008 16.3242C1.46346 14.9869 0.552716 13.283 0.183745 11.4281C-0.185226 9.57311 0.00414312 7.65041 0.727906 5.90309C1.45167 4.15577 2.67732 2.66231 4.24986 1.61157C5.82241 0.560831 7.67122 0 9.5625 0C12.0977 0.00297736 14.5283 1.01141 16.3209 2.80408C18.1136 4.59675 19.122 7.02728 19.125 9.5625ZM18 9.5625C18 7.89372 17.5052 6.26242 16.578 4.87488C15.6509 3.48734 14.3331 2.40588 12.7914 1.76727C11.2496 1.12865 9.55314 0.961561 7.91643 1.28712C6.27972 1.61269 4.7763 2.41628 3.59629 3.59629C2.41629 4.77629 1.61269 6.27971 1.28713 7.91643C0.961566 9.55314 1.12866 11.2496 1.76727 12.7914C2.40589 14.3331 3.48734 15.6509 4.87488 16.578C6.26242 17.5051 7.89372 18 9.5625 18C11.7995 17.9975 13.9442 17.1078 15.526 15.526C17.1078 13.9442 17.9975 11.7995 18 9.5625Z" fill="var(--fill-0, #212121)"/>
</svg>
