<svg preserveAspectRatio="none" width="100%" height="100%" overflow="visible" style="display: block;" viewBox="0 0 20 20" fill="none" xmlns="http://www.w3.org/2000/svg">
<path id="Vector" fill-rule="evenodd" clip-rule="evenodd" d="M1.569 1.886C1.79162 1.32934 2.17592 0.852156 2.67233 0.51599C3.16874 0.179824 3.75448 9.96995e-05 4.354 0H15.646C16.2455 9.96995e-05 16.8313 0.179824 17.3277 0.51599C17.8241 0.852156 18.2084 1.32934 18.431 1.886L19.326 4.122C19.5815 4.76113 19.6094 5.46867 19.4051 6.12596C19.2009 6.78325 18.7768 7.3503 18.204 7.732L18 7.87V18H19C19.2652 18 19.5196 18.1054 19.7071 18.2929C19.8946 18.4804 20 18.7348 20 19C20 19.2652 19.8946 19.5196 19.7071 19.7071C19.5196 19.8946 19.2652 20 19 20H1C0.734784 20 0.48043 19.8946 0.292893 19.7071C0.105357 19.5196 0 19.2652 0 19C0 18.7348 0.105357 18.4804 0.292893 18.2929C0.48043 18.1054 0.734784 18 1 18H2V7.869L1.796 7.732C1.22323 7.3503 0.79914 6.78325 0.594853 6.12596C0.390566 5.46867 0.418511 4.76113 0.674 4.122L1.569 1.886ZM4 8.596V18H7V14C7 13.2044 7.31607 12.4413 7.87868 11.8787C8.44129 11.3161 9.20435 11 10 11C10.7956 11 11.5587 11.3161 12.1213 11.8787C12.6839 12.4413 13 13.2044 13 14V18H16V8.596C15.42 8.596 14.84 8.428 14.336 8.092L13 7.202L11.664 8.092C11.1712 8.42049 10.5922 8.59578 10 8.59578C9.40777 8.59578 8.82878 8.42049 8.336 8.092L7 7.202L5.664 8.092C5.17132 8.42073 4.59228 8.59611 4 8.596ZM11 18V14C11 13.7348 10.8946 13.4804 10.7071 13.2929C10.5196 13.1054 10.2652 13 10 13C9.73478 13 9.48043 13.1054 9.29289 13.2929C9.10536 13.4804 9 13.7348 9 14V18H11Z" fill="var(--fill-0, #212121)"/>
</svg>
