<svg preserveAspectRatio="none" width="100%" height="100%" overflow="visible" style="display: block;" viewBox="0 0 18.0225 18" fill="none" xmlns="http://www.w3.org/2000/svg">
<path id="Vector" d="M15.795 17.235L9.0225 10.4625L6.39 13.095C6.555 13.35 6.65625 13.5975 6.69375 13.8375C6.73125 14.0775 6.75 14.34 6.75 14.625C6.75 15.585 6.4275 16.3875 5.7825 17.0325C5.1375 17.6775 4.335 18 3.375 18C2.415 18 1.6125 17.6775 0.9675 17.0325C0.3225 16.3875 0 15.585 0 14.625C0 13.665 0.3225 12.8625 0.9675 12.2175C1.6125 11.5725 2.415 11.25 3.375 11.25C3.645 11.25 3.91125 11.2875 4.17375 11.3625C4.43625 11.4375 4.71 11.55 4.995 11.7L7.605 9.09L4.95 6.435C4.695 6.555 4.43625 6.6375 4.17375 6.6825C3.91125 6.7275 3.645 6.75 3.375 6.75C2.415 6.75 1.6125 6.4275 0.9675 5.7825C0.3225 5.1375 0 4.335 0 3.375C0 2.415 0.3225 1.6125 0.9675 0.9675C1.6125 0.3225 2.415 0 3.375 0C4.335 0 5.1375 0.3225 5.7825 0.9675C6.4275 1.6125 6.75 2.415 6.75 3.375C6.75 3.66 6.73125 3.93 6.69375 4.185C6.65625 4.44 6.5775 4.68 6.4575 4.905L18.0225 16.47V17.235H15.795ZM11.6775 7.9425L10.1925 6.4575L15.795 0.855H18.0225V1.5975L11.6775 7.9425ZM3.375 5.4C3.945 5.4 4.425 5.205 4.815 4.815C5.205 4.425 5.4 3.945 5.4 3.375C5.4 2.805 5.205 2.325 4.815 1.935C4.425 1.545 3.945 1.35 3.375 1.35C2.805 1.35 2.325 1.545 1.935 1.935C1.545 2.325 1.35 2.805 1.35 3.375C1.35 3.945 1.545 4.425 1.935 4.815C2.325 5.205 2.805 5.4 3.375 5.4ZM9.0675 9.5175C9.1875 9.5175 9.28875 9.47625 9.37125 9.39375C9.45375 9.31125 9.495 9.21 9.495 9.09C9.495 8.97 9.45375 8.86875 9.37125 8.78625C9.28875 8.70375 9.1875 8.6625 9.0675 8.6625C8.9475 8.6625 8.84625 8.70375 8.76375 8.78625C8.68125 8.86875 8.64 8.97 8.64 9.09C8.64 9.21 8.68125 9.31125 8.76375 9.39375C8.84625 9.47625 8.9475 9.5175 9.0675 9.5175ZM3.375 16.65C3.945 16.65 4.425 16.455 4.815 16.065C5.205 15.675 5.4 15.195 5.4 14.625C5.4 14.055 5.205 13.575 4.815 13.185C4.425 12.795 3.945 12.6 3.375 12.6C2.805 12.6 2.325 12.795 1.935 13.185C1.545 13.575 1.35 14.055 1.35 14.625C1.35 15.195 1.545 15.675 1.935 16.065C2.325 16.455 2.805 16.65 3.375 16.65Z" fill="var(--fill-0, #212121)"/>
</svg>
