<svg preserveAspectRatio="none" width="100%" height="100%" overflow="visible" style="display: block;" viewBox="0 0 200 195.225" fill="none" xmlns="http://www.w3.org/2000/svg">
<g id="Frame" clip-path="url(#clip0_9964_88068)">
<path id="Vector" d="M126.968 43.9055H73.0769C71.8488 43.907 70.6715 44.3955 69.8031 45.2639C68.9347 46.1322 68.4462 47.3096 68.4447 48.5377V168.312L67.827 168.5L54.6066 172.549C53.9801 172.74 53.3033 172.674 52.7249 172.367C52.1466 172.059 51.7138 171.535 51.5217 170.909L12.197 42.4571C12.0056 41.8306 12.0709 41.1536 12.3784 40.5752C12.6858 39.9967 13.2104 39.5639 13.8368 39.372L34.2094 33.134L93.2704 15.0559L113.643 8.81786C113.953 8.72244 114.279 8.68909 114.602 8.71973C114.925 8.75037 115.238 8.8444 115.525 8.99642C115.811 9.14845 116.065 9.35549 116.272 9.60569C116.478 9.8559 116.633 10.1444 116.728 10.4546L126.78 43.2878L126.968 43.9055Z" fill="var(--fill-0, #FAFAFA)"/>
<path id="Vector_2" d="M138.728 43.2878L126.613 3.71623C126.412 3.05689 126.082 2.44373 125.643 1.91179C125.205 1.37985 124.666 0.939551 124.057 0.616054C123.448 0.292557 122.781 0.0921986 122.095 0.0264367C121.409 -0.0393251 120.716 0.0307978 120.057 0.232791L91.4143 9.00006L32.3566 27.0812L3.71394 35.8516C2.38336 36.2601 1.26924 37.1799 0.616138 38.4091C-0.0369633 39.6383 -0.175691 41.0764 0.230411 42.4077L41.6364 177.647C41.9663 178.722 42.632 179.663 43.5357 180.331C44.4394 181 45.5336 181.361 46.6578 181.362C47.1781 181.362 47.6955 181.284 48.1925 181.131L67.827 175.121L68.4447 174.93V174.284L67.827 174.473L48.0104 180.541C46.8359 180.899 45.5674 180.776 44.483 180.2C43.3987 179.624 42.5871 178.642 42.2263 177.468L0.823463 42.2255C0.644687 41.644 0.582379 41.0329 0.640104 40.4273C0.697829 39.8216 0.87445 39.2333 1.15986 38.696C1.44528 38.1587 1.83388 37.683 2.3034 37.2962C2.77292 36.9093 3.31415 36.6188 3.89609 36.4414L32.5387 27.671L91.5966 9.59299L120.239 0.822634C120.681 0.687929 121.14 0.619245 121.601 0.618815C122.591 0.621039 123.555 0.94034 124.351 1.52995C125.147 2.11956 125.733 2.9485 126.023 3.89535L138.083 43.2878L138.274 43.9055H138.916L138.728 43.2878Z" fill="var(--fill-0, #E0E0E0)"/>
<path id="Vector_3" d="M186.103 179.784H81.7238C81.0279 179.783 80.3607 179.507 79.8686 179.014C79.3765 178.522 79.0997 177.855 79.0989 177.159V52.0891C79.0996 51.3931 79.3765 50.7259 79.8686 50.2338C80.3607 49.7417 81.0279 49.4649 81.7238 49.4641H186.103C186.799 49.4649 187.466 49.7417 187.959 50.2338C188.451 50.7259 188.728 51.3931 188.728 52.0891V177.159C188.727 177.855 188.451 178.522 187.959 179.014C187.466 179.507 186.799 179.783 186.103 179.784Z" fill="var(--fill-0, #FAFAFA)"/>
<path id="Vector_4" d="M138.083 43.2878H73.0769C71.6852 43.2898 70.351 43.8435 69.3669 44.8276C68.3828 45.8118 67.829 47.1459 67.827 48.5377V174.473L68.4447 174.284V48.5377C68.4462 47.3096 68.9347 46.1322 69.8031 45.2639C70.6715 44.3955 71.8488 43.9069 73.0769 43.9055H138.274L138.083 43.2878ZM194.75 43.2878H73.0769C71.6852 43.2898 70.351 43.8435 69.3669 44.8276C68.3828 45.8118 67.829 47.1459 67.827 48.5377V189.975C67.829 191.367 68.3828 192.701 69.3669 193.685C70.351 194.669 71.6852 195.223 73.0769 195.225H194.75C196.142 195.223 197.476 194.669 198.46 193.685C199.444 192.701 199.998 191.367 200 189.975V48.5377C199.998 47.1459 199.444 45.8118 198.46 44.8276C197.476 43.8435 196.142 43.2898 194.75 43.2878ZM199.382 189.975C199.381 191.203 198.892 192.381 198.024 193.249C197.156 194.117 195.978 194.606 194.75 194.607H73.0769C71.8488 194.606 70.6715 194.117 69.8031 193.249C68.9347 192.381 68.4462 191.203 68.4447 189.975V48.5377C68.4462 47.3096 68.9347 46.1322 69.8031 45.2639C70.6715 44.3955 71.8488 43.9069 73.0769 43.9055H194.75C195.978 43.9069 197.156 44.3955 198.024 45.2639C198.892 46.1322 199.381 47.3096 199.382 48.5377V189.975Z" fill="var(--fill-0, #E0E0E0)"/>
<path id="Vector_5" d="M162.325 56.8757H105.503C104.766 56.8749 104.059 56.5818 103.538 56.0607C103.017 55.5397 102.724 54.8332 102.723 54.0964V40.5085C102.724 39.7716 103.017 39.0652 103.538 38.5441C104.059 38.0231 104.766 37.73 105.503 37.7291H162.325C163.061 37.73 163.768 38.0231 164.289 38.5441C164.81 39.0652 165.103 39.7716 165.104 40.5085V54.0964C165.103 54.8332 164.81 55.5397 164.289 56.0607C163.768 56.5818 163.061 56.8749 162.325 56.8757Z" fill="var(--fill-0, #FF6347)"/>
<path id="Vector_6" d="M133.914 38.6556C137.325 38.6556 140.09 35.8904 140.09 32.4793C140.09 29.0682 137.325 26.303 133.914 26.303C130.502 26.303 127.737 29.0682 127.737 32.4793C127.737 35.8904 130.502 38.6556 133.914 38.6556Z" fill="var(--fill-0, #FF6347)"/>
<path id="Vector_7" d="M133.914 36.2412C135.991 36.2412 137.675 34.557 137.675 32.4793C137.675 30.4016 135.991 28.7173 133.914 28.7173C131.836 28.7173 130.152 30.4016 130.152 32.4793C130.152 34.557 131.836 36.2412 133.914 36.2412Z" fill="var(--fill-0, #FAFAFA)"/>
<path id="Vector_8" d="M37.8858 39.473C37.2905 39.4726 36.7111 39.2814 36.2325 38.9276C35.7539 38.5737 35.4013 38.0758 35.2264 37.5069L31.2488 24.5145C31.1419 24.1655 31.1048 23.7988 31.1396 23.4355C31.1745 23.0722 31.2805 22.7193 31.4518 22.3969C31.623 22.0746 31.8561 21.7891 32.1376 21.5569C32.4192 21.3246 32.7438 21.1501 33.0928 21.0433L87.4255 4.40936C88.1303 4.19428 88.8916 4.26764 89.5425 4.61332C90.1933 4.95901 90.6803 5.54878 90.8968 6.25321L94.8744 19.2458C95.0894 19.9506 95.0159 20.7119 94.6703 21.3627C94.3246 22.0135 93.7349 22.5005 93.0306 22.7171L38.6978 39.351C38.4346 39.4318 38.161 39.4729 37.8858 39.473Z" fill="var(--fill-0, #FF6347)"/>
<path id="Vector_9" d="M58.7223 13.8827C62.1334 13.8827 64.8986 11.1175 64.8986 7.70638C64.8986 4.2953 62.1334 1.53007 58.7223 1.53007C55.3112 1.53007 52.546 4.2953 52.546 7.70638C52.546 11.1175 55.3112 13.8827 58.7223 13.8827Z" fill="var(--fill-0, #FF6347)"/>
<path id="Vector_10" d="M58.7223 11.6174C60.8823 11.6174 62.6333 9.86638 62.6333 7.70638C62.6333 5.54638 60.8823 3.79535 58.7223 3.79535C56.5623 3.79535 54.8113 5.54638 54.8113 7.70638C54.8113 9.86638 56.5623 11.6174 58.7223 11.6174Z" fill="var(--fill-0, #FAFAFA)"/>
</g>
<defs>
<clipPath id="clip0_9964_88068">
<rect width="200" height="195.225" fill="white"/>
</clipPath>
</defs>
</svg>
