<svg preserveAspectRatio="none" width="100%" height="100%" overflow="visible" style="display: block;" viewBox="0 0 22.4986 16.5" fill="none" xmlns="http://www.w3.org/2000/svg">
<path id="Vector" d="M20.2486 15.75C20.2486 15.9489 20.1696 16.1397 20.029 16.2803C19.8883 16.421 19.6976 16.5 19.4986 16.5H5.99864C5.79973 16.5 5.60896 16.421 5.46831 16.2803C5.32766 16.1397 5.24864 15.9489 5.24864 15.75C5.24864 15.5511 5.32766 15.3603 5.46831 15.2197C5.60896 15.079 5.79973 15 5.99864 15H19.4986C19.6976 15 19.8883 15.079 20.029 15.2197C20.1696 15.3603 20.2486 15.5511 20.2486 15.75ZM18.7486 4.5H13.0599L8.77927 0.219375C8.70956 0.149749 8.62683 0.0945388 8.53578 0.0568978C8.44473 0.0192567 8.34716 -7.72394e-05 8.24864 2.31901e-07H7.49864C7.26103 0.000131117 7.02685 0.0567082 6.81539 0.165072C6.60392 0.273435 6.42123 0.430484 6.28235 0.623284C6.14347 0.816084 6.05239 1.03912 6.01659 1.27402C5.98079 1.50892 6.00131 1.74896 6.07645 1.97437L6.9202 4.5H4.80989L2.77927 2.46937C2.70956 2.39975 2.62683 2.34454 2.53578 2.3069C2.44473 2.26926 2.34716 2.24992 2.24864 2.25H1.49864C1.2649 2.25021 1.03444 2.30505 0.825647 2.41013C0.616857 2.51521 0.435513 2.66764 0.296084 2.85524C0.156655 3.04285 0.0629992 3.26044 0.0225878 3.49067C-0.0178236 3.72089 -0.00387219 3.95737 0.0633293 4.18125L1.38239 8.57719C1.61069 9.35165 2.08434 10.031 2.73207 10.513C3.3798 10.9951 4.16656 11.2537 4.97395 11.25H21.7486C21.9476 11.25 22.1383 11.171 22.279 11.0303C22.4196 10.8897 22.4986 10.6989 22.4986 10.5V8.25C22.4986 7.25544 22.1036 6.30161 21.4003 5.59835C20.697 4.89509 19.7432 4.5 18.7486 4.5Z" fill="var(--fill-0, #212121)"/>
</svg>
