<svg preserveAspectRatio="none" width="100%" height="100%" overflow="visible" style="display: block;" viewBox="0 0 19 20.2937" fill="none" xmlns="http://www.w3.org/2000/svg">
<g id="Group">
<path id="Vector" fill-rule="evenodd" clip-rule="evenodd" d="M2.67949 7.45947C3.08308 7.45947 3.41026 7.78665 3.41026 8.19024V18.8322H15.5897V8.19024C15.5897 7.78665 15.9169 7.45947 16.3205 7.45947C16.7241 7.45947 17.0513 7.78665 17.0513 8.19024V18.8322H18.2692C18.6728 18.8322 19 19.1594 19 19.563C19 19.9666 18.6728 20.2937 18.2692 20.2937H0.730769C0.327177 20.2937 1.97526e-09 19.9666 1.97526e-09 19.563C1.97526e-09 19.1594 0.327177 18.8322 0.730769 18.8322H1.94872V8.19024C1.94872 7.78665 2.27589 7.45947 2.67949 7.45947Z" fill="var(--fill-0, #212121)"/>
<path id="Vector_2" fill-rule="evenodd" clip-rule="evenodd" d="M7.05546 12.0555C7.57118 11.5397 8.27065 11.25 9 11.25C9.72935 11.25 10.4288 11.5397 10.9445 12.0555C11.4603 12.5712 11.75 13.2707 11.75 14V19H10.25V14C10.25 13.6685 10.1183 13.3505 9.88388 13.1161C9.64946 12.8817 9.33152 12.75 9 12.75C8.66848 12.75 8.35054 12.8817 8.11612 13.1161C7.8817 13.3505 7.75 13.6685 7.75 14V19H6.25V14C6.25 13.2707 6.53973 12.5712 7.05546 12.0555Z" fill="var(--fill-0, #212121)"/>
<path id="Vector_3" fill-rule="evenodd" clip-rule="evenodd" d="M3.40283 0.0280123C2.56953 0.127375 1.77953 0.615736 1.34123 1.30256C1.1735 1.56535 0.168669 4.03032 0.0614677 4.44187C-0.0214293 4.76023 -0.0202907 5.45542 0.0637448 5.78705C0.176332 6.23149 0.451035 6.73303 0.753152 7.04566C1.13033 7.43597 2.01285 8.00793 2.4703 8.15853C2.764 8.25517 2.90541 8.27492 3.32576 8.27786C4.10958 8.28338 4.37574 8.17972 5.5166 7.42458L6.42588 6.82272L7.25034 7.37282C7.7038 7.67538 8.19531 7.97933 8.34254 8.04822C9.0513 8.37989 9.91627 8.38138 10.6423 8.05211C10.797 7.98196 11.2951 7.67665 11.7492 7.37365L12.5748 6.82272L13.4937 7.43093C14.6279 8.18169 14.8569 8.27243 15.6311 8.27786C16.0731 8.28097 16.1817 8.26603 16.5181 8.15572C17.0031 7.99676 17.857 7.44976 18.2418 7.05161C18.5526 6.72997 18.8384 6.21537 18.9358 5.8022C19.02 5.44539 19.0217 4.75844 18.9392 4.44196C18.8524 4.10871 17.9394 1.83042 17.7405 1.45097C17.5166 1.0237 17.063 0.579695 16.6092 0.343572C15.9186 -0.0157352 16.4371 0.00997027 9.6974 0.000905469C6.39772 -0.00351745 3.56517 0.00870033 3.40283 0.0280123ZM3.17249 1.6627C2.74334 1.86344 2.65295 2.01237 2.06339 3.49094C1.56084 4.75117 1.53036 4.84519 1.53075 5.13136C1.53145 5.64863 1.73811 5.96327 2.34046 6.36435C2.85106 6.70435 2.96374 6.74718 3.34766 6.74718C3.78132 6.74718 3.75505 6.76049 5.1332 5.84389L6.18976 5.14126L6.45465 5.15887C6.71438 5.17612 6.74074 5.19061 7.79247 5.89522C8.89299 6.63249 9.15776 6.76776 9.50034 6.76776C9.84292 6.76776 10.1077 6.63249 11.2082 5.89522C12.2599 5.19061 12.2863 5.17612 12.546 5.15887L12.8109 5.14126L13.8675 5.84389C15.2456 6.76049 15.2194 6.74718 15.653 6.74718C16.0369 6.74718 16.1496 6.70435 16.6602 6.36435C17.2681 5.95959 17.4692 5.64999 17.4699 5.11783C17.4704 4.81585 17.4471 4.74267 16.9861 3.58925C16.7197 2.92297 16.4652 2.307 16.4205 2.22042C16.3089 2.00431 16.0425 1.75707 15.8063 1.65039C15.6112 1.56224 15.5476 1.56137 9.50034 1.56084L3.39145 1.56031L3.17249 1.6627Z" fill="var(--fill-0, #212121)"/>
</g>
</svg>
