<svg preserveAspectRatio="none" width="100%" height="100%" overflow="visible" style="display: block;" viewBox="0 0 19.4956 19.4927" fill="none" xmlns="http://www.w3.org/2000/svg">
<path id="Vector" d="M18.4958 6.19984L2.00333 0.0864022L1.98833 0.0817147C1.72286 -0.00968893 1.43707 -0.0247516 1.16346 0.0382404C0.889855 0.101233 0.63942 0.23975 0.440646 0.438036C0.241871 0.636322 0.102738 0.886416 0.0390727 1.15987C-0.0245923 1.43332 -0.0102325 1.71915 0.0805178 1.98484C0.0816578 1.98996 0.0832257 1.99498 0.0852052 1.99984L6.20333 18.4923C6.30382 18.7864 6.4944 19.0413 6.74803 19.2209C7.00165 19.4005 7.3054 19.4956 7.61614 19.4927H7.64427C7.96115 19.4902 8.26887 19.3861 8.52206 19.1955C8.77525 19.0049 8.9605 18.7381 9.05052 18.4342L11.2593 11.2567L18.4368 9.04796C18.7384 8.95516 19.003 8.76961 19.193 8.51771C19.3831 8.26581 19.4889 7.96039 19.4953 7.64491C19.5017 7.32943 19.4085 7.01995 19.2289 6.76051C19.0493 6.50107 18.7924 6.30487 18.4949 6.19984H18.4958ZM17.9961 7.61453L10.8186 9.82328C10.585 9.89526 10.3725 10.0233 10.1996 10.1961C10.0267 10.369 9.89875 10.5815 9.82677 10.8152L7.61802 17.9927L7.61239 17.9767L1.49614 1.49265L17.9793 7.60703L17.9943 7.61265L17.9961 7.61453Z" fill="var(--fill-0, #212121)"/>
</svg>
