<svg preserveAspectRatio="none" width="100%" height="100%" overflow="visible" style="display: block;" viewBox="0 0 18.0028 18.7492" fill="none" xmlns="http://www.w3.org/2000/svg">
<path id="Vector" d="M0.25875 1.68665C0.178065 1.75659 0.113243 1.84295 0.0686202 1.93995C0.0239975 2.03696 0.000602508 2.14238 0 2.24915V17.9992C0 18.1981 0.0790178 18.3888 0.21967 18.5295C0.360322 18.6701 0.551088 18.7492 0.75 18.7492C0.948912 18.7492 1.13968 18.6701 1.28033 18.5295C1.42098 18.3888 1.5 18.1981 1.5 17.9992V13.8526C4.01156 11.8688 6.17531 12.9385 8.66719 14.1723C10.2047 14.9326 11.8603 15.752 13.6359 15.752C14.9419 15.752 16.3116 15.3067 17.7441 14.0645C17.8247 13.9945 17.8896 13.9082 17.9342 13.8112C17.9788 13.7142 18.0022 13.6087 18.0028 13.502V2.24915C18.0025 2.10519 17.9607 1.96438 17.8825 1.84351C17.8043 1.72265 17.693 1.62684 17.5618 1.56753C17.4306 1.50822 17.2852 1.48792 17.1428 1.50904C17.0004 1.53016 16.8671 1.59182 16.7587 1.68665C14.1337 3.95821 11.91 2.85759 9.33281 1.58165C6.66281 0.257901 3.63562 -1.23929 0.25875 1.68665ZM16.5 13.1476C13.9884 15.1313 11.8247 14.0607 9.33281 12.8279C6.98906 11.6701 4.38187 10.3782 1.5 12.0404V2.60446C4.01156 0.620714 6.17531 1.6904 8.66719 2.92321C11.0109 4.08103 13.6191 5.3729 16.5 3.71071V13.1476Z" fill="var(--fill-0, #FF981F)"/>
</svg>
