<svg preserveAspectRatio="none" width="100%" height="100%" overflow="visible" style="display: block;" viewBox="0 0 20 19.9945" fill="none" xmlns="http://www.w3.org/2000/svg">
<path id="Vector" d="M2.5 0.75C2.5 0.551088 2.42098 0.360322 2.28033 0.21967C2.13968 0.0790175 1.94891 0 1.75 0C1.55109 0 1.36032 0.0790175 1.21967 0.21967C1.07902 0.360322 1 0.551088 1 0.75C1 2.02 1.928 2.667 2.506 3.07L2.57 3.114C3.25 3.59 3.5 3.819 3.5 4.25C3.5 4.44891 3.57902 4.63968 3.71967 4.78033C3.86032 4.92098 4.05109 5 4.25 5C4.44891 5 4.63968 4.92098 4.78033 4.78033C4.92098 4.63968 5 4.44891 5 4.25C5 2.98 4.072 2.333 3.494 1.93L3.43 1.886C2.75 1.41 2.5 1.18 2.5 0.75ZM2.74902e-07 7.821C-0.000131176 7.58183 0.0468806 7.34497 0.138348 7.12398C0.229815 6.90298 0.363944 6.70219 0.533066 6.53307C0.702187 6.36394 0.902985 6.22981 1.12398 6.13835C1.34497 6.04688 1.58183 5.99987 1.821 6H14.18C14.4191 6 14.6558 6.04711 14.8767 6.13863C15.0976 6.23016 15.2983 6.36431 15.4673 6.53342C15.6363 6.70253 15.7703 6.90328 15.8617 7.12421C15.9532 7.34514 16.0001 7.58191 16 7.821V8.5H16.75C17.612 8.5 18.4386 8.84241 19.0481 9.4519C19.6576 10.0614 20 10.888 20 11.75C20 12.612 19.6576 13.4386 19.0481 14.0481C18.4386 14.6576 17.612 15 16.75 15H15.419C14.7214 16.7197 13.4477 18.1435 11.8161 19.0277C10.1845 19.912 8.29623 20.2017 6.47455 19.8472C4.65288 19.4928 3.01101 18.5163 1.82992 17.0848C0.64884 15.6533 0.0019642 13.8558 2.74902e-07 12V7.821ZM14.5 7.821C14.5 7.73587 14.4662 7.65422 14.406 7.59402C14.3458 7.53382 14.2641 7.5 14.179 7.5H1.82C1.73487 7.5 1.65322 7.53382 1.59302 7.59402C1.53282 7.65422 1.499 7.73587 1.499 7.821V12C1.499 13.7239 2.18382 15.3772 3.40281 16.5962C4.62179 17.8152 6.27509 18.5 7.999 18.5C9.72291 18.5 11.3762 17.8152 12.5952 16.5962C13.8142 15.3772 14.499 13.7239 14.499 12L14.5 7.821ZM16.75 10H16V12C16.0004 12.5033 15.9535 13.0055 15.86 13.5H16.75C16.9798 13.5 17.2074 13.4547 17.4197 13.3668C17.632 13.2788 17.8249 13.1499 17.9874 12.9874C18.1499 12.8249 18.2788 12.632 18.3668 12.4197C18.4547 12.2074 18.5 11.9798 18.5 11.75C18.5 11.5202 18.4547 11.2926 18.3668 11.0803C18.2788 10.868 18.1499 10.6751 17.9874 10.5126C17.8249 10.3501 17.632 10.2212 17.4197 10.1332C17.2074 10.0453 16.9798 10 16.75 10ZM5.75 0C5.94891 0 6.13968 0.0790175 6.28033 0.21967C6.42098 0.360322 6.5 0.551088 6.5 0.75C6.5 1.181 6.75 1.41 7.43 1.886L7.494 1.93C8.072 2.333 9 2.98 9 4.25C9 4.44891 8.92098 4.63968 8.78033 4.78033C8.63968 4.92098 8.44891 5 8.25 5C8.05109 5 7.86032 4.92098 7.71967 4.78033C7.57902 4.63968 7.5 4.44891 7.5 4.25C7.5 3.819 7.25 3.59 6.57 3.114L6.506 3.07C5.928 2.667 5 2.02 5 0.75C5 0.551088 5.07902 0.360322 5.21967 0.21967C5.36032 0.0790175 5.55109 0 5.75 0ZM10.5 0.75C10.5 0.551088 10.421 0.360322 10.2803 0.21967C10.1397 0.0790175 9.94891 0 9.75 0C9.55109 0 9.36032 0.0790175 9.21967 0.21967C9.07902 0.360322 9 0.551088 9 0.75C9 2.02 9.928 2.667 10.506 3.07L10.57 3.114C11.25 3.59 11.5 3.819 11.5 4.25C11.5 4.44891 11.579 4.63968 11.7197 4.78033C11.8603 4.92098 12.0511 5 12.25 5C12.4489 5 12.6397 4.92098 12.7803 4.78033C12.921 4.63968 13 4.44891 13 4.25C13 2.98 12.072 2.333 11.494 1.93L11.43 1.886C10.75 1.41 10.5 1.181 10.5 0.75Z" fill="var(--fill-0, #212121)"/>
</svg>
