<svg preserveAspectRatio="none" width="100%" height="100%" overflow="visible" style="display: block;" viewBox="0 0 18.75 13.7504" fill="none" xmlns="http://www.w3.org/2000/svg">
<path id="Vector" d="M18.125 9.3754H14.9648C14.9879 9.16786 14.9996 8.95922 15 8.7504C15 7.25856 14.4074 5.82782 13.3525 4.77293C12.2976 3.71803 10.8668 3.1254 9.375 3.1254C7.88316 3.1254 6.45242 3.71803 5.39752 4.77293C4.34263 5.82782 3.75 7.25856 3.75 8.7504C3.75035 8.95922 3.76209 9.16786 3.78516 9.3754H0.625C0.45924 9.3754 0.300268 9.44125 0.183058 9.55846C0.065848 9.67567 0 9.83464 0 10.0004C0 10.1662 0.065848 10.3251 0.183058 10.4423C0.300268 10.5596 0.45924 10.6254 0.625 10.6254H18.125C18.2908 10.6254 18.4497 10.5596 18.5669 10.4423C18.6842 10.3251 18.75 10.1662 18.75 10.0004C18.75 9.83464 18.6842 9.67567 18.5669 9.55846C18.4497 9.44125 18.2908 9.3754 18.125 9.3754ZM5 8.7504C4.99885 8.14877 5.12181 7.55336 5.36118 7.00139C5.60055 6.44942 5.95119 5.95276 6.39119 5.54244C6.83119 5.13211 7.35109 4.81695 7.91841 4.61665C8.48572 4.41634 9.08825 4.3352 9.68834 4.37829C10.2884 4.42138 10.8732 4.58778 11.4061 4.86709C11.9389 5.14639 12.4085 5.5326 12.7853 6.00158C13.1622 6.47056 13.4383 7.01223 13.5963 7.59273C13.7544 8.17324 13.791 8.7801 13.7039 9.3754H5.04609C5.01584 9.16843 5.00044 8.95957 5 8.7504ZM16.25 13.1254C16.25 13.2912 16.1842 13.4501 16.0669 13.5673C15.9497 13.6846 15.7908 13.7504 15.625 13.7504H3.125C2.95924 13.7504 2.80027 13.6846 2.68306 13.5673C2.56585 13.4501 2.5 13.2912 2.5 13.1254C2.5 12.9596 2.56585 12.8007 2.68306 12.6835C2.80027 12.5662 2.95924 12.5004 3.125 12.5004H15.625C15.7908 12.5004 15.9497 12.5662 16.0669 12.6835C16.1842 12.8007 16.25 12.9596 16.25 13.1254ZM5.06562 0.905088C4.99145 0.756733 4.97924 0.584987 5.03169 0.427632C5.08414 0.270277 5.19696 0.140204 5.34531 0.0660258C5.49367 -0.00815195 5.66541 -0.0203575 5.82277 0.0320941C5.98012 0.0845456 6.1102 0.197358 6.18438 0.345713L6.80938 1.59571C6.8461 1.66917 6.868 1.74914 6.87383 1.83107C6.87965 1.91299 6.86928 1.99526 6.84331 2.07317C6.81734 2.15108 6.77627 2.22312 6.72246 2.28516C6.66865 2.34721 6.60315 2.39805 6.52969 2.43478C6.45623 2.4715 6.37626 2.49341 6.29433 2.49923C6.21241 2.50505 6.13015 2.49468 6.05223 2.46871C5.97432 2.44274 5.90228 2.40167 5.84024 2.34786C5.77819 2.29405 5.72735 2.22855 5.69062 2.15509L5.06562 0.905088ZM0.690625 4.72071C0.727383 4.64729 0.778249 4.58182 0.840318 4.52806C0.902387 4.4743 0.974441 4.4333 1.05236 4.4074C1.13029 4.38149 1.21255 4.3712 1.29445 4.37711C1.37635 4.38301 1.45629 4.405 1.52969 4.44181L2.77969 5.06681C2.92794 5.14098 3.04065 5.27102 3.09303 5.4283C3.14541 5.58558 3.13316 5.75723 3.05898 5.90548C2.98481 6.05373 2.85477 6.16644 2.69749 6.21882C2.54021 6.2712 2.36856 6.25895 2.22031 6.18478L0.970313 5.55978C0.896818 5.52309 0.831276 5.47227 0.777435 5.41023C0.723595 5.34819 0.682512 5.27615 0.656536 5.19822C0.63056 5.12029 0.6202 5.03801 0.626049 4.95607C0.631899 4.87414 0.653842 4.79416 0.690625 4.72071ZM15.6906 5.90509C15.6166 5.75683 15.6045 5.58524 15.6569 5.42804C15.7094 5.27084 15.8221 5.14091 15.9703 5.06681L17.2203 4.44181C17.2937 4.40508 17.3736 4.38317 17.4555 4.37733C17.5374 4.37148 17.6196 4.38183 17.6975 4.40776C17.7754 4.4337 17.8474 4.47472 17.9094 4.52848C17.9714 4.58224 18.0223 4.6477 18.059 4.7211C18.0957 4.79451 18.1176 4.87443 18.1235 4.95631C18.1293 5.03818 18.119 5.12041 18.093 5.19828C18.0671 5.27616 18.0261 5.34817 17.9723 5.41019C17.9185 5.47222 17.8531 5.52305 17.7797 5.55978L16.5297 6.18478C16.4562 6.22156 16.3763 6.2435 16.2943 6.24935C16.2124 6.2552 16.1301 6.24484 16.0522 6.21886C15.9742 6.19289 15.9022 6.15181 15.8402 6.09797C15.7781 6.04412 15.7273 5.97858 15.6906 5.90509ZM11.9406 1.59571L12.5656 0.345713C12.6398 0.197358 12.7699 0.0845456 12.9272 0.0320941C13.0846 -0.0203575 13.2563 -0.00815195 13.4047 0.0660258C13.553 0.140204 13.6659 0.270277 13.7183 0.427632C13.7708 0.584987 13.7586 0.756733 13.6844 0.905088L13.0594 2.15509C12.9852 2.30344 12.8551 2.41626 12.6978 2.46871C12.5404 2.52116 12.3687 2.50895 12.2203 2.43478C12.072 2.3606 11.9591 2.23052 11.9067 2.07317C11.8542 1.91581 11.8664 1.74407 11.9406 1.59571Z" fill="var(--fill-0, #1A96F0)"/>
</svg>
