<svg preserveAspectRatio="none" width="100%" height="100%" overflow="visible" style="display: block;" viewBox="0 0 11.0099 19.9952" fill="none" xmlns="http://www.w3.org/2000/svg">
<path id="Vector" d="M6.91409 9.99501L10.7141 6.20501C10.8078 6.11205 10.8822 6.00145 10.933 5.87959C10.9838 5.75773 11.0099 5.62703 11.0099 5.49501C11.0099 5.363 10.9838 5.2323 10.933 5.11044C10.8822 4.98858 10.8078 4.87798 10.7141 4.78501L6.21409 0.285014C6.11899 0.193973 6.00684 0.122608 5.88409 0.0750135C5.64063 -0.0250045 5.36755 -0.0250045 5.12409 0.0750135C4.87974 0.176488 4.68557 0.370664 4.58409 0.615013C4.53285 0.735236 4.50567 0.864336 4.50409 0.995014V7.58501L1.71409 4.78501C1.62085 4.69178 1.51016 4.61781 1.38834 4.56735C1.26652 4.51689 1.13595 4.49092 1.00409 4.49092C0.872233 4.49092 0.741665 4.51689 0.619843 4.56735C0.498021 4.61781 0.38733 4.69178 0.294092 4.78501C0.200853 4.87825 0.126893 4.98894 0.0764322 5.11076C0.0259719 5.23259 -9.82427e-10 5.36315 0 5.49501C9.82428e-10 5.62687 0.0259719 5.75744 0.0764322 5.87926C0.126893 6.00108 0.200853 6.11178 0.294092 6.20501L4.09409 9.99501L0.294092 13.785C0.200853 13.8783 0.126893 13.9889 0.0764322 14.1108C0.0259719 14.2326 1.96486e-09 14.3632 0 14.495C-1.96485e-09 14.6269 0.0259719 14.7574 0.0764322 14.8793C0.126893 15.0011 0.200853 15.1118 0.294092 15.205C0.38733 15.2983 0.498021 15.3722 0.619843 15.4227C0.741665 15.4731 0.872233 15.4991 1.00409 15.4991C1.13595 15.4991 1.26652 15.4731 1.38834 15.4227C1.51016 15.3722 1.62085 15.2983 1.71409 15.205L4.50409 12.405V18.995C4.50567 19.1257 4.53285 19.2548 4.58409 19.375C4.68557 19.6194 4.87974 19.8135 5.12409 19.915C5.24379 19.9679 5.37322 19.9952 5.50409 19.9952C5.63496 19.9952 5.76439 19.9679 5.88409 19.915C6.00684 19.8674 6.11899 19.7961 6.21409 19.705L10.7141 15.205C10.8078 15.112 10.8822 15.0014 10.933 14.8796C10.9838 14.7577 11.0099 14.627 11.0099 14.495C11.0099 14.363 10.9838 14.2323 10.933 14.1104C10.8822 13.9886 10.8078 13.878 10.7141 13.785L6.91409 9.99501ZM6.50409 3.40501L8.59409 5.49501L6.50409 7.58501V3.40501ZM6.50409 16.585V12.405L8.59409 14.495L6.50409 16.585Z" fill="var(--fill-0, #212121)"/>
</svg>
