<svg preserveAspectRatio="none" width="100%" height="100%" overflow="visible" style="display: block;" viewBox="0 0 19.9898 19.74" fill="none" xmlns="http://www.w3.org/2000/svg">
<g id="Group">
<path id="Vector" fill-rule="evenodd" clip-rule="evenodd" d="M9.9949 15.4265C9.5809 15.4265 9.2449 15.0905 9.2449 14.6765V12.1395C9.2449 11.7255 9.5809 11.3895 9.9949 11.3895C10.4089 11.3895 10.7449 11.7255 10.7449 12.1395V14.6765C10.7449 15.0905 10.4089 15.4265 9.9949 15.4265" fill="var(--fill-0, #212121)"/>
<g id="Mask Group">
<mask id="mask0_9964_87672" style="mask-type:luminance" maskUnits="userSpaceOnUse" x="0" y="2" width="20" height="11">
<path id="Vector_2" fill-rule="evenodd" clip-rule="evenodd" d="M0 2.5798H19.9898V12.8908H0V2.5798Z" fill="var(--fill-0, white)"/>
</mask>
<g mask="url(#mask0_9964_87672)">
<path id="Exclude" fill-rule="evenodd" clip-rule="evenodd" d="M1.5 9.3928C3.876 10.6838 6.872 11.3908 9.99 11.3908C13.114 11.3908 16.113 10.6838 18.49 9.3928V6.3908C18.49 5.1158 17.459 4.0798 16.19 4.0798H3.81C2.536 4.0798 1.5 5.1118 1.5 6.3808V9.3928ZM9.99 12.8908C6.445 12.8908 3.028 12.0328 0.371 10.4768C0.141 10.3428 0 10.0968 0 9.8298V6.3808C0 4.2848 1.709 2.5798 3.81 2.5798H16.19C18.286 2.5798 19.99 4.2888 19.99 6.3908V9.8298C19.99 10.0968 19.848 10.3428 19.619 10.4768C16.962 12.0328 13.542 12.8908 9.99 12.8908V12.8908Z" fill="var(--fill-0, #212121)"/>
</g>
</g>
<path id="Vector_3" fill-rule="evenodd" clip-rule="evenodd" d="M15.7947 19.74H4.1947C2.1197 19.74 0.3727 18.119 0.2157 16.049L0.0257 13.54C-0.0053 13.127 0.3047 12.766 0.7177 12.735C1.1327 12.72 1.4907 13.013 1.5227 13.427L1.7117 15.935C1.8097 17.227 2.8997 18.24 4.1947 18.24H15.7947C17.0897 18.24 18.1807 17.227 18.2777 15.935L18.4677 13.427C18.4997 13.013 18.8667 12.719 19.2727 12.735C19.6857 12.766 19.9947 13.127 19.9637 13.54L19.7737 16.049C19.6167 18.119 17.8697 19.74 15.7947 19.74" fill="var(--fill-0, #212121)"/>
<g id="Mask Group_2">
<mask id="mask1_9964_87672" style="mask-type:luminance" maskUnits="userSpaceOnUse" x="5" y="0" width="10" height="5">
<path id="Vector_4" fill-rule="evenodd" clip-rule="evenodd" d="M5.7449 0H14.2449V4.0759H5.7449V0Z" fill="var(--fill-0, white)"/>
</mask>
<g mask="url(#mask1_9964_87672)">
<path id="Vector_5" fill-rule="evenodd" clip-rule="evenodd" d="M13.4949 4.0759C13.0809 4.0759 12.7449 3.7399 12.7449 3.3259V2.9599C12.7449 2.1549 12.0899 1.4999 11.2849 1.4999H8.7049C7.8999 1.4999 7.2449 2.1549 7.2449 2.9599V3.3259C7.2449 3.7399 6.9089 4.0759 6.4949 4.0759C6.0809 4.0759 5.7449 3.7399 5.7449 3.3259V2.9599C5.7449 1.3279 7.0729 -9.99868e-05 8.7049 -9.99868e-05H11.2849C12.9169 -9.99868e-05 14.2449 1.3279 14.2449 2.9599V3.3259C14.2449 3.7399 13.9089 4.0759 13.4949 4.0759" fill="var(--fill-0, #212121)"/>
</g>
</g>
</g>
</svg>
