<svg preserveAspectRatio="none" width="100%" height="100%" overflow="visible" style="display: block;" viewBox="0 0 18.9992 17.999" fill="none" xmlns="http://www.w3.org/2000/svg">
<path id="Vector" d="M17.1866 11.092L17.3706 9.387C17.4676 8.477 17.5326 7.877 17.4816 7.499H17.4996C17.8419 7.49891 18.1739 7.38176 18.4404 7.16699C18.7069 6.95222 18.892 6.65275 18.9648 6.3183C19.0377 5.98386 18.994 5.63455 18.8409 5.32837C18.6879 5.0222 18.4348 4.77757 18.1235 4.6351C17.8123 4.49264 17.4617 4.4609 17.1299 4.54517C16.7982 4.62943 16.5052 4.82463 16.2997 5.09835C16.0942 5.37207 15.9885 5.70785 16.0001 6.04994C16.0117 6.39204 16.14 6.71986 16.3636 6.979C16.0376 7.18 15.6116 7.605 14.9706 8.244C14.4756 8.737 14.2286 8.983 13.9526 9.021C13.7997 9.04211 13.6439 9.0203 13.5026 8.958C13.2486 8.846 13.0786 8.542 12.7396 7.933L10.9496 4.724C10.7406 4.349 10.5656 4.034 10.4076 3.782C10.8079 3.57805 11.1278 3.24528 11.3159 2.83731C11.504 2.42933 11.5492 1.96992 11.4443 1.5331C11.3395 1.09628 11.0906 0.707481 10.7378 0.429363C10.385 0.151244 9.94884 0 9.49961 0C9.05037 0 8.61422 0.151244 8.26142 0.429363C7.90863 0.707481 7.65974 1.09628 7.55487 1.5331C7.45 1.96992 7.49524 2.42933 7.68331 2.83731C7.87139 3.24528 8.19134 3.57805 8.59161 3.782C8.43361 4.035 8.25861 4.349 8.04861 4.724L6.25961 7.933C5.91961 8.542 5.74961 8.846 5.49561 8.958C5.35434 9.0203 5.19855 9.04211 5.04561 9.021C4.77061 8.983 4.52361 8.737 4.02861 8.244C3.38761 7.605 2.96161 7.18 2.63561 6.979C2.85924 6.71986 2.98751 6.39204 2.99914 6.04994C3.01076 5.70785 2.90503 5.37207 2.69951 5.09835C2.49399 4.82463 2.20103 4.62943 1.86927 4.54517C1.53751 4.4609 1.18692 4.49264 0.875681 4.6351C0.564447 4.77757 0.3113 5.0222 0.158266 5.32837C0.00523218 5.63455 -0.0384824 5.98386 0.0343797 6.3183C0.107242 6.65275 0.292298 6.95222 0.558824 7.16699C0.825351 7.38176 1.15732 7.49891 1.49961 7.499H1.51761C1.46661 7.877 1.53161 8.478 1.62861 9.387L1.81261 11.092C1.91461 12.038 1.99861 12.939 2.10261 13.749H16.8966C17.0006 12.939 17.0846 12.039 17.1866 11.092ZM8.41161 17.999H10.5876C13.4236 17.999 14.8416 17.999 15.7876 17.152C16.2006 16.782 16.4616 16.116 16.6506 15.249H2.34861C2.53761 16.116 2.79861 16.783 3.21161 17.152C4.15761 17.999 5.57561 17.999 8.41161 17.999Z" fill="var(--fill-0, #212121)"/>
</svg>
