<svg preserveAspectRatio="none" width="100%" height="100%" overflow="visible" style="display: block;" viewBox="0 0 26.25 26.25" fill="none" xmlns="http://www.w3.org/2000/svg">
<path id="Vector" d="M12.25 3.5V0.875C12.25 0.642936 12.3422 0.420376 12.5063 0.256282C12.6704 0.0921872 12.8929 0 13.125 0C13.3571 0 13.5796 0.0921872 13.7437 0.256282C13.9078 0.420376 14 0.642936 14 0.875V3.5C14 3.73206 13.9078 3.95462 13.7437 4.11872C13.5796 4.28281 13.3571 4.375 13.125 4.375C12.8929 4.375 12.6704 4.28281 12.5063 4.11872C12.3422 3.95462 12.25 3.73206 12.25 3.5ZM20.125 13.125C20.125 14.5095 19.7145 15.8628 18.9453 17.014C18.1761 18.1651 17.0829 19.0623 15.8038 19.5922C14.5247 20.122 13.1172 20.2606 11.7594 19.9905C10.4015 19.7204 9.15422 19.0537 8.17525 18.0747C7.19628 17.0958 6.5296 15.8485 6.2595 14.4906C5.98941 13.1328 6.12803 11.7253 6.65784 10.4462C7.18766 9.16713 8.08486 8.07388 9.23601 7.30471C10.3872 6.53554 11.7405 6.125 13.125 6.125C14.9809 6.12703 16.7602 6.86518 18.0725 8.17749C19.3848 9.48981 20.123 11.2691 20.125 13.125ZM18.375 13.125C18.375 12.0866 18.0671 11.0716 17.4902 10.2083C16.9133 9.3449 16.0934 8.67199 15.1341 8.27463C14.1748 7.87727 13.1192 7.77331 12.1008 7.97588C11.0824 8.17845 10.1469 8.67846 9.41269 9.41269C8.67846 10.1469 8.17845 11.0824 7.97588 12.1008C7.77331 13.1192 7.87727 14.1748 8.27463 15.1341C8.67199 16.0934 9.3449 16.9133 10.2083 17.4902C11.0716 18.0671 12.0866 18.375 13.125 18.375C14.5169 18.3736 15.8515 17.82 16.8357 16.8357C17.82 15.8515 18.3736 14.5169 18.375 13.125ZM5.50594 6.74406C5.67012 6.90825 5.89281 7.00049 6.125 7.00049C6.35719 7.00049 6.57988 6.90825 6.74406 6.74406C6.90825 6.57988 7.00049 6.35719 7.00049 6.125C7.00049 5.89281 6.90825 5.67012 6.74406 5.50594L4.99406 3.75594C4.82988 3.59175 4.60719 3.49951 4.375 3.49951C4.14281 3.49951 3.92012 3.59175 3.75594 3.75594C3.59175 3.92012 3.49951 4.14281 3.49951 4.375C3.49951 4.60719 3.59175 4.82988 3.75594 4.99406L5.50594 6.74406ZM5.50594 19.5059L3.75594 21.2559C3.59175 21.4201 3.49951 21.6428 3.49951 21.875C3.49951 22.1072 3.59175 22.3299 3.75594 22.4941C3.92012 22.6582 4.14281 22.7505 4.375 22.7505C4.60719 22.7505 4.82988 22.6582 4.99406 22.4941L6.74406 20.7441C6.82536 20.6628 6.88985 20.5663 6.93384 20.46C6.97784 20.3538 7.00049 20.24 7.00049 20.125C7.00049 20.01 6.97784 19.8962 6.93384 19.79C6.88985 19.6837 6.82536 19.5872 6.74406 19.5059C6.66277 19.4246 6.56625 19.3602 6.46003 19.3162C6.35382 19.2722 6.23997 19.2495 6.125 19.2495C6.01003 19.2495 5.89618 19.2722 5.78997 19.3162C5.68375 19.3602 5.58723 19.4246 5.50594 19.5059ZM20.125 7C20.2399 7.00009 20.3538 6.97753 20.46 6.93362C20.5662 6.8897 20.6627 6.82529 20.7441 6.74406L22.4941 4.99406C22.6582 4.82988 22.7505 4.60719 22.7505 4.375C22.7505 4.14281 22.6582 3.92012 22.4941 3.75594C22.3299 3.59175 22.1072 3.49951 21.875 3.49951C21.6428 3.49951 21.4201 3.59175 21.2559 3.75594L19.5059 5.50594C19.3834 5.62831 19.3 5.78428 19.2662 5.95411C19.2323 6.12393 19.2497 6.29997 19.316 6.45994C19.3822 6.61991 19.4945 6.75662 19.6385 6.85276C19.7825 6.94889 19.9518 7.00014 20.125 7ZM20.7441 19.5059C20.5799 19.3418 20.3572 19.2495 20.125 19.2495C19.8928 19.2495 19.6701 19.3418 19.5059 19.5059C19.3418 19.6701 19.2495 19.8928 19.2495 20.125C19.2495 20.3572 19.3418 20.5799 19.5059 20.7441L21.2559 22.4941C21.3372 22.5754 21.4337 22.6398 21.54 22.6838C21.6462 22.7278 21.76 22.7505 21.875 22.7505C21.99 22.7505 22.1038 22.7278 22.21 22.6838C22.3163 22.6398 22.4128 22.5754 22.4941 22.4941C22.5754 22.4128 22.6398 22.3163 22.6838 22.21C22.7278 22.1038 22.7505 21.99 22.7505 21.875C22.7505 21.76 22.7278 21.6462 22.6838 21.54C22.6398 21.4337 22.5754 21.3372 22.4941 21.2559L20.7441 19.5059ZM4.375 13.125C4.375 12.8929 4.28281 12.6704 4.11872 12.5063C3.95462 12.3422 3.73206 12.25 3.5 12.25H0.875C0.642936 12.25 0.420376 12.3422 0.256282 12.5063C0.0921872 12.6704 0 12.8929 0 13.125C0 13.3571 0.0921872 13.5796 0.256282 13.7437C0.420376 13.9078 0.642936 14 0.875 14H3.5C3.73206 14 3.95462 13.9078 4.11872 13.7437C4.28281 13.5796 4.375 13.3571 4.375 13.125ZM13.125 21.875C12.8929 21.875 12.6704 21.9672 12.5063 22.1313C12.3422 22.2954 12.25 22.5179 12.25 22.75V25.375C12.25 25.6071 12.3422 25.8296 12.5063 25.9937C12.6704 26.1578 12.8929 26.25 13.125 26.25C13.3571 26.25 13.5796 26.1578 13.7437 25.9937C13.9078 25.8296 14 25.6071 14 25.375V22.75C14 22.5179 13.9078 22.2954 13.7437 22.1313C13.5796 21.9672 13.3571 21.875 13.125 21.875ZM25.375 12.25H22.75C22.5179 12.25 22.2954 12.3422 22.1313 12.5063C21.9672 12.6704 21.875 12.8929 21.875 13.125C21.875 13.3571 21.9672 13.5796 22.1313 13.7437C22.2954 13.9078 22.5179 14 22.75 14H25.375C25.6071 14 25.8296 13.9078 25.9937 13.7437C26.1578 13.5796 26.25 13.3571 26.25 13.125C26.25 12.8929 26.1578 12.6704 25.9937 12.5063C25.8296 12.3422 25.6071 12.25 25.375 12.25Z" fill="var(--fill-0, white)"/>
</svg>
