<svg preserveAspectRatio="none" width="100%" height="100%" overflow="visible" style="display: block;" viewBox="0 0 19.4932 19.4953" fill="none" xmlns="http://www.w3.org/2000/svg">
<path id="Vector" d="M19.4927 7.64427C19.4904 7.96119 19.3863 8.26898 19.1957 8.52219C19.0051 8.77541 18.7381 8.96064 18.4342 9.05052L11.2567 11.2593L9.04796 18.4368C8.95795 18.7406 8.77269 19.0075 8.5195 19.198C8.26632 19.3886 7.9586 19.4928 7.64171 19.4952H7.61359C7.30285 19.4981 6.99909 19.403 6.74547 19.2234C6.49185 19.0439 6.30126 18.789 6.20078 18.4949L0.0864022 2.00333C0.0844226 1.99847 0.0828547 1.99345 0.0817147 1.98833C-0.00968893 1.72286 -0.0247516 1.43707 0.0382404 1.16346C0.101233 0.889855 0.23975 0.63942 0.438036 0.440645C0.636322 0.241871 0.886416 0.102738 1.15987 0.0390727C1.43332 -0.0245923 1.71915 -0.0102325 1.98484 0.0805178L1.99984 0.0852052L18.4923 6.20333C18.791 6.3054 19.0491 6.5003 19.2291 6.75955C19.4091 7.01879 19.5014 7.3288 19.4927 7.64427Z" fill="var(--fill-0, #212121)"/>
</svg>
