<svg preserveAspectRatio="none" width="100%" height="100%" overflow="visible" style="display: block;" viewBox="0 0 21.0268 21.025" fill="none" xmlns="http://www.w3.org/2000/svg">
<path id="Vector" d="M18.3018 5.45L17.4518 3.575L15.5768 2.725L17.4518 1.875L18.3018 0L19.1518 1.875L21.0268 2.725L19.1518 3.575L18.3018 5.45ZM6.25179 5.45L5.40179 3.575L3.52679 2.725L5.40179 1.875L6.25179 0L7.10179 1.875L8.97679 2.725L7.10179 3.575L6.25179 5.45ZM18.3018 17.5L17.4518 15.625L15.5768 14.775L17.4518 13.925L18.3018 12.05L19.1518 13.925L21.0268 14.775L19.1518 15.625L18.3018 17.5ZM2.67679 20.725L0.301786 18.35C0.118452 18.1667 0.0184524 17.9542 0.00178571 17.7125C-0.014881 17.4708 0.085119 17.2417 0.301786 17.025L11.5518 5.775C11.7518 5.575 11.9935 5.475 12.2768 5.475C12.5601 5.475 12.8018 5.575 13.0018 5.775L15.2518 8.025C15.4518 8.225 15.5518 8.46667 15.5518 8.75C15.5518 9.03333 15.4518 9.275 15.2518 9.475L4.00179 20.725C3.80179 20.925 3.58095 21.025 3.33929 21.025C3.09762 21.025 2.87679 20.925 2.67679 20.725ZM3.25179 19.3L11.0768 11.475L9.52679 9.925L1.70179 17.75L3.25179 19.3Z" fill="var(--fill-0, #212121)"/>
</svg>
