<svg preserveAspectRatio="none" width="100%" height="100%" overflow="visible" style="display: block;" viewBox="0 0 18 18.2046" fill="none" xmlns="http://www.w3.org/2000/svg">
<path id="Vector" d="M16.2039 2.91686C16.2039 2.14326 15.8966 1.40135 15.3496 0.854328C14.8026 0.307311 14.0607 0 13.2871 0H2.96586C2.19226 0 1.45034 0.307311 0.903327 0.854328C0.35631 1.40135 0.0489985 2.14326 0.0489985 2.91686V13.9408C0.0489985 15.1102 1.45807 15.7017 2.29274 14.8814L5.90964 11.3273C5.91577 11.3211 5.92175 11.3149 5.92759 11.3084L7.65527 9.61666L7.72976 9.55294C7.85838 9.45924 8.01604 9.41414 8.17475 9.42564C8.33347 9.43714 8.48298 9.5045 8.59674 9.61576L10.4635 11.444L11.4149 10.4926L9.53911 8.65455L9.42334 8.55044C9.03924 8.22824 8.54901 8.06043 8.04804 8.07968C7.54706 8.09892 7.07115 8.30383 6.7129 8.65455L2.71725 12.5676H2.72623L1.39524 13.8753V2.91686C1.39524 2.04988 2.09888 1.34624 2.96586 1.34624H13.2871C14.1549 1.34624 14.8577 2.04988 14.8577 2.91686V7.38818C15.2885 7.21766 15.7498 7.15214 16.2039 7.19073V2.91686ZM13.0663 5.16239C13.0663 4.62623 12.8533 4.11203 12.4742 3.7329C12.095 3.35378 11.5808 3.14078 11.0447 3.14078C10.5085 3.14078 9.99429 3.35378 9.61517 3.7329C9.23604 4.11203 9.02305 4.62623 9.02305 5.16239C9.02305 5.69856 9.23604 6.21276 9.61517 6.59189C9.99429 6.97101 10.5085 7.184 11.0447 7.184C11.5808 7.184 12.095 6.97101 12.4742 6.59189C12.8533 6.21276 13.0663 5.69856 13.0663 5.16239ZM10.3693 5.16239C10.3693 4.98327 10.4405 4.81149 10.5671 4.68484C10.6938 4.55818 10.8655 4.48703 11.0447 4.48703C11.2238 4.48703 11.3956 4.55818 11.5222 4.68484C11.6489 4.81149 11.72 4.98327 11.72 5.16239C11.72 5.34151 11.6489 5.51329 11.5222 5.63995C11.3956 5.7666 11.2238 5.83776 11.0447 5.83776C10.8655 5.83776 10.6938 5.7666 10.5671 5.63995C10.4405 5.51329 10.3693 5.34151 10.3693 5.16239ZM9.20076 13.9758L14.4978 8.67878C14.6882 8.48826 14.9144 8.33712 15.1632 8.23398C15.4121 8.13085 15.6789 8.07775 15.9483 8.07771C16.2177 8.07766 16.4844 8.13069 16.7333 8.23374C16.9822 8.3368 17.2084 8.48787 17.3989 8.67833C17.5894 8.86879 17.7406 9.09492 17.8437 9.34379C17.9469 9.59267 18 9.85942 18 10.1288C18 10.3982 17.947 10.665 17.844 10.9139C17.7409 11.1628 17.5898 11.389 17.3994 11.5795L12.1015 16.8765C11.7928 17.1856 11.406 17.4049 10.9823 17.511L9.33987 17.9212C9.29569 17.9327 9.25068 17.9408 9.20525 17.9454C8.67572 18.1285 6.53161 18.4606 5.77053 17.8664C5.25537 17.4644 5.35768 16.6692 5.57488 16.2348C5.61078 16.1648 5.55693 16.0732 5.48064 16.0858C4.88829 16.1783 4.36505 16.4897 3.84092 16.8029C3.13818 17.2229 2.43185 17.643 1.5532 17.5344C0.674553 17.4249 0.235678 16.8828 0.0184837 16.408C-0.0703683 16.2141 0.180033 16.0481 0.366712 16.1504C0.787637 16.3793 1.35934 16.5956 1.83053 16.4915C2.16709 16.4161 2.64186 16.0804 3.17318 15.7044C4.12991 15.0286 5.27063 14.2208 6.12773 14.5663C6.88163 14.8688 7.43808 15.5985 7.05215 16.4628C7.00548 16.5687 7.05215 16.6997 7.16614 16.7257C7.54578 16.8128 7.86439 16.785 8.183 16.6315L8.56713 15.095C8.67303 14.6714 8.89202 14.2845 9.20076 13.9758Z" fill="var(--fill-0, #212121)"/>
</svg>
