<svg preserveAspectRatio="none" width="100%" height="100%" overflow="visible" style="display: block;" viewBox="0 0 17.0517 19.8663" fill="none" xmlns="http://www.w3.org/2000/svg">
<g id="Group">
<path id="Exclude" fill-rule="evenodd" clip-rule="evenodd" d="M4.57266 1.5113C2.91466 1.5113 1.53966 2.8533 1.50066 4.5083V15.3393C1.47166 16.9863 2.77866 18.3383 4.41366 18.3663L4.56066 18.3653H12.5727C14.2147 18.3473 15.5537 16.9903 15.5517 15.3403V6.3413L10.9177 1.5113H4.58466H4.57266ZM4.39966 19.8663C1.92666 19.8233 -0.0413401 17.7863 0.000659935 15.3263V4.4903C0.0576599 2.0093 2.10666 0.0113 4.56966 0.0113H4.58766H11.2367C11.4407 0.0113 11.6357 0.0943 11.7777 0.2413L16.8437 5.5203C16.9767 5.6593 17.0517 5.8463 17.0517 6.0393V15.3393C17.0557 17.8083 15.0497 19.8393 12.5807 19.8653L4.39966 19.8663Z" fill="var(--fill-0, #212121)"/>
<path id="Vector" fill-rule="evenodd" clip-rule="evenodd" d="M10.7934 11.6637H5.89436C5.48036 11.6637 5.14436 11.3277 5.14436 10.9137C5.14436 10.4997 5.48036 10.1637 5.89436 10.1637H10.7934C11.2074 10.1637 11.5434 10.4997 11.5434 10.9137C11.5434 11.3277 11.2074 11.6637 10.7934 11.6637" fill="var(--fill-0, #212121)"/>
<path id="Vector_2" fill-rule="evenodd" clip-rule="evenodd" d="M8.34416 14.1139C7.93016 14.1139 7.59416 13.7779 7.59416 13.3639V8.4639C7.59416 8.0499 7.93016 7.7139 8.34416 7.7139C8.75816 7.7139 9.09416 8.0499 9.09416 8.4639V13.3639C9.09416 13.7779 8.75816 14.1139 8.34416 14.1139" fill="var(--fill-0, #212121)"/>
<path id="Vector_3" fill-rule="evenodd" clip-rule="evenodd" d="M16.2973 6.984H13.5433C11.7123 6.979 10.2243 5.487 10.2243 3.659V0.75C10.2243 0.336 10.5603 0 10.9743 0C11.3883 0 11.7243 0.336 11.7243 0.75V3.659C11.7243 4.663 12.5413 5.481 13.5453 5.484H16.2973C16.7113 5.484 17.0473 5.82 17.0473 6.234C17.0473 6.648 16.7113 6.984 16.2973 6.984" fill="var(--fill-0, #212121)"/>
</g>
</svg>
