<svg preserveAspectRatio="none" width="100%" height="100%" overflow="visible" style="display: block;" viewBox="0 0 15.415 20.0008" fill="none" xmlns="http://www.w3.org/2000/svg">
<path id="Vector" d="M10.375 4.63079H3.37501L6.29501 1.71079C6.38874 1.61783 6.46314 1.50723 6.51391 1.38537C6.56467 1.26351 6.59081 1.1328 6.59081 1.00079C6.59081 0.868781 6.56467 0.738075 6.51391 0.616216C6.46314 0.494357 6.38874 0.383756 6.29501 0.290793C6.10765 0.104542 5.8542 0 5.59001 0C5.32583 0 5.07238 0.104542 4.88501 0.290793L0.295014 4.92079C0.200384 5.015 0.125579 5.12721 0.0750135 5.25079C-0.0250045 5.49425 -0.0250045 5.76733 0.0750135 6.01079C0.129371 6.13232 0.203737 6.24387 0.295014 6.34079L4.92501 11.0008C5.10964 11.1892 5.36124 11.297 5.62501 11.3008C5.82364 11.3019 6.01811 11.2439 6.18363 11.1341C6.34915 11.0243 6.47822 10.8677 6.55439 10.6843C6.63055 10.5008 6.65036 10.2989 6.61129 10.1041C6.57222 9.90936 6.47604 9.73066 6.33501 9.59079L3.41501 6.63079H10.415C11.2107 6.63079 11.9737 6.94686 12.5363 7.50947C13.0989 8.07208 13.415 8.83514 13.415 9.63079V19.0008C13.415 19.266 13.5204 19.5204 13.7079 19.7079C13.8954 19.8954 14.1498 20.0008 14.415 20.0008C14.6802 20.0008 14.9346 19.8954 15.1221 19.7079C15.3097 19.5204 15.415 19.266 15.415 19.0008V9.63079C15.415 8.9708 15.2844 8.31734 15.0306 7.70809C14.7769 7.09884 14.405 6.54586 13.9364 6.08104C13.4679 5.61622 12.912 5.24876 12.3007 4.99985C11.6895 4.75094 11.035 4.62551 10.375 4.63079V4.63079Z" fill="var(--fill-0, #212121)"/>
</svg>
