<svg preserveAspectRatio="none" width="100%" height="100%" overflow="visible" style="display: block;" viewBox="0 0 24 24" fill="none" xmlns="http://www.w3.org/2000/svg">
<g id="Group">
<g id="Vector">
</g>
<path id="Vector_2" fill-rule="evenodd" clip-rule="evenodd" d="M15.535 2.808L21.192 8.464C21.3778 8.64973 21.5252 8.87024 21.6258 9.11295C21.7263 9.35565 21.7781 9.61579 21.7781 9.8785C21.7781 10.1412 21.7263 10.4014 21.6258 10.6441C21.5252 10.8868 21.3778 11.1073 21.192 11.293L17.67 14.816L17.657 14.828L17.644 14.841L13.485 19H20C20.2652 19 20.5196 19.1054 20.7071 19.2929C20.8946 19.4804 21 19.7348 21 20C21 20.2652 20.8946 20.5196 20.7071 20.7071C20.5196 20.8946 20.2652 21 20 21H8.893C8.49531 20.9996 8.11403 20.8414 7.833 20.56L2.807 15.536C2.6212 15.3503 2.47381 15.1298 2.37325 14.8871C2.27269 14.6444 2.22093 14.3842 2.22093 14.1215C2.22093 13.8588 2.27269 13.5986 2.37325 13.3559C2.47381 13.1132 2.6212 12.8927 2.807 12.707L12.707 2.807C13.0821 2.43206 13.5907 2.22143 14.121 2.22143C14.6513 2.22143 15.1599 2.43206 15.535 2.807V2.808ZM15.535 14.121L10.657 19H9.1L4.222 14.121L9.879 8.464L15.535 14.121ZM16.95 12.707L11.293 7.05L14.121 4.222L19.778 9.879L16.95 12.707Z" fill="var(--fill-0, #212121)"/>
</g>
</svg>
