<svg preserveAspectRatio="none" width="100%" height="100%" overflow="visible" style="display: block;" viewBox="0 0 23.3333 23.3333" fill="none" xmlns="http://www.w3.org/2000/svg">
<g id="Group">
<path id="Exclude" fill-rule="evenodd" clip-rule="evenodd" d="M0 11.6734C0 5.23396 5.23649 0 11.6667 0C18.0968 0 23.3333 5.23396 23.3333 11.6734C23.3333 18.0994 18.0968 23.3333 11.6667 23.3333C5.23649 23.3333 0 18.0994 0 11.6734ZM15.9459 12.8542C16.0698 12.7303 16.2275 12.539 16.2613 12.494C16.4414 12.2576 16.5315 11.9649 16.5315 11.6734C16.5315 11.3459 16.4302 11.042 16.2387 10.7943C16.223 10.7787 16.1923 10.7452 16.1523 10.7016C16.0774 10.6201 15.9699 10.5031 15.8671 10.4004C14.9437 9.40987 12.5338 7.78903 11.2725 7.29378C11.0811 7.21611 10.5968 7.04615 10.3378 7.03489C10.0901 7.03489 9.8536 7.09117 9.62838 7.20373C9.34685 7.36131 9.12162 7.60894 8.99775 7.90159C8.91892 8.1042 8.79504 8.71201 8.79504 8.72327C8.67117 9.38736 8.6036 10.4679 8.6036 11.661C8.6036 12.799 8.67117 13.8334 8.77252 14.5088C8.77531 14.5115 8.785 14.5599 8.80005 14.6349C8.8458 14.863 8.94111 15.3382 9.04279 15.533C9.29054 16.0058 9.77477 16.2984 10.2928 16.2984H10.3378C10.6757 16.2872 11.3851 15.9945 11.3851 15.9833C12.5788 15.488 14.9324 13.946 15.8784 12.9217L15.9459 12.8542Z" fill="var(--fill-0, #FF6347)"/>
</g>
</svg>
