<svg preserveAspectRatio="none" width="100%" height="100%" overflow="visible" style="display: block;" viewBox="0 0 21.5009 15.5002" fill="none" xmlns="http://www.w3.org/2000/svg">
<path id="Vector" fill-rule="evenodd" clip-rule="evenodd" d="M12.6158 1.533C12.3028 1.501 11.8958 1.5 11.2798 1.5H10.7518C10.5529 1.5 10.3621 1.42098 10.2215 1.28033C10.0808 1.13968 10.0018 0.948912 10.0018 0.75C10.0018 0.551088 10.0808 0.360322 10.2215 0.21967C10.3621 0.0790175 10.5529 0 10.7518 0H11.3168C11.8868 0 12.3708 -1.11759e-07 12.7708 0.0409999C13.1958 0.0849999 13.5898 0.181 13.9608 0.411C14.3338 0.641 14.5948 0.95 14.8248 1.311C15.0268 1.629 15.2298 2.031 15.4648 2.5H16.6198C16.9038 2.5 17.1648 2.5 17.3818 2.52C17.6168 2.54 17.8718 2.589 18.1198 2.73C18.3918 2.885 18.6168 3.11 18.7718 3.382C18.9128 3.63 18.9618 3.885 18.9818 4.12C19.0018 4.337 19.0018 4.598 19.0018 4.882V4.975C19.0018 5.235 19.0028 5.513 18.9188 5.777C18.8622 5.95389 18.7778 6.12064 18.6688 6.271C18.5068 6.495 18.2828 6.66 18.0728 6.813L18.0208 6.852L17.7438 7.056L18.2308 8.03C18.9142 8.11819 19.5601 8.39298 20.0976 8.82419C20.6351 9.25541 21.0433 9.82638 21.2776 10.4744C21.5118 11.1225 21.563 11.8225 21.4254 12.4977C21.2879 13.1729 20.9669 13.7972 20.4979 14.3019C20.0288 14.8067 19.4297 15.1725 18.7664 15.3591C18.103 15.5457 17.4011 15.5459 16.7377 15.3597C16.0742 15.1735 15.4749 14.8081 15.0055 14.3036C14.5361 13.7992 14.2148 13.1751 14.0768 12.5H8.92682C8.75362 13.3478 8.29266 14.1096 7.62205 14.6563C6.95143 15.2031 6.11241 15.5012 5.24714 15.5002C4.38188 15.4991 3.54358 15.1989 2.87431 14.6505C2.20504 14.1021 1.74594 13.3392 1.57482 12.491C1.12949 12.4462 0.718255 12.2325 0.425676 11.8938C0.133096 11.555 -0.0185855 11.1171 0.00182152 10.67V10.612C0.00182152 10.277 0.0018215 10.064 0.0168215 9.877C0.10569 8.74972 0.593795 7.69113 1.39337 6.89155C2.19295 6.09197 3.25155 5.60387 4.37882 5.515C4.56582 5.5 4.77882 5.5 5.11382 5.5H5.80382C6.70182 5.5 7.45182 5.5 8.04582 5.58C8.67382 5.664 9.24082 5.85 9.69582 6.306C10.1518 6.761 10.3378 7.328 10.4218 7.956C10.5018 8.55 10.5018 9.3 10.5018 10.198V11H14.0768C14.2111 10.3444 14.5181 9.73651 14.966 9.23931C15.414 8.74211 15.9867 8.37364 16.6248 8.172L14.1868 3.297C13.9108 2.745 13.7288 2.382 13.5588 2.117C13.3988 1.865 13.2848 1.756 13.1728 1.687C13.0618 1.617 12.9128 1.564 12.6158 1.533ZM9.00182 11V10.25C9.00182 9.286 8.99982 8.638 8.93582 8.155C8.87282 7.694 8.76582 7.496 8.63582 7.366C8.50582 7.236 8.30782 7.129 7.84582 7.066C7.36382 7.002 6.71582 7 5.75182 7H5.15182C4.76582 7 4.61682 7 4.49682 7.01C3.72537 7.07071 3.00089 7.4047 2.45371 7.95189C1.90652 8.49907 1.57253 9.22355 1.51182 9.995C1.49864 10.2461 1.49531 10.4976 1.50182 10.749C1.51182 10.871 1.63082 10.989 1.75182 10.999L9.00182 11ZM3.12982 12.5C3.28463 12.9391 3.57188 13.3194 3.95195 13.5885C4.33202 13.8575 4.78619 14.0019 5.25182 14.0019C5.71746 14.0019 6.17162 13.8575 6.55169 13.5885C6.93176 13.3194 7.21901 12.9391 7.37382 12.5H3.12982ZM15.5018 11.75C15.5018 11.1533 15.7389 10.581 16.1608 10.159C16.5828 9.73705 17.1551 9.5 17.7518 9.5C18.3486 9.5 18.9209 9.73705 19.3428 10.159C19.7648 10.581 20.0018 11.1533 20.0018 11.75C20.0018 12.3467 19.7648 12.919 19.3428 13.341C18.9209 13.7629 18.3486 14 17.7518 14C17.1551 14 16.5828 13.7629 16.1608 13.341C15.7389 12.919 15.5018 12.3467 15.5018 11.75ZM17.0618 5.695L17.1318 5.644C17.2698 5.542 17.3478 5.484 17.4038 5.438C17.4216 5.42358 17.4383 5.40787 17.4538 5.391C17.4694 5.3697 17.4816 5.34608 17.4898 5.321C17.4878 5.327 17.4938 5.316 17.4968 5.252C17.5018 5.179 17.5018 5.082 17.5018 4.911C17.5018 4.588 17.5018 4.396 17.4888 4.254C17.4862 4.21 17.4788 4.16642 17.4668 4.124C17.4456 4.08699 17.4154 4.056 17.3788 4.034C17.336 4.02267 17.2921 4.01597 17.2478 4.014C17.0291 4.00073 16.8099 3.99606 16.5908 4H16.2158L17.0628 5.695H17.0618Z" fill="var(--fill-0, #212121)"/>
</svg>
