<svg preserveAspectRatio="none" width="100%" height="100%" overflow="visible" style="display: block;" viewBox="0 0 20.0026 15.9942" fill="none" xmlns="http://www.w3.org/2000/svg">
<g id="Group">
<path id="Vector" d="M9.97646 15.9942C10.5287 15.9942 10.9765 15.5465 10.9765 14.9942C10.9765 14.4419 10.5287 13.9942 9.97646 13.9942C9.42417 13.9942 8.97646 14.4419 8.97646 14.9942C8.97646 15.5465 9.42417 15.9942 9.97646 15.9942Z" fill="var(--fill-0, #212121)"/>
<path id="Vector_2" d="M9.97646 9.99421C8.68219 9.99417 7.43833 10.496 6.50646 11.3942C6.3155 11.5785 6.20559 11.8312 6.2009 12.0965C6.19621 12.3619 6.29713 12.6183 6.48146 12.8092C6.66578 13.0002 6.91841 13.1101 7.18378 13.1148C7.44914 13.1195 7.7055 13.0185 7.89646 12.8342C8.46436 12.3142 9.20644 12.0258 9.97646 12.0258C10.7465 12.0258 11.4886 12.3142 12.0565 12.8342C12.2474 13.0185 12.5038 13.1195 12.7691 13.1148C13.0345 13.1101 13.2871 13.0002 13.4715 12.8092C13.6558 12.6183 13.7567 12.3619 13.752 12.0965C13.7473 11.8312 13.6374 11.5785 13.4465 11.3942C12.5146 10.496 11.2707 9.99417 9.97646 9.99421ZM9.97646 4.99421C8.76867 4.995 7.57339 5.23889 6.46184 5.71134C5.35029 6.1838 4.3452 6.87515 3.50646 7.74421C3.41519 7.84073 3.34382 7.95428 3.29644 8.07838C3.24906 8.20249 3.22658 8.3347 3.23029 8.46749C3.23401 8.60028 3.26384 8.73104 3.31809 8.85229C3.37234 8.97355 3.44993 9.08294 3.54646 9.17421C3.74139 9.35853 4.00156 9.45787 4.26974 9.45037C4.40253 9.44666 4.53328 9.41682 4.65454 9.36258C4.7758 9.30833 4.88519 9.23073 4.97646 9.13421C5.62944 8.45673 6.41231 7.91786 7.27828 7.54979C8.14424 7.18173 9.07552 6.99203 10.0165 6.99203C10.9574 6.99203 11.8887 7.18173 12.7546 7.54979C13.6206 7.91786 14.4035 8.45673 15.0565 9.13421C15.1491 9.2287 15.2595 9.30387 15.3814 9.35536C15.5033 9.40686 15.6341 9.43366 15.7665 9.43421C15.9619 9.43346 16.1528 9.37548 16.3156 9.26742C16.4785 9.15935 16.606 9.00595 16.6826 8.82616C16.7592 8.64638 16.7815 8.44809 16.7466 8.2558C16.7117 8.06351 16.6213 7.88566 16.4865 7.74421C15.643 6.87029 14.6315 6.17612 13.5127 5.70351C12.3939 5.23089 11.191 4.98962 9.97646 4.99421Z" fill="var(--fill-0, #212121)"/>
<path id="Vector_3" d="M19.6965 3.92421C17.0869 1.40678 13.6024 0 9.97646 0C6.35053 0 2.86603 1.40678 0.256456 3.92421C0.0876938 4.11186 -0.00387233 4.35639 0.000125609 4.60874C0.00412354 4.86108 0.10339 5.10259 0.278012 5.2848C0.452634 5.46701 0.689696 5.57646 0.941645 5.59119C1.19359 5.60592 1.44179 5.52484 1.63646 5.36421C3.87406 3.20133 6.8644 1.99232 9.97646 1.99232C13.0885 1.99232 16.0789 3.20133 18.3165 5.36421C18.5018 5.54289 18.749 5.64318 19.0065 5.64421C19.1412 5.64369 19.2744 5.61597 19.3981 5.5627C19.5218 5.50943 19.6335 5.43171 19.7265 5.33421C19.9088 5.14291 20.008 4.88722 20.0023 4.62302C19.9967 4.35881 19.8867 4.10758 19.6965 3.92421Z" fill="var(--fill-0, #212121)"/>
</g>
</svg>
