<svg preserveAspectRatio="none" width="100%" height="100%" overflow="visible" style="display: block;" viewBox="0 0 18.75 20.2512" fill="none" xmlns="http://www.w3.org/2000/svg">
<path id="Vector" d="M18.4613 0.158392C18.3714 0.0883889 18.2668 0.0397661 18.1554 0.0162128C18.0439 -0.00734061 17.9286 -0.00520604 17.8181 0.0224546L5.81813 3.02245C5.65587 3.06301 5.51183 3.15664 5.40889 3.28845C5.30596 3.42027 5.25003 3.58271 5.25 3.74995V14.07C4.62435 13.6519 3.87694 13.455 3.12652 13.5104C2.3761 13.5658 1.66571 13.8703 1.10823 14.3757C0.550746 14.8811 0.178138 15.5583 0.0496067 16.2997C-0.078925 17.0411 0.0439917 17.8042 0.398828 18.4677C0.753664 19.1313 1.32007 19.6572 2.00805 19.962C2.69603 20.2667 3.46612 20.3329 4.19598 20.1498C4.92584 19.9668 5.5736 19.5451 6.03635 18.9517C6.49909 18.3584 6.75028 17.6274 6.75 16.875V8.83589L17.25 6.21089V11.07C16.6243 10.6519 15.8769 10.455 15.1265 10.5104C14.3761 10.5658 13.6657 10.8703 13.1082 11.3757C12.5507 11.8811 12.1781 12.5583 12.0496 13.2997C11.9211 14.0411 12.044 14.8042 12.3988 15.4677C12.7537 16.1313 13.3201 16.6572 14.008 16.962C14.696 17.2667 15.4661 17.3329 16.196 17.1498C16.9258 16.9668 17.5736 16.5451 18.0363 15.9517C18.4991 15.3584 18.7503 14.6274 18.75 13.875V0.749955C18.75 0.635885 18.724 0.523312 18.674 0.420801C18.624 0.318291 18.5512 0.228545 18.4613 0.158392ZM3.375 18.75C3.00416 18.75 2.64165 18.64 2.33331 18.434C2.02497 18.2279 1.78464 17.9351 1.64273 17.5925C1.50082 17.2499 1.46368 16.8729 1.53603 16.5092C1.60838 16.1454 1.78696 15.8114 2.04918 15.5491C2.3114 15.2869 2.6455 15.1083 3.00921 15.036C3.37292 14.9636 3.74992 15.0008 4.09254 15.1427C4.43515 15.2846 4.72798 15.5249 4.93401 15.8333C5.14004 16.1416 5.25 16.5041 5.25 16.875C5.25 17.3722 5.05246 17.8491 4.70083 18.2008C4.3492 18.5524 3.87229 18.75 3.375 18.75ZM6.75 7.28902V4.33589L17.25 1.71089V4.66402L6.75 7.28902ZM15.375 15.75C15.0042 15.75 14.6417 15.64 14.3333 15.434C14.025 15.2279 13.7846 14.9351 13.6427 14.5925C13.5008 14.2499 13.4637 13.8729 13.536 13.5092C13.6084 13.1454 13.787 12.8114 14.0492 12.5491C14.3114 12.2869 14.6455 12.1083 15.0092 12.036C15.3729 11.9636 15.7499 12.0008 16.0925 12.1427C16.4351 12.2846 16.728 12.5249 16.934 12.8333C17.14 13.1416 17.25 13.5041 17.25 13.875C17.25 14.1212 17.2015 14.365 17.1073 14.5925C17.0131 14.82 16.8749 15.0267 16.7008 15.2008C16.5267 15.3749 16.32 15.513 16.0925 15.6072C15.8651 15.7015 15.6212 15.75 15.375 15.75Z" fill="var(--fill-0, #212121)"/>
</svg>
