<svg preserveAspectRatio="none" width="100%" height="100%" overflow="visible" style="display: block;" viewBox="0 0 18 11.25" fill="none" xmlns="http://www.w3.org/2000/svg">
<g id="Vector">
<path d="M1.125 2.25H16.875C17.4938 2.25 18 1.74375 18 1.125C18 0.50625 17.4938 0 16.875 0H1.125C0.50625 0 0 0.50625 0 1.125C0 1.74375 0.50625 2.25 1.125 2.25Z" fill="var(--fill-0, #212121)"/>
<path d="M1.125 6.75H16.875C17.4938 6.75 18 6.24375 18 5.625C18 5.00625 17.4938 4.5 16.875 4.5H1.125C0.50625 4.5 0 5.00625 0 5.625C0 6.24375 0.50625 6.75 1.125 6.75Z" fill="var(--fill-0, #212121)"/>
<path d="M1.125 11.25H16.875C17.4938 11.25 18 10.7438 18 10.125C18 9.50625 17.4938 9 16.875 9H1.125C0.50625 9 0 9.50625 0 10.125C0 10.7438 0.50625 11.25 1.125 11.25Z" fill="var(--fill-0, #212121)"/>
</g>
</svg>
