<svg preserveAspectRatio="none" width="100%" height="100%" overflow="visible" style="display: block;" viewBox="0 0 21 18" fill="none" xmlns="http://www.w3.org/2000/svg">
<path id="Vector" d="M13.875 5.25C14.3942 5.25 14.9017 5.09605 15.3334 4.80761C15.7651 4.51917 16.1015 4.1092 16.3002 3.62955C16.4989 3.14989 16.5508 2.62209 16.4496 2.11289C16.3483 1.60369 16.0983 1.13596 15.7312 0.768846C15.364 0.401733 14.8963 0.151726 14.3871 0.0504398C13.8779 -0.0508464 13.3501 0.00113737 12.8705 0.199817C12.3908 0.398497 11.9808 0.734951 11.6924 1.16663C11.404 1.59831 11.25 2.10583 11.25 2.625C11.25 3.32119 11.5266 3.98887 12.0188 4.48116C12.5111 4.97344 13.1788 5.25 13.875 5.25ZM13.875 1.5C14.0975 1.5 14.315 1.56598 14.5 1.6896C14.685 1.81321 14.8292 1.98892 14.9144 2.19448C14.9995 2.40005 15.0218 2.62625 14.9784 2.84448C14.935 3.06271 14.8278 3.26316 14.6705 3.4205C14.5132 3.57783 14.3127 3.68498 14.0945 3.72838C13.8762 3.77179 13.6501 3.74951 13.4445 3.66437C13.2389 3.57922 13.0632 3.43502 12.9396 3.25002C12.816 3.06501 12.75 2.84751 12.75 2.625C12.75 2.32663 12.8685 2.04048 13.0795 1.82951C13.2905 1.61853 13.5766 1.5 13.875 1.5ZM17.25 10.5C16.5083 10.5 15.7833 10.7199 15.1666 11.132C14.5499 11.544 14.0693 12.1297 13.7855 12.8149C13.5016 13.5002 13.4274 14.2542 13.5721 14.9816C13.7168 15.709 14.0739 16.3772 14.5984 16.9017C15.1228 17.4261 15.791 17.7833 16.5184 17.9279C17.2458 18.0726 17.9998 17.9984 18.6851 17.7146C19.3703 17.4307 19.956 16.9501 20.368 16.3334C20.7801 15.7167 21 14.9917 21 14.25C21 13.2554 20.6049 12.3016 19.9017 11.5984C19.1984 10.8951 18.2446 10.5 17.25 10.5ZM17.25 16.5C16.805 16.5 16.37 16.368 16 16.1208C15.63 15.8736 15.3416 15.5222 15.1713 15.111C15.001 14.6999 14.9564 14.2475 15.0432 13.811C15.1301 13.3746 15.3443 12.9737 15.659 12.659C15.9737 12.3443 16.3746 12.1301 16.811 12.0432C17.2475 11.9564 17.6999 12.001 18.111 12.1713C18.5222 12.3416 18.8736 12.63 19.1208 13C19.368 13.37 19.5 13.805 19.5 14.25C19.5 14.8467 19.2629 15.419 18.841 15.841C18.419 16.263 17.8467 16.5 17.25 16.5ZM3.75 10.5C3.00832 10.5 2.2833 10.7199 1.66661 11.132C1.04993 11.544 0.569282 12.1297 0.285453 12.8149C0.00162481 13.5002 -0.0726377 14.2542 0.0720569 14.9816C0.216751 15.709 0.573904 16.3772 1.09835 16.9017C1.6228 17.4261 2.29098 17.7833 3.01841 17.9279C3.74584 18.0726 4.49984 17.9984 5.18506 17.7146C5.87029 17.4307 6.45596 16.9501 6.86801 16.3334C7.28007 15.7167 7.5 14.9917 7.5 14.25C7.5 13.7575 7.40301 13.2699 7.21455 12.8149C7.02609 12.36 6.74987 11.9466 6.40165 11.5984C6.05343 11.2501 5.64004 10.9739 5.18506 10.7855C4.73009 10.597 4.24246 10.5 3.75 10.5ZM3.75 16.5C3.30499 16.5 2.86998 16.368 2.49997 16.1208C2.12996 15.8736 1.84157 15.5222 1.67127 15.111C1.50098 14.6999 1.45642 14.2475 1.54323 13.811C1.63005 13.3746 1.84434 12.9737 2.15901 12.659C2.47368 12.3443 2.87459 12.1301 3.31105 12.0432C3.74751 11.9564 4.19991 12.001 4.61104 12.1713C5.02217 12.3416 5.37358 12.63 5.62081 13C5.86804 13.37 6 13.805 6 14.25C6 14.8467 5.76295 15.419 5.34099 15.841C4.91904 16.263 4.34674 16.5 3.75 16.5ZM16.5 9H12.75C12.6515 9.00008 12.5539 8.98075 12.4629 8.9431C12.3718 8.90546 12.2891 8.85025 12.2194 8.78063L9.75 6.31031L7.81031 8.25L11.0306 11.4694C11.1003 11.5391 11.1555 11.6218 11.1931 11.7129C11.2307 11.8039 11.2501 11.9015 11.25 12V16.5C11.25 16.6989 11.171 16.8897 11.0303 17.0303C10.8897 17.171 10.6989 17.25 10.5 17.25C10.3011 17.25 10.1103 17.171 9.96967 17.0303C9.82902 16.8897 9.75 16.6989 9.75 16.5V12.3103L6.21938 8.78063C6.14964 8.71097 6.09432 8.62826 6.05658 8.53721C6.01884 8.44616 5.99941 8.34856 5.99941 8.25C5.99941 8.15144 6.01884 8.05385 6.05658 7.9628C6.09432 7.87175 6.14964 7.78903 6.21938 7.71938L9.21938 4.71938C9.28903 4.64964 9.37175 4.59432 9.4628 4.55658C9.55384 4.51884 9.65144 4.49941 9.75 4.49941C9.84856 4.49941 9.94616 4.51884 10.0372 4.55658C10.1283 4.59432 10.211 4.64964 10.2806 4.71938L13.0603 7.5H16.5C16.6989 7.5 16.8897 7.57902 17.0303 7.71967C17.171 7.86032 17.25 8.05109 17.25 8.25C17.25 8.44891 17.171 8.63968 17.0303 8.78033C16.8897 8.92098 16.6989 9 16.5 9Z" fill="var(--fill-0, #212121)"/>
</svg>
