<svg preserveAspectRatio="none" width="100%" height="100%" overflow="visible" style="display: block;" viewBox="0 0 21 21.0003" fill="none" xmlns="http://www.w3.org/2000/svg">
<path id="Vector" fill-rule="evenodd" clip-rule="evenodd" d="M18.8191 0.474606C18.9437 0.84058 18.748 1.23826 18.382 1.36285L16.6868 1.93995L16.2967 3.50023H20.3C20.6866 3.50023 21 3.81363 21 4.20023C21 4.58683 20.6866 4.90023 20.3 4.90023H20.1861L18.688 19.0689C18.6458 19.5928 18.4087 20.082 18.0232 20.4397C17.6348 20.8 17.1246 21.0003 16.5948 21.0003H10.5L10.491 21.0002H5.1625C4.18205 21.0002 3.37127 20.5949 2.81819 19.9264C2.41821 19.4429 2.1698 18.8439 2.06708 18.2C0.789108 18.179 0 16.9393 0 15.7502C0 15.1901 0.175108 14.6187 0.493937 14.1688C0.177407 13.8426 0 13.4056 0 12.9503C0 12.4862 0.184375 12.041 0.512563 11.7129C0.757407 11.468 1.06733 11.3032 1.40168 11.2353C1.4368 9.87987 2.02002 8.8042 2.95592 8.07769C3.90155 7.34362 5.15905 7.00029 6.475 7.00029H9.46468L9.22044 4.90023H9.1C8.7134 4.90023 8.4 4.58683 8.4 4.20023C8.4 3.81363 8.7134 3.50023 9.1 3.50023H14.8536L15.4211 1.23042C15.4787 0.999767 15.6495 0.814153 15.8746 0.737536L17.9308 0.0375355C18.2968 -0.0870515 18.6945 0.108632 18.8191 0.474606ZM15.3873 4.90023H10.6299L10.8646 6.91811C10.8721 6.98279 10.8705 7.04644 10.8609 7.10777C11.7138 7.26142 12.5018 7.58196 13.1451 8.08332C14.0781 8.81036 14.6604 9.88452 14.6981 11.2353C15.0325 11.3031 15.3425 11.468 15.5874 11.7129C15.9156 12.041 16.1 12.4862 16.1 12.9503C16.1 13.4056 15.9226 13.8426 15.6061 14.1688C15.9249 14.6187 16.1 15.1901 16.1 15.7502C16.1 16.9393 15.3109 18.179 14.0329 18.2C13.9522 18.7059 13.7816 19.1841 13.5182 19.6003H16.5948C16.7714 19.6003 16.9415 19.5335 17.0709 19.4134C17.2004 19.2933 17.2796 19.1287 17.2928 18.9526L17.2936 18.9419L18.7783 4.90023H15.4141C15.4052 4.9004 15.3963 4.9004 15.3873 4.90023ZM14 13.3002L14.0163 13.3003H14.35C14.4428 13.3003 14.5318 13.2634 14.5975 13.1978C14.6631 13.1321 14.7 13.0431 14.7 12.9503C14.7 12.8575 14.6631 12.7684 14.5975 12.7028C14.5318 12.6372 14.4428 12.6003 14.35 12.6003H1.75C1.65718 12.6003 1.56815 12.6372 1.50251 12.7028C1.43687 12.7684 1.4 12.8575 1.4 12.9503C1.4 13.0431 1.43687 13.1321 1.50251 13.1978C1.56815 13.2634 1.65718 13.3003 1.75 13.3003H2.08371L2.1 13.3002L2.1097 13.3003H4.05551C4.33362 13.3004 4.60031 13.4109 4.79707 13.6074L5.6 14.4103L6.40293 13.6074C6.59969 13.4109 6.86638 13.3004 7.14449 13.3003H13.9903L14 13.3002ZM3.91005 14.7003H2.0937C1.84367 14.7056 1.4 15.0227 1.4 15.7502C1.4 16.4839 1.8512 16.8002 2.1 16.8002H14C14.2488 16.8002 14.7 16.4839 14.7 15.7502C14.7 15.0227 14.2563 14.7056 14.0063 14.7003H7.28995L6.21906 15.7712C6.13785 15.8524 6.04117 15.9171 5.93507 15.9611C5.82884 16.0051 5.71498 16.0278 5.6 16.0278C5.48502 16.0278 5.37116 16.0051 5.26493 15.9611C5.15883 15.9171 5.06242 15.8527 4.98121 15.7715L3.91005 14.7003ZM2.80376 11.2003H13.2958C13.2519 10.3009 12.8683 9.64252 12.2846 9.18759C11.644 8.68837 10.7142 8.40029 9.625 8.40029H6.475C5.3847 8.40029 4.4547 8.68654 3.8144 9.18359C3.22928 9.6378 2.84536 10.2965 2.80376 11.2003ZM3.49405 18.2002C3.57618 18.5331 3.71646 18.8159 3.89689 19.034C4.18216 19.3788 4.59639 19.6002 5.1625 19.6002H10.9375C11.5036 19.6002 11.9178 19.3788 12.2031 19.034C12.3835 18.8159 12.5238 18.5331 12.606 18.2002H3.49405Z" fill="var(--fill-0, #212121)"/>
</svg>
