<svg preserveAspectRatio="none" width="100%" height="100%" overflow="visible" style="display: block;" viewBox="0 0 12 15" fill="none" xmlns="http://www.w3.org/2000/svg">
<path id="Vector" d="M6 11C7.32608 11 8.59785 10.4732 9.53553 9.53553C10.4732 8.59785 11 7.32608 11 6V1C11 0.734784 10.8946 0.48043 10.7071 0.292893C10.5196 0.105357 10.2652 0 10 0C9.73478 0 9.48043 0.105357 9.29289 0.292893C9.10536 0.48043 9 0.734784 9 1V6C9 6.79565 8.68393 7.55871 8.12132 8.12132C7.55871 8.68393 6.79565 9 6 9C5.20435 9 4.44129 8.68393 3.87868 8.12132C3.31607 7.55871 3 6.79565 3 6V1C3 0.734784 2.89464 0.48043 2.70711 0.292893C2.51957 0.105357 2.26522 0 2 0C1.73478 0 1.48043 0.105357 1.29289 0.292893C1.10536 0.48043 1 0.734784 1 1V6C1 7.32608 1.52678 8.59785 2.46447 9.53553C3.40215 10.4732 4.67392 11 6 11V11ZM11 13H1C0.734784 13 0.48043 13.1054 0.292893 13.2929C0.105357 13.4804 0 13.7348 0 14C0 14.2652 0.105357 14.5196 0.292893 14.7071C0.48043 14.8946 0.734784 15 1 15H11C11.2652 15 11.5196 14.8946 11.7071 14.7071C11.8946 14.5196 12 14.2652 12 14C12 13.7348 11.8946 13.4804 11.7071 13.2929C11.5196 13.1054 11.2652 13 11 13Z" fill="var(--fill-0, #212121)"/>
</svg>
