<svg preserveAspectRatio="none" width="100%" height="100%" overflow="visible" style="display: block;" viewBox="0 0 19.8942 23.176" fill="none" xmlns="http://www.w3.org/2000/svg">
<g id="Group">
<g id="Mask Group">
<mask id="mask0_9964_87381" style="mask-type:luminance" maskUnits="userSpaceOnUse" x="0" y="0" width="20" height="24">
<path id="Vector" fill-rule="evenodd" clip-rule="evenodd" d="M3.86238e-05 0.0133H19.8942V23.1757H3.86238e-05V0.0133Z" fill="var(--fill-0, white)"/>
</mask>
<g mask="url(#mask0_9964_87381)">
<path id="Exclude" fill-rule="evenodd" clip-rule="evenodd" d="M5.33528 1.7633C3.40212 1.7633 1.79678 3.32897 1.75128 5.2598V17.7653C1.70928 19.7498 3.27262 21.3831 5.23845 21.4263H14.6686C16.6158 21.3563 18.157 19.7498 18.1441 17.7711V7.39597L12.7378 1.7633H5.34928H5.33528ZM5.34928 23.1763H5.20228C2.27162 23.1133 -0.061715 20.6773 0.00128495 17.7466V5.2388C0.0701183 2.3443 2.45945 0.0133 5.33178 0.0133H5.35279H13.11C13.348 0.0133 13.5755 0.110133 13.7411 0.281633L19.6515 6.43813C19.8066 6.6003 19.8941 6.81847 19.8941 7.04363V17.7653C19.9128 20.6925 17.6308 23.0713 14.699 23.1763H5.34928Z" fill="var(--fill-0, #EEEEEE)"/>
</g>
</g>
<path id="Vector_2" fill-rule="evenodd" clip-rule="evenodd" d="M9.49842 17.1499C9.01542 17.1499 8.62342 16.7579 8.62342 16.2749V9.22705C8.62342 8.74405 9.01542 8.35205 9.49842 8.35205C9.98142 8.35205 10.3734 8.74405 10.3734 9.22705V16.2749C10.3734 16.7579 9.98142 17.1499 9.49842 17.1499" fill="var(--fill-0, #EEEEEE)"/>
<path id="Vector_3" fill-rule="evenodd" clip-rule="evenodd" d="M6.76293 12.85C6.5401 12.85 6.3161 12.7648 6.14577 12.5945C5.80393 12.2538 5.8016 11.7008 6.14343 11.3578L8.8781 8.60918C9.2071 8.27902 9.79043 8.27902 10.1183 8.60918L12.8553 11.3578C13.1959 11.7008 13.1948 12.2538 12.8529 12.5945C12.5099 12.9352 11.9558 12.9352 11.6151 12.5922L9.49877 10.4665L7.38243 12.5922C7.2121 12.7648 6.98693 12.85 6.76293 12.85" fill="var(--fill-0, #EEEEEE)"/>
<path id="Vector_4" fill-rule="evenodd" clip-rule="evenodd" d="M19.014 8.148H15.801C13.6648 8.14217 11.93 6.4015 11.93 4.26883V0.875C11.93 0.392 12.322 0 12.805 0C13.288 0 13.68 0.392 13.68 0.875V4.26883C13.68 5.44017 14.632 6.3945 15.8033 6.398H19.014C19.497 6.398 19.889 6.79 19.889 7.273C19.889 7.756 19.497 8.148 19.014 8.148" fill="var(--fill-0, #EEEEEE)"/>
</g>
</svg>
