<svg preserveAspectRatio="none" width="100%" height="100%" overflow="visible" style="display: block;" viewBox="0 0 20 14" fill="none" xmlns="http://www.w3.org/2000/svg">
<path id="Union" fill-rule="evenodd" clip-rule="evenodd" d="M15 0C16.1 0 17 0.9 17 2V4.65C17 5.1 16.85 5.54 16.56 5.9L13.08 10.25C12.7 10.72 12.13 11 11.52 11H8C8 12.66 6.66 14 5 14C3.34 14 2 12.66 2 11H1C0.45 11 0 10.55 0 10V8C0 5.79 1.79 4 4 4H7C7.55 4 8 4.45 8 5V9H11.52L15 4.65V2H13C12.45 2 12 1.55 12 1C12 0.45 12.45 0 13 0H15ZM4 11C4 11.55 4.45 12 5 12C5.55 12 6 11.55 6 11H4ZM7 1H4C3.45 1 3 1.45 3 2C3 2.55 3.45 3 4 3H7C7.55 3 8 2.55 8 2C8 1.45 7.55 1 7 1ZM14 11C14 9.34 15.34 8 17 8C18.66 8 20 9.34 20 11C20 12.66 18.66 14 17 14C15.34 14 14 12.66 14 11ZM16 11C16 11.55 16.45 12 17 12C17.55 12 18 11.55 18 11C18 10.45 17.55 10 17 10C16.45 10 16 10.45 16 11Z" fill="var(--fill-0, #212121)"/>
</svg>
