<svg preserveAspectRatio="none" width="100%" height="100%" overflow="visible" style="display: block;" viewBox="0 0 18.0052 18.0085" fill="none" xmlns="http://www.w3.org/2000/svg">
<path id="Vector" d="M10.1181 15.0034C10.1181 14.8045 10.0391 14.6139 9.89856 14.4732C9.82891 14.4035 9.74619 14.3482 9.65514 14.3104C9.5641 14.2727 9.4665 14.2532 9.36794 14.2532C9.26938 14.2532 9.17178 14.2727 9.08073 14.3104C8.98969 14.3482 8.90697 14.4035 8.83731 14.4732L7.90544 15.4051C7.20203 16.1085 6.24801 16.5037 5.25325 16.5037C4.25849 16.5037 3.30447 16.1085 2.60106 15.4051C1.89766 14.7017 1.50249 13.7477 1.50249 12.7529C1.50249 11.7581 1.89766 10.8041 2.60106 10.1007L4.86231 7.84228C5.20489 7.49958 5.60724 7.22975 6.0452 7.04325L10.2561 11.2542C9.42496 11.2011 8.63129 10.8722 8.00388 10.3145C7.85469 10.1822 7.65907 10.1146 7.46005 10.1265C7.26103 10.1385 7.0749 10.229 6.94263 10.3782C6.81035 10.5274 6.74275 10.723 6.75471 10.922C6.76666 11.1211 6.85719 11.3072 7.00638 11.4395C8.00725 12.3292 9.31031 12.8029 10.6489 12.7635C10.9851 12.7536 11.3172 12.7115 11.641 12.6391L16.0299 17.028C16.3228 17.3209 16.7977 17.3209 17.0906 17.028C17.3835 16.7351 17.3835 16.2602 17.0906 15.9673L13.1613 12.038C13.5398 11.8149 13.8917 11.5433 14.2073 11.2276L16.4686 8.96634C17.4526 7.98063 18.0052 6.64475 18.0052 5.25196C18.0052 3.85918 17.4526 2.5233 16.4686 1.53759V1.53571C15.4829 0.552294 14.1475 0 12.7551 0C11.3628 0 10.0273 0.552294 9.04169 1.53571L8.10981 2.46853C7.96921 2.60926 7.89027 2.80008 7.89035 2.99901C7.89044 3.19795 7.96955 3.3887 8.11028 3.52931C8.25101 3.66991 8.44183 3.74886 8.64077 3.74877C8.83971 3.74868 9.03046 3.66957 9.17106 3.52884L10.1029 2.59696C10.8063 1.89356 11.7604 1.49839 12.7551 1.49839C13.7499 1.49839 14.7039 1.89356 15.4073 2.59696C16.1107 3.30037 16.5059 4.25439 16.5059 5.24915C16.5059 6.24392 16.1107 7.19794 15.4073 7.90134L13.1461 10.1645C12.8258 10.4845 12.4533 10.7409 12.0484 10.9251L7.88505 6.76177C8.66757 6.83947 9.41044 7.16191 10.0045 7.68946C10.0784 7.75496 10.1644 7.80527 10.2577 7.83751C10.351 7.86975 10.4498 7.8833 10.5483 7.87738C10.6469 7.87146 10.7433 7.84619 10.8321 7.80301C10.9208 7.75983 11.0003 7.69958 11.0658 7.62572C11.1312 7.55185 11.1816 7.4658 11.2138 7.37249C11.246 7.27918 11.2596 7.18043 11.2537 7.08189C11.2477 6.98334 11.2225 6.88692 11.1793 6.79815C11.1361 6.70937 11.0759 6.62996 11.002 6.56446C10.0009 5.67494 8.6977 5.20162 7.35909 5.24135C7.05765 5.2503 6.75956 5.28511 6.46777 5.3445L2.5949 1.47162C2.302 1.17873 1.82713 1.17873 1.53424 1.47162C1.24134 1.76452 1.24134 2.23939 1.53424 2.53228L4.92452 5.92256C4.51651 6.15399 4.13811 6.4409 3.80106 6.77821L1.53981 9.03946C0.554327 10.0243 0.000439905 11.3603 2.61638e-07 12.7536C-0.000439144 14.1468 0.552605 15.4832 1.53747 16.4687C2.52233 17.4542 3.85835 18.0081 5.25159 18.0085C6.64484 18.0089 7.9812 17.4559 8.96669 16.471L9.89856 15.5335C10.0391 15.3929 10.1181 15.2022 10.1181 15.0034Z" fill="var(--fill-0, #212121)"/>
</svg>
