<svg preserveAspectRatio="none" width="100%" height="100%" overflow="visible" style="display: block;" viewBox="0 0 20 19.8765" fill="none" xmlns="http://www.w3.org/2000/svg">
<g id="Group">
<path id="Vector" d="M14.659 2.54125C14.7843 2.40148 14.9359 2.28778 15.1052 2.20663C15.2744 2.12548 15.458 2.07847 15.6454 2.0683C15.8328 2.05813 16.0204 2.08499 16.1974 2.14735C16.3745 2.2097 16.5375 2.30634 16.6771 2.43172C17.724 3.3687 18.5611 4.51623 19.1338 5.79918C19.7064 7.08212 20.0016 8.47155 20 9.87648C20 15.4003 15.5229 19.8765 10 19.8765V17.0193C11.4459 17.0194 12.8577 16.5806 14.0489 15.761C15.24 14.9415 16.1544 13.7797 16.6712 12.4294C17.1879 11.079 17.2827 9.60361 16.943 8.19822C16.6033 6.79283 15.8451 5.52363 14.7686 4.55839C14.4866 4.3054 14.3166 3.95077 14.2961 3.5725C14.2756 3.19422 14.4061 2.82327 14.659 2.54125Z" fill="url(#paint0_linear_9940_86598)"/>
<path id="Vector_2" d="M8.33238 0.0155233C8.70251 -0.0394808 9.07945 0.0529367 9.38216 0.272909C9.68487 0.492881 9.88919 0.822844 9.95119 1.19187C10.0132 1.56089 9.92793 1.93951 9.71373 2.24633C9.49953 2.55316 9.17349 2.76369 8.80571 2.83267C7.14204 3.11519 5.63206 3.97745 4.54327 5.26671C3.45448 6.55596 2.85717 8.18898 2.85714 9.87647C2.85714 11.7709 3.60969 13.5877 4.94924 14.9272C6.28878 16.2668 8.10559 17.0193 10 17.0193V19.8765C4.47714 19.8765 0 15.4003 0 9.87647C0 4.97647 3.54857 0.819333 8.33238 0.0155233Z" fill="var(--fill-0, #212121)"/>
</g>
<defs>
<linearGradient id="paint0_linear_9940_86598" x1="15" y1="2.0662" x2="10" y2="17.0188" gradientUnits="userSpaceOnUse">
<stop stop-color="#212121" stop-opacity="0"/>
<stop offset="1" stop-color="#212121"/>
</linearGradient>
</defs>
</svg>
