<svg preserveAspectRatio="none" width="100%" height="100%" overflow="visible" style="display: block;" viewBox="0 0 20 21.003" fill="none" xmlns="http://www.w3.org/2000/svg">
<path id="Vector" fill-rule="evenodd" clip-rule="evenodd" d="M13.8626 13.5576C14.0727 13.5213 14.286 13.5029 14.5002 13.503C15.3011 13.5027 16.0811 13.7588 16.7259 14.2339C17.3707 14.7089 17.8465 15.378 18.0836 16.143C18.2598 16.7116 18.2972 17.311 18.1968 17.8919L19.8327 19.5278C19.9398 19.6349 20 19.7802 20 19.9317C20 20.0832 19.9398 20.2285 19.8327 20.3356C19.7256 20.4427 19.5803 20.5029 19.4288 20.5029C19.2773 20.5029 19.132 20.4427 19.0249 20.3356L17.7739 19.0846C17.4933 19.5859 17.0998 20.0187 16.621 20.3466C15.9603 20.7993 15.172 21.0285 14.3716 21.0007C13.5712 20.973 12.8006 20.6897 12.1729 20.1923C11.5451 19.6949 11.0931 19.0097 10.883 18.2368C10.6729 17.4639 10.7157 16.6441 11.0052 15.8974L6.68335 13.1196C6.16291 13.6539 5.49496 14.0208 4.76489 14.1736C4.03481 14.3263 3.27578 14.2578 2.58481 13.9769C1.89385 13.696 1.30235 13.2154 0.885923 12.5966C0.469499 11.9778 0.24707 11.2489 0.24707 10.503C0.24707 9.75712 0.469499 9.02819 0.885923 8.40938C1.30235 7.79057 1.89385 7.31 2.58481 7.0291C3.27578 6.7482 4.03481 6.67973 4.76489 6.83245C5.23026 6.9298 5.67038 7.1142 6.06315 7.3735L0.168245 1.47842H0.167134C0.0600156 1.37116 -0.000104173 1.22573 1.35505e-07 1.07413C0.000104324 0.922535 0.0604237 0.777189 0.167689 0.670068C0.274955 0.562947 0.420379 0.502826 0.571971 0.50293C0.723563 0.503034 0.868905 0.563355 0.976023 0.670623L7.60152 7.2963L11.0052 5.10863C10.6685 4.24244 10.6655 3.2821 10.9966 2.41377C11.3277 1.54545 11.9695 0.831022 12.7975 0.408992C13.6254 -0.0130381 14.5806 -0.112599 15.4778 0.129611C16.375 0.371822 17.1503 0.938547 17.6534 1.71991C18.1565 2.50128 18.3516 3.44162 18.2007 4.35862C18.0499 5.27562 17.564 6.10395 16.8371 6.68302C16.1103 7.26208 15.1943 7.55063 14.2668 7.49272C13.3392 7.4348 12.4663 7.03455 11.8171 6.36957L8.68674 8.38155L13.8626 13.5576ZM12.6702 13.9807L7.70327 9.01366L7.49522 9.14738C7.83519 10.0192 7.83519 10.9868 7.49522 11.8586L11.8171 14.6364C12.0689 14.3774 12.3563 14.1567 12.6702 13.9807ZM13.8031 15.1137L16.6395 17.9501C16.5307 18.284 16.3442 18.591 16.0912 18.844C15.6693 19.2659 15.097 19.503 14.5002 19.503C14.0552 19.503 13.6202 19.371 13.2502 19.1238C12.8802 18.8766 12.5918 18.5252 12.4215 18.114C12.2512 17.7029 12.2066 17.2505 12.2935 16.814C12.3803 16.3776 12.5946 15.9767 12.9092 15.662C13.1607 15.4105 13.4673 15.2231 13.8031 15.1137ZM16.4693 16.1644L15.5889 15.2839C15.9022 15.4572 16.1708 15.7033 16.371 16.003C16.4061 16.0555 16.4389 16.1094 16.4693 16.1644ZM15.7503 1.8822C15.3802 1.63496 14.9452 1.503 14.5002 1.503C13.9035 1.503 13.3312 1.74006 12.9092 2.16201C12.4873 2.58397 12.2502 3.15627 12.2502 3.753C12.2502 4.19801 12.3822 4.63303 12.6294 5.00304C12.8767 5.37305 13.2281 5.66144 13.6392 5.83173C14.0503 6.00203 14.5027 6.04659 14.9392 5.95977C15.3756 5.87295 15.7765 5.65866 16.0912 5.34399C16.4059 5.02933 16.6202 4.62841 16.707 4.19196C16.7938 3.7555 16.7493 3.3031 16.579 2.89197C16.4087 2.48083 16.1203 2.12943 15.7503 1.8822ZM2.75019 12.3738C3.1202 12.621 3.55522 12.753 4.00023 12.753C4.59696 12.753 5.16926 12.516 5.59122 12.094C6.01317 11.672 6.25023 11.0997 6.25023 10.503C6.25023 10.058 6.11827 9.62298 5.87103 9.25297C5.6238 8.88296 5.2724 8.59457 4.86126 8.42427C4.45013 8.25398 3.99773 8.20942 3.56127 8.29624C3.12481 8.38305 2.7239 8.59734 2.40924 8.91201C2.09457 9.22668 1.88028 9.62759 1.79346 10.0641C1.70664 10.5005 1.7512 10.9529 1.9215 11.364C2.09179 11.7752 2.38018 12.1266 2.75019 12.3738Z" fill="var(--fill-0, #212121)"/>
</svg>
