<svg preserveAspectRatio="none" width="100%" height="100%" overflow="visible" style="display: block;" viewBox="0 0 20.8978 18.6711" fill="none" xmlns="http://www.w3.org/2000/svg">
<path id="Vector" d="M13.7728 4.42109C13.131 4.4207 12.4922 4.50679 11.8734 4.67703C11.6291 4.2785 11.3324 3.91462 10.9912 3.59515L11.8828 2.32297C11.9393 2.24227 11.9793 2.15122 12.0007 2.05504C12.022 1.95886 12.0242 1.85941 12.0071 1.76239C11.99 1.66537 11.9539 1.57267 11.901 1.48957C11.848 1.40648 11.7793 1.33463 11.6986 1.27812C11.6179 1.22161 11.5268 1.18155 11.4306 1.16023C11.3344 1.1389 11.235 1.13673 11.138 1.15384C11.041 1.17094 10.9483 1.20699 10.8652 1.25993C10.7821 1.31286 10.7102 1.38164 10.6537 1.46234L9.76215 2.73359C9.02899 2.36341 8.21909 2.17073 7.39777 2.17109H7.23465L6.96371 0.643904C6.94949 0.544394 6.91541 0.448758 6.8635 0.362678C6.81159 0.276599 6.7429 0.201834 6.66152 0.142825C6.58015 0.0838166 6.48774 0.0417688 6.38979 0.0191807C6.29184 -0.00340731 6.19034 -0.0060748 6.09134 0.0113369C5.99234 0.0287486 5.89785 0.0658841 5.81348 0.120537C5.72912 0.175189 5.6566 0.246243 5.60024 0.329477C5.54388 0.41271 5.50482 0.506424 5.48539 0.60505C5.46597 0.703676 5.46656 0.805201 5.48715 0.903591L5.75715 2.43547C4.92536 2.71058 4.17547 3.18913 3.57559 3.82765L2.29871 2.93422C2.21807 2.87632 2.12674 2.835 2.03002 2.81267C1.93329 2.79034 1.8331 2.78743 1.73524 2.80411C1.63738 2.82079 1.54381 2.85674 1.45995 2.90986C1.37608 2.96298 1.3036 3.03222 1.2467 3.11357C1.1898 3.19491 1.14962 3.28674 1.12848 3.38374C1.10734 3.48073 1.10567 3.58096 1.12356 3.6786C1.14145 3.77625 1.17855 3.86937 1.2327 3.95257C1.28685 4.03577 1.35698 4.10739 1.43902 4.16328L2.71027 5.05578C2.33878 5.78879 2.14603 6.59932 2.14777 7.42109V7.58234L0.620586 7.85234C0.435736 7.88472 0.269742 7.98523 0.155373 8.13402C0.0410041 8.2828 -0.0134296 8.46906 0.00281754 8.65602C0.0190647 8.84298 0.104812 9.01706 0.243133 9.14389C0.381454 9.27072 0.562296 9.34108 0.749961 9.34109C0.793638 9.34103 0.837232 9.33727 0.880273 9.32984L2.41027 9.05984C2.5447 9.46913 2.72923 9.86022 2.95965 10.2242C2.24226 10.8906 1.74215 11.7575 1.52443 12.7121C1.30671 13.6667 1.38148 14.6647 1.739 15.5762C2.09651 16.4877 2.72021 17.2704 3.52887 17.8224C4.33753 18.3744 5.29367 18.6702 6.27277 18.6711H13.7728C15.6624 18.6711 17.4747 17.9204 18.8109 16.5842C20.1471 15.248 20.8978 13.4358 20.8978 11.5461C20.8978 9.65642 20.1471 7.84415 18.8109 6.50796C17.4747 5.17176 15.6624 4.42109 13.7728 4.42109ZM3.64777 7.42109C3.64822 6.62689 3.90081 5.85334 4.36913 5.21192C4.83745 4.57049 5.49732 4.09432 6.25365 3.85201C7.00998 3.6097 7.82371 3.61377 8.57758 3.86364C9.33145 4.1135 9.98652 4.59626 10.4484 5.24234C8.91848 6.04747 7.73213 7.3797 7.10902 8.99234C6.12309 8.82216 5.10869 8.95861 4.20277 9.38328C3.84008 8.79304 3.64798 8.11386 3.64777 7.42109ZM13.7728 17.1711H6.27277C5.81117 17.1702 5.35465 17.0747 4.93144 16.8904C4.50823 16.7061 4.12732 16.4369 3.81227 16.0996C3.49722 15.7622 3.25473 15.3638 3.09979 14.929C2.94485 14.4941 2.88075 14.0321 2.91146 13.5716C2.94217 13.111 3.06703 12.6616 3.27833 12.2512C3.48963 11.8408 3.78287 11.4781 4.13992 11.1855C4.49697 10.893 4.91024 10.6768 5.35417 10.5503C5.79811 10.4238 6.26327 10.3897 6.7209 10.4502C6.68621 10.6723 6.66184 10.8992 6.64871 11.128C6.64305 11.2265 6.65684 11.3251 6.6893 11.4183C6.72176 11.5114 6.77225 11.5973 6.83789 11.6709C6.90353 11.7446 6.98303 11.8046 7.07186 11.8475C7.16068 11.8904 7.2571 11.9154 7.35559 11.9211C7.45408 11.9268 7.55272 11.913 7.64588 11.8805C7.73904 11.848 7.8249 11.7976 7.89855 11.7319C7.9722 11.6663 8.03219 11.5868 8.07512 11.4979C8.11804 11.4091 8.14305 11.3127 8.14871 11.2142C8.16975 10.8401 8.22881 10.4692 8.32496 10.107C8.32496 10.092 8.3334 10.077 8.33621 10.062C8.61187 9.04901 9.16526 8.13323 9.9339 7.41811C10.7025 6.70299 11.6558 6.217 12.686 6.01502C13.7163 5.81305 14.7825 5.90313 15.7642 6.2751C16.746 6.64707 17.6042 7.28611 18.2419 8.12006C18.8797 8.95401 19.2716 9.94965 19.3734 10.9946C19.4752 12.0395 19.2828 13.092 18.818 14.0334C18.3532 14.9747 17.6344 15.7674 16.7429 16.3218C15.8514 16.8763 14.8226 17.1704 13.7728 17.1711Z" fill="var(--fill-0, #212121)"/>
</svg>
