<svg preserveAspectRatio="none" width="100%" height="100%" overflow="visible" style="display: block;" viewBox="0 0 18.7506 18" fill="none" xmlns="http://www.w3.org/2000/svg">
<path id="Vector" d="M9.75056 4.49545V8.57077L13.1368 10.6023C13.3074 10.7048 13.4303 10.8708 13.4784 11.0638C13.5266 11.2569 13.4961 11.4611 13.3937 11.6317C13.2912 11.8023 13.1252 11.9252 12.9322 11.9733C12.7392 12.0215 12.5349 11.991 12.3643 11.8886L8.61431 9.63858C8.50332 9.5719 8.41149 9.47762 8.34774 9.36492C8.284 9.25222 8.25052 9.12493 8.25056 8.99545V4.49545C8.25056 4.29654 8.32958 4.10578 8.47023 3.96512C8.61088 3.82447 8.80165 3.74545 9.00056 3.74545C9.19947 3.74545 9.39024 3.82447 9.53089 3.96512C9.67154 4.10578 9.75056 4.29654 9.75056 4.49545ZM18.0006 2.24545C17.8016 2.24545 17.6109 2.32447 17.4702 2.46512C17.3296 2.60578 17.2506 2.79654 17.2506 2.99545V4.68295C16.6552 3.99295 16.0477 3.32827 15.3643 2.63639C14.1135 1.38549 12.5219 0.530915 10.7882 0.179443C9.05454 -0.172029 7.25573 -0.00481046 5.61655 0.660204C3.97737 1.32522 2.5705 2.45854 1.57175 3.91856C0.572996 5.37857 0.0266395 7.10054 0.000949522 8.8693C-0.0247405 10.6381 0.471375 12.3752 1.42731 13.8636C2.38324 15.352 3.75659 16.5257 5.37577 17.238C6.99494 17.9504 8.78814 18.1697 10.5313 17.8688C12.2744 17.5678 13.8902 16.7598 15.1768 15.5458C15.2485 15.4781 15.3061 15.3969 15.3464 15.3069C15.3866 15.2169 15.4088 15.1199 15.4116 15.0214C15.4144 14.9228 15.3977 14.8247 15.3626 14.7326C15.3275 14.6405 15.2745 14.5562 15.2068 14.4845C15.1391 14.4129 15.0579 14.3552 14.968 14.315C14.878 14.2747 14.7809 14.2525 14.6824 14.2497C14.5839 14.2469 14.4857 14.2636 14.3936 14.2987C14.3015 14.3339 14.2172 14.3868 14.1456 14.4545C13.0731 15.4652 11.7267 16.1376 10.2744 16.3876C8.82207 16.6377 7.32829 16.4543 5.97957 15.8605C4.63085 15.2667 3.48695 14.2887 2.69073 13.0486C1.89451 11.8086 1.48124 10.3615 1.50254 8.88797C1.52384 7.41446 1.97877 5.97988 2.8105 4.76337C3.64224 3.54686 4.81393 2.60234 6.17925 2.04775C7.54457 1.49316 9.04303 1.35308 10.4875 1.64501C11.9319 1.93693 13.2584 2.64793 14.3012 3.6892C15.0643 4.4617 15.7327 5.20608 16.4068 5.99545H14.2506C14.0516 5.99545 13.8609 6.07447 13.7202 6.21512C13.5796 6.35578 13.5006 6.54654 13.5006 6.74545C13.5006 6.94437 13.5796 7.13513 13.7202 7.27578C13.8609 7.41644 14.0516 7.49545 14.2506 7.49545H18.0006C18.1995 7.49545 18.3902 7.41644 18.5309 7.27578C18.6715 7.13513 18.7506 6.94437 18.7506 6.74545V2.99545C18.7506 2.79654 18.6715 2.60578 18.5309 2.46512C18.3902 2.32447 18.1995 2.24545 18.0006 2.24545Z" fill="var(--fill-0, #212121)"/>
</svg>
