<svg preserveAspectRatio="none" width="100%" height="100%" overflow="visible" style="display: block;" viewBox="0 0 24.0024 14.25" fill="none" xmlns="http://www.w3.org/2000/svg">
<path id="Vector" d="M20.2492 6.75C20.0419 6.75047 19.835 6.76772 19.6305 6.80156L19.0849 5.38219C19.4668 5.29453 19.8574 5.25019 20.2492 5.25C20.4481 5.25 20.6389 5.17098 20.7796 5.03033C20.9202 4.88968 20.9992 4.69891 20.9992 4.5C20.9992 4.30109 20.9202 4.11032 20.7796 3.96967C20.6389 3.82902 20.4481 3.75 20.2492 3.75H18.4567L17.1995 0.480938C17.1451 0.339364 17.0491 0.217613 16.9241 0.131751C16.799 0.0458896 16.6509 -4.79357e-05 16.4992 3.7536e-08H13.4992C13.3003 3.7536e-08 13.1096 0.0790178 12.9689 0.21967C12.8283 0.360322 12.7492 0.551088 12.7492 0.75C12.7492 0.948912 12.8283 1.13968 12.9689 1.28033C13.1096 1.42098 13.3003 1.5 13.4992 1.5H15.9845L16.8499 3.75H14.2492C12.5149 3.75 11.1086 4.15406 10.1833 4.91812C9.96555 5.09378 9.70302 5.20504 9.42536 5.23933C9.1477 5.27363 8.86599 5.22959 8.61205 5.11219C7.62017 4.66125 2.91767 2.74969 2.5033 2.5875L1.96798 2.3775C1.81882 2.31229 1.66088 2.26933 1.49923 2.25C1.32438 2.25042 1.15517 2.31192 1.02085 2.42388C0.886537 2.53583 0.795557 2.69119 0.763643 2.86311C0.731728 3.03502 0.760884 3.21269 0.846071 3.36539C0.931257 3.51809 1.06712 3.63622 1.23017 3.69937C1.2733 3.71625 5.65423 5.415 7.99236 6.47719C8.50235 6.7092 9.06691 6.79447 9.62267 6.72343C10.1784 6.65239 10.7034 6.42784 11.1386 6.075C11.5942 5.7 12.5045 5.25 14.2502 5.25H16.0145C14.9197 6.1289 14.1274 7.3284 13.7486 8.68031C13.6579 8.99077 13.4684 9.26317 13.2088 9.4562C12.9493 9.64924 12.6339 9.75239 12.3105 9.75H7.42423C7.23837 8.83947 6.72104 8.03038 5.97254 7.4796C5.22404 6.92882 4.29769 6.67559 3.37309 6.76899C2.44849 6.86239 1.5915 7.29578 0.968282 7.98514C0.34506 8.67449 0 9.57069 0 10.5C0 11.4293 0.34506 12.3255 0.968282 13.0149C1.5915 13.7042 2.44849 14.1376 3.37309 14.231C4.29769 14.3244 5.22404 14.0712 5.97254 13.5204C6.72104 12.9696 7.23837 12.1605 7.42423 11.25H12.3105C12.961 11.2514 13.5942 11.0408 14.1142 10.65C14.6343 10.2592 15.0128 9.70959 15.1924 9.08437C15.3794 8.41935 15.6959 7.79778 16.1237 7.25531C16.5515 6.71284 17.0821 6.26013 17.6852 5.92313L18.2308 7.34156C17.4706 7.82811 16.9115 8.57248 16.6559 9.43807C16.4003 10.3037 16.4655 11.2324 16.8394 12.0538C17.2134 12.8752 17.8711 13.5342 18.6917 13.9098C19.5124 14.2854 20.441 14.3525 21.3071 14.0986C22.1732 13.8448 22.9187 13.2871 23.4067 12.5279C23.8948 11.7688 24.0927 10.859 23.9641 9.9657C23.8355 9.07237 23.3891 8.25539 22.7067 7.6647C22.0243 7.07401 21.1518 6.74924 20.2492 6.75ZM3.74923 11.25H5.86986C5.69294 11.7504 5.34481 12.1722 4.887 12.4407C4.42919 12.7093 3.89118 12.8073 3.36806 12.7176C2.84494 12.6278 2.37039 12.356 2.02828 11.9502C1.68617 11.5444 1.49854 11.0308 1.49854 10.5C1.49854 9.96923 1.68617 9.45556 2.02828 9.04975C2.37039 8.64395 2.84494 8.37216 3.36806 8.2824C3.89118 8.19265 4.42919 8.29072 4.887 8.55928C5.34481 8.82783 5.69294 9.24959 5.86986 9.75H3.74923C3.55032 9.75 3.35956 9.82902 3.2189 9.96967C3.07825 10.1103 2.99923 10.3011 2.99923 10.5C2.99923 10.6989 3.07825 10.8897 3.2189 11.0303C3.35956 11.171 3.55032 11.25 3.74923 11.25ZM20.2492 12.75C19.7896 12.7494 19.3413 12.6081 18.9644 12.3451C18.5875 12.0821 18.3002 11.71 18.1411 11.2788C17.982 10.8476 17.9588 10.3781 18.0746 9.93328C18.1903 9.48851 18.4395 9.08986 18.7886 8.79094L19.5489 10.7691C19.6203 10.9548 19.7625 11.1046 19.9443 11.1855C20.1261 11.2663 20.3326 11.2717 20.5183 11.2003C20.704 11.129 20.8538 10.9867 20.9347 10.8049C21.0156 10.6231 21.0209 10.4167 20.9495 10.2309L20.1883 8.25H20.2492C20.846 8.25 21.4183 8.48705 21.8402 8.90901C22.2622 9.33097 22.4992 9.90326 22.4992 10.5C22.4992 11.0967 22.2622 11.669 21.8402 12.091C21.4183 12.5129 20.846 12.75 20.2492 12.75Z" fill="var(--fill-0, #212121)"/>
</svg>
