<svg preserveAspectRatio="none" width="100%" height="100%" overflow="visible" style="display: block;" viewBox="0 0 20 14" fill="none" xmlns="http://www.w3.org/2000/svg">
<path id="Vector" d="M1 12C0.71667 12 0.479003 11.904 0.287003 11.712C0.0950034 11.52 -0.000663206 11.2827 3.46021e-06 11V3C3.46021e-06 2.71667 0.0960036 2.479 0.288004 2.287C0.480004 2.095 0.717337 1.99934 1 2H3C3.28334 2 3.521 2.096 3.713 2.288C3.905 2.48 4.00067 2.71734 4 3V11C4 11.2833 3.904 11.521 3.712 11.713C3.52 11.905 3.28267 12.0007 3 12H1ZM6 14C5.71667 14 5.479 13.904 5.287 13.712C5.095 13.52 4.99934 13.2827 5 13V1C5 0.71667 5.096 0.479004 5.288 0.287004C5.48 0.0950036 5.71734 -0.000663206 6 3.4602e-06H14C14.2833 3.4602e-06 14.521 0.0960036 14.713 0.288004C14.905 0.480004 15.0007 0.717337 15 1V13C15 13.2833 14.904 13.521 14.712 13.713C14.52 13.905 14.2827 14.0007 14 14H6ZM17 12C16.7167 12 16.479 11.904 16.287 11.712C16.095 11.52 15.9993 11.2827 16 11V3C16 2.71667 16.096 2.479 16.288 2.287C16.48 2.095 16.7173 1.99934 17 2H19C19.2833 2 19.521 2.096 19.713 2.288C19.905 2.48 20.0007 2.71734 20 3V11C20 11.2833 19.904 11.521 19.712 11.713C19.52 11.905 19.2827 12.0007 19 12H17Z" fill="var(--fill-0, #212121)"/>
</svg>
