<svg preserveAspectRatio="none" width="100%" height="100%" overflow="visible" style="display: block;" viewBox="0 0 20 20" fill="none" xmlns="http://www.w3.org/2000/svg">
<path id="Vector" d="M18.772 8.155L17.404 4.051C17.2056 3.45348 16.8238 2.9337 16.3131 2.56551C15.8024 2.19731 15.1886 1.99944 14.559 2H12V0H8V2H5.441C4.81139 1.99944 4.19761 2.19731 3.68688 2.56551C3.17615 2.9337 2.79445 3.45348 2.596 4.051L1.228 8.155C0.864222 8.30721 0.55356 8.56357 0.335067 8.89185C0.116573 9.22012 -4.809e-07 9.60566 0 10V15C0 15.738 0.404 16.376 1 16.723V19C1 19.2652 1.10536 19.5196 1.29289 19.7071C1.48043 19.8946 1.73478 20 2 20H3C3.26522 20 3.51957 19.8946 3.70711 19.7071C3.89464 19.5196 4 19.2652 4 19V17H16V19C16 19.2652 16.1054 19.5196 16.2929 19.7071C16.4804 19.8946 16.7348 20 17 20H18C18.2652 20 18.5196 19.8946 18.7071 19.7071C18.8946 19.5196 19 19.2652 19 19V16.723C19.3034 16.549 19.5556 16.2981 19.7311 15.9956C19.9067 15.6932 19.9994 15.3497 20 15V10C20 9.60566 19.8834 9.22012 19.6649 8.89185C19.4464 8.56357 19.1358 8.30721 18.772 8.155ZM5.441 4H14.558C14.989 4 15.371 4.274 15.507 4.684L16.613 8H3.387L4.492 4.684C4.55835 4.48479 4.68572 4.31153 4.85605 4.18876C5.02638 4.06599 5.23104 3.99995 5.441 4V4ZM3.5 14C3.30295 13.9999 3.10785 13.9611 2.92582 13.8856C2.7438 13.8101 2.57842 13.6995 2.43913 13.5602C2.29984 13.4208 2.18937 13.2553 2.11403 13.0733C2.03868 12.8912 1.99993 12.696 2 12.499C2.00007 12.302 2.03894 12.1068 2.11441 11.9248C2.18988 11.7428 2.30046 11.5774 2.43984 11.4381C2.57922 11.2988 2.74467 11.1884 2.92675 11.113C3.10882 11.0377 3.30395 10.9989 3.501 10.999C3.89896 10.9991 4.28056 11.1573 4.56187 11.4388C4.84317 11.7203 5.00113 12.102 5.001 12.5C5.00087 12.898 4.84265 13.2796 4.56116 13.5609C4.27967 13.8422 3.89796 14.0001 3.5 14V14ZM16.5 14C16.303 13.9999 16.1078 13.9611 15.9258 13.8856C15.7438 13.8101 15.5784 13.6995 15.4391 13.5602C15.2998 13.4208 15.1894 13.2553 15.114 13.0733C15.0387 12.8912 14.9999 12.696 15 12.499C15.0001 12.302 15.0389 12.1068 15.1144 11.9248C15.1899 11.7428 15.3005 11.5774 15.4398 11.4381C15.5792 11.2988 15.7447 11.1884 15.9267 11.113C16.1088 11.0377 16.304 10.9989 16.501 10.999C16.899 10.9991 17.2806 11.1573 17.5619 11.4388C17.8432 11.7203 18.0011 12.102 18.001 12.5C18.0009 12.898 17.8427 13.2796 17.5612 13.5609C17.2797 13.8422 16.898 14.0001 16.5 14V14Z" fill="var(--fill-0, #212121)"/>
</svg>
