<svg preserveAspectRatio="none" width="100%" height="100%" overflow="visible" style="display: block;" viewBox="0 0 19.5054 18.0027" fill="none" xmlns="http://www.w3.org/2000/svg">
<path id="Vector" d="M18.8465 4.54021L14.9652 0.658957C14.5433 0.237032 13.971 0 13.3743 0C12.7776 0 12.2053 0.237032 11.7833 0.658957L0.658957 11.7833C0.237032 12.2053 0 12.7776 0 13.3743C0 13.971 0.237032 14.5433 0.658957 14.9652L3.47708 17.7833C3.54701 17.8532 3.63005 17.9085 3.72144 17.9462C3.81282 17.9838 3.91075 18.003 4.00958 18.0027H18.0027C18.2016 18.0027 18.3924 17.9237 18.533 17.783C18.6737 17.6424 18.7527 17.4516 18.7527 17.2527C18.7527 17.0538 18.6737 16.863 18.533 16.7224C18.3924 16.5817 18.2016 16.5027 18.0027 16.5027H10.0621L18.8465 7.72208C19.2684 7.30013 19.5054 6.72786 19.5054 6.13115C19.5054 5.53443 19.2684 4.96216 18.8465 4.54021ZM7.94146 16.5027H4.3199L1.72114 13.904C1.5806 13.7633 1.50165 13.5726 1.50165 13.3738C1.50165 13.175 1.5806 12.9843 1.72114 12.8436L6.75271 7.81302L11.6924 12.7527L7.94146 16.5027ZM17.7852 6.65896L12.7527 11.6924L7.81302 6.75271L12.8465 1.72208C12.9161 1.65235 12.9988 1.59703 13.0899 1.55929C13.1809 1.52154 13.2785 1.50212 13.3771 1.50212C13.4756 1.50212 13.5732 1.52154 13.6643 1.55929C13.7553 1.59703 13.8381 1.65235 13.9077 1.72208L17.7871 5.60146C17.9276 5.7421 18.0066 5.93279 18.0066 6.13161C18.0066 6.33044 17.9276 6.52113 17.7871 6.66177L17.7852 6.65896Z" fill="var(--fill-0, #212121)"/>
</svg>
