<svg preserveAspectRatio="none" width="100%" height="100%" overflow="visible" style="display: block;" viewBox="0 0 21 22.75" fill="none" xmlns="http://www.w3.org/2000/svg">
<path id="Vector" d="M19.25 1.75H16.625V0.875C16.625 0.642936 16.5328 0.420376 16.3687 0.256282C16.2046 0.0921872 15.9821 0 15.75 0C15.5179 0 15.2954 0.0921872 15.1313 0.256282C14.9672 0.420376 14.875 0.642936 14.875 0.875V1.75H6.125V0.875C6.125 0.642936 6.03281 0.420376 5.86872 0.256282C5.70462 0.0921872 5.48206 0 5.25 0C5.01794 0 4.79538 0.0921872 4.63128 0.256282C4.46719 0.420376 4.375 0.642936 4.375 0.875V1.75H1.75C1.28587 1.75 0.840752 1.93437 0.512563 2.26256C0.184374 2.59075 0 3.03587 0 3.5V21C0 21.4641 0.184374 21.9092 0.512563 22.2374C0.840752 22.5656 1.28587 22.75 1.75 22.75H19.25C19.7141 22.75 20.1592 22.5656 20.4874 22.2374C20.8156 21.9092 21 21.4641 21 21V3.5C21 3.03587 20.8156 2.59075 20.4874 2.26256C20.1592 1.93437 19.7141 1.75 19.25 1.75ZM4.375 3.5V4.375C4.375 4.60706 4.46719 4.82962 4.63128 4.99372C4.79538 5.15781 5.01794 5.25 5.25 5.25C5.48206 5.25 5.70462 5.15781 5.86872 4.99372C6.03281 4.82962 6.125 4.60706 6.125 4.375V3.5H14.875V4.375C14.875 4.60706 14.9672 4.82962 15.1313 4.99372C15.2954 5.15781 15.5179 5.25 15.75 5.25C15.9821 5.25 16.2046 5.15781 16.3687 4.99372C16.5328 4.82962 16.625 4.60706 16.625 4.375V3.5H19.25V7H1.75V3.5H4.375ZM19.25 21H1.75V8.75H19.25V21ZM15.0566 11.6309C15.1379 11.7122 15.2025 11.8087 15.2465 11.9149C15.2905 12.0212 15.3132 12.135 15.3132 12.25C15.3132 12.365 15.2905 12.4788 15.2465 12.5851C15.2025 12.6913 15.1379 12.7878 15.0566 12.8691L9.80656 18.1191C9.7253 18.2004 9.6288 18.265 9.52257 18.309C9.41635 18.353 9.30249 18.3757 9.1875 18.3757C9.07251 18.3757 8.95865 18.353 8.85243 18.309C8.7462 18.265 8.6497 18.2004 8.56844 18.1191L5.94344 15.4941C5.77925 15.3299 5.68701 15.1072 5.68701 14.875C5.68701 14.6428 5.77925 14.4201 5.94344 14.2559C6.10762 14.0918 6.33031 13.9995 6.5625 13.9995C6.79469 13.9995 7.01738 14.0918 7.18156 14.2559L9.1875 16.263L13.8184 11.6309C13.8997 11.5496 13.9962 11.485 14.1024 11.441C14.2087 11.397 14.3225 11.3743 14.4375 11.3743C14.5525 11.3743 14.6663 11.397 14.7726 11.441C14.8788 11.485 14.9753 11.5496 15.0566 11.6309Z" fill="var(--fill-0, white)"/>
</svg>
