<svg preserveAspectRatio="none" width="100%" height="100%" overflow="visible" style="display: block;" viewBox="0 0 21.7542 17.251" fill="none" xmlns="http://www.w3.org/2000/svg">
<path id="Vector" d="M21.3129 4.774L9.27446 16.8115C9.13517 16.9508 8.9698 17.0613 8.78778 17.1367C8.60577 17.2121 8.41069 17.251 8.21368 17.251C8.01667 17.251 7.82159 17.2121 7.63958 17.1367C7.45757 17.0613 7.29219 16.9508 7.1529 16.8115L0.438524 10.0615C0.157719 9.78026 0 9.39908 0 9.00165C0 8.60423 0.157719 8.22305 0.438524 7.94181L2.68852 5.69181C2.96886 5.4114 3.34882 5.25339 3.74533 5.25234C4.14184 5.25129 4.52264 5.40727 4.80446 5.68618L8.23946 8.99275L8.24977 9.00306L16.9432 0.437122C17.2243 0.157175 17.6049 0 18.0016 0C18.3984 0 18.779 0.157175 19.0601 0.437122L21.3101 2.64587C21.4506 2.7851 21.5622 2.95074 21.6384 3.13325C21.7146 3.31577 21.754 3.51155 21.7542 3.70935C21.7545 3.90714 21.7156 4.10304 21.6399 4.28575C21.5642 4.46847 21.453 4.6344 21.3129 4.774Z" fill="var(--fill-0, #212121)"/>
</svg>
