<svg preserveAspectRatio="none" width="100%" height="100%" overflow="visible" style="display: block;" viewBox="0 0 15.8974 20" fill="none" xmlns="http://www.w3.org/2000/svg">
<path id="Vector" d="M15.6718 5.89744L10 0.225641C9.85588 0.0813411 9.66036 0.000179541 9.45641 0H6.92308C6.17503 0 5.45762 0.29716 4.92867 0.826109C4.39972 1.35506 4.10256 2.07247 4.10256 2.82051V4.10256H2.82051C2.07247 4.10256 1.35506 4.39972 0.826109 4.92867C0.29716 5.45762 0 6.17503 0 6.92308V17.1795C0 17.9275 0.29716 18.6449 0.826109 19.1739C1.35506 19.7028 2.07247 20 2.82051 20H10C10.748 20 11.4655 19.7028 11.9944 19.1739C12.5234 18.6449 12.8205 17.9275 12.8205 17.1795V15.8974H13.0769C13.825 15.8974 14.5424 15.6003 15.0713 15.0713C15.6003 14.5424 15.8974 13.825 15.8974 13.0769V6.41026C15.8894 6.21703 15.8088 6.03393 15.6718 5.89744ZM10.2564 2.62564L13.2718 5.64103H10.2564V2.62564ZM11.2821 17.1795C11.2821 17.5195 11.147 17.8456 10.9065 18.086C10.6661 18.3265 10.34 18.4615 10 18.4615H2.82051C2.48049 18.4615 2.1544 18.3265 1.91397 18.086C1.67353 17.8456 1.53846 17.5195 1.53846 17.1795V6.92308C1.53846 6.58306 1.67353 6.25696 1.91397 6.01653C2.1544 5.7761 2.48049 5.64103 2.82051 5.64103H4.10256V13.0769C4.10256 13.825 4.39972 14.5424 4.92867 15.0713C5.45762 15.6003 6.17503 15.8974 6.92308 15.8974H11.2821V17.1795ZM13.0769 14.359H6.92308C6.58306 14.359 6.25696 14.2239 6.01653 13.9835C5.7761 13.743 5.64103 13.4169 5.64103 13.0769V2.82051C5.64103 2.48049 5.7761 2.1544 6.01653 1.91397C6.25696 1.67353 6.58306 1.53846 6.92308 1.53846H8.71795V6.41026C8.72061 6.61344 8.8025 6.80756 8.94619 6.95125C9.08988 7.09493 9.28399 7.17683 9.48718 7.17949H14.359V13.0769C14.359 13.4169 14.2239 13.743 13.9835 13.9835C13.743 14.2239 13.4169 14.359 13.0769 14.359Z" fill="var(--fill-0, #212121)"/>
</svg>
