<svg preserveAspectRatio="none" width="100%" height="100%" overflow="visible" style="display: block;" viewBox="0 0 22.7567 16.6283" fill="none" xmlns="http://www.w3.org/2000/svg">
<path id="Vector" d="M22.3695 2.24228L8.36946 16.2423C8.24753 16.3646 8.10264 16.4617 7.9431 16.528C7.78356 16.5942 7.61252 16.6283 7.43978 16.6283C7.26703 16.6283 7.09599 16.5942 6.93645 16.528C6.77692 16.4617 6.63202 16.3646 6.51009 16.2423L0.385089 10.1173C0.263001 9.99519 0.166155 9.85025 0.100081 9.69073C0.0340076 9.53122 1.81926e-09 9.36025 0 9.18759C-1.81926e-09 9.01493 0.0340076 8.84396 0.100081 8.68445C0.166155 8.52493 0.263001 8.37999 0.385089 8.2579C0.507177 8.13581 0.652117 8.03897 0.811633 7.97289C0.971149 7.90682 1.14212 7.87281 1.31478 7.87281C1.48744 7.87281 1.6584 7.90682 1.81792 7.97289C1.97744 8.03897 2.12238 8.13581 2.24446 8.2579L7.44087 13.4543L20.5123 0.385089C20.7588 0.13852 21.0933 0 21.442 0C21.7907 0 22.1251 0.13852 22.3717 0.385089C22.6182 0.631657 22.7567 0.966076 22.7567 1.31478C22.7567 1.66348 22.6182 1.9979 22.3717 2.24446L22.3695 2.24228Z" fill="var(--fill-0, #FF6347)"/>
</svg>
