<svg preserveAspectRatio="none" width="100%" height="100%" overflow="visible" style="display: block;" viewBox="0 0 15 18" fill="none" xmlns="http://www.w3.org/2000/svg">
<path id="Vector" d="M14.25 0C14.0511 0 13.8603 0.0790178 13.7197 0.21967C13.579 0.360322 13.5 0.551088 13.5 0.75V7.24031L2.29031 0.229688C2.06456 0.0879731 1.80504 0.0091765 1.5386 0.00145626C1.27217 -0.00626398 1.00852 0.0573728 0.774943 0.185778C0.541366 0.314183 0.346358 0.502688 0.210107 0.731776C0.0738567 0.960865 0.00131754 1.22221 0 1.48875V16.5112C0.00280143 16.7772 0.0762605 17.0376 0.212849 17.2658C0.349438 17.494 0.544245 17.6818 0.777307 17.8099C1.01037 17.938 1.27331 18.0019 1.53917 17.9949C1.80504 17.988 2.06427 17.9105 2.29031 17.7703L13.5 10.7597V17.25C13.5 17.4489 13.579 17.6397 13.7197 17.7803C13.8603 17.921 14.0511 18 14.25 18C14.4489 18 14.6397 17.921 14.7803 17.7803C14.921 17.6397 15 17.4489 15 17.25V0.75C15 0.551088 14.921 0.360322 14.7803 0.21967C14.6397 0.0790178 14.4489 0 14.25 0ZM1.5 16.4934V1.50469L13.485 9.00469L1.5 16.4934Z" fill="var(--fill-0, #212121)"/>
</svg>
