<svg preserveAspectRatio="none" width="100%" height="100%" overflow="visible" style="display: block;" viewBox="0 0 15.9375 15.9375" fill="none" xmlns="http://www.w3.org/2000/svg">
<path id="Vector" d="M11.425 5.7625C11.5128 5.85039 11.5621 5.96953 11.5621 6.09375C11.5621 6.21797 11.5128 6.33711 11.425 6.425L7.05 10.8C6.96211 10.8878 6.84297 10.9371 6.71875 10.9371C6.59453 10.9371 6.47539 10.8878 6.3875 10.8L4.5125 8.925C4.4297 8.83614 4.38463 8.71861 4.38677 8.59717C4.38891 8.47574 4.43811 8.35987 4.52399 8.27399C4.60987 8.1881 4.72574 8.13891 4.84718 8.13677C4.96862 8.13462 5.08614 8.1797 5.175 8.2625L6.71875 9.80547L10.7625 5.7625C10.8504 5.67472 10.9695 5.62541 11.0938 5.62541C11.218 5.62541 11.3371 5.67472 11.425 5.7625ZM15.9375 7.96875C15.9375 9.54482 15.4701 11.0855 14.5945 12.396C13.7189 13.7064 12.4744 14.7278 11.0183 15.3309C9.56216 15.9341 7.95991 16.0919 6.41413 15.7844C4.86834 15.4769 3.44845 14.718 2.334 13.6035C1.21955 12.4891 0.460597 11.0692 0.153121 9.52338C-0.154355 7.97759 0.0034526 6.37534 0.606588 4.91924C1.20972 3.46314 2.2311 2.21859 3.54155 1.34298C4.85201 0.467359 6.39268 0 7.96875 0C10.0814 0.00248113 12.1069 0.84284 13.6008 2.33673C15.0947 3.83063 15.935 5.85607 15.9375 7.96875ZM15 7.96875C15 6.5781 14.5876 5.21868 13.815 4.0624C13.0424 2.90611 11.9443 2.0049 10.6595 1.47272C9.3747 0.940543 7.96095 0.801301 6.59702 1.0726C5.2331 1.34391 3.98025 2.01357 2.99691 2.99691C2.01357 3.98024 1.34391 5.23309 1.07261 6.59702C0.801305 7.96095 0.940547 9.3747 1.47273 10.6595C2.0049 11.9443 2.90612 13.0424 4.0624 13.815C5.21868 14.5876 6.5781 15 7.96875 15C9.83292 14.9979 11.6201 14.2565 12.9383 12.9383C14.2565 11.6201 14.9979 9.83292 15 7.96875Z" fill="var(--fill-0, #8BC255)"/>
</svg>
