<svg preserveAspectRatio="none" width="100%" height="100%" overflow="visible" style="display: block;" viewBox="0 0 16 21.35" fill="none" xmlns="http://www.w3.org/2000/svg">
<path id="Vector" d="M0.45 13.375C0.283333 12.9417 0.166667 12.5 0.1 12.05C0.0333333 11.6 0 11.15 0 10.7C0 8.51667 0.7875 6.6375 2.3625 5.0625C3.9375 3.4875 5.81667 2.7 8 2.7H9.075L7.55 1.175C7.41667 1.04167 7.35417 0.879167 7.3625 0.6875C7.37083 0.495833 7.44167 0.333333 7.575 0.2C7.70833 0.0666667 7.87083 0 8.0625 0C8.25417 0 8.41667 0.0666667 8.55 0.2L11.25 2.925C11.3333 3.00833 11.3917 3.09167 11.425 3.175C11.4583 3.25833 11.475 3.35 11.475 3.45C11.475 3.55 11.4583 3.64167 11.425 3.725C11.3917 3.80833 11.3333 3.89167 11.25 3.975L8.55 6.675C8.41667 6.80833 8.25 6.875 8.05 6.875C7.85 6.875 7.68333 6.80833 7.55 6.675C7.41667 6.54167 7.35 6.375 7.35 6.175C7.35 5.975 7.41667 5.80833 7.55 5.675L9.025 4.2H8C6.21667 4.2 4.6875 4.8375 3.4125 6.1125C2.1375 7.3875 1.5 8.91667 1.5 10.7C1.5 11.1 1.53333 11.4833 1.6 11.85C1.66667 12.2167 1.75 12.5667 1.85 12.9C1.88333 13.0167 1.88333 13.1417 1.85 13.275C1.81667 13.4083 1.75833 13.5167 1.675 13.6C1.45833 13.8167 1.225 13.9042 0.975 13.8625C0.725 13.8208 0.55 13.6583 0.45 13.375ZM7.425 21.15L4.7 18.45C4.61667 18.3667 4.55833 18.2833 4.525 18.2C4.49167 18.1167 4.475 18.025 4.475 17.925C4.475 17.825 4.49167 17.7333 4.525 17.65C4.55833 17.5667 4.61667 17.4833 4.7 17.4L7.425 14.675C7.55833 14.5417 7.72083 14.475 7.9125 14.475C8.10417 14.475 8.26667 14.5417 8.4 14.675C8.53333 14.8083 8.6 14.9708 8.6 15.1625C8.6 15.3542 8.53333 15.5167 8.4 15.65L6.875 17.175H8C9.78333 17.175 11.3125 16.5375 12.5875 15.2625C13.8625 13.9875 14.5 12.4583 14.5 10.675C14.5 10.275 14.4708 9.8875 14.4125 9.5125C14.3542 9.1375 14.2667 8.78333 14.15 8.45C14.1167 8.33333 14.1125 8.2125 14.1375 8.0875C14.1625 7.9625 14.2167 7.85833 14.3 7.775C14.5167 7.55833 14.75 7.47083 15 7.5125C15.25 7.55417 15.425 7.71667 15.525 8C15.6917 8.43333 15.8125 8.875 15.8875 9.325C15.9625 9.775 16 10.225 16 10.675C16 12.8583 15.2125 14.7375 13.6375 16.3125C12.0625 17.8875 10.1833 18.675 8 18.675H6.875L8.4 20.2C8.53333 20.3333 8.6 20.4917 8.6 20.675C8.6 20.8583 8.53333 21.0167 8.4 21.15C8.26667 21.2833 8.10417 21.35 7.9125 21.35C7.72083 21.35 7.55833 21.2833 7.425 21.15Z" fill="var(--fill-0, #212121)"/>
</svg>
