<svg preserveAspectRatio="none" width="100%" height="100%" overflow="visible" style="display: block;" viewBox="0 0 66.6667 66.2549" fill="none" xmlns="http://www.w3.org/2000/svg">
<g id="Group">
<path id="Vector" d="M48.8635 8.47082C49.2811 8.00494 49.7864 7.62592 50.3505 7.35542C50.9147 7.08492 51.5266 6.92824 52.1513 6.89433C52.776 6.86043 53.4013 6.94997 53.9914 7.15783C54.5815 7.36568 55.1249 7.68779 55.5905 8.10574C59.08 11.229 61.8705 15.0541 63.7792 19.3306C65.688 23.6071 66.6719 28.2385 66.6667 32.9216C66.6667 51.3343 51.7429 66.2549 33.3333 66.2549V56.7311C38.1529 56.7312 42.859 55.2686 46.8295 52.5368C50.8 49.8049 53.848 45.9325 55.5706 41.4312C57.2931 36.93 57.6091 32.012 56.4767 27.3274C55.3443 22.6428 52.8169 18.4121 49.2286 15.1946C48.2886 14.3513 47.7221 13.1692 47.6537 11.9083C47.5852 10.6474 48.0204 9.41092 48.8635 8.47082Z" fill="url(#paint0_linear_9964_88087)"/>
<path id="Vector_2" d="M27.7746 0.0517444C29.0084 -0.131603 30.2648 0.176456 31.2739 0.909696C32.2829 1.64294 32.964 2.74281 33.1706 3.97289C33.3773 5.20297 33.0931 6.46503 32.3791 7.48777C31.6651 8.51052 30.5783 9.21229 29.3524 9.44222C23.8068 10.384 18.7735 13.2582 15.1442 17.5557C11.5149 21.8532 9.52389 27.2966 9.52381 32.9216C9.52381 39.2362 12.0323 45.2923 16.4975 49.7574C20.9626 54.2226 27.0186 56.7311 33.3333 56.7311V66.2549C14.9238 66.2549 0 51.3343 0 32.9216C0 16.5882 11.8286 2.73111 27.7746 0.0517444Z" fill="var(--fill-0, #FF6347)"/>
</g>
<defs>
<linearGradient id="paint0_linear_9964_88087" x1="50" y1="6.88734" x2="33.3333" y2="56.7292" gradientUnits="userSpaceOnUse">
<stop stop-color="#FF6347" stop-opacity="0"/>
<stop offset="1" stop-color="#FF6347"/>
</linearGradient>
</defs>
</svg>
