<svg preserveAspectRatio="none" width="100%" height="100%" overflow="visible" style="display: block;" viewBox="0 0 21 22.75" fill="none" xmlns="http://www.w3.org/2000/svg">
<path id="Vector" d="M19.25 1.75H16.625V0.875C16.625 0.642936 16.5328 0.420376 16.3687 0.256282C16.2046 0.0921872 15.9821 0 15.75 0C15.5179 0 15.2954 0.0921872 15.1313 0.256282C14.9672 0.420376 14.875 0.642936 14.875 0.875V1.75H6.125V0.875C6.125 0.642936 6.03281 0.420376 5.86872 0.256282C5.70462 0.0921872 5.48206 0 5.25 0C5.01794 0 4.79538 0.0921872 4.63128 0.256282C4.46719 0.420376 4.375 0.642936 4.375 0.875V1.75H1.75C1.28587 1.75 0.840752 1.93437 0.512563 2.26256C0.184374 2.59075 0 3.03587 0 3.5V21C0 21.4641 0.184374 21.9092 0.512563 22.2374C0.840752 22.5656 1.28587 22.75 1.75 22.75H19.25C19.7141 22.75 20.1592 22.5656 20.4874 22.2374C20.8156 21.9092 21 21.4641 21 21V3.5C21 3.03587 20.8156 2.59075 20.4874 2.26256C20.1592 1.93437 19.7141 1.75 19.25 1.75ZM4.375 3.5V4.375C4.375 4.60706 4.46719 4.82962 4.63128 4.99372C4.79538 5.15781 5.01794 5.25 5.25 5.25C5.48206 5.25 5.70462 5.15781 5.86872 4.99372C6.03281 4.82962 6.125 4.60706 6.125 4.375V3.5H14.875V4.375C14.875 4.60706 14.9672 4.82962 15.1313 4.99372C15.2954 5.15781 15.5179 5.25 15.75 5.25C15.9821 5.25 16.2046 5.15781 16.3687 4.99372C16.5328 4.82962 16.625 4.60706 16.625 4.375V3.5H19.25V7H1.75V3.5H4.375ZM19.25 21H1.75V8.75H19.25V21ZM8.75 11.375V18.375C8.75 18.6071 8.65781 18.8296 8.49372 18.9937C8.32962 19.1578 8.10706 19.25 7.875 19.25C7.64294 19.25 7.42038 19.1578 7.25628 18.9937C7.09219 18.8296 7 18.6071 7 18.375V12.7903L6.51656 13.0331C6.30887 13.137 6.06842 13.1541 5.84812 13.0806C5.62783 13.0072 5.44572 12.8493 5.34187 12.6416C5.23803 12.4339 5.22094 12.1934 5.29437 11.9731C5.3678 11.7528 5.52574 11.5707 5.73344 11.4669L7.48344 10.5919C7.61689 10.5251 7.7652 10.4936 7.91428 10.5003C8.06335 10.507 8.20824 10.5517 8.33516 10.6301C8.46209 10.7086 8.56683 10.8183 8.63944 10.9486C8.71205 11.079 8.75011 11.2258 8.75 11.375ZM15.2206 14.7055L13.125 17.5H14.875C15.1071 17.5 15.3296 17.5922 15.4937 17.7563C15.6578 17.9204 15.75 18.1429 15.75 18.375C15.75 18.6071 15.6578 18.8296 15.4937 18.9937C15.3296 19.1578 15.1071 19.25 14.875 19.25H11.375C11.2125 19.25 11.0532 19.2047 10.915 19.1193C10.7768 19.0339 10.665 18.9117 10.5924 18.7663C10.5197 18.621 10.4889 18.4583 10.5035 18.2964C10.5181 18.1346 10.5775 17.98 10.675 17.85L13.8228 13.6533C13.8944 13.558 13.9458 13.449 13.9738 13.3331C14.0017 13.2172 14.0057 13.0969 13.9855 12.9794C13.9653 12.8619 13.9213 12.7498 13.8562 12.6499C13.7911 12.55 13.7063 12.4645 13.6069 12.3986C13.5076 12.3327 13.3958 12.2878 13.2785 12.2667C13.1612 12.2455 13.0408 12.2485 12.9247 12.2756C12.8086 12.3026 12.6992 12.3531 12.6033 12.424C12.5074 12.4948 12.427 12.5845 12.367 12.6875C12.3113 12.7902 12.2355 12.8807 12.1442 12.9536C12.0529 13.0265 11.948 13.0804 11.8355 13.1121C11.723 13.1438 11.6054 13.1527 11.4894 13.1382C11.3735 13.1237 11.2616 13.0861 11.1604 13.0276C11.0593 12.9692 10.9708 12.8911 10.9003 12.7979C10.8298 12.7047 10.7787 12.5984 10.7499 12.4851C10.7212 12.3718 10.7155 12.254 10.733 12.1385C10.7506 12.0229 10.7911 11.9121 10.8522 11.8125C11.1412 11.3123 11.5872 10.9214 12.121 10.7005C12.6547 10.4795 13.2465 10.4408 13.8045 10.5903C14.3625 10.7399 14.8556 11.0693 15.2073 11.5276C15.5591 11.9858 15.7498 12.5473 15.75 13.125C15.7519 13.6957 15.5658 14.2511 15.2206 14.7055Z" fill="var(--fill-0, white)"/>
</svg>
