<svg preserveAspectRatio="none" width="100%" height="100%" overflow="visible" style="display: block;" viewBox="0 0 18 13.5" fill="none" xmlns="http://www.w3.org/2000/svg">
<path id="Vector" d="M0 1.125C0 0.50368 0.50368 0 1.125 0C1.74632 0 2.25 0.50368 2.25 1.125C2.25 1.74632 1.74632 2.25 1.125 2.25C0.50368 2.25 0 1.74632 0 1.125ZM0 6.75C0 6.12868 0.50368 5.625 1.125 5.625C1.74632 5.625 2.25 6.12868 2.25 6.75C2.25 7.37132 1.74632 7.875 1.125 7.875C0.50368 7.875 0 7.37132 0 6.75ZM0 12.375C0 11.7537 0.50368 11.25 1.125 11.25C1.74632 11.25 2.25 11.7537 2.25 12.375C2.25 12.9963 1.74632 13.5 1.125 13.5C0.50368 13.5 0 12.9963 0 12.375ZM16.875 2.25C17.4963 2.25 18 1.74632 18 1.125C18 0.50368 17.4963 0 16.875 0H5.65088C5.02955 0 4.52587 0.50368 4.52587 1.125C4.52587 1.74632 5.02955 2.25 5.65087 2.25H16.875ZM4.5 6.75C4.5 6.12868 5.00368 5.625 5.625 5.625H16.875C17.4963 5.625 18 6.12868 18 6.75C18 7.37132 17.4963 7.875 16.875 7.875H5.625C5.00368 7.875 4.5 7.37132 4.5 6.75ZM4.5 12.375C4.5 11.7537 5.00368 11.25 5.625 11.25H16.875C17.4963 11.25 18 11.7537 18 12.375C18 12.9963 17.4963 13.5 16.875 13.5H5.625C5.00368 13.5 4.5 12.9963 4.5 12.375Z" fill="var(--fill-0, #212121)"/>
</svg>
