<svg preserveAspectRatio="none" width="100%" height="100%" overflow="visible" style="display: block;" viewBox="0 0 21 20.9992" fill="none" xmlns="http://www.w3.org/2000/svg">
<path id="Vector" d="M14.5974 0C11.0613 0 8.1948 1.58078 8.1948 3.5336C8.1948 5.48642 11.0622 7.06802 14.5974 7.06802C18.1335 7.06802 21 5.48642 21 3.5336C21 1.58078 18.1326 0 14.5974 0ZM21 4.58335C20.9984 6.53617 18.1335 8.11777 14.5974 8.11777C11.0712 8.11777 8.21119 6.55338 8.1948 4.60958V5.99204C8.1948 6.82627 8.7291 7.59003 9.60431 8.1948C10.4893 8.43573 11.2777 8.77008 11.9341 9.19293C12.7478 9.39944 13.6427 9.52564 14.5974 9.52564C18.1335 9.52564 21 7.94486 21 5.99204V4.58335ZM21 7.04179C21 8.99461 18.1335 10.5762 14.5974 10.5762C14.1672 10.5762 13.7492 10.5443 13.3428 10.4992C13.6635 10.9311 13.8823 11.4301 13.9828 11.9587C14.1868 11.9701 14.3884 11.9841 14.5974 11.9841C18.1335 11.9841 21 10.4033 21 8.45048V7.04179ZM6.4026 9.01346C2.86654 9.01346 0 10.5951 0 12.5479C0 14.5007 2.86736 16.0823 6.4026 16.0823C9.93866 16.0823 12.8052 14.5007 12.8052 12.5479C12.8052 10.5951 9.93784 9.01346 6.4026 9.01346ZM21 9.50023C20.9984 11.4531 18.1335 13.0347 14.5974 13.0347C14.3917 13.0347 14.1836 13.0199 13.9828 13.0084C13.9738 13.0699 13.9689 13.1518 13.9574 13.2133C13.9984 13.337 14.0336 13.4591 14.0336 13.5985V14.4179C14.2196 14.4269 14.4065 14.4425 14.5974 14.4425C18.1335 14.4425 21 12.8617 21 10.9089V9.50023ZM21 11.9587C20.9984 13.9115 18.1335 15.4931 14.5974 15.4931C14.3917 15.4931 14.1836 15.4783 13.9828 15.4669C13.9738 15.5283 13.9689 15.6103 13.9574 15.6717C13.9984 15.7947 14.0336 15.9176 14.0336 16.0569V16.8764C14.2196 16.8854 14.4065 16.901 14.5974 16.901C18.1335 16.901 21 15.3202 21 13.3674V11.9587ZM12.8052 13.5976C12.8036 15.5505 9.93866 17.1321 6.4026 17.1321C2.87638 17.1321 0.0163896 15.5677 0 13.623V15.0063C0 16.9591 2.86572 18.5407 6.4026 18.5407C9.93948 18.5407 12.8052 16.9591 12.8052 15.0063V13.5976ZM12.8052 16.0561C12.8036 18.0089 9.93866 19.5905 6.4026 19.5905C2.87638 19.5905 0.0163896 18.0261 0 16.0815V17.4648C0 19.4176 2.86572 20.9992 6.4026 20.9992C9.93948 20.9992 12.8052 19.4176 12.8052 17.4648V16.0561Z" fill="var(--fill-0, #212121)"/>
</svg>
