<svg preserveAspectRatio="none" width="100%" height="100%" overflow="visible" style="display: block;" viewBox="0 0 21.995 20.0058" fill="none" xmlns="http://www.w3.org/2000/svg">
<path id="Vector" d="M11.29 3.2158L12.79 4.7158C12.883 4.80953 12.9936 4.88392 13.1154 4.93469C13.2373 4.98546 13.368 5.0116 13.5 5.0116C13.632 5.0116 13.7627 4.98546 13.8846 4.93469C14.0064 4.88392 14.117 4.80953 14.21 4.7158C14.3618 4.5565 14.4567 4.3516 14.4803 4.13285C14.5038 3.9141 14.4545 3.6937 14.34 3.5058H18C18.2652 3.5058 18.5196 3.40044 18.7071 3.2129C18.8946 3.02537 19 2.77101 19 2.5058C19 2.24058 18.8946 1.98623 18.7071 1.79869C18.5196 1.61116 18.2652 1.5058 18 1.5058H14.34C14.4545 1.3179 14.5038 1.0975 14.4803 0.878747C14.4567 0.659992 14.3618 0.455094 14.21 0.295798C14.117 0.20207 14.0064 0.127676 13.8846 0.0769069C13.7627 0.0261382 13.632 0 13.5 0C13.368 0 13.2373 0.0261382 13.1154 0.0769069C12.9936 0.127676 12.883 0.20207 12.79 0.295798L11.29 1.7958C11.199 1.8909 11.1276 2.00305 11.08 2.1258C10.98 2.36926 10.98 2.64234 11.08 2.8858C11.1276 3.00855 11.199 3.12069 11.29 3.2158ZM21.92 7.1258C21.8724 7.00305 21.801 6.8909 21.71 6.7958L20.21 5.2958C20.117 5.20207 20.0064 5.12768 19.8846 5.07691C19.7627 5.02614 19.632 5 19.5 5C19.368 5 19.2373 5.02614 19.1154 5.07691C18.9936 5.12768 18.883 5.20207 18.79 5.2958C18.6382 5.45509 18.5433 5.65999 18.5197 5.87875C18.4962 6.0975 18.5455 6.3179 18.66 6.5058H15C14.7348 6.5058 14.4804 6.61116 14.2929 6.79869C14.1054 6.98623 14 7.24058 14 7.5058C14 7.77101 14.1054 8.02537 14.2929 8.2129C14.4804 8.40044 14.7348 8.5058 15 8.5058H18.66C18.5455 8.6937 18.4962 8.9141 18.5197 9.13285C18.5433 9.3516 18.6382 9.5565 18.79 9.7158C18.883 9.80953 18.9936 9.88392 19.1154 9.93469C19.2373 9.98546 19.368 10.0116 19.5 10.0116C19.632 10.0116 19.7627 9.98546 19.8846 9.93469C20.0064 9.88392 20.117 9.80953 20.21 9.7158L21.71 8.2158C21.801 8.12069 21.8724 8.00855 21.92 7.8858C22.02 7.64234 22.02 7.36926 21.92 7.1258ZM10 8.0058C9.20887 8.0058 8.43552 8.24039 7.77772 8.67992C7.11992 9.11945 6.60723 9.74416 6.30448 10.4751C6.00173 11.206 5.92252 12.0102 6.07686 12.7862C6.2312 13.5621 6.61216 14.2748 7.17157 14.8342C7.73098 15.3936 8.44371 15.7746 9.21964 15.9289C9.99556 16.0833 10.7998 16.0041 11.5307 15.7013C12.2616 15.3986 12.8864 14.8859 13.3259 14.2281C13.7654 13.5703 14 12.7969 14 12.0058C14 10.9449 13.5786 9.92752 12.8284 9.17737C12.0783 8.42723 11.0609 8.0058 10 8.0058V8.0058ZM10 14.0058C9.60444 14.0058 9.21776 13.8885 8.88886 13.6687C8.55996 13.449 8.30362 13.1366 8.15224 12.7712C8.00087 12.4057 7.96126 12.0036 8.03843 11.6156C8.1156 11.2277 8.30608 10.8713 8.58579 10.5916C8.86549 10.3119 9.22186 10.1214 9.60982 10.0442C9.99778 9.96706 10.3999 10.0067 10.7654 10.158C11.1308 10.3094 11.4432 10.5658 11.6629 10.8947C11.8827 11.2236 12 11.6102 12 12.0058C12 12.5362 11.7893 13.0449 11.4142 13.42C11.0391 13.7951 10.5304 14.0058 10 14.0058ZM19 11.0058C18.7348 11.0058 18.4804 11.1112 18.2929 11.2987C18.1054 11.4862 18 11.7406 18 12.0058V17.0058C18 17.271 17.8946 17.5254 17.7071 17.7129C17.5196 17.9004 17.2652 18.0058 17 18.0058H3C2.73478 18.0058 2.48043 17.9004 2.29289 17.7129C2.10536 17.5254 2 17.271 2 17.0058V9.0058C2 8.74058 2.10536 8.48623 2.29289 8.29869C2.48043 8.11116 2.73478 8.0058 3 8.0058H5C5.21932 8.01653 5.43607 7.95478 5.6168 7.83007C5.79753 7.70537 5.93219 7.52465 6 7.3158L6.54 5.6958C6.60251 5.50319 6.72202 5.33409 6.88273 5.21088C7.04344 5.08767 7.23776 5.01616 7.44 5.0058H9C9.26522 5.0058 9.51957 4.90044 9.70711 4.7129C9.89464 4.52537 10 4.27101 10 4.0058C10 3.74058 9.89464 3.48623 9.70711 3.29869C9.51957 3.11116 9.26522 3.0058 9 3.0058H7.44C6.80861 3.00557 6.19324 3.20456 5.68152 3.57444C5.16981 3.94431 4.78784 4.4662 4.59 5.0658L4.28 6.0058H3C2.20435 6.0058 1.44129 6.32187 0.87868 6.88448C0.31607 7.44709 0 8.21015 0 9.0058V17.0058C0 17.8014 0.31607 18.5645 0.87868 19.1271C1.44129 19.6897 2.20435 20.0058 3 20.0058H17C17.7956 20.0058 18.5587 19.6897 19.1213 19.1271C19.6839 18.5645 20 17.8014 20 17.0058V12.0058C20 11.7406 19.8946 11.4862 19.7071 11.2987C19.5196 11.1112 19.2652 11.0058 19 11.0058Z" fill="var(--fill-0, #212121)"/>
</svg>
