<svg preserveAspectRatio="none" width="100%" height="100%" overflow="visible" style="display: block;" viewBox="0 0 13.5004 13.5004" fill="none" xmlns="http://www.w3.org/2000/svg">
<path id="Vector" d="M13.2806 1.28104L2.56031 12.0004H10.5C10.6989 12.0004 10.8897 12.0794 11.0303 12.2201C11.171 12.3607 11.25 12.5515 11.25 12.7504C11.25 12.9493 11.171 13.1401 11.0303 13.2807C10.8897 13.4214 10.6989 13.5004 10.5 13.5004H0.75C0.551088 13.5004 0.360322 13.4214 0.21967 13.2807C0.0790178 13.1401 0 12.9493 0 12.7504V3.00042C0 2.8015 0.0790178 2.61074 0.21967 2.47009C0.360322 2.32943 0.551088 2.25042 0.75 2.25042C0.948912 2.25042 1.13968 2.32943 1.28033 2.47009C1.42098 2.61074 1.5 2.8015 1.5 3.00042V10.9401L12.2194 0.219792C12.2891 0.150109 12.3718 0.0948341 12.4628 0.0571221C12.5539 0.0194101 12.6515 0 12.75 0C12.8485 0 12.9461 0.0194101 13.0372 0.0571221C13.1282 0.0948341 13.2109 0.150109 13.2806 0.219792C13.3503 0.289475 13.4056 0.3722 13.4433 0.463245C13.481 0.554289 13.5004 0.651871 13.5004 0.750417C13.5004 0.848963 13.481 0.946545 13.4433 1.03759C13.4056 1.12863 13.3503 1.21136 13.2806 1.28104Z" fill="var(--fill-0, #212121)"/>
</svg>
