<svg preserveAspectRatio="none" width="100%" height="100%" overflow="visible" style="display: block;" viewBox="0 0 22.4986 16.5" fill="none" xmlns="http://www.w3.org/2000/svg">
<path id="Vector" d="M20.2486 15.75C20.2486 15.9489 20.1696 16.1397 20.029 16.2803C19.8883 16.421 19.6976 16.5 19.4986 16.5H5.99864C5.79973 16.5 5.60896 16.421 5.46831 16.2803C5.32766 16.1397 5.24864 15.9489 5.24864 15.75C5.24864 15.5511 5.32766 15.3603 5.46831 15.2197C5.60896 15.079 5.79973 15 5.99864 15H19.4986C19.6976 15 19.8883 15.079 20.029 15.2197C20.1696 15.3603 20.2486 15.5511 20.2486 15.75ZM22.4986 8.25V10.5C22.4986 10.6989 22.4196 10.8897 22.279 11.0303C22.1383 11.171 21.9476 11.25 21.7486 11.25H4.97395C4.16656 11.2537 3.3798 10.9951 2.73207 10.513C2.08434 10.031 1.61069 9.35165 1.38239 8.57719L0.0633293 4.18125C-0.00387219 3.95737 -0.0178236 3.72089 0.0225878 3.49067C0.0629992 3.26044 0.156655 3.04285 0.296084 2.85524C0.435513 2.66764 0.616857 2.51522 0.825647 2.41013C1.03444 2.30505 1.2649 2.25021 1.49864 2.25H2.24864C2.44729 2.25009 2.63779 2.32899 2.77833 2.46938L4.80989 4.5H6.91833L6.07458 1.97438C5.99938 1.74881 5.97889 1.5086 6.01478 1.27355C6.05068 1.03851 6.14193 0.815365 6.28103 0.622524C6.42012 0.429682 6.60306 0.272668 6.81476 0.164431C7.02647 0.0561937 7.26087 -0.000165881 7.49864 3.66726e-07H8.24864C8.34716 -7.71046e-05 8.44473 0.0192568 8.53578 0.0568979C8.62683 0.094539 8.70956 0.14975 8.77927 0.219375L13.0599 4.5H18.7486C19.7432 4.5 20.697 4.89509 21.4003 5.59835C22.1036 6.30161 22.4986 7.25544 22.4986 8.25ZM20.9986 8.25C20.9986 7.65326 20.7616 7.08097 20.3396 6.65901C19.9177 6.23705 19.3454 6 18.7486 6H12.7486C12.55 5.99991 12.3595 5.92101 12.219 5.78063L7.93833 1.5H7.49864L8.66958 5.01281C8.70714 5.12548 8.7174 5.24546 8.69953 5.36288C8.68166 5.48029 8.63615 5.59178 8.56677 5.68817C8.49738 5.78456 8.4061 5.86309 8.30043 5.9173C8.19475 5.97152 8.07772 5.99986 7.95895 6H4.49864C4.40012 6.00008 4.30255 5.98074 4.2115 5.9431C4.12046 5.90546 4.03772 5.85025 3.96802 5.78063L1.93833 3.75H1.49864L2.8177 8.14688C2.95485 8.61166 3.23928 9.01931 3.62817 9.30844C4.01706 9.59758 4.48936 9.75254 4.97395 9.75H20.9986V8.25Z" fill="var(--fill-0, #212121)"/>
</svg>
