<svg preserveAspectRatio="none" width="100%" height="100%" overflow="visible" style="display: block;" viewBox="0 0 18.75 20.2528" fill="none" xmlns="http://www.w3.org/2000/svg">
<path id="Vector" d="M18.4613 0.160031C18.3719 0.0891732 18.2673 0.0399484 18.1557 0.0162039C18.0442 -0.00754058 17.9286 -0.00516126 17.8181 0.0231558L5.81813 3.02316C5.65603 3.06367 5.5121 3.15716 5.40918 3.28878C5.30626 3.42041 5.25024 3.58263 5.25 3.74972V14.0716C4.62428 13.6535 3.87678 13.4566 3.12628 13.512C2.37579 13.5675 1.66535 13.8722 1.10788 14.3777C0.550408 14.8832 0.177877 15.5605 0.0494865 16.302C-0.0789041 17.0435 0.0442119 17.8067 0.39927 18.4702C0.754329 19.1337 1.32096 19.6595 2.00912 19.9641C2.69728 20.2687 3.46749 20.3345 4.19735 20.1511C4.92721 19.9678 5.57485 19.5457 6.03736 18.9521C6.49986 18.3584 6.7507 17.6273 6.75 16.8747V8.08566L17.25 5.46066V11.0716C16.6243 10.6535 15.8768 10.4566 15.1263 10.512C14.3758 10.5675 13.6654 10.8722 13.1079 11.3777C12.5504 11.8832 12.1779 12.5605 12.0495 13.302C11.9211 14.0435 12.0442 14.8067 12.3993 15.4702C12.7543 16.1337 13.321 16.6595 14.0091 16.9641C14.6973 17.2687 15.4675 17.3345 16.1973 17.1511C16.9272 16.9678 17.5749 16.5457 18.0374 15.9521C18.4999 15.3584 18.7507 14.6273 18.75 13.8747V0.749718C18.7497 0.635965 18.7236 0.523761 18.6736 0.421598C18.6236 0.319434 18.551 0.229989 18.4613 0.160031Z" fill="var(--fill-0, #212121)"/>
</svg>
