<svg preserveAspectRatio="none" width="100%" height="100%" overflow="visible" style="display: block;" viewBox="0 0 13 18" fill="none" xmlns="http://www.w3.org/2000/svg">
<path id="Vector" fill-rule="evenodd" clip-rule="evenodd" d="M4 2C4 2.53043 3.78929 3.03914 3.41421 3.41421C3.03914 3.78929 2.53043 4 2 4C1.46957 4 0.960859 3.78929 0.585786 3.41421C0.210714 3.03914 0 2.53043 0 2C0 1.46957 0.210714 0.960859 0.585786 0.585786C0.960859 0.210714 1.46957 0 2 0C2.53043 0 3.03914 0.210714 3.41421 0.585786C3.78929 0.960859 4 1.46957 4 2ZM2 11C2.53043 11 3.03914 10.7893 3.41421 10.4142C3.78929 10.0391 4 9.53043 4 9C4 8.46957 3.78929 7.96086 3.41421 7.58579C3.03914 7.21071 2.53043 7 2 7C1.46957 7 0.960859 7.21071 0.585786 7.58579C0.210714 7.96086 0 8.46957 0 9C0 9.53043 0.210714 10.0391 0.585786 10.4142C0.960859 10.7893 1.46957 11 2 11ZM2 18C2.53043 18 3.03914 17.7893 3.41421 17.4142C3.78929 17.0391 4 16.5304 4 16C4 15.4696 3.78929 14.9609 3.41421 14.5858C3.03914 14.2107 2.53043 14 2 14C1.46957 14 0.960859 14.2107 0.585786 14.5858C0.210714 14.9609 0 15.4696 0 16C0 16.5304 0.210714 17.0391 0.585786 17.4142C0.960859 17.7893 1.46957 18 2 18ZM13 2C13 2.53043 12.7893 3.03914 12.4142 3.41421C12.0391 3.78929 11.5304 4 11 4C10.4696 4 9.96086 3.78929 9.58579 3.41421C9.21071 3.03914 9 2.53043 9 2C9 1.46957 9.21071 0.960859 9.58579 0.585786C9.96086 0.210714 10.4696 0 11 0C11.5304 0 12.0391 0.210714 12.4142 0.585786C12.7893 0.960859 13 1.46957 13 2ZM11 11C11.5304 11 12.0391 10.7893 12.4142 10.4142C12.7893 10.0391 13 9.53043 13 9C13 8.46957 12.7893 7.96086 12.4142 7.58579C12.0391 7.21071 11.5304 7 11 7C10.4696 7 9.96086 7.21071 9.58579 7.58579C9.21071 7.96086 9 8.46957 9 9C9 9.53043 9.21071 10.0391 9.58579 10.4142C9.96086 10.7893 10.4696 11 11 11ZM11 18C11.5304 18 12.0391 17.7893 12.4142 17.4142C12.7893 17.0391 13 16.5304 13 16C13 15.4696 12.7893 14.9609 12.4142 14.5858C12.0391 14.2107 11.5304 14 11 14C10.4696 14 9.96086 14.2107 9.58579 14.5858C9.21071 14.9609 9 15.4696 9 16C9 16.5304 9.21071 17.0391 9.58579 17.4142C9.96086 17.7893 10.4696 18 11 18Z" fill="var(--fill-0, #212121)"/>
</svg>
