<svg preserveAspectRatio="none" width="100%" height="100%" overflow="visible" style="display: block;" viewBox="0 0 16 16" fill="none" xmlns="http://www.w3.org/2000/svg">
<path id="Vector" d="M8 16C5.76667 16 3.875 15.225 2.325 13.675C0.775 12.125 0 10.2333 0 8C0 5.76667 0.775 3.875 2.325 2.325C3.875 0.775003 5.76667 3.4602e-06 8 3.4602e-06C9.15 3.4602e-06 10.25 0.237337 11.3 0.712003C12.35 1.18667 13.25 1.866 14 2.75V1C14 0.71667 14.096 0.479004 14.288 0.287004C14.48 0.0950036 14.7173 -0.000663206 15 3.4602e-06C15.2833 3.4602e-06 15.521 0.0960036 15.713 0.288004C15.905 0.480004 16.0007 0.717337 16 1V6C16 6.28334 15.904 6.521 15.712 6.713C15.52 6.905 15.2827 7.00067 15 7H10C9.71667 7 9.479 6.904 9.287 6.712C9.095 6.52 8.99933 6.28267 9 6C9 5.71667 9.096 5.479 9.288 5.287C9.48 5.095 9.71733 4.99934 10 5H13.2C12.6667 4.06667 11.9373 3.33334 11.012 2.8C10.0867 2.26667 9.08267 2 8 2C6.33333 2 4.91667 2.58334 3.75 3.75C2.58333 4.91667 2 6.33334 2 8C2 9.66667 2.58333 11.0833 3.75 12.25C4.91667 13.4167 6.33333 14 8 14C9.13333 14 10.171 13.7123 11.113 13.137C12.055 12.5617 12.784 11.791 13.3 10.825C13.4333 10.5917 13.621 10.4293 13.863 10.338C14.105 10.2467 14.3507 10.2423 14.6 10.325C14.8667 10.4083 15.0583 10.5833 15.175 10.85C15.2917 11.1167 15.2833 11.3667 15.15 11.6C14.4667 12.9333 13.4917 14 12.225 14.8C10.9583 15.6 9.55 16 8 16Z" fill="var(--fill-0, #212121)"/>
</svg>
