<svg preserveAspectRatio="none" width="100%" height="100%" overflow="visible" style="display: block;" viewBox="0 0 22.5 16.5005" fill="none" xmlns="http://www.w3.org/2000/svg">
<path id="Vector" d="M21.75 11.2505H17.9578C17.9855 11.0014 17.9996 10.7511 18 10.5005C18 8.71027 17.2888 6.99338 16.023 5.72751C14.7571 4.46164 13.0402 3.75048 11.25 3.75048C9.45979 3.75048 7.7429 4.46164 6.47703 5.72751C5.21116 6.99338 4.5 8.71027 4.5 10.5005C4.50042 10.7511 4.51451 11.0014 4.54219 11.2505H0.75C0.551088 11.2505 0.360322 11.3295 0.21967 11.4701C0.0790176 11.6108 0 11.8016 0 12.0005C0 12.1994 0.0790176 12.3902 0.21967 12.5308C0.360322 12.6715 0.551088 12.7505 0.75 12.7505H21.75C21.9489 12.7505 22.1397 12.6715 22.2803 12.5308C22.421 12.3902 22.5 12.1994 22.5 12.0005C22.5 11.8016 22.421 11.6108 22.2803 11.4701C22.1397 11.3295 21.9489 11.2505 21.75 11.2505ZM6 10.5005C5.99862 9.77852 6.14617 9.06403 6.43341 8.40167C6.72066 7.73931 7.14143 7.14331 7.66943 6.65092C8.19743 6.15854 8.82131 5.78034 9.50209 5.53998C10.1829 5.29961 10.9059 5.20224 11.626 5.25395C12.3461 5.30566 13.0478 5.50534 13.6873 5.8405C14.3267 6.17567 14.8902 6.63912 15.3424 7.2019C15.7946 7.76467 16.1259 8.41467 16.3156 9.11128C16.5053 9.80789 16.5492 10.5361 16.4447 11.2505H6.05531C6.01901 11.0021 6.00053 10.7515 6 10.5005ZM19.5 15.7505C19.5 15.9494 19.421 16.1402 19.2803 16.2808C19.1397 16.4215 18.9489 16.5005 18.75 16.5005H3.75C3.55109 16.5005 3.36032 16.4215 3.21967 16.2808C3.07902 16.1402 3 15.9494 3 15.7505C3 15.5516 3.07902 15.3608 3.21967 15.2201C3.36032 15.0795 3.55109 15.0005 3.75 15.0005H18.75C18.9489 15.0005 19.1397 15.0795 19.2803 15.2201C19.421 15.3608 19.5 15.5516 19.5 15.7505ZM6.07875 1.08611C5.98974 0.90808 5.97509 0.701984 6.03803 0.513158C6.10097 0.324333 6.23635 0.168244 6.41437 0.0792309C6.5924 -0.00978235 6.7985 -0.024429 6.98732 0.0385129C7.17615 0.101455 7.33224 0.236829 7.42125 0.414856L8.17125 1.91486C8.21533 2.00301 8.24161 2.09897 8.24859 2.19728C8.25558 2.29559 8.24313 2.39431 8.21197 2.4878C8.1808 2.5813 8.13153 2.66774 8.06695 2.7422C8.00238 2.81665 7.92377 2.87766 7.83563 2.92173C7.74748 2.96581 7.65151 2.99209 7.5532 2.99907C7.45489 3.00606 7.35617 2.99361 7.26268 2.96245C7.16918 2.93128 7.08274 2.88201 7.00828 2.81743C6.93383 2.75286 6.87282 2.67426 6.82875 2.58611L6.07875 1.08611ZM0.82875 5.66486C0.872859 5.57674 0.933899 5.49818 1.00838 5.43367C1.08286 5.36916 1.16933 5.31996 1.26284 5.28888C1.35634 5.25779 1.45506 5.24544 1.55334 5.25253C1.65162 5.25961 1.74754 5.286 1.83562 5.33017L3.33563 6.08017C3.51353 6.16918 3.64878 6.32522 3.71164 6.51396C3.77449 6.7027 3.75979 6.90867 3.67078 7.08657C3.58177 7.26448 3.42573 7.39973 3.23699 7.46259C3.04825 7.52544 2.84228 7.51074 2.66437 7.42173L1.16438 6.67173C1.07618 6.6277 0.997531 6.56672 0.932922 6.49228C0.868314 6.41783 0.819014 6.33138 0.787843 6.23787C0.756672 6.14435 0.74424 6.04561 0.751259 5.94729C0.758278 5.84897 0.784611 5.75299 0.82875 5.66486ZM18.8287 7.08611C18.7399 6.9082 18.7253 6.70228 18.7883 6.51365C18.8512 6.32501 18.9865 6.16909 19.1644 6.08017L20.6644 5.33017C20.7525 5.28609 20.8484 5.2598 20.9466 5.25279C21.0449 5.24578 21.1435 5.25819 21.237 5.28931C21.3304 5.32044 21.4169 5.36966 21.4913 5.43418C21.5657 5.49869 21.6267 5.57724 21.6708 5.66533C21.7149 5.75341 21.7411 5.84932 21.7482 5.94757C21.7552 6.04582 21.7428 6.14449 21.7116 6.23794C21.6805 6.33139 21.6313 6.4178 21.5668 6.49223C21.5023 6.56666 21.4237 6.62766 21.3356 6.67173L19.8356 7.42173C19.7475 7.46587 19.6515 7.4922 19.5532 7.49922C19.4549 7.50624 19.3561 7.49381 19.2626 7.46264C19.1691 7.43147 19.0826 7.38217 19.0082 7.31756C18.9338 7.25295 18.8728 7.1743 18.8287 7.08611ZM14.3287 1.91486L15.0787 0.414856C15.1678 0.236829 15.3239 0.101455 15.5127 0.0385129C15.7015 -0.024429 15.9076 -0.00978234 16.0856 0.0792309C16.2637 0.168244 16.399 0.324333 16.462 0.513158C16.5249 0.701984 16.5103 0.90808 16.4213 1.08611L15.6713 2.58611C15.5822 2.76413 15.4261 2.89951 15.2373 2.96245C15.0485 3.02539 14.8424 3.01074 14.6644 2.92173C14.4863 2.83272 14.351 2.67663 14.288 2.4878C14.2251 2.29898 14.2397 2.09288 14.3287 1.91486Z" fill="var(--fill-0, #212121)"/>
</svg>
