<svg preserveAspectRatio="none" width="100%" height="100%" overflow="visible" style="display: block;" viewBox="0 0 21 18.0177" fill="none" xmlns="http://www.w3.org/2000/svg">
<path id="Vector" d="M18.375 4.5C17.8558 4.5 17.3483 4.65395 16.9166 4.94239C16.485 5.23083 16.1485 5.6408 15.9498 6.12046C15.7511 6.60011 15.6992 7.12791 15.8004 7.63711C15.9017 8.14631 16.1517 8.61404 16.5188 8.98116C16.886 9.34827 17.3537 9.59828 17.8629 9.69956C18.3721 9.80085 18.8999 9.74886 19.3795 9.55018C19.8592 9.3515 20.2692 9.01505 20.5576 8.58337C20.846 8.15169 21 7.64418 21 7.125C21 6.42881 20.7234 5.76113 20.2312 5.26885C19.7389 4.77656 19.0712 4.5 18.375 4.5ZM18.375 8.25C18.1525 8.25 17.935 8.18402 17.75 8.0604C17.565 7.93679 17.4208 7.76109 17.3356 7.55552C17.2505 7.34995 17.2282 7.12375 17.2716 6.90552C17.315 6.6873 17.4222 6.48684 17.5795 6.32951C17.7368 6.17217 17.9373 6.06503 18.1555 6.02162C18.3738 5.97821 18.6 6.00049 18.8055 6.08564C19.0111 6.17078 19.1868 6.31498 19.3104 6.49998C19.434 6.68499 19.5 6.9025 19.5 7.125C19.5 7.42337 19.3815 7.70952 19.1705 7.9205C18.9595 8.13147 18.6734 8.25 18.375 8.25ZM5.25 7.125C5.25 6.60582 5.09605 6.09831 4.80761 5.66663C4.51917 5.23495 4.1092 4.8985 3.62955 4.69982C3.14989 4.50114 2.62209 4.44915 2.11289 4.55044C1.60369 4.65173 1.13596 4.90173 0.768846 5.26885C0.401733 5.63596 0.151726 6.10369 0.0504398 6.61289C-0.0508464 7.12209 0.00113737 7.64989 0.199817 8.12954C0.398497 8.6092 0.73495 9.01917 1.16663 9.30761C1.59831 9.59605 2.10583 9.75 2.625 9.75C3.32119 9.75 3.98887 9.47344 4.48116 8.98116C4.97344 8.48887 5.25 7.82119 5.25 7.125ZM2.625 8.25C2.4025 8.25 2.18499 8.18402 1.99998 8.0604C1.81498 7.93679 1.67079 7.76109 1.58564 7.55552C1.50049 7.34995 1.47821 7.12375 1.52162 6.90552C1.56503 6.6873 1.67217 6.48684 1.82951 6.32951C1.98684 6.17217 2.1873 6.06503 2.40552 6.02162C2.62375 5.97821 2.84995 6.00049 3.05552 6.08564C3.26109 6.17078 3.43679 6.31498 3.5604 6.49998C3.68402 6.68499 3.75 6.9025 3.75 7.125C3.75 7.42337 3.63147 7.70952 3.4205 7.9205C3.20952 8.13147 2.92337 8.25 2.625 8.25ZM7.125 5.25C7.64418 5.25 8.15169 5.09605 8.58337 4.80761C9.01505 4.51917 9.35151 4.1092 9.55019 3.62954C9.74887 3.14989 9.80085 2.62209 9.69956 2.11289C9.59828 1.60369 9.34827 1.13596 8.98116 0.768846C8.61404 0.401733 8.14631 0.151726 7.63711 0.0504398C7.12791 -0.0508464 6.60011 0.00113737 6.12046 0.199817C5.6408 0.398497 5.23083 0.73495 4.94239 1.16663C4.65395 1.59831 4.5 2.10583 4.5 2.625C4.5 3.32119 4.77656 3.98887 5.26885 4.48116C5.76113 4.97344 6.42881 5.25 7.125 5.25ZM7.125 1.5C7.34751 1.5 7.56501 1.56598 7.75002 1.6896C7.93502 1.81321 8.07922 1.98892 8.16437 2.19448C8.24951 2.40005 8.27179 2.62625 8.22838 2.84448C8.18498 3.06271 8.07783 3.26316 7.9205 3.4205C7.76316 3.57783 7.56271 3.68498 7.34448 3.72838C7.12625 3.77179 6.90005 3.74951 6.69448 3.66437C6.48892 3.57922 6.31321 3.43502 6.1896 3.25002C6.06598 3.06501 6 2.84751 6 2.625C6 2.32663 6.11853 2.04048 6.32951 1.82951C6.54048 1.61853 6.82663 1.5 7.125 1.5ZM13.875 5.25C14.3942 5.25 14.9017 5.09605 15.3334 4.80761C15.7651 4.51917 16.1015 4.1092 16.3002 3.62954C16.4989 3.14989 16.5508 2.62209 16.4496 2.11289C16.3483 1.60369 16.0983 1.13596 15.7312 0.768846C15.364 0.401733 14.8963 0.151726 14.3871 0.0504398C13.8779 -0.0508464 13.3501 0.00113737 12.8705 0.199817C12.3908 0.398497 11.9808 0.73495 11.6924 1.16663C11.404 1.59831 11.25 2.10583 11.25 2.625C11.25 3.32119 11.5266 3.98887 12.0188 4.48116C12.5111 4.97344 13.1788 5.25 13.875 5.25ZM13.875 1.5C14.0975 1.5 14.315 1.56598 14.5 1.6896C14.685 1.81321 14.8292 1.98892 14.9144 2.19448C14.9995 2.40005 15.0218 2.62625 14.9784 2.84448C14.935 3.06271 14.8278 3.26316 14.6705 3.4205C14.5132 3.57783 14.3127 3.68498 14.0945 3.72838C13.8762 3.77179 13.6501 3.74951 13.4445 3.66437C13.2389 3.57922 13.0632 3.43502 12.9396 3.25002C12.816 3.06501 12.75 2.84751 12.75 2.625C12.75 2.32663 12.8685 2.04048 13.0795 1.82951C13.2905 1.61853 13.5766 1.5 13.875 1.5ZM16.0425 10.9556C15.6615 10.7455 15.3258 10.4622 15.0544 10.1222C14.783 9.78209 14.5813 9.39184 14.4609 8.97375C14.2116 8.11617 13.6906 7.36269 12.9763 6.82654C12.2621 6.29039 11.3931 6.00053 10.5 6.00053C9.6069 6.00053 8.73792 6.29039 8.02366 6.82654C7.3094 7.36269 6.78844 8.11617 6.53906 8.97375C6.29818 9.81503 5.73345 10.5264 4.96875 10.9519C4.23518 11.3488 3.65487 11.979 3.31962 12.7427C2.98437 13.5065 2.91331 14.3602 3.11768 15.1688C3.32205 15.9775 3.79018 16.6949 4.44804 17.2077C5.10589 17.7205 5.91592 17.9993 6.75 18C7.24984 18.0014 7.74479 17.9016 8.205 17.7066C9.67225 17.1015 11.3193 17.1015 12.7866 17.7066C13.6753 18.0931 14.6791 18.1205 15.5876 17.7832C16.4961 17.4458 17.2387 16.7698 17.6598 15.8969C18.0808 15.0241 18.1476 14.0221 17.8461 13.1011C17.5446 12.18 16.8982 11.4115 16.0425 10.9566V10.9556ZM14.25 16.5C13.9455 16.5003 13.6441 16.4387 13.3641 16.3191C11.5271 15.5603 9.46442 15.5603 7.6275 16.3191C7.09369 16.5489 6.49164 16.5633 5.94747 16.3592C5.4033 16.155 4.95923 15.7483 4.70827 15.224C4.45731 14.6998 4.41893 14.0988 4.60118 13.5469C4.78342 12.9951 5.17215 12.5351 5.68594 12.2634C6.23835 11.9584 6.72521 11.5474 7.11868 11.054C7.51216 10.5607 7.80452 9.99456 7.97906 9.38813C8.13756 8.84212 8.46904 8.36233 8.92366 8.02091C9.37828 7.67949 9.93146 7.4949 10.5 7.4949C11.0685 7.4949 11.6217 7.67949 12.0763 8.02091C12.531 8.36233 12.8624 8.84212 13.0209 9.38813C13.1961 9.99569 13.4893 10.5627 13.8839 11.0568C14.2786 11.5508 14.7668 11.9621 15.3206 12.2672C15.763 12.5044 16.1133 12.8828 16.3158 13.342C16.5184 13.8013 16.5616 14.3151 16.4385 14.8017C16.3154 15.2884 16.0331 15.7199 15.6366 16.0276C15.24 16.3353 14.7519 16.5016 14.25 16.5Z" fill="var(--fill-0, #212121)"/>
</svg>
