<svg preserveAspectRatio="none" width="100%" height="100%" overflow="visible" style="display: block;" viewBox="0 0 15.3817 16.6666" fill="none" xmlns="http://www.w3.org/2000/svg">
<g id="Group">
<path id="Vector" fill-rule="evenodd" clip-rule="evenodd" d="M7.7055 16.6665C6.57633 16.6665 5.4755 16.654 4.38633 16.6315C2.993 16.604 2.02883 15.7007 1.87133 14.274C1.60883 11.9074 1.15967 6.32903 1.1555 6.2732C1.12717 5.92903 1.38383 5.62736 1.728 5.59986C2.06717 5.5907 2.37383 5.82903 2.40133 6.17236C2.4055 6.22903 2.85383 11.7882 3.11383 14.1365C3.203 14.9474 3.6405 15.3657 4.41217 15.3815C6.4955 15.4257 8.62133 15.4282 10.913 15.3865C11.733 15.3707 12.1763 14.9607 12.268 14.1307C12.5263 11.8024 12.9763 6.22903 12.9813 6.17236C13.0088 5.82903 13.313 5.58903 13.6538 5.59986C13.998 5.6282 14.2547 5.92903 14.2272 6.2732C14.2222 6.32986 13.7705 11.9224 13.5105 14.2682C13.3488 15.724 12.3872 16.6099 10.9355 16.6365C9.82467 16.6557 8.753 16.6665 7.7055 16.6665" fill="var(--fill-0, #F54336)"/>
<path id="Vector_2" fill-rule="evenodd" clip-rule="evenodd" d="M14.7567 4.15761H0.625C0.28 4.15761 0 3.87761 0 3.53261C0 3.18761 0.28 2.90761 0.625 2.90761H14.7567C15.1017 2.90761 15.3817 3.18761 15.3817 3.53261C15.3817 3.87761 15.1017 4.15761 14.7567 4.15761" fill="var(--fill-0, #F54336)"/>
<path id="Vector_3" fill-rule="evenodd" clip-rule="evenodd" d="M12.0337 4.15761C11.0853 4.15761 10.262 3.48178 10.0753 2.55178L9.87283 1.53845C9.83033 1.38428 9.6545 1.25011 9.4545 1.25011H5.927C5.727 1.25011 5.55117 1.38428 5.50033 1.57678L5.30617 2.55178C5.12033 3.48178 4.29617 4.15761 3.34783 4.15761C3.00283 4.15761 2.72283 3.87761 2.72283 3.53261C2.72283 3.18761 3.00283 2.90761 3.34783 2.90761C3.70283 2.90761 4.01117 2.65428 4.08117 2.30595L4.28367 1.29261C4.4895 0.515946 5.162 0.000112772 5.927 0.000112772H9.4545C10.2195 0.000112772 10.892 0.515946 11.0895 1.25511L11.3012 2.30595C11.3703 2.65428 11.6787 2.90761 12.0337 2.90761C12.3787 2.90761 12.6587 3.18761 12.6587 3.53261C12.6587 3.87761 12.3787 4.15761 12.0337 4.15761" fill="var(--fill-0, #F54336)"/>
</g>
</svg>
