<svg preserveAspectRatio="none" width="100%" height="100%" overflow="visible" style="display: block;" viewBox="0 0 22 17.6" fill="none" xmlns="http://www.w3.org/2000/svg">
<path id="Vector" d="M14.2773 13.2C14.5124 13.2 14.7079 13.1209 14.8637 12.9628C15.0196 12.8047 15.0975 12.6087 15.0975 12.375V10.725H16.7475C16.9812 10.725 17.1772 10.6455 17.3353 10.4864C17.4934 10.3274 17.5725 10.1303 17.5725 9.89519C17.5725 9.66006 17.4934 9.46458 17.3353 9.30875C17.1772 9.15292 16.9812 9.075 16.7475 9.075H15.0975V7.425C15.0975 7.19125 15.018 6.99531 14.8589 6.83719C14.6999 6.67906 14.5028 6.6 14.2677 6.6C14.0326 6.6 13.8371 6.67906 13.6812 6.83719C13.5254 6.99531 13.4475 7.19125 13.4475 7.425V9.075H11.7975C11.5637 9.075 11.3678 9.15452 11.2097 9.31356C11.0516 9.47262 10.9725 9.6697 10.9725 9.90481C10.9725 10.1399 11.0516 10.3354 11.2097 10.4912C11.3678 10.6471 11.5637 10.725 11.7975 10.725H13.4475V12.375C13.4475 12.6087 13.527 12.8047 13.6861 12.9628C13.8451 13.1209 14.0422 13.2 14.2773 13.2ZM1.65 17.6C1.21 17.6 0.825 17.4304 0.495 17.0912C0.165 16.7521 0 16.3717 0 15.95V1.65C0 1.22833 0.165 0.847917 0.495 0.50875C0.825 0.169583 1.21 0 1.65 0H8.6625C8.89064 0 9.10809 0.0458333 9.31485 0.1375C9.52162 0.229167 9.69914 0.34914 9.84742 0.49742L11 1.65H20.35C20.7717 1.65 21.1521 1.81958 21.4912 2.15875C21.8304 2.49792 22 2.87833 22 3.3V15.95C22 16.3717 21.8304 16.7521 21.4912 17.0912C21.1521 17.4304 20.7717 17.6 20.35 17.6H1.65ZM1.65 1.65V15.95H20.35V3.3H10.3125L8.6625 1.65H1.65Z" fill="var(--fill-0, #212121)"/>
</svg>
