<svg preserveAspectRatio="none" width="100%" height="100%" overflow="visible" style="display: block;" viewBox="0 0 20 17" fill="none" xmlns="http://www.w3.org/2000/svg">
<path id="Vector" d="M2.75 0C2.02065 0 1.32118 0.289731 0.805456 0.805456C0.289731 1.32118 0 2.02065 0 2.75V11.25C0 11.9793 0.289731 12.6788 0.805456 13.1945C1.32118 13.7103 2.02065 14 2.75 14H17.25C17.9793 14 18.6788 13.7103 19.1945 13.1945C19.7103 12.6788 20 11.9793 20 11.25V2.75C20 2.02065 19.7103 1.32118 19.1945 0.805456C18.6788 0.289731 17.9793 0 17.25 0H2.75ZM1.5 2.75C1.5 2.06 2.06 1.5 2.75 1.5H17.25C17.94 1.5 18.5 2.06 18.5 2.75V11.25C18.5 11.94 17.94 12.5 17.25 12.5H2.75C2.06 12.5 1.5 11.94 1.5 11.25V2.75ZM3.75 15.5C3.55109 15.5 3.36032 15.579 3.21967 15.7197C3.07902 15.8603 3 16.0511 3 16.25C3 16.4489 3.07902 16.6397 3.21967 16.7803C3.36032 16.921 3.55109 17 3.75 17H16.25C16.4489 17 16.6397 16.921 16.7803 16.7803C16.921 16.6397 17 16.4489 17 16.25C17 16.0511 16.921 15.8603 16.7803 15.7197C16.6397 15.579 16.4489 15.5 16.25 15.5H3.75Z" fill="var(--fill-0, #212121)"/>
</svg>
