<svg preserveAspectRatio="none" width="100%" height="100%" overflow="visible" style="display: block;" viewBox="0 0 18 18" fill="none" xmlns="http://www.w3.org/2000/svg">
<path id="Vector" d="M17.9213 3.41438L16.4213 0.414375C16.3589 0.28977 16.2631 0.184999 16.1445 0.111808C16.0259 0.0386169 15.8893 -9.95628e-05 15.75 1.92282e-07H2.25C2.11067 -9.95628e-05 1.97406 0.0386169 1.8555 0.111808C1.73693 0.184999 1.6411 0.28977 1.57875 0.414375L0.07875 3.41438C0.0270533 3.51871 0.000105455 3.63356 0 3.75V16.5C0 16.8978 0.158035 17.2794 0.43934 17.5607C0.720644 17.842 1.10218 18 1.5 18H16.5C16.8978 18 17.2794 17.842 17.5607 17.5607C17.842 17.2794 18 16.8978 18 16.5V3.75C17.9999 3.63356 17.9729 3.51871 17.9213 3.41438ZM2.71312 1.5H15.2869L16.0369 3H1.96312L2.71312 1.5ZM16.5 16.5H1.5V4.5H16.5V16.5ZM12.5306 10.7194C12.6004 10.789 12.6557 10.8717 12.6934 10.9628C12.7312 11.0538 12.7506 11.1514 12.7506 11.25C12.7506 11.3486 12.7312 11.4462 12.6934 11.5372C12.6557 11.6283 12.6004 11.711 12.5306 11.7806L9.53063 14.7806C9.46097 14.8504 9.37825 14.9057 9.28721 14.9434C9.19616 14.9812 9.09856 15.0006 9 15.0006C8.90144 15.0006 8.80384 14.9812 8.71279 14.9434C8.62175 14.9057 8.53903 14.8504 8.46937 14.7806L5.46937 11.7806C5.32864 11.6399 5.24958 11.449 5.24958 11.25C5.24958 11.051 5.32864 10.8601 5.46937 10.7194C5.61011 10.5786 5.80098 10.4996 6 10.4996C6.19902 10.4996 6.38989 10.5786 6.53063 10.7194L8.25 12.4397V6.75C8.25 6.55109 8.32902 6.36032 8.46967 6.21967C8.61032 6.07902 8.80109 6 9 6C9.19891 6 9.38968 6.07902 9.53033 6.21967C9.67098 6.36032 9.75 6.55109 9.75 6.75V12.4397L11.4694 10.7194C11.539 10.6496 11.6217 10.5943 11.7128 10.5566C11.8038 10.5188 11.9014 10.4994 12 10.4994C12.0986 10.4994 12.1962 10.5188 12.2872 10.5566C12.3783 10.5943 12.461 10.6496 12.5306 10.7194Z" fill="var(--fill-0, #212121)"/>
</svg>
