<svg preserveAspectRatio="none" width="100%" height="100%" overflow="visible" style="display: block;" viewBox="0 0 20 20" fill="none" xmlns="http://www.w3.org/2000/svg">
<path id="Vector" fill-rule="evenodd" clip-rule="evenodd" d="M10 1.39535C7.7179 1.39535 5.52928 2.30191 3.91559 3.91559C2.30191 5.52928 1.39535 7.7179 1.39535 10C1.39535 12.2821 2.30191 14.4707 3.91559 16.0844C5.52928 17.6981 7.7179 18.6047 10 18.6047C12.2821 18.6047 14.4707 17.6981 16.0844 16.0844C17.6981 14.4707 18.6047 12.2821 18.6047 10C18.6047 7.7179 17.6981 5.52928 16.0844 3.91559C14.4707 2.30191 12.2821 1.39535 10 1.39535ZM0 10C0 4.47721 4.47721 0 10 0C15.5228 0 20 4.47721 20 10C20 15.5228 15.5228 20 10 20C4.47721 20 0 15.5228 0 10ZM10 3.72093C10.185 3.72093 10.3625 3.79444 10.4933 3.92527C10.6242 4.05611 10.6977 4.23357 10.6977 4.4186V4.71349C12.214 4.98512 13.4884 6.12465 13.4884 7.67442C13.4884 7.85945 13.4149 8.03691 13.284 8.16775C13.1532 8.29859 12.9757 8.37209 12.7907 8.37209C12.6057 8.37209 12.4282 8.29859 12.2974 8.16775C12.1665 8.03691 12.093 7.85945 12.093 7.67442C12.093 7.04372 11.5684 6.37488 10.6977 6.13674V9.36465C12.214 9.63628 13.4884 10.7758 13.4884 12.3256C13.4884 13.8753 12.214 15.0149 10.6977 15.2865V15.5814C10.6977 15.7664 10.6242 15.9439 10.4933 16.0747C10.3625 16.2056 10.185 16.2791 10 16.2791C9.81497 16.2791 9.63751 16.2056 9.50667 16.0747C9.37583 15.9439 9.30233 15.7664 9.30233 15.5814V15.2865C7.78605 15.0149 6.51163 13.8753 6.51163 12.3256C6.51163 12.1405 6.58513 11.9631 6.71597 11.8323C6.84681 11.7014 7.02427 11.6279 7.2093 11.6279C7.39434 11.6279 7.57179 11.7014 7.70263 11.8323C7.83347 11.9631 7.90698 12.1405 7.90698 12.3256C7.90698 12.9563 8.43163 13.6251 9.30233 13.8623V10.6353C7.78605 10.3637 6.51163 9.22419 6.51163 7.67442C6.51163 6.12465 7.78605 4.98512 9.30233 4.71349V4.4186C9.30233 4.23357 9.37583 4.05611 9.50667 3.92527C9.63751 3.79444 9.81497 3.72093 10 3.72093ZM9.30233 6.13674C8.43163 6.37488 7.90698 7.04372 7.90698 7.67442C7.90698 8.30512 8.43163 8.97395 9.30233 9.21116V6.13674ZM10.6977 10.7879V13.8633C11.5684 13.6251 12.093 12.9572 12.093 12.3256C12.093 11.6949 11.5684 11.0251 10.6977 10.7879Z" fill="var(--fill-0, #212121)"/>
</svg>
