<svg preserveAspectRatio="none" width="100%" height="100%" overflow="visible" style="display: block;" viewBox="0 0 26.25 19.2506" fill="none" xmlns="http://www.w3.org/2000/svg">
<path id="Vector" d="M25.375 13.1256H20.9508C20.9831 12.835 20.9995 12.5429 21 12.2506C21 10.162 20.1703 8.15894 18.6935 6.6821C17.2166 5.20525 15.2136 4.37556 13.125 4.37556C11.0364 4.37556 9.03338 5.20525 7.55653 6.6821C6.07969 8.15894 5.25 10.162 5.25 12.2506C5.25049 12.5429 5.26692 12.835 5.29922 13.1256H0.875C0.642936 13.1256 0.420376 13.2177 0.256282 13.3818C0.0921872 13.5459 0 13.7685 0 14.0006C0 14.2326 0.0921872 14.4552 0.256282 14.6193C0.420376 14.7834 0.642936 14.8756 0.875 14.8756H25.375C25.6071 14.8756 25.8296 14.7834 25.9937 14.6193C26.1578 14.4552 26.25 14.2326 26.25 14.0006C26.25 13.7685 26.1578 13.5459 25.9937 13.3818C25.8296 13.2177 25.6071 13.1256 25.375 13.1256ZM7 12.2506C6.99839 11.4083 7.17053 10.5747 7.50565 9.80195C7.84077 9.02919 8.33166 8.33386 8.94767 7.75941C9.56367 7.18496 10.2915 6.74373 11.0858 6.46331C11.88 6.18288 12.7235 6.06928 13.5637 6.12961C14.4038 6.18993 15.2225 6.42289 15.9685 6.81392C16.7145 7.20495 17.3719 7.74564 17.8995 8.40221C18.4271 9.05878 18.8136 9.81712 19.0349 10.6298C19.2561 11.4425 19.3074 12.2921 19.1855 13.1256H7.06453C7.02218 12.8358 7.00061 12.5434 7 12.2506ZM22.75 18.3756C22.75 18.6076 22.6578 18.8302 22.4937 18.9943C22.3296 19.1584 22.1071 19.2506 21.875 19.2506H4.375C4.14294 19.2506 3.92038 19.1584 3.75628 18.9943C3.59219 18.8302 3.5 18.6076 3.5 18.3756C3.5 18.1435 3.59219 17.9209 3.75628 17.7568C3.92038 17.5927 4.14294 17.5006 4.375 17.5006H21.875C22.1071 17.5006 22.3296 17.5927 22.4937 17.7568C22.6578 17.9209 22.75 18.1435 22.75 18.3756ZM7.09187 1.26712C6.98803 1.05943 6.97094 0.818981 7.04437 0.598685C7.1178 0.378388 7.27574 0.196285 7.48344 0.0924361C7.69113 -0.0114127 7.93158 -0.0285005 8.15188 0.0449317C8.37217 0.118364 8.55428 0.276301 8.65813 0.483998L9.53313 2.234C9.58455 2.33684 9.61521 2.4488 9.62336 2.56349C9.63151 2.67818 9.61699 2.79336 9.58063 2.90244C9.54427 3.01152 9.48678 3.11237 9.41145 3.19923C9.33611 3.28609 9.2444 3.35727 9.14156 3.40869C9.03872 3.46011 8.92676 3.49077 8.81207 3.49892C8.69738 3.50707 8.5822 3.49255 8.47312 3.45619C8.36404 3.41983 8.26319 3.36234 8.17633 3.28701C8.08947 3.21167 8.0183 3.11997 7.96687 3.01712L7.09187 1.26712ZM0.966875 6.609C1.01834 6.5062 1.08955 6.41455 1.17645 6.33928C1.26334 6.26402 1.36422 6.20662 1.47331 6.17035C1.5824 6.13409 1.69757 6.11968 1.81223 6.12795C1.92689 6.13621 2.0388 6.16699 2.14156 6.21853L3.89156 7.09353C4.09912 7.19738 4.25691 7.37942 4.33024 7.59962C4.40357 7.81981 4.38643 8.06012 4.28258 8.26767C4.17873 8.47522 3.99668 8.63302 3.77649 8.70635C3.5563 8.77968 3.31599 8.76253 3.10844 8.65869L1.35844 7.78369C1.25554 7.73232 1.16379 7.66118 1.08841 7.57432C1.01303 7.48747 0.955517 7.38661 0.91915 7.27751C0.882784 7.16841 0.86828 7.05321 0.876469 6.9385C0.884658 6.8238 0.915379 6.71183 0.966875 6.609ZM21.9669 8.26712C21.8632 8.05956 21.8462 7.81933 21.9197 7.59925C21.9931 7.37918 22.1509 7.19727 22.3584 7.09353L24.1084 6.21853C24.2112 6.16711 24.3231 6.13643 24.4377 6.12826C24.5523 6.12008 24.6675 6.13456 24.7765 6.17087C24.8855 6.20717 24.9863 6.2646 25.0732 6.33987C25.16 6.41514 25.2312 6.50678 25.2826 6.60955C25.334 6.71232 25.3647 6.82421 25.3729 6.93883C25.381 7.05346 25.3666 7.16857 25.3302 7.2776C25.2939 7.38663 25.2365 7.48744 25.1612 7.57427C25.086 7.66111 24.9943 7.73227 24.8916 7.78369L23.1416 8.65869C23.0387 8.71018 22.9268 8.7409 22.8121 8.74909C22.6973 8.75728 22.5821 8.74278 22.473 8.70641C22.3639 8.67004 22.2631 8.61253 22.1762 8.53715C22.0894 8.46177 22.0182 8.37002 21.9669 8.26712ZM16.7169 2.234L17.5919 0.483998C17.6957 0.276301 17.8778 0.118364 18.0981 0.0449317C18.3184 -0.0285005 18.5589 -0.0114127 18.7666 0.0924361C18.9743 0.196285 19.1322 0.378388 19.2056 0.598685C19.2791 0.818981 19.262 1.05943 19.1581 1.26712L18.2831 3.01712C18.1793 3.22482 17.9972 3.38276 17.7769 3.45619C17.5566 3.52962 17.3161 3.51253 17.1084 3.40869C16.9007 3.30484 16.7428 3.12273 16.6694 2.90244C16.5959 2.68214 16.613 2.4417 16.7169 2.234Z" fill="var(--fill-0, white)"/>
</svg>
