<svg preserveAspectRatio="none" width="100%" height="100%" overflow="visible" style="display: block;" viewBox="0 0 19.5006 19.5006" fill="none" xmlns="http://www.w3.org/2000/svg">
<path id="Vector" d="M13.2809 6.21975C13.3506 6.28941 13.4059 6.37213 13.4437 6.46317C13.4814 6.55422 13.5009 6.65182 13.5009 6.75038C13.5009 6.84894 13.4814 6.94654 13.4437 7.03758C13.4059 7.12863 13.3506 7.21135 13.2809 7.281L7.28089 13.281C7.21121 13.3507 7.12848 13.406 7.03744 13.4437C6.9464 13.4814 6.84881 13.5008 6.75027 13.5008C6.65172 13.5008 6.55414 13.4814 6.4631 13.4437C6.37205 13.406 6.28932 13.3507 6.21964 13.281C6.14996 13.2113 6.09468 13.1286 6.05697 13.0376C6.01926 12.9465 5.99985 12.8489 5.99985 12.7504C5.99985 12.6518 6.01926 12.5543 6.05697 12.4632C6.09468 12.3722 6.14996 12.2894 6.21964 12.2198L12.2196 6.21975C12.2893 6.15002 12.372 6.0947 12.4631 6.05696C12.5541 6.01922 12.6517 5.99979 12.7503 5.99979C12.8488 5.99979 12.9464 6.01922 13.0375 6.05696C13.1285 6.0947 13.2112 6.15002 13.2809 6.21975ZM17.9628 1.53788C17.4753 1.05031 16.8965 0.663554 16.2595 0.399684C15.6225 0.135813 14.9398 0 14.2503 0C13.5608 0 12.878 0.135813 12.2411 0.399684C11.6041 0.663554 11.0253 1.05031 10.5378 1.53788L7.71964 4.35507C7.57891 4.4958 7.49985 4.68667 7.49985 4.88569C7.49985 5.08471 7.57891 5.27559 7.71964 5.41632C7.86037 5.55705 8.05124 5.63611 8.25027 5.63611C8.44929 5.63611 8.64016 5.55705 8.78089 5.41632L11.599 2.60382C12.3048 1.91349 13.2544 1.52936 14.2417 1.5348C15.229 1.54024 16.1743 1.9348 16.8725 2.63286C17.5707 3.33092 17.9654 4.27615 17.971 5.26343C17.9766 6.25071 17.5927 7.20037 16.9025 7.90632L14.0834 10.7244C13.9427 10.865 13.8636 11.0558 13.8635 11.2547C13.8634 11.4537 13.9423 11.6445 14.0829 11.7852C14.2235 11.926 14.4143 12.0051 14.6132 12.0052C14.8122 12.0052 15.003 11.9263 15.1437 11.7857L17.9628 8.96288C18.4503 8.47536 18.8371 7.89659 19.101 7.25959C19.3648 6.6226 19.5006 5.93986 19.5006 5.25038C19.5006 4.56089 19.3648 3.87816 19.101 3.24117C18.8371 2.60417 18.4503 2.02539 17.9628 1.53788ZM10.7196 14.0835L7.90152 16.9016C7.55472 17.2562 7.14102 17.5385 6.68438 17.7321C6.22774 17.9257 5.73722 18.0268 5.24124 18.0295C4.74526 18.0323 4.25367 17.9366 3.79492 17.748C3.33617 17.5594 2.91939 17.2817 2.56871 16.931C2.21802 16.5802 1.9404 16.1634 1.75192 15.7046C1.56343 15.2459 1.46783 14.7542 1.47065 14.2583C1.47347 13.7623 1.57465 13.2718 1.76834 12.8152C1.96203 12.3586 2.24437 11.9449 2.59902 11.5982L5.41621 8.781C5.55694 8.64027 5.636 8.4494 5.636 8.25038C5.636 8.05136 5.55694 7.86048 5.41621 7.71975C5.27547 7.57902 5.0846 7.49996 4.88558 7.49996C4.68656 7.49996 4.49569 7.57902 4.35496 7.71975L1.53777 10.5379C0.553152 11.5225 0 12.8579 0 14.2504C0 15.6428 0.553152 16.9783 1.53777 17.9629C2.52238 18.9475 3.85781 19.5006 5.25027 19.5006C6.64273 19.5006 7.97815 18.9475 8.96277 17.9629L11.7809 15.1438C11.9215 15.0031 12.0004 14.8123 12.0004 14.6133C12.0003 14.4144 11.9212 14.2236 11.7804 14.083C11.6397 13.9424 11.4489 13.8635 11.2499 13.8636C11.051 13.8637 10.8602 13.9428 10.7196 14.0835Z" fill="var(--fill-0, #212121)"/>
</svg>
