<svg preserveAspectRatio="none" width="100%" height="100%" overflow="visible" style="display: block;" viewBox="0 0 15.575 14.575" fill="none" xmlns="http://www.w3.org/2000/svg">
<path id="Vector" d="M5.9 14.575C4.28333 14.575 2.89567 14.05 1.737 13C0.578334 11.95 -0.000666092 10.6417 5.75043e-07 9.075C5.75043e-07 7.50833 0.579334 6.2 1.738 5.15C2.89667 4.1 4.284 3.575 5.9 3.575H12.2L10.3 1.675C10.1167 1.49167 10.025 1.25833 10.025 0.975C10.025 0.691667 10.1167 0.458333 10.3 0.275C10.4833 0.0916663 10.7167 0 11 0C11.2833 0 11.5167 0.0916663 11.7 0.275L15.3 3.875C15.4 3.975 15.471 4.08333 15.513 4.2C15.555 4.31667 15.5757 4.44167 15.575 4.575C15.575 4.70833 15.554 4.83333 15.512 4.95C15.47 5.06667 15.3993 5.175 15.3 5.275L11.7 8.875C11.5167 9.05833 11.2833 9.15 11 9.15C10.7167 9.15 10.4833 9.05833 10.3 8.875C10.1167 8.69167 10.025 8.45833 10.025 8.175C10.025 7.89167 10.1167 7.65833 10.3 7.475L12.2 5.575H5.9C4.85 5.575 3.93733 5.90833 3.162 6.575C2.38667 7.24167 1.99933 8.075 2 9.075C2 10.075 2.38767 10.9083 3.163 11.575C3.93833 12.2417 4.85067 12.575 5.9 12.575H12C12.2833 12.575 12.521 12.671 12.713 12.863C12.905 13.055 13.0007 13.2923 13 13.575C13 13.8583 12.904 14.096 12.712 14.288C12.52 14.48 12.2827 14.5757 12 14.575H5.9Z" fill="var(--fill-0, #212121)"/>
</svg>
