<svg preserveAspectRatio="none" width="100%" height="100%" overflow="visible" style="display: block;" viewBox="0 0 24 24" fill="none" xmlns="http://www.w3.org/2000/svg">
<g id="Group">
<g id="Vector">
</g>
<path id="Vector_2" fill-rule="evenodd" clip-rule="evenodd" d="M5.669 4.76C5.69581 4.53285 5.77529 4.31509 5.90111 4.12408C6.02694 3.93306 6.19563 3.77407 6.39375 3.65976C6.59187 3.54546 6.81394 3.47899 7.04229 3.46566C7.27063 3.45234 7.49893 3.49252 7.709 3.583C8.771 4.037 11.151 5.116 14.171 6.859C17.192 8.603 19.317 10.126 20.24 10.817C21.028 11.408 21.03 12.58 20.241 13.173C19.327 13.86 17.228 15.363 14.171 17.129C11.111 18.895 8.759 19.961 7.707 20.409C6.801 20.796 5.787 20.209 5.669 19.232C5.531 18.09 5.273 15.497 5.273 11.995C5.273 8.495 5.53 5.903 5.669 4.76Z" fill="var(--fill-0, #212121)"/>
</g>
</svg>
