<svg preserveAspectRatio="none" width="100%" height="100%" overflow="visible" style="display: block;" viewBox="0 0 20 20.007" fill="none" xmlns="http://www.w3.org/2000/svg">
<path id="Vector" d="M2.5 0.75C2.5 0.551088 2.42099 0.360322 2.28033 0.21967C2.13968 0.0790175 1.94892 0 1.75 0C1.55109 0 1.36033 0.0790175 1.21967 0.21967C1.07902 0.360322 1 0.551088 1 0.75C1 2.02 1.928 2.667 2.506 3.07L2.57 3.114C3.25 3.59 3.5 3.819 3.5 4.25C3.5 4.44891 3.57902 4.63968 3.71967 4.78033C3.86033 4.92098 4.05109 5 4.25 5C4.44892 5 4.63968 4.92098 4.78033 4.78033C4.92099 4.63968 5 4.44891 5 4.25C5 2.98 4.072 2.333 3.494 1.93L3.43 1.886C2.75 1.41 2.5 1.18 2.5 0.75ZM1.821 6C1.33804 6 0.874865 6.19185 0.533362 6.53336C0.191858 6.87486 3.01483e-06 7.33804 3.01483e-06 7.821V12C-0.00160915 13.8578 0.643397 15.6582 1.82434 17.0923C3.00529 18.5265 4.64854 19.5049 6.47213 19.8597C8.29572 20.2145 10.1859 19.9236 11.8184 19.0368C13.4509 18.1501 14.7239 16.7229 15.419 15H16.75C17.612 15 18.4386 14.6576 19.0481 14.0481C19.6576 13.4386 20 12.612 20 11.75C20 10.888 19.6576 10.0614 19.0481 9.4519C18.4386 8.84241 17.612 8.5 16.75 8.5H16V7.821C16 7.33804 15.8081 6.87486 15.4666 6.53336C15.1251 6.19185 14.662 6 14.179 6H1.821ZM16.75 13.5H15.86C15.9535 13.0055 16.0004 12.5033 16 12V10H16.75C16.9798 10 17.2074 10.0453 17.4197 10.1332C17.632 10.2212 17.8249 10.3501 17.9874 10.5126C18.1499 10.6751 18.2788 10.868 18.3668 11.0803C18.4547 11.2926 18.5 11.5202 18.5 11.75C18.5 11.9798 18.4547 12.2074 18.3668 12.4197C18.2788 12.632 18.1499 12.8249 17.9874 12.9874C17.8249 13.1499 17.632 13.2788 17.4197 13.3668C17.2074 13.4547 16.9798 13.5 16.75 13.5ZM5.75 0C5.94892 0 6.13968 0.0790175 6.28033 0.21967C6.42098 0.360322 6.5 0.551088 6.5 0.75C6.5 1.181 6.75 1.41 7.43 1.886L7.494 1.93C8.072 2.333 9 2.98 9 4.25C9 4.44891 8.92098 4.63968 8.78033 4.78033C8.63968 4.92098 8.44892 5 8.25 5C8.05109 5 7.86033 4.92098 7.71967 4.78033C7.57902 4.63968 7.5 4.44891 7.5 4.25C7.5 3.819 7.25 3.59 6.57 3.114L6.506 3.07C5.928 2.667 5 2.02 5 0.75C5 0.551088 5.07902 0.360322 5.21967 0.21967C5.36033 0.0790175 5.55109 0 5.75 0ZM10.5 0.75C10.5 0.551088 10.421 0.360322 10.2803 0.21967C10.1397 0.0790175 9.94892 0 9.75 0C9.55109 0 9.36033 0.0790175 9.21967 0.21967C9.07902 0.360322 9 0.551088 9 0.75C9 2.02 9.928 2.667 10.506 3.07L10.57 3.114C11.25 3.59 11.5 3.819 11.5 4.25C11.5 4.44891 11.579 4.63968 11.7197 4.78033C11.8603 4.92098 12.0511 5 12.25 5C12.4489 5 12.6397 4.92098 12.7803 4.78033C12.921 4.63968 13 4.44891 13 4.25C13 2.98 12.072 2.333 11.494 1.93L11.43 1.886C10.75 1.41 10.5 1.181 10.5 0.75Z" fill="var(--fill-0, #212121)"/>
</svg>
