<svg preserveAspectRatio="none" width="100%" height="100%" overflow="visible" style="display: block;" viewBox="0 0 33.3378 31.669" fill="none" xmlns="http://www.w3.org/2000/svg">
<g id="Group">
<path id="Vector" d="M26.5315 19.7002C26.0999 20.1186 25.9015 20.7236 25.9999 21.3169L27.4815 29.5169C27.6065 30.2119 27.3132 30.9152 26.7315 31.3169C26.1615 31.7336 25.4032 31.7836 24.7815 31.4502L17.3999 27.6002C17.1432 27.4636 16.8582 27.3902 16.5665 27.3819H16.1149C15.9582 27.4052 15.8049 27.4552 15.6649 27.5319L8.28153 31.4002C7.91653 31.5836 7.5032 31.6486 7.0982 31.5836C6.11153 31.3969 5.4532 30.4569 5.61487 29.4652L7.0982 21.2652C7.19653 20.6669 6.9982 20.0586 6.56653 19.6336L0.548201 13.8002C0.0448677 13.3119 -0.130132 12.5786 0.0998676 11.9169C0.323201 11.2569 0.893201 10.7752 1.58153 10.6669L9.86487 9.46523C10.4949 9.40023 11.0482 9.0169 11.3315 8.45023L14.9815 0.966896C15.0682 0.800229 15.1799 0.646896 15.3149 0.516896L15.4649 0.400229C15.5432 0.313562 15.6332 0.241896 15.7332 0.183562L15.9149 0.116896L16.1982 0.000229001H16.8999C17.5265 0.065229 18.0782 0.440229 18.3665 1.00023L22.0649 8.45023C22.3315 8.99523 22.8499 9.37356 23.4482 9.46523L31.7315 10.6669C32.4315 10.7669 33.0165 11.2502 33.2482 11.9169C33.4665 12.5852 33.2782 13.3186 32.7649 13.8002L26.5315 19.7002Z" fill="var(--fill-0, white)"/>
</g>
</svg>
