<svg preserveAspectRatio="none" width="100%" height="100%" overflow="visible" style="display: block;" viewBox="0 0 18.75 18.75" fill="none" xmlns="http://www.w3.org/2000/svg">
<path id="Vector" d="M8.75 2.5V0.625C8.75 0.45924 8.81585 0.300268 8.93306 0.183058C9.05027 0.065848 9.20924 0 9.375 0C9.54076 0 9.69973 0.065848 9.81694 0.183058C9.93415 0.300268 10 0.45924 10 0.625V2.5C10 2.66576 9.93415 2.82473 9.81694 2.94194C9.69973 3.05915 9.54076 3.125 9.375 3.125C9.20924 3.125 9.05027 3.05915 8.93306 2.94194C8.81585 2.82473 8.75 2.66576 8.75 2.5ZM14.375 9.375C14.375 10.3639 14.0818 11.3306 13.5323 12.1529C12.9829 12.9751 12.202 13.616 11.2884 13.9944C10.3748 14.3728 9.36945 14.4719 8.39955 14.2789C7.42964 14.086 6.53873 13.6098 5.83947 12.9105C5.1402 12.2113 4.664 11.3204 4.47107 10.3505C4.27815 9.38055 4.37716 8.37521 4.7556 7.46158C5.13404 6.54795 5.7749 5.76706 6.59715 5.21765C7.41939 4.66824 8.38609 4.375 9.375 4.375C10.7006 4.37645 11.9716 4.9037 12.9089 5.84107C13.8463 6.77843 14.3736 8.04936 14.375 9.375ZM13.125 9.375C13.125 8.63332 12.9051 7.9083 12.493 7.29161C12.081 6.67493 11.4953 6.19428 10.8101 5.91045C10.1248 5.62662 9.37084 5.55236 8.64341 5.69706C7.91598 5.84175 7.2478 6.1989 6.72335 6.72335C6.1989 7.2478 5.84175 7.91598 5.69706 8.64341C5.55236 9.37084 5.62662 10.1248 5.91045 10.8101C6.19428 11.4953 6.67493 12.081 7.29161 12.493C7.9083 12.9051 8.63332 13.125 9.375 13.125C10.3692 13.124 11.3225 12.7285 12.0255 12.0255C12.7285 11.3225 13.124 10.3692 13.125 9.375ZM3.93281 4.81719C4.05009 4.93446 4.20915 5.00035 4.375 5.00035C4.54085 5.00035 4.69991 4.93446 4.81719 4.81719C4.93446 4.69991 5.00035 4.54085 5.00035 4.375C5.00035 4.20915 4.93446 4.05009 4.81719 3.93281L3.56719 2.68281C3.44991 2.56554 3.29085 2.49965 3.125 2.49965C2.95915 2.49965 2.80009 2.56554 2.68281 2.68281C2.56554 2.80009 2.49965 2.95915 2.49965 3.125C2.49965 3.29085 2.56554 3.44991 2.68281 3.56719L3.93281 4.81719ZM3.93281 13.9328L2.68281 15.1828C2.56554 15.3001 2.49965 15.4591 2.49965 15.625C2.49965 15.7909 2.56554 15.9499 2.68281 16.0672C2.80009 16.1845 2.95915 16.2503 3.125 16.2503C3.29085 16.2503 3.44991 16.1845 3.56719 16.0672L4.81719 14.8172C4.87526 14.7591 4.92132 14.6902 4.95275 14.6143C4.98417 14.5384 5.00035 14.4571 5.00035 14.375C5.00035 14.2929 4.98417 14.2116 4.95275 14.1357C4.92132 14.0598 4.87526 13.9909 4.81719 13.9328C4.75912 13.8747 4.69018 13.8287 4.61431 13.7973C4.53844 13.7658 4.45712 13.7497 4.375 13.7497C4.29288 13.7497 4.21156 13.7658 4.13569 13.7973C4.05982 13.8287 3.99088 13.8747 3.93281 13.9328ZM14.375 5C14.4571 5.00006 14.5384 4.98395 14.6143 4.95259C14.6902 4.92122 14.7591 4.87521 14.8172 4.81719L16.0672 3.56719C16.1845 3.44991 16.2503 3.29085 16.2503 3.125C16.2503 2.95915 16.1845 2.80009 16.0672 2.68281C15.9499 2.56554 15.7909 2.49965 15.625 2.49965C15.4591 2.49965 15.3001 2.56554 15.1828 2.68281L13.9328 3.93281C13.8453 4.02022 13.7857 4.13163 13.7615 4.25293C13.7374 4.37424 13.7498 4.49998 13.7971 4.61424C13.8445 4.72851 13.9246 4.82616 14.0275 4.89483C14.1304 4.96349 14.2513 5.0001 14.375 5ZM14.8172 13.9328C14.6999 13.8155 14.5409 13.7497 14.375 13.7497C14.2091 13.7497 14.0501 13.8155 13.9328 13.9328C13.8155 14.0501 13.7497 14.2091 13.7497 14.375C13.7497 14.5409 13.8155 14.6999 13.9328 14.8172L15.1828 16.0672C15.2409 16.1253 15.3098 16.1713 15.3857 16.2027C15.4616 16.2342 15.5429 16.2503 15.625 16.2503C15.7071 16.2503 15.7884 16.2342 15.8643 16.2027C15.9402 16.1713 16.0091 16.1253 16.0672 16.0672C16.1253 16.0091 16.1713 15.9402 16.2027 15.8643C16.2342 15.7884 16.2503 15.7071 16.2503 15.625C16.2503 15.5429 16.2342 15.4616 16.2027 15.3857C16.1713 15.3098 16.1253 15.2409 16.0672 15.1828L14.8172 13.9328ZM3.125 9.375C3.125 9.20924 3.05915 9.05027 2.94194 8.93306C2.82473 8.81585 2.66576 8.75 2.5 8.75H0.625C0.45924 8.75 0.300268 8.81585 0.183058 8.93306C0.065848 9.05027 0 9.20924 0 9.375C0 9.54076 0.065848 9.69973 0.183058 9.81694C0.300268 9.93415 0.45924 10 0.625 10H2.5C2.66576 10 2.82473 9.93415 2.94194 9.81694C3.05915 9.69973 3.125 9.54076 3.125 9.375ZM9.375 15.625C9.20924 15.625 9.05027 15.6908 8.93306 15.8081C8.81585 15.9253 8.75 16.0842 8.75 16.25V18.125C8.75 18.2908 8.81585 18.4497 8.93306 18.5669C9.05027 18.6842 9.20924 18.75 9.375 18.75C9.54076 18.75 9.69973 18.6842 9.81694 18.5669C9.93415 18.4497 10 18.2908 10 18.125V16.25C10 16.0842 9.93415 15.9253 9.81694 15.8081C9.69973 15.6908 9.54076 15.625 9.375 15.625ZM18.125 8.75H16.25C16.0842 8.75 15.9253 8.81585 15.8081 8.93306C15.6908 9.05027 15.625 9.20924 15.625 9.375C15.625 9.54076 15.6908 9.69973 15.8081 9.81694C15.9253 9.93415 16.0842 10 16.25 10H18.125C18.2908 10 18.4497 9.93415 18.5669 9.81694C18.6842 9.69973 18.75 9.54076 18.75 9.375C18.75 9.20924 18.6842 9.05027 18.5669 8.93306C18.4497 8.81585 18.2908 8.75 18.125 8.75Z" fill="var(--fill-0, #4AAF57)"/>
</svg>
