<svg preserveAspectRatio="none" width="100%" height="100%" overflow="visible" style="display: block;" viewBox="0 0 21 18" fill="none" xmlns="http://www.w3.org/2000/svg">
<path id="Vector" d="M1.7515e-08 3.4395L3.4395 0H5.5605L1.7515e-08 5.5605V3.4395ZM1.7515e-08 10.8105V8.6895L8.6895 0H10.8105L8.514 2.2965C7.41623 2.78784 6.53784 3.66623 6.0465 4.764L1.7515e-08 10.8105ZM1.7515e-08 13.9395L5.82 8.1195C5.9715 8.637 6.20625 9.12 6.51 9.55125L4.61625 11.4443C4.35822 11.6314 4.13141 11.8582 3.94425 12.1163L0.04275 16.0185C0.0142942 15.8682 -1.82765e-05 15.7155 1.7515e-08 15.5625V13.9395ZM11.8695 2.07C12.387 2.2215 12.87 2.45625 13.3013 2.76L16.0613 0H13.9387L11.8695 2.07ZM14.778 4.41075C15.0435 4.8945 15.228 5.4285 15.3165 5.99325L20.4345 0.876C20.0969 0.471188 19.6372 0.18672 19.1243 0.0652499L14.778 4.41075ZM1.41375 17.7758L3.375 15.8145V17.9355L3.3105 18H2.4375C2.08392 18.0006 1.73449 17.9246 1.41375 17.7758ZM14.625 10.875C14.9452 10.875 15.2535 10.9253 15.543 11.0175L21 5.56125V3.4395L13.5645 10.875H14.625ZM17.625 13.875V14.1855L21 10.8105V8.6895L17.2568 12.4327C17.4915 12.8602 17.625 13.3522 17.625 13.875ZM18.5625 18H17.625V17.3145L21 13.9395V15.5625C21 15.7568 20.9775 15.945 20.9348 16.1265L19.1257 17.934C18.9412 17.9778 18.7522 17.9999 18.5625 18ZM6.375 13.5C6.27554 13.5 6.18016 13.5395 6.10983 13.6098C6.03951 13.6802 6 13.7755 6 13.875V18H4.5V13.875C4.5 13.3777 4.69754 12.9008 5.04917 12.5492C5.40081 12.1975 5.87772 12 6.375 12H14.625C14.8712 12 15.115 12.0485 15.3425 12.1427C15.57 12.237 15.7767 12.3751 15.9508 12.5492C16.1249 12.7233 16.263 12.93 16.3573 13.1575C16.4515 13.385 16.5 13.6288 16.5 13.875V18H15V13.875C15 13.7755 14.9605 13.6802 14.8902 13.6098C14.8198 13.5395 14.7245 13.5 14.625 13.5H6.375ZM8.25 6.75C8.25 6.15326 8.48705 5.58097 8.90901 5.15901C9.33097 4.73705 9.90326 4.5 10.5 4.5C11.0967 4.5 11.669 4.73705 12.091 5.15901C12.5129 5.58097 12.75 6.15326 12.75 6.75C12.75 7.34674 12.5129 7.91903 12.091 8.34099C11.669 8.76295 11.0967 9 10.5 9C9.90326 9 9.33097 8.76295 8.90901 8.34099C8.48705 7.91903 8.25 7.34674 8.25 6.75ZM10.5 3C9.50544 3 8.55161 3.39509 7.84835 4.09835C7.14509 4.80161 6.75 5.75544 6.75 6.75C6.75 7.74456 7.14509 8.69839 7.84835 9.40165C8.55161 10.1049 9.50544 10.5 10.5 10.5C11.4946 10.5 12.4484 10.1049 13.1517 9.40165C13.8549 8.69839 14.25 7.74456 14.25 6.75C14.25 5.75544 13.8549 4.80161 13.1517 4.09835C12.4484 3.39509 11.4946 3 10.5 3Z" fill="var(--fill-0, #212121)"/>
</svg>
