<svg preserveAspectRatio="none" width="100%" height="100%" overflow="visible" style="display: block;" viewBox="0 0 21 21.8716" fill="none" xmlns="http://www.w3.org/2000/svg">
<path id="Vector" d="M21 2.62161V15.7466C20.9993 15.8712 20.972 15.9942 20.9199 16.1073C20.8679 16.2205 20.7923 16.3213 20.6981 16.4029C19.0269 17.8499 17.4289 18.3716 15.9053 18.3716C13.837 18.3716 11.9055 17.4157 10.1084 16.5286C7.20453 15.0904 4.68016 13.8446 1.75 16.1589V20.9966C1.75 21.2287 1.65781 21.4512 1.49372 21.6153C1.32962 21.7794 1.10706 21.8716 0.875 21.8716C0.642936 21.8716 0.420376 21.7794 0.256282 21.6153C0.0921874 21.4512 0 21.2287 0 20.9966V2.62161C0.000838969 2.49695 0.0283038 2.37391 0.0805547 2.26073C0.132806 2.14756 0.208636 2.04685 0.302969 1.96536C4.24047 -1.44496 7.77437 0.301761 10.8894 1.84286C13.8906 3.32817 16.4927 4.61223 19.5519 1.96536C19.6783 1.85575 19.8335 1.78469 19.9991 1.76062C20.1647 1.73655 20.3338 1.76046 20.4862 1.82954C20.6386 1.89861 20.768 2.00994 20.8591 2.15032C20.9502 2.29071 20.9991 2.45427 21 2.62161Z" fill="var(--fill-0, white)"/>
</svg>
