<svg preserveAspectRatio="none" width="100%" height="100%" overflow="visible" style="display: block;" viewBox="0 0 18 13.5" fill="none" xmlns="http://www.w3.org/2000/svg">
<path id="Vector" d="M0 1.125C0 0.50368 0.50368 0 1.125 0H16.875C17.4963 0 18 0.50368 18 1.125C18 1.74632 17.4963 2.25 16.875 2.25H1.125C0.50368 2.25 0 1.74632 0 1.125ZM0 6.75C0 6.12868 0.50368 5.625 1.125 5.625H16.875C17.4963 5.625 18 6.12868 18 6.75C18 7.37132 17.4963 7.875 16.875 7.875H1.125C0.50368 7.875 0 7.37132 0 6.75ZM0 12.375C0 11.7537 0.50368 11.25 1.125 11.25H16.875C17.4963 11.25 18 11.7537 18 12.375C18 12.9963 17.4963 13.5 16.875 13.5H1.125C0.50368 13.5 0 12.9963 0 12.375Z" fill="var(--fill-0, #212121)"/>
</svg>
