<svg preserveAspectRatio="none" width="100%" height="100%" overflow="visible" style="display: block;" viewBox="0 0 20.0016 20" fill="none" xmlns="http://www.w3.org/2000/svg">
<path id="Vector" fill-rule="evenodd" clip-rule="evenodd" d="M9.99336 1.38984C8.69806 1.38984 7.45581 1.9044 6.5399 2.82031C5.62398 3.73623 5.10943 4.97848 5.10943 6.27377C5.10943 7.56907 5.62398 8.81132 6.5399 9.72723C7.45581 10.6431 8.69806 11.1577 9.99336 11.1577C11.2887 11.1577 12.5309 10.6431 13.4468 9.72723C14.3627 8.81132 14.8773 7.56907 14.8773 6.27377C14.8773 4.97848 14.3627 3.73623 13.4468 2.82031C12.5309 1.9044 11.2887 1.38984 9.99336 1.38984ZM3.71402 6.27377C3.71481 5.38078 3.90606 4.49823 4.275 3.68502C4.64394 2.87181 5.18208 2.14664 5.85352 1.55791C6.52496 0.969184 7.31424 0.530436 8.1687 0.270951C9.02316 0.0114651 9.92313 -0.0627893 10.8086 0.0531427C11.694 0.169075 12.5445 0.472526 13.3034 0.943246C14.0622 1.41397 14.7119 2.04113 15.2092 2.78287C15.7064 3.52462 16.0397 4.36389 16.1869 5.24467C16.334 6.12546 16.2916 7.0275 16.0625 7.89059C16.8899 8.22311 17.6371 8.72804 18.2543 9.37177C18.8715 10.0155 19.3445 10.7833 19.642 11.624C19.9394 12.4648 20.0544 13.3592 19.9792 14.2478C19.9041 15.1365 19.6407 15.9989 19.2063 16.7778C18.772 17.5567 18.1768 18.2342 17.4603 18.7652C16.7439 19.2962 15.9225 19.6685 15.0509 19.8574C14.1794 20.0464 13.2776 20.0475 12.4055 19.8608C11.5335 19.6742 10.7112 19.3039 9.99336 18.7748C9.27549 19.3013 8.45385 19.6693 7.58295 19.8541C6.71205 20.0389 5.81181 20.0364 4.94194 19.8468C4.07208 19.6572 3.25247 19.2848 2.53751 18.7543C1.82255 18.2237 1.22858 17.5472 0.794992 16.7697C0.361409 15.9921 0.0981309 15.1312 0.0226245 14.2441C-0.0528818 13.357 0.0611099 12.464 0.357037 11.6244C0.652964 10.7847 1.12406 10.0175 1.73907 9.37381C2.35409 8.73008 3.09895 8.22449 3.92426 7.89059C3.78432 7.36306 3.71364 6.81955 3.71402 6.27377ZM4.43033 9.19111C3.38246 9.61915 2.51572 10.3977 1.97818 11.3939C1.44064 12.39 1.26566 13.5419 1.48313 14.6528C1.7006 15.7636 2.29702 16.7645 3.1705 17.4844C4.04399 18.2043 5.14034 18.5986 6.27227 18.5999C7.01969 18.6001 7.75721 18.4288 8.42801 18.0992C9.09881 17.7696 9.68501 17.2903 10.1414 16.6985C10.5979 16.1066 10.9124 15.4179 11.0607 14.6853C11.2091 13.9528 11.1873 13.1959 10.9971 12.4731C9.69665 12.6838 8.36284 12.4802 7.18449 11.891C6.00615 11.3019 5.04295 10.357 4.43126 9.19018L4.43033 9.19111ZM12.3414 12.0991C12.479 12.6154 12.5516 13.1578 12.5516 13.716C12.5539 15.2153 12.0174 16.6657 11.0399 17.8026C11.6099 18.1738 12.2511 18.4218 12.9224 18.5308C13.5938 18.6398 14.2805 18.6074 14.9386 18.4356C15.5967 18.2638 16.2117 17.9565 16.7441 17.5332C17.2766 17.11 17.7147 16.5802 18.0306 15.9779C18.3464 15.3755 18.5329 14.7138 18.5782 14.0351C18.6235 13.3565 18.5265 12.6759 18.2935 12.0369C18.0605 11.3979 17.6966 10.8146 17.2251 10.3244C16.7536 9.83418 16.1849 9.44786 15.5555 9.19018C14.8618 10.5094 13.723 11.54 12.3414 12.0991Z" fill="var(--fill-0, #212121)"/>
</svg>
