<svg preserveAspectRatio="none" width="100%" height="100%" overflow="visible" style="display: block;" viewBox="0 0 20 20" fill="none" xmlns="http://www.w3.org/2000/svg">
<g id="Group">
<g id="Vector">
</g>
<path id="Vector_2" fill-rule="evenodd" clip-rule="evenodd" d="M4.72417 3.96667C4.74651 3.77737 4.81274 3.59591 4.91759 3.43673C5.02245 3.27755 5.16302 3.14506 5.32812 3.0498C5.49322 2.95455 5.67829 2.89916 5.86857 2.88805C6.05886 2.87695 6.24911 2.91043 6.42417 2.98583C7.30917 3.36417 9.2925 4.26333 11.8092 5.71583C14.3267 7.16917 16.0975 8.43833 16.8667 9.01417C17.5233 9.50667 17.525 10.4833 16.8675 10.9775C16.1058 11.55 14.3567 12.8025 11.8092 14.2742C9.25917 15.7458 7.29917 16.6342 6.4225 17.0075C5.6675 17.33 4.8225 16.8408 4.72417 16.0267C4.60917 15.075 4.39417 12.9142 4.39417 9.99583C4.39417 7.07917 4.60833 4.91917 4.72417 3.96667Z" fill="var(--fill-0, white)"/>
</g>
</svg>
