<svg preserveAspectRatio="none" width="100%" height="100%" overflow="visible" style="display: block;" viewBox="0 0 20 20" fill="none" xmlns="http://www.w3.org/2000/svg">
<path id="Vector" d="M10 13.575L8.925 11.075L6.325 9.925L8.925 8.8L10 6.425L11.075 8.8L13.675 9.925L11.075 11.075L10 13.575ZM3 20C2.16667 20 1.45833 19.7083 0.875 19.125C0.291667 18.5417 0 17.8333 0 17C0 16.3 0.2125 15.6833 0.6375 15.15C1.0625 14.6167 1.6 14.2667 2.25 14.1V5.9C1.6 5.73333 1.0625 5.38333 0.6375 4.85C0.2125 4.31667 0 3.7 0 3C0 2.16667 0.291667 1.45833 0.875 0.875C1.45833 0.291667 2.16667 0 3 0C3.7 0 4.31667 0.2125 4.85 0.6375C5.38333 1.0625 5.73333 1.6 5.9 2.25H14.1C14.2667 1.6 14.6167 1.0625 15.15 0.6375C15.6833 0.2125 16.3 0 17 0C17.8333 0 18.5417 0.291667 19.125 0.875C19.7083 1.45833 20 2.16667 20 3C20 3.7 19.7875 4.31667 19.3625 4.85C18.9375 5.38333 18.4 5.73333 17.75 5.9V14.1C18.4 14.2667 18.9375 14.6167 19.3625 15.15C19.7875 15.6833 20 16.3 20 17C20 17.8333 19.7083 18.5417 19.125 19.125C18.5417 19.7083 17.8333 20 17 20C16.3 20 15.6833 19.7875 15.15 19.3625C14.6167 18.9375 14.2667 18.4 14.1 17.75H5.9C5.73333 18.4 5.38333 18.9375 4.85 19.3625C4.31667 19.7875 3.7 20 3 20ZM3 4.5C3.41667 4.5 3.77083 4.35417 4.0625 4.0625C4.35417 3.77083 4.5 3.41667 4.5 3C4.5 2.58333 4.35417 2.22917 4.0625 1.9375C3.77083 1.64583 3.41667 1.5 3 1.5C2.58333 1.5 2.22917 1.64583 1.9375 1.9375C1.64583 2.22917 1.5 2.58333 1.5 3C1.5 3.41667 1.64583 3.77083 1.9375 4.0625C2.22917 4.35417 2.58333 4.5 3 4.5ZM17 4.5C17.4167 4.5 17.7708 4.35417 18.0625 4.0625C18.3542 3.77083 18.5 3.41667 18.5 3C18.5 2.58333 18.3542 2.22917 18.0625 1.9375C17.7708 1.64583 17.4167 1.5 17 1.5C16.5833 1.5 16.2292 1.64583 15.9375 1.9375C15.6458 2.22917 15.5 2.58333 15.5 3C15.5 3.41667 15.6458 3.77083 15.9375 4.0625C16.2292 4.35417 16.5833 4.5 17 4.5ZM5.9 16.25H14.1C14.2333 15.7167 14.4917 15.2583 14.875 14.875C15.2583 14.4917 15.7167 14.2333 16.25 14.1V5.9C15.7167 5.76667 15.2583 5.50833 14.875 5.125C14.4917 4.74167 14.2333 4.28333 14.1 3.75H5.9C5.76667 4.28333 5.50833 4.74167 5.125 5.125C4.74167 5.50833 4.28333 5.76667 3.75 5.9V14.1C4.28333 14.2333 4.74167 14.4917 5.125 14.875C5.50833 15.2583 5.76667 15.7167 5.9 16.25ZM17 18.5C17.4167 18.5 17.7708 18.3542 18.0625 18.0625C18.3542 17.7708 18.5 17.4167 18.5 17C18.5 16.5833 18.3542 16.2292 18.0625 15.9375C17.7708 15.6458 17.4167 15.5 17 15.5C16.5833 15.5 16.2292 15.6458 15.9375 15.9375C15.6458 16.2292 15.5 16.5833 15.5 17C15.5 17.4167 15.6458 17.7708 15.9375 18.0625C16.2292 18.3542 16.5833 18.5 17 18.5ZM3 18.5C3.41667 18.5 3.77083 18.3542 4.0625 18.0625C4.35417 17.7708 4.5 17.4167 4.5 17C4.5 16.5833 4.35417 16.2292 4.0625 15.9375C3.77083 15.6458 3.41667 15.5 3 15.5C2.58333 15.5 2.22917 15.6458 1.9375 15.9375C1.64583 16.2292 1.5 16.5833 1.5 17C1.5 17.4167 1.64583 17.7708 1.9375 18.0625C2.22917 18.3542 2.58333 18.5 3 18.5Z" fill="var(--fill-0, #212121)"/>
</svg>
