<svg preserveAspectRatio="none" width="100%" height="100%" overflow="visible" style="display: block;" viewBox="0 0 21 20.9995" fill="none" xmlns="http://www.w3.org/2000/svg">
<g id="Group">
<path id="Vector" d="M15.3994 4.90006H15.4033ZM20.2795 3.50011H16.2958L16.686 1.94004L18.3625 1.36912C18.719 1.24794 18.9312 0.869075 18.8284 0.506837C18.8022 0.415715 18.7578 0.330856 18.6979 0.257407C18.638 0.183958 18.5637 0.123451 18.4797 0.0795549C18.3957 0.035659 18.3036 0.00928964 18.2091 0.0020462C18.1145 -0.00519725 18.0195 0.00683627 17.9298 0.0374167L15.8736 0.737392C15.7629 0.775151 15.6634 0.840062 15.5842 0.926193C15.505 1.01232 15.4487 1.11692 15.4204 1.23044L14.853 3.50011H9.1193C8.74262 3.50011 8.41932 3.78972 8.40051 4.16639C8.39595 4.26104 8.41065 4.35562 8.44373 4.44441C8.4768 4.53321 8.52756 4.61436 8.59293 4.68296C8.65829 4.75155 8.7369 4.80617 8.824 4.84348C8.91109 4.8808 9.00486 4.90005 9.09961 4.90006H9.21992L9.26367 5.27892C9.27397 5.36739 9.31644 5.449 9.38298 5.5082C9.44953 5.56741 9.53552 5.60009 9.62459 5.60003C11.3308 5.60003 12.8471 6.07689 14.0047 6.97898C14.6485 7.47508 15.1705 8.1118 15.5306 8.84048C15.7322 9.25035 15.881 9.68416 15.9734 10.1315C15.9918 10.2187 16.0434 10.2952 16.1173 10.345C16.7124 10.7488 17.1515 11.3441 17.3614 12.032C17.5714 12.7198 17.5396 13.4588 17.2714 14.1262C17.2402 14.2034 17.2379 14.2893 17.2648 14.3681C17.4198 14.8122 17.4991 15.2793 17.4993 15.7497C17.4993 16.727 17.1668 17.6584 16.5631 18.3724C16.2208 18.7799 15.7902 19.1041 15.304 19.3204C15.2199 19.3575 15.1537 19.4262 15.1198 19.5116C14.9381 19.9849 14.6816 20.426 14.3599 20.8179C14.3465 20.8338 14.338 20.8532 14.3352 20.8738C14.3324 20.8944 14.3356 20.9154 14.3443 20.9343C14.353 20.9531 14.367 20.9691 14.3844 20.9804C14.4019 20.9916 14.4223 20.9976 14.443 20.9977H16.5959C17.123 20.9956 17.6302 20.7962 18.0176 20.4388C18.4051 20.0814 18.6447 19.5919 18.6893 19.0667L20.1855 4.90006H20.2992C20.394 4.90017 20.4879 4.88101 20.5751 4.84374C20.6623 4.80648 20.741 4.75188 20.8065 4.68327C20.8719 4.61467 20.9228 4.53347 20.9559 4.44462C20.989 4.35577 21.0038 4.26111 20.9992 4.16639C20.9808 3.78972 20.6562 3.50011 20.2795 3.50011Z" fill="var(--fill-0, #212121)"/>
<path id="Vector_2" d="M4.05504 13.2998C4.1931 13.2991 4.32991 13.3258 4.45757 13.3784C4.58523 13.431 4.7012 13.5083 4.79877 13.606L5.47731 14.2845C5.49356 14.3008 5.51286 14.3137 5.5341 14.3225C5.55535 14.3313 5.57812 14.3359 5.60111 14.3359C5.62411 14.3359 5.64688 14.3313 5.66813 14.3225C5.68937 14.3137 5.70867 14.3008 5.72492 14.2845L6.40215 13.606C6.49972 13.5083 6.61569 13.431 6.74334 13.3784C6.871 13.3258 7.00782 13.2991 7.14587 13.2998H15.7459C15.7919 13.3002 15.8375 13.2916 15.8801 13.2745C15.9228 13.2573 15.9616 13.2319 15.9944 13.1997C16.0273 13.1675 16.0534 13.1292 16.0715 13.0869C16.0895 13.0446 16.099 12.9992 16.0994 12.9533V12.9498C16.0989 12.5465 15.9594 12.1557 15.7044 11.8434C15.4494 11.531 15.0945 11.316 14.6995 11.2348C14.6636 9.93594 14.1307 8.84879 13.146 8.08494C12.2351 7.37447 11.018 6.99998 9.62466 6.99998H6.47477C3.49025 6.99998 1.46864 8.69611 1.39995 11.2348C1.00495 11.316 0.650031 11.531 0.395018 11.8434C0.140004 12.1557 0.000493035 12.5465 3.53217e-07 12.9498C3.53217e-07 13.0426 0.0368739 13.1316 0.102509 13.1972C0.168145 13.2629 0.257165 13.2998 0.349988 13.2998H4.05504ZM7.43461 14.6997C7.38864 14.6997 7.3431 14.7087 7.30062 14.7263C7.25813 14.7438 7.21952 14.7696 7.18699 14.8021L6.2184 15.7711C6.05432 15.9351 5.83181 16.0273 5.5998 16.0273C5.36779 16.0273 5.14528 15.9351 4.9812 15.7711L4.01261 14.8021C3.98008 14.7696 3.94147 14.7438 3.89898 14.7263C3.8565 14.7087 3.81097 14.6997 3.76499 14.6997H0.728849C0.564423 14.699 0.405034 14.7564 0.278862 14.8618C0.152689 14.9673 0.0678607 15.1139 0.0393739 15.2759C0.0130916 15.4324 -7.86388e-05 15.5909 3.53217e-07 15.7497C3.53217e-07 17.0879 0.924405 18.1781 2.06755 18.1996C2.17386 18.8611 2.4311 19.4587 2.81827 19.9263C3.39094 20.618 4.22347 20.9995 5.16232 20.9995H10.9371C11.876 20.9995 12.7085 20.618 13.2812 19.9255C13.6683 19.4578 13.9256 18.8602 14.0319 18.1987C15.175 18.1781 16.0994 17.0879 16.0994 15.7488C16.0995 15.59 16.0863 15.4316 16.0601 15.275C16.0314 15.1132 15.9465 14.9668 15.8203 14.8615C15.6942 14.7562 15.5349 14.6989 15.3706 14.6997H7.43461Z" fill="var(--fill-0, #212121)"/>
</g>
</svg>
