<svg preserveAspectRatio="none" width="100%" height="100%" overflow="visible" style="display: block;" viewBox="0 0 18.7637 20.25" fill="none" xmlns="http://www.w3.org/2000/svg">
<path id="Vector" d="M12.0037 6C12.5971 6 13.1771 5.82405 13.6705 5.49441C14.1638 5.16477 14.5483 4.69623 14.7754 4.14805C15.0024 3.59987 15.0619 2.99667 14.9461 2.41473C14.8303 1.83279 14.5446 1.29824 14.1251 0.878681C13.7055 0.459123 13.171 0.173401 12.589 0.0576455C12.0071 -0.0581102 11.4039 0.00129985 10.8557 0.228363C10.3075 0.455426 9.83898 0.839943 9.50933 1.33329C9.17969 1.82664 9.00374 2.40666 9.00374 3C9.00374 3.79565 9.31981 4.55871 9.88242 5.12132C10.445 5.68393 11.2081 6 12.0037 6ZM12.0037 1.5C12.3004 1.5 12.5904 1.58797 12.8371 1.7528C13.0838 1.91762 13.276 2.15189 13.3896 2.42598C13.5031 2.70007 13.5328 3.00167 13.4749 3.29264C13.417 3.58361 13.2742 3.85088 13.0644 4.06066C12.8546 4.27044 12.5874 4.4133 12.2964 4.47118C12.0054 4.52906 11.7038 4.49935 11.4297 4.38582C11.1556 4.27229 10.9214 4.08003 10.7565 3.83336C10.5917 3.58668 10.5037 3.29667 10.5037 3C10.5037 2.60218 10.6618 2.22065 10.9431 1.93934C11.2244 1.65804 11.6059 1.5 12.0037 1.5ZM18.3141 10.9388C18.2569 10.965 17.6119 11.2463 16.47 11.2463C15.1716 11.2463 13.2309 10.8825 10.7803 9.37125C10.4073 10.4301 9.92304 11.4464 9.33562 12.4031C10.3907 12.7279 11.3832 13.2291 12.2709 13.8853C14.0587 15.2484 15.0037 17.1891 15.0037 19.5C15.0037 19.6989 14.9247 19.8897 14.7841 20.0303C14.6434 20.171 14.4527 20.25 14.2537 20.25C14.0548 20.25 13.8641 20.171 13.7234 20.0303C13.5828 19.8897 13.5037 19.6989 13.5037 19.5C13.5037 15.5906 10.2516 14.1834 8.42812 13.7016C8.37656 13.7672 8.32312 13.8338 8.26968 13.8984C6.42843 16.1297 4.12124 17.2903 1.55437 17.2903C1.262 17.2917 0.96975 17.2782 0.678743 17.25C0.479831 17.2301 0.296967 17.132 0.17038 16.9773C0.0437929 16.8226 -0.0161482 16.6239 0.00374301 16.425C0.0236342 16.2261 0.121728 16.0432 0.276446 15.9166C0.431163 15.7901 0.629831 15.7301 0.828743 15.75C3.25874 15.9919 5.37281 15.0478 7.10999 12.9375C8.28093 11.5181 9.07874 9.78656 9.47718 8.53125C5.82843 6.40781 3.49781 8.21531 3.47249 8.235C3.39609 8.30024 3.30737 8.34946 3.21158 8.37975C3.11579 8.41004 3.01489 8.42077 2.91488 8.41132C2.81486 8.40186 2.71776 8.37241 2.62935 8.3247C2.54093 8.277 2.463 8.21202 2.40018 8.13362C2.33736 8.05523 2.29093 7.965 2.26365 7.86832C2.23637 7.77163 2.22879 7.67045 2.24137 7.57077C2.25394 7.4711 2.28641 7.37497 2.33685 7.28809C2.38729 7.20121 2.45467 7.12534 2.53499 7.065C2.67562 6.9525 6.02437 4.34625 10.9266 7.68094C15.1894 10.5788 17.67 9.585 17.6934 9.57375C17.7833 9.53132 17.8807 9.50716 17.9799 9.50269C18.0792 9.49822 18.1784 9.51351 18.2717 9.54769C18.365 9.58188 18.4506 9.63426 18.5235 9.7018C18.5963 9.76933 18.6551 9.85068 18.6963 9.94112C18.7375 10.0316 18.7602 10.1293 18.7633 10.2286C18.7664 10.3279 18.7498 10.4269 18.7143 10.5197C18.6788 10.6125 18.6252 10.6973 18.5567 10.7693C18.4882 10.8412 18.406 10.8988 18.315 10.9388H18.3141Z" fill="var(--fill-0, #212121)"/>
</svg>
