<svg preserveAspectRatio="none" width="100%" height="100%" overflow="visible" style="display: block;" viewBox="0 0 22.2235 22.2413" fill="none" xmlns="http://www.w3.org/2000/svg">
<g id="Group">
<path id="Vector" fill-rule="evenodd" clip-rule="evenodd" d="M17.223 15.526C18.387 11.1784 15.6198 6.67356 11.061 5.45196C5.94064 4.07916 -1.31696 7.63956 0.205842 11.9452C0.665442 13.246 1.56664 13.5544 3.42424 13.5808L3.55384 13.5832C4.87384 13.5988 5.31904 13.7032 5.56744 14.1064C5.82424 14.524 5.82664 15.0136 5.63224 16.252C5.55184 16.7584 5.52664 16.9348 5.49664 17.2048C5.32264 18.7648 5.57704 19.9336 6.56464 20.9968C9.66544 24.3376 15.9102 20.422 17.223 15.526ZM1.33624 11.5456C0.246642 8.46156 6.39664 5.44476 10.7502 6.61116C14.6826 7.66476 17.0526 11.5228 16.0638 15.2152C14.955 19.3504 9.71944 22.6324 7.44424 20.1832C6.73144 19.4152 6.55024 18.5836 6.68824 17.3392C6.71704 17.0932 6.74104 16.9264 6.81784 16.4392C7.05784 14.9092 7.05424 14.236 6.58984 13.4788C6.03184 12.5716 5.31904 12.406 3.56944 12.3844L3.44104 12.382C2.05024 12.3628 1.56664 12.1972 1.33624 11.5456Z" fill="var(--fill-0, #212121)"/>
<path id="Vector_2" d="M5.25304 10.9252C4.85522 10.9252 4.47369 10.7671 4.19238 10.4858C3.91108 10.2045 3.75304 9.82299 3.75304 9.42516C3.75304 9.02734 3.91108 8.64581 4.19238 8.3645C4.47369 8.0832 4.85522 7.92516 5.25304 7.92516C5.65087 7.92516 6.0324 8.0832 6.3137 8.3645C6.59501 8.64581 6.75304 9.02734 6.75304 9.42516C6.75304 9.82299 6.59501 10.2045 6.3137 10.4858C6.0324 10.7671 5.65087 10.9252 5.25304 10.9252ZM10.053 10.9252C9.65522 10.9252 9.27369 10.7671 8.99238 10.4858C8.71108 10.2045 8.55304 9.82299 8.55304 9.42516C8.55304 9.02734 8.71108 8.64581 8.99238 8.3645C9.27369 8.0832 9.65522 7.92516 10.053 7.92516C10.4509 7.92516 10.8324 8.0832 11.1137 8.3645C11.395 8.64581 11.553 9.02734 11.553 9.42516C11.553 9.82299 11.395 10.2045 11.1137 10.4858C10.8324 10.7671 10.4509 10.9252 10.053 10.9252ZM13.053 14.5252C12.6552 14.5252 12.2737 14.3671 11.9924 14.0858C11.7111 13.8045 11.553 13.423 11.553 13.0252C11.553 12.6273 11.7111 12.2458 11.9924 11.9645C12.2737 11.6832 12.6552 11.5252 13.053 11.5252C13.4509 11.5252 13.8324 11.6832 14.1137 11.9645C14.395 12.2458 14.553 12.6273 14.553 13.0252C14.553 13.423 14.395 13.8045 14.1137 14.0858C13.8324 14.3671 13.4509 14.5252 13.053 14.5252ZM11.253 18.7252C10.8552 18.7252 10.4737 18.5671 10.1924 18.2858C9.91108 18.0045 9.75304 17.623 9.75304 17.2252C9.75304 16.8273 9.91108 16.4458 10.1924 16.1645C10.4737 15.8832 10.8552 15.7252 11.253 15.7252C11.6509 15.7252 12.0324 15.8832 12.3137 16.1645C12.595 16.4458 12.753 16.8273 12.753 17.2252C12.753 17.623 12.595 18.0045 12.3137 18.2858C12.0324 18.5671 11.6509 18.7252 11.253 18.7252ZM15.597 3.85116C15.7393 3.77493 15.8955 3.72819 16.0563 3.71374C16.2171 3.69929 16.3791 3.71742 16.5327 3.76705C16.6863 3.81668 16.8283 3.89679 16.9502 4.00259C17.0721 4.10838 17.1715 4.23769 17.2422 4.38276L22.1538 14.4628C22.2358 14.644 22.2458 14.8496 22.1816 15.0378C22.1174 15.2261 21.984 15.3828 21.8084 15.4762C21.6328 15.5696 21.4282 15.5926 21.2363 15.5405C21.0443 15.4885 20.8794 15.3653 20.775 15.196L15.1254 5.51196C15.0442 5.37266 14.992 5.21838 14.9718 5.05839C14.9517 4.8984 14.9641 4.73599 15.0082 4.5809C15.0524 4.42581 15.1274 4.28123 15.2288 4.15583C15.3302 4.03044 15.4558 3.92681 15.5982 3.85116H15.597Z" fill="var(--fill-0, #212121)"/>
<path id="Vector_3" fill-rule="evenodd" clip-rule="evenodd" d="M13.3974 3.70596C13.9818 4.80396 14.9646 5.11116 15.915 4.60596C16.8642 4.10196 17.1606 3.11436 16.5762 2.01636C15.909 0.758764 14.4786 -0.381236 13.5306 0.121564C12.5826 0.625564 12.729 2.44836 13.3986 3.70596H13.3974ZM14.457 3.14196C14.2446 2.71529 14.1143 2.25243 14.073 1.77756C14.0552 1.57905 14.0624 1.37907 14.0946 1.18236L14.1162 1.19316C14.1762 1.22196 14.3622 1.30836 14.5998 1.49796C14.9622 1.78716 15.3222 2.21316 15.5166 2.57916C15.7914 3.09516 15.7134 3.35436 15.351 3.54756C14.991 3.73956 14.7318 3.65796 14.457 3.14316V3.14196Z" fill="var(--fill-0, #212121)"/>
</g>
</svg>
