<svg preserveAspectRatio="none" width="100%" height="100%" overflow="visible" style="display: block;" viewBox="0 0 15.575 14.575" fill="none" xmlns="http://www.w3.org/2000/svg">
<path id="Vector" d="M3.57502 14.575C3.29168 14.575 3.05402 14.479 2.86202 14.287C2.67002 14.095 2.57435 13.8577 2.57502 13.575C2.57502 13.2917 2.67102 13.054 2.86302 12.862C3.05502 12.67 3.29235 12.5743 3.57502 12.575H9.67502C10.725 12.575 11.6377 12.2417 12.413 11.575C13.1883 10.9083 13.5757 10.075 13.575 9.075C13.575 8.075 13.1873 7.24167 12.412 6.575C11.6367 5.90833 10.7243 5.575 9.67502 5.575H3.37502L5.27502 7.475C5.45835 7.65833 5.55002 7.89167 5.55002 8.175C5.55002 8.45833 5.45835 8.69167 5.27502 8.875C5.09168 9.05833 4.85835 9.15 4.57502 9.15C4.29168 9.15 4.05835 9.05833 3.87502 8.875L0.275015 5.275C0.175015 5.175 0.104015 5.06667 0.0620154 4.95C0.0200154 4.83333 -0.000651042 4.70833 1.56251e-05 4.575C1.56251e-05 4.44167 0.0210153 4.31667 0.0630153 4.2C0.105015 4.08333 0.175682 3.975 0.275015 3.875L3.87502 0.275C4.05835 0.0916663 4.29168 0 4.57502 0C4.85835 0 5.09168 0.0916663 5.27502 0.275C5.45835 0.458333 5.55002 0.691667 5.55002 0.975C5.55002 1.25833 5.45835 1.49167 5.27502 1.675L3.37502 3.575H9.67502C11.2917 3.575 12.6793 4.1 13.838 5.15C14.9967 6.2 15.5757 7.50833 15.575 9.075C15.575 10.6417 14.9957 11.95 13.837 13C12.6783 14.05 11.291 14.575 9.67502 14.575H3.57502Z" fill="var(--fill-0, #212121)"/>
</svg>
