<svg preserveAspectRatio="none" width="100%" height="100%" overflow="visible" style="display: block;" viewBox="0 0 20 16" fill="none" xmlns="http://www.w3.org/2000/svg">
<path id="Vector" d="M3.5875 7.7C3.79583 7.7 3.97083 7.62813 4.1125 7.48438C4.25417 7.34063 4.325 7.1625 4.325 6.95V4.35H6.875C7.075 4.35 7.24583 4.275 7.3875 4.125C7.52917 3.975 7.6 3.79583 7.6 3.5875C7.6 3.37917 7.52813 3.20417 7.38438 3.0625C7.24063 2.92083 7.0625 2.85 6.85 2.85H3.575C3.3625 2.85 3.18438 2.92188 3.04063 3.06563C2.89688 3.20938 2.825 3.3875 2.825 3.6V6.975C2.825 7.175 2.9 7.34583 3.05 7.4875C3.2 7.62917 3.37917 7.7 3.5875 7.7ZM13.175 13.15H16.45C16.6625 13.15 16.8406 13.0781 16.9844 12.9344C17.1281 12.7906 17.2 12.6125 17.2 12.4V9.025C17.2 8.825 17.125 8.65417 16.975 8.5125C16.825 8.37083 16.6458 8.3 16.4375 8.3C16.2292 8.3 16.0542 8.37188 15.9125 8.51563C15.7708 8.65938 15.7 8.8375 15.7 9.05V11.65H13.15C12.95 11.65 12.7792 11.725 12.6375 11.875C12.4958 12.025 12.425 12.2042 12.425 12.4125C12.425 12.6208 12.4969 12.7958 12.6406 12.9375C12.7844 13.0792 12.9625 13.15 13.175 13.15ZM1.5 16C1.1 16 0.75 15.85 0.45 15.55C0.15 15.25 0 14.9 0 14.5V1.5C0 1.1 0.15 0.75 0.45 0.45C0.75 0.15 1.1 0 1.5 0H18.5C18.9125 0 19.2656 0.15 19.5594 0.45C19.8531 0.75 20 1.1 20 1.5V14.5C20 14.9 19.8531 15.25 19.5594 15.55C19.2656 15.85 18.9125 16 18.5 16H1.5ZM1.5 14.5H18.5V1.5H1.5V14.5Z" fill="var(--fill-0, #212121)"/>
</svg>
