<svg preserveAspectRatio="none" width="100%" height="100%" overflow="visible" style="display: block;" viewBox="0 0 17.093 21" fill="none" xmlns="http://www.w3.org/2000/svg">
<path id="Vector" fill-rule="evenodd" clip-rule="evenodd" d="M5.61628 0C6.02086 0 6.34884 0.327977 6.34884 0.732558V2.44186H10.7442V0.732558C10.7442 0.327977 11.0722 0 11.4767 0C11.8813 0 12.2093 0.327977 12.2093 0.732558V2.44186H15.3837C15.7254 2.44186 16.0217 2.67808 16.0979 3.01119L17.0746 7.28444C17.1093 7.43602 17.0948 7.59469 17.0333 7.73749L13.6147 15.6735C13.4989 15.9422 13.2344 16.1163 12.9419 16.1163H9.27907V19.5349H15.6279V16.6691C15.6279 16.2645 15.9559 15.9366 16.3605 15.9366C16.765 15.9366 17.093 16.2645 17.093 16.6691V20.2674C17.093 20.672 16.765 21 16.3605 21H8.54651C8.14193 21 7.81395 20.672 7.81395 20.2674V16.1163H4.15116C3.85861 16.1163 3.59411 15.9422 3.47837 15.6735L0.0597679 7.73749C-0.00174651 7.59469 -0.0162284 7.43602 0.018418 7.28444L0.995162 3.01119C1.0713 2.67808 1.36761 2.44186 1.7093 2.44186H4.88372V0.732558C4.88372 0.327977 5.2117 0 5.61628 0ZM2.29331 3.90698L1.50002 7.37763L4.63323 14.6512H12.4598L15.593 7.37763L14.7997 3.90698H2.29331ZM4.88372 9.03488C4.88372 8.6303 5.2117 8.30233 5.61628 8.30233H11.4767C11.8813 8.30233 12.2093 8.6303 12.2093 9.03488C12.2093 9.43946 11.8813 9.76744 11.4767 9.76744H5.61628C5.2117 9.76744 4.88372 9.43946 4.88372 9.03488Z" fill="var(--fill-0, #212121)"/>
</svg>
