<svg preserveAspectRatio="none" width="100%" height="100%" overflow="visible" style="display: block;" viewBox="0 0 233.43 299.631" fill="none" xmlns="http://www.w3.org/2000/svg">
<path id="Ellipse" d="M2.12568 262.064C-1.51512 267.098 -0.405111 274.171 4.88826 277.424C21.7907 287.813 40.6199 294.765 60.2957 297.836C83.684 301.487 107.604 299.551 130.101 292.186C152.598 284.821 173.032 272.236 189.733 255.46C206.434 238.684 218.927 218.194 226.192 195.665C233.456 173.136 235.286 149.207 231.531 125.835C227.776 102.463 218.542 80.3122 204.586 61.1926C190.629 42.073 172.346 26.5279 151.23 15.8284C133.467 6.8272 114.123 1.47032 94.336 0.027913C88.1392 -0.423809 83.1067 4.66812 83.1206 10.8813V10.8813C83.1344 17.0945 88.192 22.0685 94.3823 22.6022C110.615 24.0017 126.465 28.503 141.06 35.8987C159.008 44.9934 174.549 58.2067 186.412 74.4583C198.275 90.71 206.124 109.539 209.316 129.405C212.508 149.271 210.952 169.61 204.778 188.76C198.603 207.91 187.983 225.326 173.787 239.586C159.591 253.845 142.222 264.542 123.1 270.802C103.978 277.063 83.6459 278.709 63.7659 275.605C47.5995 273.082 32.1054 267.476 18.113 259.129C12.7771 255.946 5.76649 257.029 2.12568 262.064V262.064Z" fill="var(--fill-0, #FF6347)"/>
</svg>
