<svg preserveAspectRatio="none" width="100%" height="100%" overflow="visible" style="display: block;" viewBox="0 0 16.5 21" fill="none" xmlns="http://www.w3.org/2000/svg">
<path id="Vector" d="M13.5 0H3C2.20435 0 1.44129 0.31607 0.87868 0.87868C0.31607 1.44129 0 2.20435 0 3V15C0 15.7957 0.31607 16.5587 0.87868 17.1213C1.44129 17.6839 2.20435 18 3 18H3.75L2.4 19.8C2.34091 19.8788 2.29791 19.9685 2.27346 20.0639C2.24902 20.1593 2.24361 20.2586 2.25754 20.3561C2.27147 20.4536 2.30446 20.5474 2.35464 20.6321C2.40482 20.7169 2.47121 20.7909 2.55 20.85C2.62879 20.9091 2.71845 20.9521 2.81386 20.9765C2.90927 21.001 3.00856 21.0064 3.10607 20.9925C3.20357 20.9785 3.29737 20.9455 3.38212 20.8954C3.46687 20.8452 3.54091 20.7788 3.6 20.7L5.625 18H10.875L12.9 20.7C13.0193 20.8591 13.197 20.9643 13.3939 20.9925C13.5908 21.0206 13.7909 20.9693 13.95 20.85C14.1091 20.7307 14.2143 20.553 14.2425 20.3561C14.2706 20.1592 14.2193 19.9591 14.1 19.8L12.75 18H13.5C14.2956 18 15.0587 17.6839 15.6213 17.1213C16.1839 16.5587 16.5 15.7957 16.5 15V3C16.5 2.20435 16.1839 1.44129 15.6213 0.87868C15.0587 0.31607 14.2956 0 13.5 0ZM1.5 9V5.25H7.5V9H1.5ZM9 5.25H15V9H9V5.25ZM3 1.5H13.5C13.8978 1.5 14.2794 1.65804 14.5607 1.93934C14.842 2.22064 15 2.60218 15 3V3.75H1.5V3C1.5 2.60218 1.65804 2.22064 1.93934 1.93934C2.22064 1.65804 2.60218 1.5 3 1.5ZM13.5 16.5H3C2.60218 16.5 2.22064 16.342 1.93934 16.0607C1.65804 15.7794 1.5 15.3978 1.5 15V10.5H15V15C15 15.3978 14.842 15.7794 14.5607 16.0607C14.2794 16.342 13.8978 16.5 13.5 16.5ZM5.25 13.875C5.25 14.0975 5.18402 14.315 5.0604 14.5C4.93679 14.685 4.76109 14.8292 4.55552 14.9144C4.34995 14.9995 4.12375 15.0218 3.90552 14.9784C3.68729 14.935 3.48684 14.8278 3.3295 14.6705C3.17217 14.5132 3.06502 14.3127 3.02162 14.0945C2.97821 13.8762 3.00049 13.65 3.08564 13.4445C3.17078 13.2389 3.31498 13.0632 3.49998 12.9396C3.68499 12.816 3.9025 12.75 4.125 12.75C4.42337 12.75 4.70952 12.8685 4.9205 13.0795C5.13147 13.2905 5.25 13.5766 5.25 13.875ZM13.5 13.875C13.5 14.0975 13.434 14.315 13.3104 14.5C13.1868 14.685 13.0111 14.8292 12.8055 14.9144C12.6 14.9995 12.3738 15.0218 12.1555 14.9784C11.9373 14.935 11.7368 14.8278 11.5795 14.6705C11.4222 14.5132 11.315 14.3127 11.2716 14.0945C11.2282 13.8762 11.2505 13.65 11.3356 13.4445C11.4208 13.2389 11.565 13.0632 11.75 12.9396C11.935 12.816 12.1525 12.75 12.375 12.75C12.6734 12.75 12.9595 12.8685 13.1705 13.0795C13.3815 13.2905 13.5 13.5766 13.5 13.875Z" fill="var(--fill-0, #212121)"/>
</svg>
