<svg preserveAspectRatio="none" width="100%" height="100%" overflow="visible" style="display: block;" viewBox="0 0 20 20" fill="none" xmlns="http://www.w3.org/2000/svg">
<path id="Vector" fill-rule="evenodd" clip-rule="evenodd" d="M10 0C9.43721 0 8.91907 0.139535 8.35256 0.373953C7.80465 0.60093 7.16837 0.934884 6.37674 1.3507L4.45302 2.36C3.48093 2.86977 2.70419 3.27814 2.10233 3.67907C1.48093 4.09488 1.00093 4.53209 0.652093 5.12465C0.304186 5.71535 0.147907 6.35535 0.0725581 7.11721C-4.85154e-08 7.85674 0 8.76558 0 9.90977V10.0902C0 11.2344 -4.85154e-08 12.1433 0.0725581 12.8828C0.147907 13.6456 0.305116 14.2847 0.652093 14.8753C1.00093 15.4679 1.48 15.9051 2.10326 16.3209C2.70326 16.7219 3.48093 17.1302 4.45302 17.64L6.37674 18.6493C7.16837 19.0651 7.80465 19.3991 8.35256 19.626C8.92 19.8605 9.43721 20 10 20C10.5628 20 11.0809 19.8605 11.6474 19.626C12.1953 19.3991 12.8316 19.0651 13.6233 18.6493L15.547 17.6409C16.5191 17.1302 17.2958 16.7219 17.8967 16.3209C18.52 15.9051 18.9991 15.4679 19.3479 14.8753C19.6958 14.2847 19.8521 13.6447 19.9274 12.8828C20 12.1433 20 11.2344 20 10.0902V9.90977C20 8.76558 20 7.85674 19.9274 7.11721C19.8521 6.35442 19.6949 5.71535 19.3479 5.12465C18.9991 4.53209 18.52 4.09488 17.8967 3.67907C17.2967 3.27814 16.5191 2.86977 15.547 2.36L13.6233 1.3507C12.8316 0.934884 12.1953 0.60093 11.6474 0.373953C11.08 0.139535 10.5628 0 10 0ZM6.99535 2.60093C7.82326 2.16651 8.40372 1.86326 8.88558 1.66419C9.35442 1.46977 9.68465 1.39535 10 1.39535C10.3163 1.39535 10.6456 1.46977 11.1144 1.66419C11.5963 1.86326 12.1758 2.16651 13.0037 2.60093L14.8642 3.57767C15.8781 4.10884 16.5898 4.48372 17.1228 4.83907C17.3851 5.01488 17.5907 5.17767 17.7581 5.3414L10 9.22047L2.24186 5.3414C2.4093 5.17767 2.61488 5.01488 2.87814 4.83907C3.41023 4.48372 4.12186 4.10884 5.13581 3.57767L6.99535 2.60093ZM1.57116 6.56465C1.52465 6.76372 1.48837 6.98977 1.46233 7.25302C1.39721 7.91721 1.39628 8.75721 1.39628 9.94512V10.054C1.39628 11.2428 1.39628 12.0828 1.46233 12.746C1.52651 13.3944 1.64837 13.814 1.85581 14.1674C2.06233 14.5181 2.36093 14.8149 2.87907 15.1609C3.41116 15.5163 4.12279 15.8912 5.13674 16.4223L6.99721 17.3991C7.82512 17.8335 8.40465 18.1367 8.88651 18.3358C9.03907 18.3991 9.17581 18.4493 9.30326 18.4893V10.4307L1.57023 6.56558L1.57116 6.56465ZM10.6986 18.4884C10.826 18.4493 10.9628 18.3991 11.1153 18.3358C11.5972 18.1367 12.1767 17.8335 13.0047 17.3991L14.8651 16.4223C15.8791 15.8902 16.5907 15.5163 17.1237 15.1609C17.6409 14.8149 17.9395 14.5181 18.147 14.1674C18.3544 13.814 18.4753 13.3953 18.5395 12.746C18.6047 12.0828 18.6056 11.2428 18.6056 10.0549V9.94605C18.6056 8.75721 18.6056 7.91721 18.5395 7.25395C18.5186 7.02233 18.4822 6.79237 18.4307 6.56558L10.6986 10.4307V18.4884Z" fill="var(--fill-0, #212121)"/>
</svg>
