<svg preserveAspectRatio="none" width="100%" height="100%" overflow="visible" style="display: block;" viewBox="0 0 33.7466 15.7511" fill="none" xmlns="http://www.w3.org/2000/svg">
<path id="Vector" d="M33.7466 7.87557C33.7467 9.43318 33.2849 10.9558 32.4196 12.251C31.5543 13.5461 30.3244 14.5556 28.8853 15.1517C27.4463 15.7477 25.8628 15.9037 24.3351 15.5998C22.8075 15.2959 21.4042 14.5458 20.3029 13.4443L20.2565 13.3951L11.826 3.87479C11.0367 3.09474 10.0343 2.56556 8.94502 2.35387C7.85569 2.14218 6.72809 2.25742 5.70411 2.6851C4.68013 3.11277 3.80552 3.83377 3.19036 4.75736C2.5752 5.68095 2.24696 6.76587 2.24696 7.87557C2.24696 8.98528 2.5752 10.0702 3.19036 10.9938C3.80552 11.9174 4.68013 12.6384 5.70411 13.066C6.72809 13.4937 7.85569 13.609 8.94502 13.3973C10.0343 13.1856 11.0367 12.6564 11.826 11.8764L13.0241 10.5235C13.222 10.2998 13.5006 10.1638 13.7988 10.1454C14.0969 10.1271 14.3901 10.2279 14.6139 10.4258C14.8377 10.6237 14.9737 10.9023 14.992 11.2004C15.0103 11.4986 14.9095 11.7918 14.7116 12.0156L13.4896 13.3951L13.4432 13.4443C12.3418 14.5456 10.9386 15.2955 9.41104 15.5993C7.88346 15.9031 6.3001 15.7471 4.86118 15.151C3.42226 14.555 2.1924 13.5456 1.32712 12.2506C0.461841 10.9556 0 9.43307 0 7.87557C0 6.31808 0.461841 4.79556 1.32712 3.50054C2.1924 2.20552 3.42226 1.19616 4.86118 0.600097C6.3001 0.00403317 7.88346 -0.151965 9.41104 0.151829C10.9386 0.455622 12.3418 1.20556 13.4432 2.30682L13.4896 2.35604L21.9201 11.8764C22.7093 12.6564 23.7117 13.1856 24.801 13.3973C25.8904 13.609 27.018 13.4937 28.0419 13.066C29.0659 12.6384 29.9405 11.9174 30.5557 10.9938C31.1709 10.0702 31.4991 8.98528 31.4991 7.87557C31.4991 6.76587 31.1709 5.68095 30.5557 4.75736C29.9405 3.83377 29.0659 3.11277 28.0419 2.6851C27.018 2.25742 25.8904 2.14218 24.801 2.35387C23.7117 2.56556 22.7093 3.09474 21.9201 3.87479L20.7219 5.2276C20.5241 5.45138 20.2454 5.58739 19.9473 5.60572C19.6492 5.62405 19.3559 5.52319 19.1322 5.32534C18.9084 5.12748 18.7724 4.84883 18.754 4.5507C18.7357 4.25256 18.8366 3.95935 19.0344 3.73557L20.2565 2.35604L20.3029 2.30682C21.4042 1.20537 22.8075 0.455256 24.3351 0.15135C25.8628 -0.152555 27.4463 0.00339736 28.8853 0.599484C30.3244 1.19557 31.5543 2.20502 32.4196 3.50016C33.2849 4.7953 33.7467 6.31796 33.7466 7.87557Z" fill="var(--fill-0, #212121)"/>
</svg>
