<svg preserveAspectRatio="none" width="100%" height="100%" overflow="visible" style="display: block;" viewBox="0 0 18 18" fill="none" xmlns="http://www.w3.org/2000/svg">
<g id="Vector">
<path d="M12.4438 10.0378C12.4061 10.1288 12.3508 10.2116 12.281 10.2812C12.2114 10.3509 12.1287 10.4063 12.0376 10.444C11.9466 10.4817 11.849 10.5012 11.7504 10.5012C11.6519 10.5012 11.5543 10.4817 11.4632 10.444C11.3722 10.4063 11.2894 10.3509 11.2198 10.2812L9.50042 8.56089V14.2506C9.50042 14.4495 9.4214 14.6403 9.28075 14.7809C9.14009 14.9216 8.94933 15.0006 8.75042 15.0006C8.5515 15.0006 8.36074 14.9216 8.22009 14.7809C8.07943 14.6403 8.00042 14.4495 8.00042 14.2506V8.56089L6.28104 10.2812C6.14031 10.4219 5.94944 10.501 5.75042 10.501C5.55139 10.501 5.36052 10.4219 5.21979 10.2812C5.07906 10.1405 5 9.9496 5 9.75058C5 9.55156 5.07906 9.36069 5.21979 9.21995L8.21979 6.21995C8.28945 6.15022 8.37216 6.0949 8.46321 6.05716C8.55426 6.01942 8.65186 5.99999 8.75042 5.99999C8.84898 5.99999 8.94657 6.01942 9.03762 6.05716C9.12867 6.0949 9.21139 6.15022 9.28104 6.21995L12.281 9.21995C12.3508 9.28961 12.4061 9.37233 12.4438 9.46337C12.4816 9.55442 12.501 9.65202 12.501 9.75058C12.501 9.84914 12.4816 9.94674 12.4438 10.0378Z" fill="var(--fill-0, #212121)"/>
<path fill-rule="evenodd" clip-rule="evenodd" d="M16.4212 0.414375L17.9212 3.41438C17.9729 3.51871 17.9999 3.63356 18 3.75V16.5C18 16.8978 17.842 17.2794 17.5607 17.5607C17.2794 17.842 16.8978 18 16.5 18H1.5C1.10218 18 0.720644 17.842 0.43934 17.5607C0.158035 17.2794 0 16.8978 0 16.5V3.75C0.000105381 3.63356 0.0270534 3.51871 0.0787501 3.41438L1.57875 0.414375C1.6411 0.28977 1.73693 0.184999 1.8555 0.111808C1.97406 0.0386169 2.11067 -9.97046e-05 2.25 1.9283e-07H15.75C15.8893 -9.97046e-05 16.0259 0.0386169 16.1445 0.111808C16.2631 0.184999 16.3589 0.28977 16.4212 0.414375ZM15.2869 1.5H2.71312L1.96312 3H16.0369L15.2869 1.5ZM1.5 16.5H16.5V4.5H1.5V16.5Z" fill="var(--fill-0, #212121)"/>
</g>
</svg>
