<svg preserveAspectRatio="none" width="100%" height="100%" overflow="visible" style="display: block;" viewBox="0 0 18 18" fill="none" xmlns="http://www.w3.org/2000/svg">
<path id="Vector" d="M0 6.65V4.525L4.525 0H6.65L0 6.65ZM0 1.75V0H1.75L0 1.75ZM13.175 3.425C13.0083 3.24167 12.8293 3.06267 12.638 2.888C12.4467 2.71333 12.2507 2.559 12.05 2.425L14.475 0H16.6L13.175 3.425ZM2.5 11.975L4.425 10.05C4.54167 10.2333 4.66267 10.4 4.788 10.55C4.91333 10.7 5.05067 10.8417 5.2 10.975C4.73333 11.0917 4.26233 11.2377 3.787 11.413C3.31167 11.5883 2.88267 11.7757 2.5 11.975ZM14.5 7.05V7C14.5 6.68333 14.475 6.375 14.425 6.075C14.375 5.775 14.3 5.48333 14.2 5.2L18 1.4V3.55L14.5 7.05ZM7.9 1.6L9.525 0H11.65L10.05 1.6C9.86667 1.56667 9.69167 1.54167 9.525 1.525C9.35833 1.50833 9.18333 1.5 9 1.5C8.81667 1.5 8.63333 1.50833 8.45 1.525C8.26667 1.54167 8.08333 1.56667 7.9 1.6ZM0 11.625V9.5L3.6 5.9C3.56667 6.08333 3.54167 6.26667 3.525 6.45C3.50833 6.63333 3.5 6.81667 3.5 7C3.5 7.18333 3.50833 7.35833 3.525 7.525C3.54167 7.69167 3.56667 7.85833 3.6 8.025L0 11.625ZM17.725 13.7C17.5917 13.5 17.4373 13.3083 17.262 13.125C17.0867 12.9417 16.8993 12.775 16.7 12.625L18 11.325V13.45L17.725 13.7ZM14.825 11.65C14.7083 11.6 14.5917 11.554 14.475 11.512C14.3583 11.47 14.2417 11.4327 14.125 11.4C13.975 11.35 13.829 11.3 13.687 11.25C13.545 11.2 13.3993 11.1583 13.25 11.125L18 6.35V8.5L14.825 11.65ZM9 11C7.9 11 6.95833 10.6083 6.175 9.825C5.39167 9.04167 5 8.1 5 7C5 5.9 5.39167 4.95833 6.175 4.175C6.95833 3.39167 7.9 3 9 3C10.1 3 11.0417 3.39167 11.825 4.175C12.6083 4.95833 13 5.9 13 7C13 8.1 12.6083 9.04167 11.825 9.825C11.0417 10.6083 10.1 11 9 11ZM9 9C9.55 9 10.021 8.804 10.413 8.412C10.805 8.02 11.0007 7.54933 11 7C11 6.45 10.804 5.979 10.412 5.587C10.02 5.195 9.54933 4.99933 9 5C8.45 5 7.979 5.196 7.587 5.588C7.195 5.98 6.99933 6.45067 7 7C7 7.55 7.196 8.021 7.588 8.413C7.98 8.805 8.45067 9.00067 9 9ZM1 18V16.225C1 15.6583 1.14167 15.1333 1.425 14.65C1.70833 14.1667 2.1 13.8 2.6 13.55C3.45 13.1167 4.41267 12.75 5.488 12.45C6.56333 12.15 7.734 12 9 12C10.2667 12 11.4377 12.15 12.513 12.45C13.5883 12.75 14.5507 13.1167 15.4 13.55C15.9 13.8 16.2917 14.1667 16.575 14.65C16.8583 15.1333 17 15.6583 17 16.225V18H1ZM3.025 16H14.975C14.9417 15.85 14.8833 15.7207 14.8 15.612C14.7167 15.5033 14.6083 15.416 14.475 15.35C13.875 15.05 13.1123 14.75 12.187 14.45C11.2617 14.15 10.1993 14 9 14C7.8 14 6.73733 14.15 5.812 14.45C4.88667 14.75 4.12433 15.05 3.525 15.35C3.39167 15.4167 3.28333 15.5083 3.2 15.625C3.11667 15.7417 3.05833 15.8667 3.025 16Z" fill="var(--fill-0, #212121)"/>
</svg>
