<svg preserveAspectRatio="none" width="100%" height="100%" overflow="visible" style="display: block;" viewBox="0 0 382 328" fill="none" xmlns="http://www.w3.org/2000/svg">
<g id="Group">
<path id="Star" d="M356.247 155.999C356.853 155.243 358.072 155.704 358.026 156.672L357.759 162.306C357.738 162.739 357.999 163.136 358.404 163.289L363.68 165.284C364.587 165.627 364.525 166.929 363.59 167.184L358.149 168.671C357.731 168.786 357.435 169.156 357.414 169.589L357.147 175.223C357.101 176.191 355.844 176.534 355.312 175.725L352.216 171.009C351.979 170.647 351.535 170.479 351.117 170.594L345.676 172.081C344.741 172.336 344.026 171.247 344.632 170.491L348.159 166.089C348.43 165.751 348.453 165.277 348.215 164.915L345.119 160.2C344.587 159.39 345.403 158.373 346.309 158.716L351.585 160.711C351.99 160.864 352.448 160.739 352.719 160.401L356.247 155.999Z" fill="url(#paint0_linear_9964_88125)"/>
<g id="Frame">
<path id="Vector" d="M261 190.164C265.457 186.489 291.197 170.567 305.292 157.155C316.294 146.674 320.551 119.308 303.625 105.996C281.62 88.7089 260.498 106.86 260.498 106.86C260.498 106.86 258.651 96.5996 245.801 90.5762C229.618 82.9866 209.118 80.1556 190.265 80.3966C171.994 80.6174 155.169 82.826 140.231 90.1545C126.859 96.7201 126.055 106.076 126.055 106.076C126.055 106.076 108.507 89.3113 87.0037 102.924C65.5203 116.557 71.6842 143.864 82.0244 155.328C95.4967 170.266 111.68 177.876 119.028 183.377C126.357 188.879 133.384 194.119 133.384 198.837C133.384 203.556 131.296 204.6 130.493 204.339C129.71 204.078 128.324 199.48 124.73 201.448C119.831 204.158 121.317 215.081 131.537 216.125C141.435 217.149 143.323 206.688 143.323 206.688L144.889 196.468L161.132 207.732L178.941 222.409L178.419 234.978C178.419 234.978 177.636 244.676 172.917 253.068C168.199 261.461 160.61 269.834 160.61 269.834L160.369 277.423L226.405 275.857L224.317 268.529C224.317 268.529 215.804 259.172 210.684 249.133C207.03 241.945 206.448 234.697 206.448 234.697L206.287 216.667L240.56 195.665C240.56 195.665 244.235 198.556 243.713 199.6C243.19 200.644 243.07 211.346 251.302 215.322C259.434 219.257 265.979 214.277 265.196 207.451C264.413 200.644 260.217 202.994 258.912 204.038C257.607 205.082 254.715 205.343 253.932 201.407C253.129 197.512 256.542 193.838 261 190.164V190.164ZM92.2842 153.099L84.4337 129.206L93.9306 116.778L104.572 113.666C104.572 113.666 118.165 123.805 118.647 124.629C119.129 125.452 127.32 142.297 127.32 142.297L138.122 181.41L92.2842 153.099V153.099ZM246.604 184.522C246.764 183.699 256.743 142.619 256.743 142.619C256.743 142.137 263.77 138.864 263.77 138.201C263.77 137.539 276.54 116.758 276.54 116.758L297.823 117.581L302.24 138.683L291.599 156.191C291.619 156.212 246.443 185.325 246.604 184.522Z" fill="var(--fill-0, #FEC417)"/>
<path id="Vector_2" d="M306.778 132.519C305.212 113.807 286.7 109.329 279.09 112.04C271.48 114.75 266.541 119.83 264.855 127.058C263.489 132.901 262.124 136.796 260.558 137.398C258.831 138.041 257.245 137.78 257.245 137.78C257.245 137.78 256.964 125.131 257.044 120.031C257.245 109.51 260.458 106.819 260.458 106.819C260.458 106.819 259.775 103.266 258.41 101.298C257.044 99.3503 254.515 96.8205 254.515 96.8205C254.515 96.8205 255.097 101.88 252.567 103.065C250.037 104.249 247.307 102.482 247.307 102.482L249.836 113.003C249.836 113.003 245.74 165.447 245.359 166.612C244.978 167.777 229.578 194.48 229.578 194.48C229.578 194.48 220.603 202.873 216.326 204.821C212.03 206.768 208.335 211.848 191.771 212.029C175.206 212.23 160.971 199.159 160.971 199.159L146.736 185.506L136.215 154.505L134.649 122.922L135.311 111.437L135.773 106.639L135.03 104.209C135.03 104.209 133.665 105.575 131.135 104.992C128.605 104.41 127.622 101.097 127.622 101.097C127.622 101.097 126.638 102.663 126.457 103.446C126.256 104.229 126.055 106.036 126.055 106.036C126.055 106.036 128.786 108.907 129.368 113.003C129.951 117.099 129.168 134.065 126.256 133.664C123.325 133.282 124.289 119.047 113.185 113.586C103.568 108.847 89.2124 110.273 83.3496 122.159C77.5069 134.045 81.7835 148.08 100.115 161.151C118.446 174.222 137.962 185.204 141.054 195.685C144.748 208.154 136.376 215.562 136.376 215.562C136.376 215.562 142.459 214.719 145.451 208.194C146.415 206.086 146.776 203.014 146.917 201.187C153.843 210.222 163.059 217.871 175.267 221.566C179.885 223.152 185.085 223.955 192.313 223.955C193.357 223.955 194.381 223.915 195.405 223.875C203.858 223.574 211.086 221.987 218.093 218.514C227.55 214.137 234.878 207.451 240.54 199.861C240.38 201.668 241.484 206.166 243.592 209.72C247.286 215.964 253.531 216.346 253.531 216.346C253.531 216.346 244.957 211.286 246.704 199.199C248.451 187.112 256.442 182.815 268.529 175.025C280.656 167.214 308.324 151.232 306.778 132.519V132.519ZM108.708 159.043C103.267 155.208 93.7299 150.088 89.7946 142.277C84.5543 131.857 88.8108 119.268 98.7695 117.722C119.45 114.469 119.831 140.149 121.197 143.261C122.562 146.373 126.457 146.574 126.457 146.574C126.457 146.574 126.598 148.301 127.16 151.634C127.18 151.734 127.2 151.814 127.2 151.915L127.26 152.216C127.642 154.485 128.184 157.316 128.947 160.548L129.007 160.789C129.429 162.616 129.87 164.343 130.332 165.929C131.256 169.262 132.38 172.856 133.765 176.551C131.758 175.185 120.253 167.214 108.708 159.043V159.043ZM296.056 144.606C291.739 151.594 283.005 156.794 276.56 161.171C268.248 166.813 255.88 175.286 252.386 177.655C253.189 175.527 253.892 173.419 254.535 171.35C255.579 168.62 256.683 165.287 257.446 161.693C259.454 152.256 259.795 144.004 259.795 144.004C259.795 144.004 263.891 145.169 266.421 142.438C268.951 139.707 269.894 131.234 272.264 127.239C275.958 120.995 283.367 114.57 294.49 122.36C300.915 126.877 301.156 136.334 296.056 144.606V144.606ZM187.514 230.24L198.858 230.099C198.858 230.099 199.16 242.487 200.946 251.723C202.733 260.979 205.123 271.259 205.123 271.259C205.123 271.259 182.013 279.009 182.153 270.657C182.294 262.304 185.727 246.041 185.727 246.041C185.727 246.041 187.815 226.666 187.514 230.24V230.24Z" fill="var(--fill-0, #FFA828)"/>
<path id="Vector_3" d="M173.098 269.794C173.098 269.794 180.748 257.345 182.354 247.908C183.96 238.472 184.844 230.119 184.844 230.119L189.582 230.32C189.582 230.32 189.12 243.993 188.578 253.249C188.036 262.505 186.45 271.58 186.45 271.58L173.098 269.794V269.794Z" fill="var(--fill-0, #FFEFAB)"/>
<path id="Vector_4" d="M240.218 297.301L240.198 268.609H148.101C148.382 268.609 148.161 291.94 148.121 297.401H135.03V318.182H251.984V297.401L240.218 297.301Z" fill="var(--fill-0, #865C50)"/>
<path id="Vector_5" d="M177.616 283.688C175.347 283.587 172.737 284.049 172.636 286.86C172.536 289.671 172.536 297.802 172.536 299.349C172.536 300.895 173.801 302.24 176.973 302.34C180.146 302.441 209.921 302.34 212.01 302.34C214.098 302.34 215.182 300.533 215.262 298.726C215.363 296.919 215.162 289.309 215.162 287.241C215.162 283.808 212.09 283.808 210.002 283.808C207.753 283.768 177.616 283.688 177.616 283.688V283.688Z" fill="var(--fill-0, #FCC219)"/>
<path id="Vector_6" d="M306.178 207.989C306.488 207.678 306.66 207.272 306.66 206.833C306.66 206.404 306.488 205.987 306.178 205.676L302.601 202.099C301.991 201.489 300.899 201.489 300.288 202.099L296.722 205.676C296.412 205.987 296.23 206.404 296.23 206.833C296.23 207.272 296.412 207.678 296.722 207.989L300.288 211.555C300.44 211.707 300.62 211.828 300.819 211.911C301.017 211.993 301.23 212.036 301.445 212.036C301.66 212.036 301.873 211.993 302.071 211.911C302.27 211.828 302.45 211.707 302.601 211.555L306.178 207.989V207.989Z" fill="var(--fill-0, #ED6C30)"/>
<path id="Vector_7" d="M168.48 101.499C168.48 101.499 181.109 100.073 192.855 100.254C204.601 100.435 216.688 102.744 216.688 102.744C216.688 102.744 215.985 142.056 213.837 164.122C211.708 186.188 203.356 202.712 201.127 207.391C198.979 211.928 197.413 214.358 197.413 214.358L186.089 213.033L166.513 173.72L168.48 101.499V101.499Z" fill="var(--fill-0, #FFA828)"/>
<path id="Vector_8" d="M153.361 107.382C153.361 107.382 156.915 105.595 162.075 103.647C166.754 101.88 170.97 101.338 170.97 101.338C170.97 101.338 171.09 127.399 171.512 145.992C171.874 161.833 177.736 187.794 180.587 194.741C183.439 201.689 188.579 212.29 188.579 212.29C188.579 212.29 178.238 210.804 171.874 202.733C168.52 198.476 152.839 165.548 152.297 143.843C151.755 122.139 153.884 106.839 153.361 107.382V107.382Z" fill="var(--fill-0, #FFEFAB)"/>
<path id="Vector_9" d="M147.479 110.393C147.117 111.457 144.286 133.885 148.723 154.686C153.161 175.487 159.726 189.722 164.063 195.364C167.918 200.363 170.428 202.733 171.853 202.733C173.279 202.733 165.991 185.485 162.597 171.953C159.224 158.44 157.437 142.237 157.076 134.246C156.715 126.235 156.373 105.595 156.373 105.595C156.373 105.595 152.458 107.382 151.575 107.904C150.691 108.446 147.479 110.393 147.479 110.393V110.393Z" fill="var(--fill-0, #FFFCFD)"/>
<path id="Vector_10" d="M178.981 222.409C178.981 222.409 182.534 218.936 192.312 218.936C202.09 218.936 206.287 222.69 206.287 222.69L206.548 234.757C206.548 234.757 200.042 232.729 192.132 232.629C185.546 232.549 178.459 234.998 178.459 234.998L178.981 222.409V222.409ZM136.275 102.563C137.921 101.037 153.703 89.1908 191.068 88.8695C231.263 88.5081 246.342 100.153 247.285 100.796C248.35 101.499 249.594 104.711 249.072 106.137C248.53 107.562 247.466 108.084 244.454 106.839C241.423 105.595 226.485 94.6922 190.545 95.8166C156.032 96.8807 141.395 107.382 139.849 108.265C138.604 108.968 136.295 109.148 135.231 107.723C134.147 106.317 135.211 103.567 136.275 102.563V102.563ZM249.072 110.935C244.455 111.297 247.647 148.481 237.869 171.772C227.388 196.689 214.016 203.797 214.559 205.222C215.101 206.648 228.191 202.692 236.443 190.987C244.093 180.145 248.711 170.527 250.859 157.717C252.968 144.908 254.212 110.534 249.072 110.935V110.935ZM135.291 115.192C134.127 115.132 135.311 133.684 133.424 141.836C132.701 144.968 130.934 145.61 130.754 146.313C130.573 147.016 134.629 170.889 141.435 181.369C148.021 191.509 161.011 204.138 163.139 202.01C165.267 199.881 153.703 192.754 145.892 177.274C141.395 168.399 136.817 155.027 136.636 139.727C136.516 129.608 137.781 115.332 135.291 115.192V115.192Z" fill="var(--fill-0, #D1701C)"/>
</g>
<path id="Vector_11" d="M350.87 213.446C351.366 213.243 351.719 212.805 351.832 212.304L352.799 208.029C352.936 207.424 352.719 206.8 352.262 206.406C351.783 206.006 351.132 205.912 350.566 206.15C350.545 206.154 348.059 207.138 345.626 206.105C343.88 205.356 342.521 203.715 341.579 201.221C339.065 194.584 334.464 194.66 331.116 194.727C327.941 194.784 326.491 194.677 325.605 191.616C324.621 188.212 322.842 185.909 320.312 184.764C316.275 182.922 311.924 184.893 311.742 184.971C311.28 185.178 310.946 185.602 310.833 186.103L309.866 190.378C309.811 190.607 309.811 190.836 309.851 191.047C309.897 191.291 309.997 191.522 310.145 191.721C310.293 191.921 310.485 192.084 310.705 192.199C310.926 192.314 311.169 192.377 311.418 192.384C311.666 192.391 311.913 192.341 312.139 192.239C312.171 192.233 315.34 190.824 317.994 192.045C319.597 192.788 320.774 194.387 321.475 196.818C323.107 202.433 327.206 202.354 330.196 202.3C333.35 202.247 335.838 202.19 337.528 206.67C338.798 210.03 340.756 212.299 343.356 213.409C347.104 214.99 350.72 213.518 350.87 213.446V213.446Z" fill="var(--fill-0, #ED6C30)"/>
<path id="Star_2" d="M61.1283 190.606C60.5285 189.846 61.2524 188.762 62.1848 189.025L67.6141 190.555C68.0311 190.672 68.4763 190.508 68.7169 190.148L71.85 185.457C72.3881 184.652 73.6426 185.005 73.6808 185.973L73.9032 191.61C73.9203 192.042 74.2142 192.415 74.6312 192.533L80.0604 194.063C80.9928 194.326 81.0442 195.628 80.1354 195.964L74.8436 197.917C74.4372 198.067 74.1736 198.461 74.1906 198.894L74.413 204.531C74.4512 205.499 73.2285 205.95 72.6286 205.189L69.1357 200.76C68.8674 200.42 68.4106 200.291 68.0042 200.441L62.7124 202.395C61.8036 202.73 60.9965 201.707 61.5345 200.901L64.6676 196.21C64.9082 195.85 64.8895 195.376 64.6213 195.036L61.1283 190.606Z" fill="url(#paint1_linear_9964_88125)"/>
<path id="Vector_12" d="M11.593 183.414C11.0978 183.209 10.7462 182.77 10.6361 182.268L9.68615 177.989C9.55229 177.384 9.77152 176.76 10.2297 176.369C10.7109 175.971 11.3621 175.879 11.9269 176.119C11.948 176.123 14.4304 177.118 16.8674 176.095C18.6165 175.353 19.9819 173.718 20.9346 171.227C23.4757 164.601 28.0762 164.696 31.4237 164.777C34.5987 164.847 36.0488 164.746 36.9476 161.688C37.9454 158.289 39.7338 155.994 42.269 154.858C46.3139 153.033 50.6564 155.022 50.8376 155.101C51.2993 155.31 51.6318 155.735 51.7419 156.237L52.6919 160.516C52.7458 160.745 52.745 160.974 52.7042 161.185C52.6573 161.429 52.5556 161.659 52.4068 161.858C52.258 162.057 52.0659 162.219 51.845 162.333C51.6241 162.447 51.3803 162.509 51.1319 162.515C50.8835 162.521 50.637 162.47 50.411 162.367C50.3795 162.361 47.2155 160.939 44.5567 162.149C42.9506 162.885 41.7678 164.48 41.0566 166.908C39.401 172.516 35.3029 172.42 32.3129 172.353C29.1589 172.287 26.6714 172.22 24.963 176.693C23.679 180.048 21.7117 182.309 19.1069 183.409C15.3527 184.974 11.7427 183.487 11.593 183.414V183.414Z" fill="var(--fill-0, #ED6C30)"/>
<path id="Vector_13" d="M339.594 128.049L336.025 131.619C335.382 132.262 335.382 133.302 336.025 133.934L339.594 137.514C339.916 137.825 340.334 137.997 340.752 137.997C341.181 137.997 341.599 137.836 341.91 137.514L345.49 133.934C346.134 133.291 346.134 132.262 345.49 131.619L341.91 128.049C341.267 127.406 340.227 127.406 339.594 128.049V128.049Z" fill="var(--fill-0, #40C0E7)"/>
<path id="Vector_14" d="M44.7885 117.33L41.2188 120.9C40.5756 121.543 40.5756 122.583 41.2188 123.215L44.7885 126.796C45.1101 127.107 45.5282 127.278 45.9463 127.278C46.3751 127.278 46.7932 127.117 47.104 126.796L50.6845 123.215C51.3277 122.572 51.3277 121.543 50.6845 120.9L47.104 117.33C46.4608 116.687 45.421 116.687 44.7885 117.33V117.33Z" fill="var(--fill-0, #40C0E7)"/>
<path id="Star_3" d="M341.175 49.3285C341.95 48.7474 343.016 49.4975 342.731 50.4233L341.069 55.8136C340.941 56.2276 341.094 56.6767 341.449 56.926L346.061 60.1727C346.854 60.7302 346.47 61.9757 345.501 61.9903L339.861 62.0751C339.428 62.0816 339.048 62.3663 338.92 62.7803L337.258 68.1706C336.972 69.0964 335.669 69.116 335.356 68.1992L333.532 62.8613C333.392 62.4514 333.004 62.1782 332.571 62.1847L326.931 62.2695C325.962 62.2841 325.541 61.0506 326.316 60.4695L330.829 57.0857C331.176 56.8258 331.316 56.3723 331.176 55.9623L329.352 50.6244C329.039 49.7077 330.082 48.9258 330.874 49.4834L335.487 52.73C335.841 52.9793 336.316 52.9722 336.662 52.7123L341.175 49.3285Z" fill="url(#paint2_linear_9964_88125)"/>
<path id="Vector_15" d="M379.748 90.9994C380.041 90.5503 380.083 89.9891 379.89 89.5128L378.258 85.4447C378.027 84.87 377.494 84.4792 376.895 84.4147C376.273 84.3579 375.683 84.6496 375.353 85.1671C375.338 85.1823 373.851 87.405 371.262 87.9365C369.399 88.3119 367.349 87.7334 365.156 86.2158C359.317 82.1814 355.574 84.8577 352.857 86.8151C350.276 88.6655 349.023 89.401 346.554 87.3848C343.811 85.1429 341.039 84.258 338.306 84.7525C333.937 85.5301 331.476 89.6235 331.371 89.7909C331.108 90.2246 331.073 90.763 331.266 91.2394L332.898 95.3075C332.983 95.5268 333.113 95.7155 333.265 95.8661C333.442 96.0411 333.656 96.1736 333.891 96.2538C334.126 96.334 334.376 96.3597 334.623 96.329C334.87 96.2982 335.106 96.2119 335.314 96.0764C335.523 95.941 335.697 95.7599 335.826 95.547C335.848 95.5242 337.657 92.5642 340.534 92.0612C342.276 91.7624 344.152 92.4102 346.11 94.0127C350.643 97.7065 353.971 95.3132 356.401 93.5698C358.967 91.7347 360.982 90.2743 364.918 93.0016C367.872 95.0451 370.772 95.8003 373.543 95.2373C377.525 94.4091 379.665 91.1439 379.748 90.9994V90.9994Z" fill="var(--fill-0, #ED6C30)"/>
<path id="Vector_16" d="M150.912 59.4414L147.342 63.0111C146.699 63.6543 146.699 64.6941 147.342 65.3266L150.912 68.9071C151.234 69.2179 151.652 69.3895 152.07 69.3895C152.499 69.3895 152.917 69.2287 153.228 68.9071L156.808 65.3266C157.451 64.6834 157.451 63.6543 156.808 63.0111L153.228 59.4414C152.584 58.7982 151.545 58.7982 150.912 59.4414V59.4414Z" fill="var(--fill-0, #40C0E7)"/>
<path id="Star_4" d="M62.9922 38.7409C63.5045 37.9187 64.7696 38.2324 64.8385 39.1987L65.2392 44.8253C65.2699 45.2574 65.5755 45.6206 65.996 45.7249L71.471 47.0825C72.4112 47.3156 72.5038 48.6158 71.6061 48.9798L66.3787 51.0996C65.9773 51.2624 65.7263 51.6652 65.7571 52.0973L66.1578 57.7239C66.2266 58.6902 65.0187 59.18 64.3951 58.4387L60.7637 54.1222C60.4848 53.7907 60.0241 53.6765 59.6227 53.8393L54.3953 55.9591C53.4976 56.3232 52.6585 55.3258 53.1708 54.5036L56.1538 49.7161C56.3829 49.3484 56.3492 48.875 56.0703 48.5434L52.4389 44.227C51.8153 43.4857 52.5045 42.3795 53.4448 42.6126L58.9198 43.9702C59.3403 44.0745 59.7801 43.8961 60.0092 43.5284L62.9922 38.7409Z" fill="url(#paint3_linear_9964_88125)"/>
<path id="Vector_17" d="M1.0864 71.6797C1.02743 71.1469 1.24293 70.627 1.62946 70.2886L4.92033 67.3931C5.38556 66.9843 6.03757 66.8757 6.60155 67.0882C7.1823 67.3179 7.57696 67.844 7.63852 68.4549C7.64509 68.4753 7.97055 71.1297 10.0421 72.7713C11.5353 73.946 13.6262 74.3538 16.2675 73.9875C23.2983 73.0186 25.4331 77.0949 26.9757 80.0669C28.4454 82.8821 29.233 84.1038 32.3453 83.4169C35.8043 82.6522 38.6778 83.112 40.8948 84.7857C44.4441 87.4493 44.7955 92.2126 44.8138 92.4094C44.8527 92.9149 44.6409 93.4111 44.2543 93.7495L40.9635 96.645C40.789 96.8025 40.5878 96.9124 40.3838 96.9781C40.1474 97.0547 39.8967 97.0766 39.6506 97.0422C39.4045 97.0077 39.1695 96.9178 38.9632 96.7792C38.757 96.6406 38.5849 96.457 38.46 96.2422C38.3352 96.0273 38.2607 95.787 38.2423 95.5391C38.2325 95.5085 37.9525 92.0512 35.6108 90.3051C34.191 89.2532 32.224 88.9856 29.7538 89.5333C24.0423 90.787 22.1504 87.1504 20.7672 84.4987C19.3041 81.7039 18.1639 79.4921 13.4212 80.1522C9.86335 80.6447 6.93398 80.0113 4.7144 78.2597C1.53325 75.7253 1.09487 71.8459 1.0864 71.6797V71.6797Z" fill="var(--fill-0, #ED6C30)"/>
<path id="Vector_18" d="M235.606 60.2888V55.2398C235.606 54.3286 234.867 53.5996 233.966 53.5996H228.907C228.006 53.5996 227.266 54.3286 227.266 55.2398V60.2888C227.266 61.2 227.995 61.929 228.907 61.929H233.966C234.878 61.929 235.606 61.1893 235.606 60.2888Z" fill="var(--fill-0, #ED6C30)"/>
<path id="Star_5" d="M187.442 18.2196C187.137 17.3001 188.187 16.5279 188.974 17.0927L193.557 20.3819C193.909 20.6345 194.383 20.6318 194.732 20.3751L199.277 17.0332C200.057 16.4593 201.116 17.2193 200.822 18.1423L199.11 23.517C198.978 23.9298 199.128 24.3803 199.48 24.633L204.062 27.9221C204.849 28.487 204.454 29.7289 203.485 29.7345L197.844 29.7671C197.411 29.7696 197.029 30.0508 196.897 30.4636L195.185 35.8383C194.891 36.7613 193.588 36.7689 193.283 35.8493L191.509 30.4947C191.373 30.0835 190.987 29.8067 190.554 29.8092L184.913 29.8418C183.944 29.8474 183.534 28.6102 184.315 28.0363L188.859 24.6943C189.208 24.4377 189.352 23.9855 189.216 23.5742L187.442 18.2196Z" fill="url(#paint4_linear_9964_88125)"/>
<path id="Vector_19" d="M306.761 10.5451C306.654 10.0198 306.289 9.59099 305.818 9.38731L301.798 7.63996C301.23 7.3934 300.576 7.48989 300.104 7.86508C299.622 8.26172 299.407 8.88347 299.536 9.48379C299.536 9.50523 300.04 12.1316 298.571 14.3292C297.51 15.905 295.645 16.9341 293.018 17.3951C286.029 18.6279 285.246 23.1624 284.689 26.4641C284.153 29.5943 283.778 30.9987 280.605 31.2988C277.078 31.6311 274.483 32.9497 272.886 35.2223C270.324 38.8456 271.45 43.4874 271.493 43.6803C271.611 44.1734 271.964 44.5808 272.436 44.7845L276.456 46.5318C276.67 46.6283 276.895 46.6712 277.11 46.6712C277.358 46.6717 277.604 46.6157 277.827 46.5074C278.051 46.3992 278.247 46.2416 278.401 46.0464C278.555 45.8513 278.662 45.6238 278.715 45.381C278.768 45.1382 278.766 44.8866 278.707 44.6451C278.707 44.613 277.914 41.2362 279.608 38.8564C280.637 37.4199 282.427 36.5623 284.946 36.3265C290.767 35.769 291.453 31.7276 291.957 28.7796C292.493 25.6709 292.9 23.216 297.617 22.3906C301.155 21.7688 303.749 20.268 305.325 17.9204C307.576 14.5329 306.804 10.7059 306.761 10.5451V10.5451Z" fill="var(--fill-0, #ED6C30)"/>
<path id="Vector_20" d="M99.855 3.04116C99.9622 2.51588 100.327 2.08708 100.798 1.8834L104.818 0.136056C105.386 -0.110502 106.04 -0.0140193 106.512 0.361178C106.994 0.757815 107.209 1.37957 107.08 1.97988C107.08 2.00132 106.576 4.6277 108.045 6.82528C109.106 8.40111 110.972 9.43023 113.598 9.89118C120.587 11.124 121.37 15.6585 121.927 18.9602C122.463 22.0904 122.838 23.4947 126.012 23.7949C129.538 24.1272 132.133 25.4458 133.73 27.7184C136.292 31.3417 135.166 35.9835 135.124 36.1764C135.006 36.6695 134.652 37.0769 134.18 37.2806L130.16 39.0279C129.946 39.1244 129.721 39.1673 129.506 39.1673C129.258 39.1677 129.012 39.1118 128.789 39.0035C128.565 38.8953 128.369 38.7377 128.215 38.5425C128.061 38.3474 127.954 38.1199 127.901 37.8771C127.848 37.6343 127.851 37.3827 127.909 37.1412C127.909 37.109 128.702 33.7323 127.009 31.3524C125.979 29.916 124.189 29.0584 121.67 28.8225C115.849 28.2651 115.163 24.2237 114.659 21.2757C114.123 18.167 113.716 15.7121 108.999 14.8867C105.462 14.2649 102.867 12.7641 101.291 10.4165C99.0403 7.02896 99.8121 3.20196 99.855 3.04116V3.04116Z" fill="var(--fill-0, #ED6C30)"/>
</g>
<defs>
<linearGradient id="paint0_linear_9964_88125" x1="361.136" y1="182.515" x2="335.37" y2="163.183" gradientUnits="userSpaceOnUse">
<stop stop-color="#FACC15"/>
<stop offset="1" stop-color="#FFE580"/>
</linearGradient>
<linearGradient id="paint1_linear_9964_88125" x1="88.0637" y1="191.821" x2="63.4207" y2="212.565" gradientUnits="userSpaceOnUse">
<stop stop-color="#FACC15"/>
<stop offset="1" stop-color="#FFE580"/>
</linearGradient>
<linearGradient id="paint2_linear_9964_88125" x1="339.304" y1="76.2263" x2="319.167" y2="51.0845" gradientUnits="userSpaceOnUse">
<stop stop-color="#FACC15"/>
<stop offset="1" stop-color="#FFE580"/>
</linearGradient>
<linearGradient id="paint3_linear_9964_88125" x1="70.9801" y1="64.4934" x2="43.1107" y2="48.341" gradientUnits="userSpaceOnUse">
<stop stop-color="#FACC15"/>
<stop offset="1" stop-color="#FFE580"/>
</linearGradient>
<linearGradient id="paint4_linear_9964_88125" x1="212.35" y1="28.542" x2="182.113" y2="39.6447" gradientUnits="userSpaceOnUse">
<stop stop-color="#FACC15"/>
<stop offset="1" stop-color="#FFE580"/>
</linearGradient>
</defs>
</svg>
