<svg preserveAspectRatio="none" width="100%" height="100%" overflow="visible" style="display: block;" viewBox="0 0 22 22" fill="none" xmlns="http://www.w3.org/2000/svg">
<path id="Vector" d="M16.375 14.875V5.625H7.125V4.125H16.375C16.775 4.125 17.125 4.275 17.425 4.575C17.725 4.875 17.875 5.225 17.875 5.625V14.875H16.375ZM17.1206 22C16.9069 22 16.7292 21.9282 16.5875 21.7845C16.4458 21.6407 16.375 21.4625 16.375 21.25V17.875H5.625C5.225 17.875 4.875 17.725 4.575 17.425C4.275 17.125 4.125 16.775 4.125 16.375V5.625H0.75C0.5375 5.625 0.359375 5.55271 0.215625 5.40813C0.071875 5.26353 0 5.08436 0 4.87063C0 4.65688 0.071875 4.47917 0.215625 4.3375C0.359375 4.19583 0.5375 4.125 0.75 4.125H4.125V0.75C4.125 0.5375 4.19729 0.359375 4.34188 0.215625C4.48648 0.071875 4.66564 0 4.87938 0C5.09313 0 5.27083 0.071875 5.4125 0.215625C5.55417 0.359375 5.625 0.5375 5.625 0.75V16.375H21.25C21.4625 16.375 21.6406 16.4473 21.7844 16.5919C21.9281 16.7365 22 16.9156 22 17.1294C22 17.3431 21.9281 17.5208 21.7844 17.6625C21.6406 17.8042 21.4625 17.875 21.25 17.875H17.875V21.25C17.875 21.4625 17.8027 21.6407 17.6581 21.7845C17.5135 21.9282 17.3344 22 17.1206 22Z" fill="var(--fill-0, #212121)"/>
</svg>
