<svg preserveAspectRatio="none" width="100%" height="100%" overflow="visible" style="display: block;" viewBox="0 0 23.2444 16.9846" fill="none" xmlns="http://www.w3.org/2000/svg">
<path id="Vector" d="M22.8488 2.29033L8.54881 16.5903C8.42426 16.7153 8.27627 16.8145 8.11331 16.8821C7.95036 16.9498 7.77565 16.9846 7.5992 16.9846C7.42276 16.9846 7.24805 16.9498 7.08509 16.8821C6.92214 16.8145 6.77414 16.7153 6.64959 16.5903L0.393341 10.3341C0.268637 10.2094 0.169716 10.0613 0.102226 9.89839C0.0347364 9.73546 1.85824e-09 9.56083 0 9.38447C-1.85824e-09 9.20811 0.0347364 9.03348 0.102226 8.87054C0.169716 8.70761 0.268637 8.55956 0.393341 8.43486C0.518046 8.31015 0.666091 8.21123 0.829025 8.14374C0.99196 8.07625 1.16659 8.04152 1.34295 8.04152C1.51931 8.04152 1.69394 8.07625 1.85688 8.14374C2.01981 8.21123 2.16786 8.31015 2.29256 8.43486L7.60032 13.7426L20.9518 0.393341C21.2037 0.141489 21.5453 0 21.9014 0C22.2576 0 22.5992 0.141489 22.851 0.393341C23.1029 0.645193 23.2444 0.986778 23.2444 1.34295C23.2444 1.69912 23.1029 2.04071 22.851 2.29256L22.8488 2.29033Z" fill="var(--fill-0, white)"/>
</svg>
