<svg preserveAspectRatio="none" width="100%" height="100%" overflow="visible" style="display: block;" viewBox="0 0 21.751 17.2463" fill="none" xmlns="http://www.w3.org/2000/svg">
<path id="Vector" d="M21.3073 2.64587L19.0573 0.437122C18.7762 0.157174 18.3956 0 17.9988 0C17.6021 0 17.2215 0.157174 16.9404 0.437122L8.24977 8.99837L8.23946 8.98806L4.80446 5.6815C4.52264 5.40258 4.14184 5.2466 3.74533 5.24765C3.34882 5.24871 2.96886 5.40671 2.68852 5.68712L0.438524 7.93712C0.157719 8.21836 0 8.59954 0 8.99697C0 9.39439 0.157719 9.77557 0.438524 10.0568L7.1529 16.8068C7.29219 16.9461 7.45757 17.0567 7.63958 17.1321C7.82159 17.2075 8.01667 17.2463 8.21368 17.2463C8.41069 17.2463 8.60577 17.2075 8.78778 17.1321C8.9698 17.0567 9.13517 16.9461 9.27446 16.8068L21.312 4.77118C21.4515 4.63152 21.5622 4.46566 21.6375 4.28314C21.7128 4.10061 21.7514 3.90501 21.751 3.70755C21.7505 3.5101 21.7111 3.31467 21.635 3.13248C21.5588 2.95029 21.4475 2.78492 21.3073 2.64587ZM8.21415 15.7484L1.49977 8.99837L3.74977 6.74837L3.76009 6.75868L7.19509 10.0652C7.47597 10.3435 7.85535 10.4996 8.25071 10.4996C8.64608 10.4996 9.02545 10.3435 9.30634 10.0652L18.0054 1.49837L20.2498 3.71087L8.21415 15.7484Z" fill="var(--fill-0, #212121)"/>
</svg>
