<svg preserveAspectRatio="none" width="100%" height="100%" overflow="visible" style="display: block;" viewBox="0 0 22 12" fill="none" xmlns="http://www.w3.org/2000/svg">
<g id="Vector">
<path d="M21.6585 0.247437C22.0741 0.611119 22.1163 1.24288 21.7526 1.65852L13.0026 11.6585C12.8231 11.8636 12.5677 11.9866 12.2955 11.999C12.0232 12.0114 11.7577 11.9121 11.5603 11.7242L9.04297 9.32665L7.00258 11.6585C6.82311 11.8636 6.56771 11.9866 6.29546 11.999C6.02321 12.0114 5.7577 11.9121 5.56035 11.7242L0.310347 6.72415C-0.0895837 6.34327 -0.105022 5.71029 0.275864 5.31036C0.65675 4.91043 1.28973 4.89499 1.68966 5.27588L6.18431 9.5565L7.5934 7.94611L6.31035 6.72415C5.91042 6.34327 5.89498 5.71029 6.27586 5.31036C6.65675 4.91043 7.28973 4.89499 7.68966 5.27588L12.1843 9.5565L20.2474 0.341509C20.6111 -0.0741276 21.2429 -0.116245 21.6585 0.247437Z" fill="var(--fill-0, #212121)"/>
<path d="M15.7526 1.65852C16.1163 1.24288 16.0741 0.611119 15.6585 0.247437C15.2429 -0.116245 14.6111 -0.0741276 14.2474 0.341509L10.7474 4.34151C10.3837 4.75715 10.4259 5.38891 10.8415 5.75259C11.2571 6.11627 11.8889 6.07415 12.2526 5.65852L15.7526 1.65852Z" fill="var(--fill-0, #212121)"/>
</g>
</svg>
