<svg preserveAspectRatio="none" width="100%" height="100%" overflow="visible" style="display: block;" viewBox="0 0 21.0453 18.75" fill="none" xmlns="http://www.w3.org/2000/svg">
<path id="Vector" d="M3.00656 7.5H17.9934C18.218 7.50114 18.4399 7.45186 18.6428 7.35579C18.8458 7.25973 19.0245 7.11933 19.166 6.94496C19.3074 6.77058 19.4079 6.56668 19.4601 6.34829C19.5122 6.12989 19.5146 5.90259 19.4672 5.68313C18.7706 2.39063 15 0 10.5 0C6 0 2.22937 2.39063 1.53281 5.68313C1.48538 5.90259 1.48782 6.12989 1.53995 6.34829C1.59208 6.56668 1.69257 6.77058 1.83401 6.94496C1.97546 7.11933 2.15424 7.25973 2.35718 7.35579C2.56012 7.45186 2.78204 7.50114 3.00656 7.5ZM10.5 1.5C14.2331 1.5 17.4572 3.43219 17.9934 6H3.00656L3 5.99344C3.54281 3.43219 6.76688 1.5 10.5 1.5ZM19.9931 12.045L16.1372 13.4512L12.6562 12.0534C12.4775 11.982 12.2781 11.982 12.0994 12.0534L8.63062 13.4419L5.15625 12.0534C4.9852 11.9851 4.79499 11.9821 4.62188 12.045L0.496875 13.545C0.322534 13.6217 0.183924 13.7619 0.10918 13.9371C0.0344355 14.1124 0.0291573 14.3094 0.0944164 14.4884C0.159676 14.6673 0.290582 14.8148 0.460566 14.9007C0.630549 14.9867 0.826873 15.0048 1.00969 14.9512L2.25 14.5022V15C2.25 15.9946 2.64509 16.9484 3.34835 17.6517C4.05161 18.3549 5.00544 18.75 6 18.75H15C15.9946 18.75 16.9484 18.3549 17.6517 17.6517C18.3549 16.9484 18.75 15.9946 18.75 15V14.0934L20.5059 13.455C20.6044 13.4262 20.6959 13.3775 20.7748 13.3119C20.8537 13.2463 20.9183 13.1652 20.9646 13.0737C21.0109 12.9821 21.0379 12.882 21.044 12.7796C21.05 12.6772 21.035 12.5746 20.9999 12.4782C20.9647 12.3819 20.9102 12.2937 20.8396 12.2193C20.769 12.1448 20.6839 12.0856 20.5896 12.0453C20.4952 12.0051 20.3936 11.9846 20.291 11.9852C20.1884 11.9858 20.087 12.0074 19.9931 12.0488V12.045ZM17.25 15C17.25 15.5967 17.0129 16.169 16.591 16.591C16.169 17.0129 15.5967 17.25 15 17.25H6C5.40326 17.25 4.83097 17.0129 4.40901 16.591C3.98705 16.169 3.75 15.5967 3.75 15V13.9575L4.86281 13.5525L8.34375 14.9466C8.5225 15.018 8.72188 15.018 8.90063 14.9466L12.3694 13.5581L15.8381 14.9466C16.0092 15.0149 16.1994 15.0179 16.3725 14.955L17.2416 14.6391L17.25 15ZM0 9.75C0 9.55109 0.0790176 9.36032 0.21967 9.21967C0.360322 9.07902 0.551088 9 0.75 9H20.25C20.4489 9 20.6397 9.07902 20.7803 9.21967C20.921 9.36032 21 9.55109 21 9.75C21 9.94891 20.921 10.1397 20.7803 10.2803C20.6397 10.421 20.4489 10.5 20.25 10.5H0.75C0.551088 10.5 0.360322 10.421 0.21967 10.2803C0.0790176 10.1397 0 9.94891 0 9.75Z" fill="var(--fill-0, #212121)"/>
</svg>
