<svg preserveAspectRatio="none" width="100%" height="100%" overflow="visible" style="display: block;" viewBox="0 0 16.6582 16.45" fill="none" xmlns="http://www.w3.org/2000/svg">
<g id="Group">
<path id="Vector" fill-rule="evenodd" clip-rule="evenodd" d="M8.32908 12.8554C7.98408 12.8554 7.70408 12.5754 7.70408 12.2304V10.1162C7.70408 9.77125 7.98408 9.49125 8.32908 9.49125C8.67408 9.49125 8.95408 9.77125 8.95408 10.1162V12.2304C8.95408 12.5754 8.67408 12.8554 8.32908 12.8554" fill="var(--fill-0, #00BCD3)"/>
<g id="Mask Group">
<mask id="mask0_9964_87607" style="mask-type:luminance" maskUnits="userSpaceOnUse" x="0" y="2" width="17" height="9">
<path id="Vector_2" fill-rule="evenodd" clip-rule="evenodd" d="M0 2.14983H16.6582V10.7423H0V2.14983Z" fill="var(--fill-0, white)"/>
</mask>
<g mask="url(#mask0_9964_87607)">
<path id="Exclude" fill-rule="evenodd" clip-rule="evenodd" d="M1.25 7.82733C3.23 8.90317 5.72667 9.49233 8.325 9.49233C10.9283 9.49233 13.4275 8.90317 15.4083 7.82733V5.32567C15.4083 4.26317 14.5492 3.39983 13.4917 3.39983H3.175C2.11333 3.39983 1.25 4.25983 1.25 5.31733V7.82733ZM8.325 10.7423C5.37083 10.7423 2.52333 10.0273 0.309167 8.73067C0.1175 8.619 0 8.414 0 8.1915V5.31733C0 3.57067 1.42417 2.14983 3.175 2.14983H13.4917C15.2383 2.14983 16.6583 3.574 16.6583 5.32567V8.1915C16.6583 8.414 16.54 8.619 16.3492 8.73067C14.135 10.0273 11.285 10.7423 8.325 10.7423V10.7423Z" fill="var(--fill-0, #00BCD3)"/>
</g>
</g>
<path id="Vector_3" fill-rule="evenodd" clip-rule="evenodd" d="M13.1622 16.45H3.49558C1.76642 16.45 0.310583 15.0992 0.17975 13.3742L0.0214167 11.2833C-0.00441667 10.9392 0.253917 10.6383 0.598083 10.6125C0.943917 10.6 1.24225 10.8442 1.26892 11.1892L1.42642 13.2792C1.50808 14.3558 2.41642 15.2 3.49558 15.2H13.1622C14.2414 15.2 15.1506 14.3558 15.2314 13.2792L15.3897 11.1892C15.4164 10.8442 15.7222 10.5992 16.0606 10.6125C16.4047 10.6383 16.6622 10.9392 16.6364 11.2833L16.4781 13.3742C16.3473 15.0992 14.8914 16.45 13.1622 16.45" fill="var(--fill-0, #00BCD3)"/>
<g id="Mask Group_2">
<mask id="mask1_9964_87607" style="mask-type:luminance" maskUnits="userSpaceOnUse" x="4" y="0" width="8" height="4">
<path id="Vector_4" fill-rule="evenodd" clip-rule="evenodd" d="M4.78742 0H11.8708V3.39658H4.78742V0Z" fill="var(--fill-0, white)"/>
</mask>
<g mask="url(#mask1_9964_87607)">
<path id="Vector_5" fill-rule="evenodd" clip-rule="evenodd" d="M11.2458 3.39658C10.9008 3.39658 10.6208 3.11658 10.6208 2.77158V2.46658C10.6208 1.79575 10.0749 1.24992 9.40408 1.24992H7.25408C6.58325 1.24992 6.03742 1.79575 6.03742 2.46658V2.77158C6.03742 3.11658 5.75742 3.39658 5.41242 3.39658C5.06742 3.39658 4.78742 3.11658 4.78742 2.77158V2.46658C4.78742 1.10658 5.89408 -8.33273e-05 7.25408 -8.33273e-05H9.40408C10.7641 -8.33273e-05 11.8708 1.10658 11.8708 2.46658V2.77158C11.8708 3.11658 11.5908 3.39658 11.2458 3.39658" fill="var(--fill-0, #00BCD3)"/>
</g>
</g>
</g>
</svg>
