<svg preserveAspectRatio="none" width="100%" height="100%" overflow="visible" style="display: block;" viewBox="0 0 20.325 20.95" fill="none" xmlns="http://www.w3.org/2000/svg">
<path id="Vector" d="M17.2 6.05C17.1167 6.05 17.0458 6.03333 16.9875 6C16.9292 5.96667 16.8833 5.90833 16.85 5.825L16.125 4.125L14.3 3.325C14.2167 3.29167 14.1583 3.24583 14.125 3.1875C14.0917 3.12917 14.075 3.05833 14.075 2.975C14.075 2.89167 14.0917 2.82083 14.125 2.7625C14.1583 2.70417 14.2167 2.65833 14.3 2.625L16.125 1.85L16.85 0.225C16.8833 0.141667 16.9292 0.0833333 16.9875 0.05C17.0458 0.0166667 17.1167 0 17.2 0C17.2833 0 17.3542 0.0166667 17.4125 0.05C17.4708 0.0833333 17.5167 0.141667 17.55 0.225L18.275 1.85L20.1 2.625C20.1833 2.65833 20.2417 2.70417 20.275 2.7625C20.3083 2.82083 20.325 2.89167 20.325 2.975C20.325 3.05833 20.3083 3.12917 20.275 3.1875C20.2417 3.24583 20.1833 3.29167 20.1 3.325L18.275 4.125L17.55 5.825C17.5167 5.90833 17.4708 5.96667 17.4125 6C17.3542 6.03333 17.2833 6.05 17.2 6.05ZM17.2 20.95C17.1333 20.95 17.0667 20.9333 17 20.9C16.9333 20.8667 16.8833 20.8083 16.85 20.725L16.125 19.1L14.325 18.325C14.2417 18.2917 14.1833 18.2458 14.15 18.1875C14.1167 18.1292 14.1 18.0583 14.1 17.975C14.1 17.8917 14.1167 17.8208 14.15 17.7625C14.1833 17.7042 14.2417 17.6583 14.325 17.625L16.125 16.85L16.85 15.125C16.8833 15.0417 16.9292 14.9833 16.9875 14.95C17.0458 14.9167 17.1167 14.9 17.2 14.9C17.2833 14.9 17.3542 14.9167 17.4125 14.95C17.4708 14.9833 17.5167 15.0417 17.55 15.125L18.275 16.85L20.075 17.625C20.1583 17.6583 20.2167 17.7042 20.25 17.7625C20.2833 17.8208 20.3 17.8917 20.3 17.975C20.3 18.0583 20.2833 18.1292 20.25 18.1875C20.2167 18.2458 20.1583 18.2917 20.075 18.325L18.275 19.1L17.55 20.725C17.5167 20.8083 17.4667 20.8667 17.4 20.9C17.3333 20.9333 17.2667 20.95 17.2 20.95ZM6.225 16.625C6.09167 16.625 5.9625 16.5875 5.8375 16.5125C5.7125 16.4375 5.61667 16.3333 5.55 16.2L3.925 12.725L0.425 11.15C0.291667 11.0833 0.1875 10.9875 0.1125 10.8625C0.0375 10.7375 0 10.6083 0 10.475C0 10.3417 0.0375 10.2125 0.1125 10.0875C0.1875 9.9625 0.291667 9.86667 0.425 9.8L3.925 8.225L5.55 4.775C5.61667 4.625 5.7125 4.5125 5.8375 4.4375C5.9625 4.3625 6.09167 4.325 6.225 4.325C6.35833 4.325 6.4875 4.3625 6.6125 4.4375C6.7375 4.5125 6.83333 4.61667 6.9 4.75L8.55 8.225L12.025 9.8C12.175 9.86667 12.2875 9.9625 12.3625 10.0875C12.4375 10.2125 12.475 10.3417 12.475 10.475C12.475 10.6083 12.4375 10.7375 12.3625 10.8625C12.2875 10.9875 12.175 11.0833 12.025 11.15L8.55 12.725L6.9 16.2C6.83333 16.35 6.7375 16.4583 6.6125 16.525C6.4875 16.5917 6.35833 16.625 6.225 16.625ZM6.225 13.95L7.425 11.55L9.875 10.475L7.425 9.4L6.225 7L5.05 9.4L2.575 10.475L5.05 11.55L6.225 13.95Z" fill="var(--fill-0, #212121)"/>
</svg>
