<svg preserveAspectRatio="none" width="100%" height="100%" overflow="visible" style="display: block;" viewBox="0 0 52 52" fill="none" xmlns="http://www.w3.org/2000/svg">
<g id="Logo">
<path d="M21.7354 2.20106C21.7354 0.985447 22.7209 0 23.9365 0H36.0423C37.2579 0 38.2434 0.985447 38.2434 2.20106C38.2434 3.41667 37.2579 4.40212 36.0423 4.40212H32.1734C32.1847 4.49225 32.1905 4.58407 32.1905 4.67725V8.08915C35.2148 8.39311 38.1546 9.32142 40.8194 10.8276C44.3533 12.8249 47.266 15.7605 49.2355 19.3099C51.2051 22.8593 52.1547 26.8843 51.9795 30.9397C51.8042 34.9952 50.5109 38.9232 48.2425 42.2894C45.9741 45.6557 42.819 48.3291 39.126 50.0141C35.433 51.6991 31.3459 52.33 27.3167 51.8371C24.018 51.4336 20.8633 50.2897 18.0839 48.5023C17.0615 47.8447 16.9083 46.4497 17.6646 45.498C18.4209 44.5463 19.7997 44.4014 20.8382 45.0332C22.9692 46.3294 25.3589 47.1627 27.8513 47.4676C31.0746 47.8619 34.3443 47.3572 37.2987 46.0092C40.2531 44.6612 42.7772 42.5225 44.5919 39.8294C46.4066 37.1364 47.4413 33.994 47.5815 30.7497C47.7217 27.5053 46.962 24.2853 45.3863 21.4458C43.8107 18.6063 41.4805 16.2578 38.6534 14.6599C35.8263 13.0621 32.6124 12.2772 29.3671 12.392C26.8576 12.4807 24.405 13.1047 22.1702 14.2123C21.081 14.7521 19.7198 14.4888 19.0485 13.4754C18.3771 12.462 18.6501 11.0854 19.7254 10.5185C22.2294 9.19852 24.9671 8.37268 27.7884 8.08916V4.67725C27.7884 4.58407 27.7941 4.49225 27.8054 4.40212H23.9365C22.7209 4.40212 21.7354 3.41667 21.7354 2.20106Z" fill="var(--fill-0, #FF6347)"/>
<path fill-rule="evenodd" clip-rule="evenodd" d="M18.0715 36.8677C17.7657 36.3388 17.4941 35.7875 17.2597 35.2169H2.20106C0.985447 35.2169 0 34.2315 0 33.0159C0 31.8003 0.985447 30.8148 2.20106 30.8148H16.2571C16.241 30.5418 16.2328 30.2666 16.2328 29.9894C16.2328 29.7123 16.241 29.4371 16.2572 29.164H10.7302C9.51455 29.164 8.5291 28.1786 8.5291 26.963C8.5291 25.7473 9.51455 24.7619 10.7302 24.7619H17.262C17.4968 24.1914 17.7688 23.6401 18.0751 23.1111H16.2328C15.0172 23.1111 14.0317 22.1257 14.0317 20.9101C14.0317 19.6944 15.0172 18.709 16.2328 18.709H22.1168C24.3477 17.1485 27.0623 16.2328 29.9894 16.2328C37.5968 16.2328 43.746 22.3958 43.746 29.9894C43.746 37.5968 37.5968 43.746 29.9894 43.746C27.0599 43.746 24.3433 42.8309 22.1114 41.2698H8.80423C7.58862 41.2698 6.60317 40.2844 6.60317 39.0688C6.60317 37.8532 7.58862 36.8677 8.80423 36.8677H18.0715ZM34.3777 35.0931C34.5428 35.1894 34.7217 35.2444 34.9143 35.2444C35.2582 35.2444 35.6021 35.0656 35.7947 34.7354C36.0836 34.254 35.9322 33.6212 35.437 33.3185L30.5397 30.4021V24.0466C30.5397 23.4688 30.0719 23.0148 29.5079 23.0148C28.9439 23.0148 28.4762 23.4688 28.4762 24.0466V30.9936C28.4762 31.3513 28.6688 31.6815 28.9852 31.8741L34.3777 35.0931Z" fill="var(--fill-0, #FF6347)"/>
<path d="M7.15344 18.709C5.93783 18.709 4.95238 19.6944 4.95238 20.9101C4.95238 22.1257 5.93783 23.1111 7.15344 23.1111H10.1799C11.3955 23.1111 12.381 22.1257 12.381 20.9101C12.381 19.6944 11.3955 18.709 10.1799 18.709H7.15344Z" fill="var(--fill-0, #FF6347)"/>
</g>
</svg>
