<svg preserveAspectRatio="none" width="100%" height="100%" overflow="visible" style="display: block;" viewBox="0 0 13.9375 16.668" fill="none" xmlns="http://www.w3.org/2000/svg">
<g id="Group">
<path id="Vector" fill-rule="evenodd" clip-rule="evenodd" d="M10.7691 6.83314C10.4241 6.83314 10.1441 6.55314 10.1441 6.20814V4.41897C10.1441 2.67231 8.72325 1.25147 6.97658 1.25147H6.96325C6.11908 1.25147 5.32825 1.57647 4.73075 2.16897C4.12908 2.76397 3.79658 3.55814 3.79325 4.40481V6.20814C3.79325 6.55314 3.51325 6.83314 3.16825 6.83314C2.82325 6.83314 2.54325 6.55314 2.54325 6.20814V4.41897C2.54825 3.21897 3.01242 2.11147 3.84992 1.28147C4.68825 0.450641 5.79492 -0.0301925 6.97908 0.00147412C9.41242 0.00147412 11.3941 1.98314 11.3941 4.41897V6.20814C11.3941 6.55314 11.1141 6.83314 10.7691 6.83314" fill="var(--fill-0, #212121)"/>
<path id="Exclude" fill-rule="evenodd" clip-rule="evenodd" d="M3.785 6.77381C2.38667 6.77381 1.25 7.91047 1.25 9.30881V12.883C1.25 14.2813 2.38667 15.418 3.785 15.418H10.1525C11.55 15.418 12.6875 14.2813 12.6875 12.883V9.30881C12.6875 7.91047 11.55 6.77381 10.1525 6.77381H3.785ZM10.1525 16.668H3.785C1.6975 16.668 0 14.9705 0 12.883V9.30881C0 7.22131 1.6975 5.52381 3.785 5.52381H10.1525C12.24 5.52381 13.9375 7.22131 13.9375 9.30881V12.883C13.9375 14.9705 12.24 16.668 10.1525 16.668V16.668Z" fill="var(--fill-0, #212121)"/>
<path id="Vector_2" fill-rule="evenodd" clip-rule="evenodd" d="M6.96858 12.6461C6.62358 12.6461 6.34358 12.3661 6.34358 12.0211V10.1703C6.34358 9.82531 6.62358 9.54531 6.96858 9.54531C7.31358 9.54531 7.59358 9.82531 7.59358 10.1703V12.0211C7.59358 12.3661 7.31358 12.6461 6.96858 12.6461" fill="var(--fill-0, #212121)"/>
</g>
</svg>
