<svg preserveAspectRatio="none" width="100%" height="100%" overflow="visible" style="display: block;" viewBox="0 0 16.6667 14.3942" fill="none" xmlns="http://www.w3.org/2000/svg">
<g id="Group">
<path id="Vector" fill-rule="evenodd" clip-rule="evenodd" d="M6.46733 9.68068C6.30733 9.68068 6.14733 9.61985 6.02567 9.49735C5.41067 8.88318 5.0715 8.06651 5.0715 7.19818C5.0715 5.39818 6.53483 3.93401 8.33317 3.93401C9.19817 3.93401 10.0382 4.28318 10.6373 4.89235C10.879 5.13901 10.8765 5.53401 10.6298 5.77568C10.384 6.01901 9.989 6.01485 9.7465 5.76985C9.38067 5.39735 8.86567 5.18401 8.33317 5.18401C7.224 5.18401 6.3215 6.08735 6.3215 7.19818C6.3215 7.73235 6.53067 8.23568 6.909 8.61401C7.15317 8.85818 7.15317 9.25318 6.90983 9.49735C6.78733 9.61985 6.62733 9.68068 6.46733 9.68068" fill="var(--fill-0, #212121)"/>
<path id="Vector_2" fill-rule="evenodd" clip-rule="evenodd" d="M8.80617 10.409C8.51033 10.409 8.247 10.1973 8.192 9.89568C8.13033 9.55651 8.35533 9.23068 8.69533 9.16901C9.512 9.02068 10.1587 8.37235 10.3053 7.55485C10.367 7.21568 10.692 6.99235 11.0312 7.05068C11.3712 7.11151 11.597 7.43651 11.5362 7.77651C11.297 9.10401 10.2453 10.1573 8.91867 10.399C8.88117 10.4057 8.84283 10.409 8.80617 10.409" fill="var(--fill-0, #212121)"/>
<g id="Mask Group">
<mask id="mask0_9962_87044" style="mask-type:luminance" maskUnits="userSpaceOnUse" x="0" y="0" width="14" height="13">
<path id="Vector_3" fill-rule="evenodd" clip-rule="evenodd" d="M0 0.520075H13.4052V12.2685H0V0.520075Z" fill="var(--fill-0, white)"/>
</mask>
<g mask="url(#mask0_9962_87044)">
<path id="Vector_4" fill-rule="evenodd" clip-rule="evenodd" d="M3.87867 12.2685C3.74367 12.2685 3.60783 12.2243 3.49283 12.1352C2.08367 11.0285 0.892833 9.40601 0.0511667 7.44435C-0.0171667 7.28601 -0.0171667 7.10768 0.0511667 6.95018C0.902 4.98018 2.10033 3.34935 3.517 2.23518C6.40533 -0.050652 10.2503 -0.0581521 13.1678 2.25185C13.4387 2.46601 13.4845 2.85935 13.2703 3.13018C13.0553 3.39935 12.6637 3.44685 12.392 3.23185C9.92033 1.27518 6.73617 1.28185 4.29117 3.21685C3.0945 4.15851 2.067 5.53018 1.30867 7.19851C2.0595 8.85685 3.07783 10.2202 4.26533 11.1518C4.537 11.3652 4.58367 11.7585 4.37033 12.0293C4.247 12.186 4.06367 12.2685 3.87867 12.2685" fill="var(--fill-0, #212121)"/>
</g>
</g>
<g id="Mask Group_2">
<mask id="mask1_9962_87044" style="mask-type:luminance" maskUnits="userSpaceOnUse" x="5" y="3" width="12" height="11">
<path id="Vector_5" fill-rule="evenodd" clip-rule="evenodd" d="M5.59789 3.95068H16.6667V13.9075H5.59789V3.95068Z" fill="var(--fill-0, white)"/>
</mask>
<g mask="url(#mask1_9962_87044)">
<path id="Vector_6" fill-rule="evenodd" clip-rule="evenodd" d="M8.33342 13.9075C7.55258 13.9075 6.77592 13.7808 6.02592 13.5317C5.69842 13.4225 5.52092 13.0683 5.63008 12.7408C5.73925 12.4125 6.09175 12.2383 6.42092 12.345C7.04342 12.5525 7.68675 12.6575 8.33342 12.6575C11.1901 12.6575 13.8009 10.6225 15.3584 7.19668C14.9784 6.36418 14.5359 5.61001 14.0409 4.95168C13.8334 4.67585 13.8884 4.28335 14.1642 4.07585C14.4392 3.86835 14.8317 3.92501 15.0392 4.20001C15.6426 5.00085 16.1726 5.92668 16.6151 6.94835C16.6842 7.10668 16.6842 7.28668 16.6151 7.44418C14.8684 11.4917 11.7726 13.9075 8.33342 13.9075" fill="var(--fill-0, #212121)"/>
</g>
</g>
<g id="Mask Group_3">
<mask id="mask2_9962_87044" style="mask-type:luminance" maskUnits="userSpaceOnUse" x="1" y="0" width="15" height="15">
<path id="Vector_7" fill-rule="evenodd" clip-rule="evenodd" d="M1.13629 1.47223e-05H15.5309V14.3942H1.13629V1.47223e-05Z" fill="var(--fill-0, white)"/>
</mask>
<g mask="url(#mask2_9962_87044)">
<path id="Vector_8" fill-rule="evenodd" clip-rule="evenodd" d="M1.76108 14.3942C1.60108 14.3942 1.44108 14.3333 1.31942 14.2108C1.07525 13.9667 1.07525 13.5717 1.31942 13.3275L14.4644 0.182515C14.7086 -0.061652 15.1036 -0.061652 15.3477 0.182515C15.5919 0.426681 15.5919 0.822515 15.3477 1.06668L2.20275 14.2108C2.08108 14.3333 1.92108 14.3942 1.76108 14.3942" fill="var(--fill-0, #212121)"/>
</g>
</g>
</g>
</svg>
