<svg preserveAspectRatio="none" width="100%" height="100%" overflow="visible" style="display: block;" viewBox="0 0 22.0001 22.4489" fill="none" xmlns="http://www.w3.org/2000/svg">
<g id="Group">
<path id="Vector" d="M22.0001 11.474C22.0001 10.5511 21.9252 9.8776 21.7631 9.1792H11.2246V13.3447H17.4105C17.2858 14.3799 16.6123 15.9388 15.1157 16.9864L15.0947 17.1258L18.4268 19.7072L18.6577 19.7302C20.7778 17.7721 22.0001 14.8912 22.0001 11.474Z" fill="var(--fill-0, #4285F4)"/>
<path id="Vector_2" d="M11.2245 22.4489C14.255 22.4489 16.7992 21.4511 18.6576 19.7301L15.1156 16.9862C14.1678 17.6472 12.8956 18.1087 11.2245 18.1087C8.25625 18.1087 5.73699 16.1507 4.83895 13.4444L4.70731 13.4555L1.24255 16.1369L1.19724 16.2629C3.04303 19.9295 6.83442 22.4489 11.2245 22.4489Z" fill="var(--fill-0, #34A853)"/>
<path id="Vector_3" d="M4.83895 13.4444C4.602 12.746 4.46486 11.9976 4.46486 11.2244C4.46486 10.4511 4.602 9.70286 4.82649 9.00446L4.82021 8.85572L1.31203 6.13123L1.19725 6.18583C0.436513 7.70739 0 9.41604 0 11.2244C0 13.0328 0.436513 14.7414 1.19725 16.2629L4.83895 13.4444Z" fill="var(--fill-0, #FBBC05)"/>
<path id="Vector_4" d="M11.2245 4.34011C13.3322 4.34011 14.7539 5.25053 15.5646 6.01136L18.7324 2.91837C16.7869 1.10998 14.255 0 11.2245 0C6.83442 0 3.04303 2.51925 1.19724 6.18589L4.82648 9.00452C5.73699 6.29818 8.25625 4.34011 11.2245 4.34011Z" fill="var(--fill-0, #EB4335)"/>
</g>
</svg>
