<svg preserveAspectRatio="none" width="100%" height="100%" overflow="visible" style="display: block;" viewBox="0 0 26.6667 26.6667" fill="none" xmlns="http://www.w3.org/2000/svg">
<g id="Group">
<path id="Exclude" fill-rule="evenodd" clip-rule="evenodd" d="M13.3333 2C7.084 2 2 7.084 2 13.3333C2 19.5827 7.084 24.6667 13.3333 24.6667C19.5827 24.6667 24.6667 19.5827 24.6667 13.3333C24.6667 7.084 19.5827 2 13.3333 2M13.3333 26.6667C5.98133 26.6667 0 20.6853 0 13.3333C0 5.98133 5.98133 0 13.3333 0C20.6853 0 26.6667 5.98133 26.6667 13.3333C26.6667 20.6853 20.6853 26.6667 13.3333 26.6667" fill="var(--fill-0, #616161)"/>
<path id="Vector" fill-rule="evenodd" clip-rule="evenodd" d="M13.3385 19.7279C12.6012 19.7279 11.9985 19.1319 11.9985 18.3945C11.9985 17.6572 12.5892 17.0612 13.3252 17.0612H13.3385C14.0759 17.0612 14.6719 17.6572 14.6719 18.3945C14.6719 19.1319 14.0759 19.7279 13.3385 19.7279" fill="var(--fill-0, #616161)"/>
<path id="Vector_2" fill-rule="evenodd" clip-rule="evenodd" d="M13.3255 15.164C12.7735 15.164 12.3255 14.716 12.3255 14.164V8.272C12.3255 7.72 12.7735 7.272 13.3255 7.272C13.8775 7.272 14.3255 7.72 14.3255 8.272V14.164C14.3255 14.716 13.8775 15.164 13.3255 15.164" fill="var(--fill-0, #616161)"/>
</g>
</svg>
