<svg preserveAspectRatio="none" width="100%" height="100%" overflow="visible" style="display: block;" viewBox="0 0 150.241 266.3" fill="none" xmlns="http://www.w3.org/2000/svg">
<path id="Ellipse" d="M81.9919 261.735C85.6526 266.755 92.7218 267.888 97.4536 263.862C118.602 245.865 134.4 222.295 142.98 195.73C152.717 165.587 152.66 133.135 142.819 103.025C132.978 72.9159 113.857 46.6948 88.1979 28.1202C65.5846 11.7508 38.9159 2.06061 11.2211 0.0282838C5.02453 -0.426436 -0.0108013 4.66304 1.05376e-05 10.8762V10.8762C0.0108224 17.0894 5.0664 22.0659 11.2564 22.6026C34.1937 24.5914 56.2414 32.7638 75.0045 46.3461C96.815 62.1345 113.067 84.4224 121.432 110.015C129.797 135.608 129.845 163.193 121.57 188.815C114.45 210.856 101.485 230.473 84.1498 245.624C79.4717 249.713 78.3311 256.715 81.9919 261.735V261.735Z" fill="var(--fill-0, #FF6347)"/>
</svg>
