<svg preserveAspectRatio="none" width="100%" height="100%" overflow="visible" style="display: block;" viewBox="0 0 299.608 299.608" fill="none" xmlns="http://www.w3.org/2000/svg">
<path id="Ellipse" d="M10.858 149.608C4.64483 149.608 -0.435876 154.652 0.029639 160.848C1.96124 186.556 10.4942 211.402 24.8876 232.944C41.3698 257.611 64.7966 276.837 92.2055 288.19C119.614 299.543 149.774 302.514 178.872 296.726C207.969 290.938 234.696 276.652 255.674 255.674C276.652 234.696 290.938 207.969 296.726 178.872C302.514 149.774 299.543 119.614 288.19 92.2055C276.837 64.7966 257.611 41.3698 232.944 24.8876C211.402 10.4942 186.556 1.96125 160.848 0.0296391C154.652 -0.435877 149.608 4.64482 149.608 10.858V10.858C149.608 17.0712 154.655 22.0565 160.844 22.604C182.097 24.4841 202.603 31.6754 220.443 43.5957C241.411 57.6055 257.753 77.5183 267.403 100.816C277.053 124.113 279.578 149.749 274.658 174.482C269.739 199.215 257.595 221.933 239.764 239.764C221.933 257.595 199.215 269.739 174.482 274.658C149.749 279.578 124.113 277.053 100.816 267.403C77.5183 257.752 57.6055 241.41 43.5956 220.443C31.6754 202.603 24.4841 182.097 22.604 160.844C22.0565 154.655 17.0712 149.608 10.858 149.608V149.608Z" fill="var(--fill-0, #FF6347)"/>
</svg>
