<svg preserveAspectRatio="none" width="100%" height="100%" overflow="visible" style="display: block;" viewBox="0 0 20.0002 20" fill="none" xmlns="http://www.w3.org/2000/svg">
<g id="Call Missed">
<path id="Fill 4" d="M17.3373 3.91772L19.7408 1.50518C19.9084 1.33698 20.0002 1.11407 20.0002 0.87798C20.0002 0.641893 19.9084 0.418978 19.7408 0.250779C19.4067 -0.083593 18.8262 -0.083593 18.4921 0.250779L16.0886 2.66434L13.684 0.250779C13.3499 -0.083593 12.7694 -0.083593 12.4353 0.250779C12.2688 0.418978 12.1769 0.641893 12.1769 0.87798C12.1769 1.11407 12.2688 1.33698 12.4353 1.50518L14.8388 3.91772L12.4353 6.33027C12.2688 6.49847 12.1769 6.72138 12.1769 6.95747C12.1769 7.19356 12.2688 7.41647 12.4353 7.58467C12.7694 7.91904 13.3499 7.91904 13.684 7.58467L16.0886 5.17111L18.4921 7.58467C18.6597 7.75186 18.8807 7.84406 19.1169 7.84406C19.3532 7.84406 19.5742 7.75186 19.7408 7.58467C19.9084 7.41647 20.0002 7.19356 20.0002 6.95747C20.0002 6.72138 19.9084 6.49847 19.7408 6.33027L17.3373 3.91772Z" fill="var(--fill-0, #212121)"/>
<path id="Stroke 1" fill-rule="evenodd" clip-rule="evenodd" d="M9.03174 10.9724C13.0208 14.9604 13.9258 10.3467 16.4656 12.8848C18.9143 15.3328 20.3216 15.8232 17.2192 18.9247C16.8306 19.237 14.3616 22.9943 5.6846 14.3197C-2.99348 5.644 0.761585 3.17244 1.07397 2.78395C4.18387 -0.326154 4.66586 1.08938 7.11449 3.53733C9.65436 6.0765 5.04266 6.98441 9.03174 10.9724Z" fill="var(--fill-0, #212121)"/>
</g>
</svg>
