<svg preserveAspectRatio="none" width="100%" height="100%" overflow="visible" style="display: block;" viewBox="0 0 17 20" fill="none" xmlns="http://www.w3.org/2000/svg">
<g id="Unlock">
<path id="Unlock_2" fill-rule="evenodd" clip-rule="evenodd" d="M4.72606 6.71106H12.7312C15.0886 6.71106 17 8.58066 17 10.8866V15.8245C17 18.1304 15.0886 20 12.7312 20H4.26778C1.91136 20 0 18.1304 0 15.8245V10.8866C0 8.99016 1.30066 7.40682 3.07077 6.89792L2.96001 6.91084V5.38714C2.98033 2.41626 5.45057 0 8.47866 0C10.8463 0 12.9385 1.46208 13.7108 3.62787C13.7921 3.84654 13.7717 4.08508 13.6701 4.29381C13.5685 4.50253 13.3866 4.66156 13.162 4.73213C12.7048 4.89017 12.1967 4.65262 12.024 4.19541C11.5057 2.72339 10.0842 1.73939 8.49898 1.73939C6.42505 1.73939 4.74943 3.37044 4.73825 5.36726V6.70907L4.72606 6.71106ZM8.49492 15.3285C8.99283 15.3285 9.38912 14.9409 9.38912 14.4538V12.2473C9.38912 11.7702 8.99283 11.3826 8.49492 11.3826C8.00717 11.3826 7.61088 11.7702 7.61088 12.2473V14.4538C7.61088 14.9409 8.00717 15.3285 8.49492 15.3285Z" fill="var(--fill-0, #212121)"/>
</g>
</svg>
