<svg preserveAspectRatio="none" width="100%" height="100%" overflow="visible" style="display: block;" viewBox="0 0 17 20" fill="none" xmlns="http://www.w3.org/2000/svg">
<g id="Paper Fail">
<path id="Paper Fail_2" fill-rule="evenodd" clip-rule="evenodd" d="M10.5545 13.26C10.8416 12.97 10.8416 12.5 10.5545 12.21L9.34653 10.99L10.5545 9.77C10.8416 9.48 10.8416 9.01 10.5545 8.72C10.2673 8.42 9.79208 8.42 9.50495 8.72L8.29703 9.94L7.08911 8.72C6.80198 8.42 6.33663 8.42 6.0495 8.72C5.76238 9.01 5.76238 9.48 6.0495 9.77L7.25743 10.99L6.0495 12.21C5.76238 12.5 5.76238 12.97 6.0495 13.26C6.18812 13.41 6.37624 13.48 6.56436 13.48C6.75248 13.48 6.9505 13.41 7.08911 13.26L8.29703 12.04L9.50495 13.26C9.65347 13.41 9.84158 13.48 10.0297 13.48C10.2178 13.48 10.4059 13.41 10.5545 13.26ZM15.8354 7.02557C16.0686 7.02289 16.3209 7.02 16.5446 7.02C16.802 7.02 17 7.22 17 7.47V15.51C17 17.99 15.0099 20 12.5446 20H4.67327C2.08911 20 0 17.89 0 15.29V4.51C0 2.03 2 0 4.46535 0H9.75247C10 0 10.2079 0.21 10.2079 0.46V3.68C10.2079 5.51 11.703 7.01 13.5149 7.02C13.9333 7.02 14.3077 7.02318 14.6346 7.02595C14.8878 7.02809 15.1125 7.03 15.3069 7.03C15.4488 7.03 15.635 7.02786 15.8354 7.02557ZM16.1056 5.5662C15.2918 5.5692 14.3334 5.5662 13.6433 5.5592C12.5482 5.5592 11.6462 4.6482 11.6462 3.5422V0.9062C11.6462 0.4752 12.1641 0.2612 12.4591 0.5722C13.2215 1.37207 14.3885 2.59784 15.3749 3.63398C15.7746 4.05384 16.1447 4.44257 16.4462 4.7592C16.7344 5.0622 16.5235 5.5652 16.1056 5.5662Z" fill="var(--fill-0, #212121)"/>
</g>
</svg>
