<svg preserveAspectRatio="none" width="100%" height="100%" overflow="visible" style="display: block;" viewBox="0 0 19.6199 20.1358" fill="none" xmlns="http://www.w3.org/2000/svg">
<g id="Group">
<path id="Combined Shape" fill-rule="evenodd" clip-rule="evenodd" d="M19.3746 1.50528V1.49512C19.7017 1.14954 19.7017 0.610853 19.3746 0.265279C19.216 0.102656 18.998 0 18.77 0C18.542 0 18.324 0.102656 18.1753 0.265279L0.215108 18.6925C0.185372 18.723 0.165549 18.7525 0.145725 18.784L0.11599 18.8246C-0.0723343 19.1499 -0.0326871 19.5869 0.244843 19.8817C0.423256 20.0443 0.631403 20.1358 0.849463 20.1358C1.06752 20.1358 1.27567 20.0443 1.44417 19.8817L6.80583 14.3836C14.2063 21.6233 16.6902 18.9685 17.2649 18.3542C17.303 18.3135 17.3327 18.2818 17.3549 18.2624C20.0219 15.5409 19.2874 14.8273 17.4479 13.0401L17.4479 13.0401C17.191 12.7905 16.9126 12.52 16.6189 12.2202C15.5129 11.0963 14.7238 11.3804 13.8466 11.6962C12.8811 12.0438 11.8089 12.4297 10.0901 11.0182L9.56234 11.557L9.9584 11.1509L19.3746 1.50528ZM4.18501 11.8411C-1.80792 5.05086 0.575563 2.6962 1.15871 2.12011C1.20138 2.07795 1.23441 2.04532 1.25382 2.02117C3.94079 -0.703993 4.63999 0.0431181 6.39072 1.91381C6.63945 2.17958 6.9094 2.46803 7.20929 2.77242C8.31476 3.89983 8.03849 4.70611 7.73113 5.60315C7.4738 6.35416 7.19468 7.16879 7.68636 8.28874L4.18501 11.8411Z" fill="var(--fill-0, #212121)"/>
</g>
</svg>
