<svg preserveAspectRatio="none" width="100%" height="100%" overflow="visible" style="display: block;" viewBox="0 0 17 20" fill="none" xmlns="http://www.w3.org/2000/svg">
<g id="Voice 2">
<path id="Voice 2_2" fill-rule="evenodd" clip-rule="evenodd" d="M8.67476 13.2165H8.32505C5.92166 13.2165 3.97358 11.2928 3.97358 8.92037V4.29708C3.97358 1.92374 5.92166 0 8.32505 0H8.67476C10.6693 0 12.3501 1.32395 12.8645 3.13098C12.9352 3.37874 12.7482 3.62459 12.4886 3.62459H11.3562C11.0142 3.62459 10.7362 3.89818 10.7362 4.23586V4.23682C10.7362 4.57546 11.0142 4.84905 11.3562 4.84905H12.4004C12.7463 4.84905 13.0272 5.12551 13.0272 5.46702C13.0272 5.80853 12.7463 6.08499 12.4004 6.08499H11.3562C11.0142 6.08499 10.7362 6.35953 10.7362 6.69817C10.7362 7.03585 11.0142 7.3104 11.3562 7.3104H12.4004C12.7463 7.3104 13.0272 7.58686 13.0272 7.92933C13.0272 8.26988 12.7463 8.54634 12.4004 8.54634H11.3562C11.0142 8.54634 10.7362 8.82088 10.7362 9.15952C10.7362 9.49721 11.0142 9.7708 11.3562 9.7708H12.4334C12.6988 9.7708 12.8887 10.0272 12.8054 10.2759C12.2309 11.9844 10.5996 13.2165 8.67476 13.2165ZM15.0626 8.78281C15.0626 8.25381 15.4966 7.8262 16.0313 7.8262C16.566 7.8262 17 8.25381 17 8.78281C17 13.0866 13.7006 16.6404 9.4692 17.1177V19.0434C9.4692 19.5714 9.03522 20 8.50048 20C7.96478 20 7.53177 19.5714 7.53177 19.0434V17.1177C3.29945 16.6404 0 13.0866 0 8.78281C0 8.25381 0.433985 7.8262 0.968716 7.8262C1.50345 7.8262 1.93743 8.25381 1.93743 8.78281C1.93743 12.3557 4.88136 15.2629 8.50048 15.2629C12.1186 15.2629 15.0626 12.3557 15.0626 8.78281Z" fill="var(--fill-0, #212121)"/>
</g>
</svg>
