<svg preserveAspectRatio="none" width="100%" height="100%" overflow="visible" style="display: block;" viewBox="0 0 16.6667 16.6667" fill="none" xmlns="http://www.w3.org/2000/svg">
<g id="Group">
<path id="Union" fill-rule="evenodd" clip-rule="evenodd" d="M10.1011 7.69427H12.4076C12.7573 7.69427 13.0321 7.40512 13.0321 7.05645C13.0321 6.69927 12.7573 6.41863 12.4076 6.41863H10.1011C9.75135 6.41863 9.47657 6.69927 9.47657 7.05645C9.47657 7.40512 9.75135 7.69427 10.1011 7.69427ZM15.1471 3.27291C15.6551 3.27291 15.9882 3.4515 16.3212 3.84269C16.6543 4.23389 16.7126 4.79517 16.6377 5.30457L15.8466 10.8834C15.6967 11.9557 14.7974 12.7458 13.7399 12.7458H4.65532C3.54785 12.7458 2.6319 11.8792 2.54031 10.7566L1.77424 1.48617L0.516882 1.26506C0.183809 1.20553 -0.0493431 0.873864 0.00894481 0.533694C0.0672327 0.185871 0.39198 -0.044594 0.73338 0.00728192L2.71933 0.312584C3.00244 0.36446 3.21062 0.601728 3.2356 0.890873L3.39381 2.79582C3.41879 3.06881 3.63529 3.27291 3.90174 3.27291H15.1471ZM4.52193 14.0899C3.82247 14.0899 3.25625 14.6682 3.25625 15.3825C3.25625 16.0884 3.82247 16.6667 4.52193 16.6667C5.21306 16.6667 5.77928 16.0884 5.77928 15.3825C5.77928 14.6682 5.21306 14.0899 4.52193 14.0899ZM13.8896 14.0899C13.1902 14.0899 12.6239 14.6682 12.6239 15.3825C12.6239 16.0884 13.1902 16.6667 13.8896 16.6667C14.5808 16.6667 15.147 16.0884 15.147 15.3825C15.147 14.6682 14.5808 14.0899 13.8896 14.0899Z" fill="var(--fill-0, white)"/>
</g>
</svg>
