<svg preserveAspectRatio="none" width="100%" height="100%" overflow="visible" style="display: block;" viewBox="0 0 13.549 16.5002" fill="none" xmlns="http://www.w3.org/2000/svg">
<g id="Arrow - Left">
<path id="Stroke 1" d="M6.77466 0C7.15435 0 7.46815 0.282154 7.51781 0.648229L7.52466 0.75V15.75C7.52466 16.1642 7.18887 16.5 6.77466 16.5C6.39496 16.5 6.08117 16.2178 6.0315 15.8518L6.02466 15.75V0.75C6.02466 0.335786 6.36044 0 6.77466 0Z" fill="var(--fill-0, #212121)"/>
<path id="Stroke 3" d="M12.2675 9.17101C12.5598 8.87749 13.0347 8.87646 13.3282 9.16872C13.595 9.43442 13.6201 9.85103 13.4029 10.1451L13.3305 10.2294L7.30647 16.2794C7.03998 16.547 6.62187 16.5714 6.3278 16.3524L6.24357 16.2794L0.218573 10.2294C-0.0737131 9.93593 -0.0727299 9.46105 0.220769 9.16877C0.487586 8.90305 0.904299 8.87971 1.19746 9.09817L1.28143 9.17096L6.7753 14.687L12.2675 9.17101Z" fill="var(--fill-0, #212121)"/>
</g>
</svg>
