<svg preserveAspectRatio="none" width="100%" height="100%" overflow="visible" style="display: block;" viewBox="0 0 11 18" fill="none" xmlns="http://www.w3.org/2000/svg">
<g id="Arrow - Up 3">
<path id="Arrow - Up 3_2" d="M0.089897 8.85853C0.216135 9.09252 0.456179 9.2384 0.717263 9.2384H4.78271V17.2657C4.78271 17.671 5.10404 18 5.49997 18C5.8959 18 6.21724 17.671 6.21724 17.2657V9.2384H10.2827C10.5447 9.2384 10.7848 9.09252 10.9101 8.85853C11.0372 8.62453 11.0286 8.33865 10.89 8.11248L6.10726 0.342671C5.97528 0.129236 5.74671 0 5.49997 0C5.25324 0 5.02467 0.129236 4.89269 0.342671L0.10998 8.11248C0.0372977 8.23193 0 8.36802 0 8.50411C0 8.62551 0.0306032 8.74789 0.089897 8.85853" fill="var(--fill-0, #212121)"/>
</g>
</svg>
