<svg preserveAspectRatio="none" width="100%" height="100%" overflow="visible" style="display: block;" viewBox="0 0 20 20" fill="none" xmlns="http://www.w3.org/2000/svg">
<g id="Arrow - Down Circle">
<path id="Arrow - Down Circle_2" fill-rule="evenodd" clip-rule="evenodd" d="M10 20C4.48 20 0 15.51 0 10C0 4.48 4.48 0 10 0C15.51 0 20 4.48 20 10C20 15.51 15.51 20 10 20ZM14 8.02C13.7 7.73 13.23 7.73 12.94 8.03L10 10.98L7.06 8.03C6.77 7.73 6.29 7.73 6 8.02C5.7 8.32 5.7 8.79 6 9.08L9.47 12.57C9.61 12.71 9.8 12.79 10 12.79C10.2 12.79 10.39 12.71 10.53 12.57L14 9.08C14.15 8.94 14.22 8.75 14.22 8.56C14.22 8.36 14.15 8.17 14 8.02Z" fill="var(--fill-0, #212121)"/>
</g>
</svg>
