<svg preserveAspectRatio="none" width="100%" height="100%" overflow="visible" style="display: block;" viewBox="0 0 20 20" fill="none" xmlns="http://www.w3.org/2000/svg">
<g id="Image 2">
<path id="Image 2_2" fill-rule="evenodd" clip-rule="evenodd" d="M5.638 1.395C3.061 1.395 1.396 3.162 1.396 5.888V14.102C1.396 14.867 1.538 15.55 1.781 16.141C1.79149 16.1285 2.02035 15.8496 2.31889 15.4858C2.90237 14.7747 3.75205 13.7393 3.758 13.734C4.45 12.944 5.749 11.766 7.454 12.479C7.82761 12.6339 8.15971 12.8461 8.46542 13.0415C8.49519 13.0605 8.52471 13.0794 8.554 13.098C9.127 13.481 9.464 13.661 9.814 13.631C9.959 13.611 10.095 13.568 10.224 13.488C10.7106 13.188 11.9722 11.4004 12.35 10.8651C12.4054 10.7866 12.4418 10.735 12.454 10.719C13.544 9.299 15.224 8.919 16.624 9.759C16.812 9.871 18.159 10.812 18.605 11.19V5.888C18.605 3.162 16.94 1.395 14.354 1.395H5.638ZM14.354 0C17.731 0 20 2.362 20 5.888V14.102C20 14.1907 19.9907 14.2738 19.9814 14.357C19.9748 14.4154 19.9683 14.4737 19.965 14.534C19.9629 14.5704 19.9618 14.6069 19.9608 14.6433C19.9594 14.6919 19.958 14.7404 19.954 14.789C19.952 14.808 19.9482 14.8263 19.9445 14.8445C19.9408 14.8627 19.937 14.881 19.935 14.9C19.902 15.214 19.851 15.514 19.78 15.805C19.7632 15.8777 19.7438 15.9478 19.7243 16.0186L19.72 16.034C19.64 16.316 19.546 16.585 19.433 16.842C19.4132 16.8852 19.3923 16.9273 19.3714 16.9695C19.3575 16.9975 19.3436 17.0256 19.33 17.054C19.208 17.299 19.076 17.534 18.923 17.752C18.8947 17.7924 18.8646 17.8302 18.8344 17.8681C18.8145 17.8931 18.7945 17.9181 18.775 17.944C18.616 18.15 18.45 18.347 18.262 18.526C18.2245 18.5617 18.1839 18.5944 18.1433 18.627C18.118 18.6474 18.0926 18.6678 18.068 18.689C17.875 18.855 17.678 19.014 17.461 19.15C17.4136 19.1798 17.3633 19.2047 17.3132 19.2296C17.2808 19.2457 17.2484 19.2617 17.217 19.279C16.996 19.401 16.773 19.52 16.53 19.612C16.4715 19.6342 16.4093 19.6503 16.3469 19.6664C16.3026 19.6778 16.2582 19.6893 16.215 19.703C16.1934 19.7097 16.1717 19.7164 16.1501 19.7231C15.9331 19.7907 15.7167 19.858 15.483 19.898C15.3476 19.9217 15.2039 19.9308 15.0601 19.94C14.9978 19.9439 14.9356 19.9479 14.874 19.953C14.8078 19.9579 14.7428 19.9659 14.6778 19.9739C14.5721 19.987 14.4661 20 14.354 20H5.638C5.262 20 4.903 19.962 4.556 19.905C4.543 19.903 4.531 19.901 4.519 19.899C3.166 19.666 2.043 19.013 1.256 18.028C1.25053 18.028 1.24839 18.0243 1.24553 18.0194C1.24368 18.0162 1.24153 18.0125 1.238 18.009C0.447 17.013 0 15.674 0 14.102V5.888C0 2.362 2.271 0 5.638 0H14.354ZM9.0006 6.51456C9.0006 7.86951 7.86688 8.9996 6.50544 8.9996C5.30874 8.9996 4.28839 8.12525 4.05971 6.99323C4.02192 6.82338 4.0006 6.6487 4.0006 6.46824C4.0006 5.10363 5.10913 3.9996 6.47928 3.9996C7.17696 3.9996 7.80874 4.29298 8.26126 4.76104C8.71572 5.21269 9.0006 5.83515 9.0006 6.51456Z" fill="var(--fill-0, #212121)"/>
</g>
</svg>
