<svg preserveAspectRatio="none" width="100%" height="100%" overflow="visible" style="display: block;" viewBox="0 0 18 11" fill="none" xmlns="http://www.w3.org/2000/svg">
<g id="Arrow - Left 3">
<path id="Arrow - Left 3_2" d="M8.85853 10.9101C9.09252 10.7839 9.2384 10.5438 9.2384 10.2827V6.21729H17.2657C17.671 6.21729 18 5.89596 18 5.50003C18 5.1041 17.671 4.78276 17.2657 4.78276H9.2384V0.717314C9.2384 0.455274 9.09252 0.21523 8.85853 0.0899481C8.62453 -0.0372466 8.33865 -0.0286395 8.11248 0.110031L0.342671 4.89274C0.129236 5.02472 0 5.25329 0 5.50003C0 5.74676 0.129236 5.97533 0.342671 6.10731L8.11248 10.89C8.23193 10.9627 8.36802 11 8.50411 11C8.62551 11 8.74789 10.9694 8.85853 10.9101" fill="var(--fill-0, #212121)"/>
</g>
</svg>
