<svg preserveAspectRatio="none" width="100%" height="100%" overflow="visible" style="display: block;" viewBox="0 0 11 18" fill="none" xmlns="http://www.w3.org/2000/svg">
<g id="Arrow - Down 3">
<path id="Arrow - Down 3_2" d="M10.9101 9.14147C10.7839 8.90748 10.5438 8.7616 10.2827 8.7616H6.21729V0.734294C6.21729 0.328964 5.89596 0 5.50003 0C5.1041 0 4.78276 0.328964 4.78276 0.734294V8.7616H0.717314C0.455274 8.7616 0.21523 8.90748 0.0899481 9.14147C-0.0372466 9.37547 -0.0286395 9.66135 0.110031 9.88752L4.89274 17.6573C5.02472 17.8708 5.25329 18 5.50003 18C5.74676 18 5.97533 17.8708 6.10731 17.6573L10.89 9.88752C10.9627 9.76807 11 9.63198 11 9.49589C11 9.37449 10.9694 9.25211 10.9101 9.14147" fill="var(--fill-0, #212121)"/>
</g>
</svg>
