<svg preserveAspectRatio="none" width="100%" height="100%" overflow="visible" style="display: block;" viewBox="0 0 18 11" fill="none" xmlns="http://www.w3.org/2000/svg">
<g id="Arrow - Right 3">
<path id="Arrow - Right 3_2" d="M9.14147 0.089897C8.90748 0.216135 8.7616 0.456179 8.7616 0.717263V4.78271H0.734294C0.328964 4.78271 0 5.10404 0 5.49997C0 5.8959 0.328964 6.21724 0.734294 6.21724H8.7616V10.2827C8.7616 10.5447 8.90748 10.7848 9.14147 10.9101C9.37547 11.0372 9.66135 11.0286 9.88752 10.89L17.6573 6.10726C17.8708 5.97528 18 5.74671 18 5.49997C18 5.25324 17.8708 5.02467 17.6573 4.89269L9.88752 0.10998C9.76807 0.0372977 9.63198 0 9.49589 0C9.37449 0 9.25211 0.0306032 9.14147 0.089897" fill="var(--fill-0, #212121)"/>
</g>
</svg>
