<svg preserveAspectRatio="none" width="100%" height="100%" overflow="visible" style="display: block;" viewBox="0 0 40 40" fill="none" xmlns="http://www.w3.org/2000/svg">
<g id="Logo">
<path d="M16.7196 1.69312C16.7196 0.758036 17.4776 0 18.4127 0H27.7249C28.6599 0 29.418 0.758036 29.418 1.69312C29.418 2.62821 28.6599 3.38624 27.7249 3.38624H24.7488C24.7574 3.45558 24.7619 3.52621 24.7619 3.59788V6.22243C27.0883 6.45624 29.3497 7.17032 31.3995 8.32889C34.1179 9.86527 36.3585 12.1235 37.8735 14.8538C39.3885 17.5841 40.119 20.6802 39.9842 23.7998C39.8494 26.9194 38.8545 29.9409 37.1096 32.5303C35.3647 35.1198 32.9377 37.1763 30.0969 38.4724C27.2561 39.7685 24.1123 40.2539 21.0129 39.8747C18.4754 39.5643 16.0487 38.6844 13.9107 37.3094C13.1242 36.8036 13.0064 35.7305 13.5882 34.9985C14.1699 34.2664 15.2305 34.1549 16.0294 34.6409C17.6686 35.638 19.5068 36.279 21.4241 36.5135C23.9036 36.8168 26.4187 36.4286 28.6913 35.3917C30.9639 34.3548 32.9055 32.7096 34.3014 30.638C35.6974 28.5665 36.4933 26.1492 36.6011 23.6536C36.709 21.1579 36.1246 18.681 34.9126 16.4968C33.7005 14.3125 31.9081 12.506 29.7334 11.2769C27.5587 10.0478 25.0865 9.44398 22.59 9.53227C20.6597 9.60054 18.7731 10.0805 17.054 10.9325C16.2161 11.3478 15.1691 11.1452 14.6527 10.3657C14.1362 9.58617 14.3462 8.52722 15.1734 8.09116C17.0996 7.07578 19.2055 6.44053 21.3757 6.22243V3.59788C21.3757 3.52621 21.3801 3.45558 21.3888 3.38624H18.4127C17.4776 3.38624 16.7196 2.62821 16.7196 1.69312Z" fill="var(--fill-0, white)"/>
<path fill-rule="evenodd" clip-rule="evenodd" d="M13.9012 28.3598C13.6659 27.9529 13.457 27.5289 13.2767 27.0899H1.69312C0.758036 27.0899 0 26.3319 0 25.3968C0 24.4617 0.758036 23.7037 1.69312 23.7037H12.5055C12.4931 23.4937 12.4868 23.282 12.4868 23.0688C12.4868 22.8556 12.4931 22.6439 12.5055 22.4339H8.25397C7.31888 22.4339 6.56085 21.6758 6.56085 20.7407C6.56085 19.8057 7.31888 19.0476 8.25397 19.0476H13.2785C13.4591 18.6088 13.6683 18.1847 13.9039 17.7778H12.4868C11.5517 17.7778 10.7936 17.0197 10.7936 16.0847C10.7936 15.1496 11.5517 14.3915 12.4868 14.3915H17.0129C18.729 13.1912 20.8171 12.4868 23.0688 12.4868C28.9206 12.4868 33.6508 17.2275 33.6508 23.0688C33.6508 28.9206 28.9206 33.6508 23.0688 33.6508C20.8153 33.6508 18.7257 32.9468 17.0088 31.746H6.77249C5.8374 31.746 5.07936 30.988 5.07936 30.0529C5.07936 29.1178 5.8374 28.3598 6.77249 28.3598H13.9012ZM26.4444 26.9947C26.5714 27.0688 26.709 27.1111 26.8571 27.1111C27.1217 27.1111 27.3862 26.9735 27.5344 26.7196C27.7566 26.3492 27.6402 25.8624 27.2592 25.6296L23.492 23.3862V18.4974C23.492 18.0529 23.1323 17.7037 22.6984 17.7037C22.2645 17.7037 21.9047 18.0529 21.9047 18.4974V23.8413C21.9047 24.1164 22.0529 24.3704 22.2963 24.5185L26.4444 26.9947Z" fill="var(--fill-0, white)"/>
<path d="M5.50265 14.3915C4.56756 14.3915 3.80952 15.1496 3.80952 16.0847C3.80952 17.0197 4.56756 17.7778 5.50265 17.7778H7.83069C8.76577 17.7778 9.52381 17.0197 9.52381 16.0847C9.52381 15.1496 8.76577 14.3915 7.83069 14.3915H5.50265Z" fill="var(--fill-0, white)"/>
</g>
</svg>
