<svg preserveAspectRatio="none" width="100%" height="100%" overflow="visible" style="display: block;" viewBox="0 0 15.8072 19.2503" fill="none" xmlns="http://www.w3.org/2000/svg">
<g id="Arrow - Left">
<path id="Stroke 1" d="M7.90377 2.95639e-05C8.34675 2.95639e-05 8.71284 0.329209 8.77078 0.756297L8.77877 0.87503V18.375C8.77877 18.8583 8.38702 19.25 7.90377 19.25C7.46079 19.25 7.0947 18.9209 7.03676 18.4938L7.02877 18.375V0.87503C7.02877 0.39178 7.42052 2.95639e-05 7.90377 2.95639e-05Z" fill="var(--fill-0, white)"/>
<path id="Stroke 3" d="M14.3121 10.6995C14.6531 10.3571 15.2071 10.3559 15.5496 10.6969C15.8609 11.0069 15.8902 11.4929 15.6367 11.836L15.5522 11.9343L8.52422 18.9926C8.21332 19.3049 7.72552 19.3333 7.38243 19.0778L7.28417 18.9927L0.255002 11.9344C-0.0859986 11.5919 -0.0848516 11.0379 0.257564 10.6969C0.568851 10.3869 1.05502 10.3597 1.39704 10.6146L1.495 10.6995L7.90452 17.1349L14.3121 10.6995Z" fill="var(--fill-0, white)"/>
</g>
</svg>
