<svg preserveAspectRatio="none" width="100%" height="100%" overflow="visible" style="display: block;" viewBox="0 0 21.5797 25.0834" fill="none" xmlns="http://www.w3.org/2000/svg">
<g id="Notification">
<path id="Fill 4" fill-rule="evenodd" clip-rule="evenodd" d="M10.7313 25.0833H10.7289C9.4211 25.0822 8.18326 24.5058 7.2441 23.4593C6.92093 23.1012 6.9501 22.547 7.30943 22.225C7.66876 21.9007 8.22176 21.9298 8.54493 22.2903C9.14926 22.9635 9.9251 23.3333 10.7301 23.3333H10.7313C11.5398 23.3333 12.3191 22.9635 12.9246 22.2892C13.2489 21.931 13.8019 21.9018 14.1601 22.225C14.5194 22.5482 14.5486 23.1023 14.2254 23.4605C13.2828 24.507 12.0426 25.0833 10.7313 25.0833" fill="var(--fill-0, white)"/>
<g id="Group 3">
<mask id="mask0_9966_88173" style="mask-type:luminance" maskUnits="userSpaceOnUse" x="0" y="0" width="22" height="21">
<path id="Clip 2" fill-rule="evenodd" clip-rule="evenodd" d="M1.44243e-05 0H21.5797V20.2393H1.44243e-05V0Z" fill="var(--fill-0, white)"/>
</mask>
<g mask="url(#mask0_9966_88173)">
<path id="Fill 1" fill-rule="evenodd" clip-rule="evenodd" d="M10.7882 1.75C6.7107 1.75 3.8687 4.94433 3.8687 7.81083C3.8687 10.2363 3.19553 11.3575 2.60053 12.3468C2.12336 13.1413 1.74653 13.769 1.74653 15.1328C1.94136 17.3332 3.39386 18.4893 10.7882 18.4893C18.1417 18.4893 19.6397 17.2818 19.8334 15.057C19.8299 13.769 19.453 13.1413 18.9759 12.3468C18.3809 11.3575 17.7077 10.2363 17.7077 7.81083C17.7077 4.94433 14.8657 1.75 10.7882 1.75M10.7882 20.2393C5.33286 20.2393 0.40253 19.8543 3.00048e-05 15.2075C-0.00347 13.2848 0.583363 12.3072 1.10136 11.4462C1.6252 10.5735 2.1187 9.751 2.1187 7.81083C2.1187 4.039 5.60236 0 10.7882 0C15.974 0 19.4577 4.039 19.4577 7.81083C19.4577 9.751 19.9512 10.5735 20.475 11.4462C20.993 12.3072 21.5799 13.2848 21.5799 15.1328C21.1727 19.8543 16.2435 20.2393 10.7882 20.2393" fill="var(--fill-0, white)"/>
</g>
</g>
</g>
</svg>
