<svg preserveAspectRatio="none" width="100%" height="100%" overflow="visible" style="display: block;" viewBox="0 0 24.2667 24.2667" fill="none" xmlns="http://www.w3.org/2000/svg">
<g id="Logo">
<path d="M10.1432 1.02716C10.1432 0.459875 10.6031 0 11.1704 0H16.8197C17.387 0 17.8469 0.459875 17.8469 1.02716C17.8469 1.59445 17.387 2.05432 16.8197 2.05432H15.0143C15.0195 2.09638 15.0222 2.13923 15.0222 2.18272V3.77494C16.4335 3.91679 17.8055 4.35 19.0491 5.05286C20.6982 5.98493 22.0575 7.35489 22.9766 9.01129C23.8957 10.6677 24.3389 12.546 24.2571 14.4385C24.1753 16.3311 23.5717 18.1641 22.5132 19.7351C21.4546 21.306 19.9822 22.5536 18.2588 23.3399C16.5354 24.1262 14.6281 24.4207 12.7478 24.1907C11.2084 24.0023 9.7362 23.4685 8.43917 22.6344C7.96203 22.3275 7.89053 21.6765 8.24348 21.2324C8.59643 20.7883 9.23985 20.7207 9.72451 21.0155C10.719 21.6204 11.8341 22.0092 12.9973 22.1515C14.5015 22.3356 16.0273 22.1 17.406 21.471C18.7848 20.8419 19.9627 19.8438 20.8095 18.5871C21.6564 17.3303 22.1392 15.8639 22.2047 14.3498C22.2701 12.8358 21.9156 11.3332 21.1803 10.008C20.445 8.68293 19.3576 7.58696 18.0383 6.8413C16.7189 6.09564 15.2191 5.72935 13.7046 5.78291C12.5336 5.82433 11.389 6.11552 10.3461 6.63241C9.83778 6.88431 9.2026 6.76143 8.88928 6.28852C8.57596 5.81561 8.70336 5.17318 9.20519 4.90864C10.3737 4.29264 11.6513 3.90725 12.9679 3.77494V2.18272C12.9679 2.13923 12.9706 2.09638 12.9758 2.05432H11.1704C10.6031 2.05432 10.1432 1.59445 10.1432 1.02716Z" fill="var(--fill-0, #FF6347)"/>
<path fill-rule="evenodd" clip-rule="evenodd" d="M8.43337 17.2049C8.29065 16.9581 8.16389 16.7008 8.05451 16.4346H1.02716C0.459875 16.4346 0 15.9747 0 15.4074C0 14.8401 0.459875 14.3802 1.02716 14.3802H7.58665C7.57912 14.2528 7.57531 14.1244 7.57531 13.9951C7.57531 13.8657 7.57914 13.7373 7.58669 13.6099H5.00741C4.44012 13.6099 3.98025 13.15 3.98025 12.5827C3.98025 12.0154 4.44012 11.5556 5.00741 11.5556H8.05561C8.16517 11.2893 8.29211 11.0321 8.43503 10.7852H7.57531C7.00802 10.7852 6.54815 10.3253 6.54815 9.75802C6.54815 9.19074 7.00802 8.73086 7.57531 8.73086H10.3212C11.3623 8.00266 12.6291 7.57531 13.9951 7.57531C17.5452 7.57531 20.4148 10.4514 20.4148 13.9951C20.4148 17.5452 17.5452 20.4148 13.9951 20.4148C12.628 20.4148 11.3602 19.9877 10.3187 19.2593H4.10864C3.54136 19.2593 3.08148 18.7994 3.08148 18.2321C3.08148 17.6648 3.54136 17.2049 4.10864 17.2049H8.43337ZM16.0429 16.3768C16.12 16.4217 16.2034 16.4474 16.2933 16.4474C16.4538 16.4474 16.6143 16.3639 16.7042 16.2099C16.839 15.9852 16.7684 15.6899 16.5373 15.5486L14.2518 14.1877V11.2217C14.2518 10.9521 14.0336 10.7402 13.7704 10.7402C13.5071 10.7402 13.2889 10.9521 13.2889 11.2217V14.4637C13.2889 14.6306 13.3788 14.7847 13.5264 14.8746L16.0429 16.3768Z" fill="var(--fill-0, #FF6347)"/>
<path d="M3.33827 8.73086C2.77099 8.73086 2.31111 9.19074 2.31111 9.75802C2.31111 10.3253 2.77099 10.7852 3.33827 10.7852H4.75062C5.3179 10.7852 5.77778 10.3253 5.77778 9.75802C5.77778 9.19074 5.3179 8.73086 4.75062 8.73086H3.33827Z" fill="var(--fill-0, #FF6347)"/>
</g>
</svg>
