<svg preserveAspectRatio="none" width="100%" height="100%" overflow="visible" style="display: block;" viewBox="0 0 20.6393 20.703" fill="none" xmlns="http://www.w3.org/2000/svg">
<g id="Activity">
<path id="Fill 1" fill-rule="evenodd" clip-rule="evenodd" d="M5.2163 14.0028C5.0563 14.0028 4.8953 13.9518 4.7593 13.8478C4.4313 13.5948 4.3693 13.1238 4.6223 12.7958L7.6153 8.9058C7.7373 8.7468 7.9183 8.6438 8.1163 8.6188C8.3183 8.5928 8.5163 8.6488 8.6733 8.7738L11.4933 10.9888L13.9603 7.8058C14.2143 7.4768 14.6843 7.4158 15.0123 7.6718C15.3403 7.9258 15.4003 8.3968 15.1463 8.7238L12.2163 12.5038C12.0943 12.6618 11.9143 12.7648 11.7163 12.7888C11.5163 12.8158 11.3183 12.7578 11.1603 12.6348L8.3423 10.4208L5.8113 13.7098C5.6633 13.9018 5.4413 14.0028 5.2163 14.0028" fill="var(--fill-0, #212121)"/>
<g id="Group 5">
<mask id="mask0_9944_86775" style="mask-type:luminance" maskUnits="userSpaceOnUse" x="15" y="0" width="6" height="6">
<path id="Clip 4" fill-rule="evenodd" clip-rule="evenodd" d="M15.2953 0H20.6393V5.3449H15.2953V0Z" fill="var(--fill-0, white)"/>
</mask>
<g mask="url(#mask0_9944_86775)">
<path id="Fill 3" fill-rule="evenodd" clip-rule="evenodd" d="M17.9673 1.4999C17.3213 1.4999 16.7953 2.0249 16.7953 2.6719C16.7953 3.3179 17.3213 3.8449 17.9673 3.8449C18.6133 3.8449 19.1393 3.3179 19.1393 2.6719C19.1393 2.0249 18.6133 1.4999 17.9673 1.4999M17.9673 5.3449C16.4943 5.3449 15.2953 4.1459 15.2953 2.6719C15.2953 1.1979 16.4943 -9.99868e-05 17.9673 -9.99868e-05C19.4413 -9.99868e-05 20.6393 1.1979 20.6393 2.6719C20.6393 4.1459 19.4413 5.3449 17.9673 5.3449" fill="var(--fill-0, #212121)"/>
</g>
</g>
<g id="Group 8">
<mask id="mask1_9944_86775" style="mask-type:luminance" maskUnits="userSpaceOnUse" x="0" y="0" width="20" height="21">
<path id="Clip 7" fill-rule="evenodd" clip-rule="evenodd" d="M0 0.842H19.8619V20.703H0V0.842Z" fill="var(--fill-0, white)"/>
</mask>
<g mask="url(#mask1_9944_86775)">
<path id="Fill 6" fill-rule="evenodd" clip-rule="evenodd" d="M14.2329 20.703H5.6289C2.2619 20.703 -0.0001 18.338 -0.0001 14.818V6.736C-0.0001 3.211 2.2619 0.842 5.6289 0.842H12.8969C13.3109 0.842 13.6469 1.178 13.6469 1.592C13.6469 2.006 13.3109 2.342 12.8969 2.342H5.6289C3.1209 2.342 1.4999 4.066 1.4999 6.736V14.818C1.4999 17.523 3.0819 19.203 5.6289 19.203H14.2329C16.7409 19.203 18.3619 17.482 18.3619 14.818V7.779C18.3619 7.365 18.6979 7.029 19.1119 7.029C19.5259 7.029 19.8619 7.365 19.8619 7.779V14.818C19.8619 18.338 17.5999 20.703 14.2329 20.703" fill="var(--fill-0, #212121)"/>
</g>
</g>
</g>
</svg>
