<svg preserveAspectRatio="none" width="100%" height="100%" overflow="visible" style="display: block;" viewBox="0 0 18.6299 22.6878" fill="none" xmlns="http://www.w3.org/2000/svg">
<g id="Arrow - Right">
<path id="Stroke 3" d="M16.8679 12.6101C17.2697 12.2065 17.9227 12.2051 18.3263 12.607C18.6932 12.9723 18.7277 13.5452 18.429 13.9495L18.3294 14.0654L10.0464 22.3842C9.67998 22.7522 9.10507 22.7856 8.70072 22.4846L8.58491 22.3842L0.300538 14.0655C-0.101356 13.6619 -0.100004 13.009 0.303557 12.6071C0.670431 12.2417 1.24341 12.2096 1.64651 12.51L1.76196 12.6101L9.31604 20.1946L16.8679 12.6101Z" fill="var(--fill-0, white)"/>
<path id="Stroke 1" d="M9.31516 0C9.83724 0 10.2687 0.387962 10.337 0.891315L10.3464 1.03125V21.6562C10.3464 22.2258 9.8847 22.6875 9.31516 22.6875C8.79307 22.6875 8.3616 22.2995 8.29332 21.7962L8.28391 21.6562V1.03125C8.28391 0.461706 8.74561 0 9.31516 0Z" fill="var(--fill-0, white)"/>
</g>
</svg>
