<svg preserveAspectRatio="none" width="100%" height="100%" overflow="visible" style="display: block;" viewBox="0 0 30.25 24.75" fill="none" xmlns="http://www.w3.org/2000/svg">
<g id="Scan">
<path id="Fill 7" d="M29.2036 12.4317H1.04775C0.47025 12.4317 0 12.8915 0 13.4591C0 14.0254 0.47025 14.4838 1.04775 14.4838H2.50662V19.3837C2.50662 22.3392 4.95962 24.746 7.97225 24.7487L10.2121 24.75V24.75C10.791 24.75 11.2585 24.2902 11.2599 23.7226C11.2599 23.1563 10.791 22.6965 10.2135 22.6965L7.975 22.6952C6.11463 22.6925 4.60075 21.2079 4.60075 19.3837V14.4838H8.20737V15.847C8.19362 17.5526 9.58925 18.9468 11.3272 18.963H18.9228C20.6621 18.9468 22.0577 17.5526 22.044 15.847V14.4838H25.6506V19.3783C25.6506 21.2093 24.1326 22.6965 22.2668 22.6965H20.0764C19.4975 22.6965 19.0286 23.1563 19.0286 23.7226C19.0286 24.2902 19.4975 24.75 20.0764 24.75H22.2668C25.2863 24.75 27.7434 22.3419 27.7434 19.3783V14.4838H29.2036C29.7811 14.4838 30.25 14.0254 30.25 13.4591C30.25 12.8915 29.7811 12.4317 29.2036 12.4317" fill="var(--fill-0, #FF6347)"/>
<path id="Combined Shape" opacity="0.4" fill-rule="evenodd" clip-rule="evenodd" d="M11.2595 1.02742C11.2595 0.459779 10.7906 0 10.2131 0H10.2117L7.97184 0.00134833C4.95921 0.00404498 2.50759 2.41081 2.50759 5.36634V7.92276C2.50759 8.48906 2.97646 8.95019 3.55396 8.95019C4.13146 8.95019 4.60171 8.48906 4.60171 7.92276V5.36634C4.60171 3.54205 6.11421 2.05754 7.97321 2.05485L10.2131 2.0535C10.792 2.0535 11.2595 1.59372 11.2595 1.02742ZM22.2662 0.000404358H20.0758C19.4983 0.000404358 19.0294 0.460183 19.0294 1.02783C19.0294 1.59413 19.4983 2.05256 20.0758 2.05256H22.2662C24.1321 2.05256 25.6501 3.54111 25.6501 5.37079V7.92317C25.6501 8.48946 26.1189 8.95059 26.6964 8.95059C27.2753 8.95059 27.7428 8.48946 27.7428 7.92317V5.37079C27.7428 2.40851 25.2871 0.000404358 22.2662 0.000404358ZM11.3279 5.14615H18.9234C19.7553 5.14615 20.5542 5.4738 21.1358 6.05762C21.7216 6.64684 22.0461 7.43831 22.0447 8.26213V9.97451C22.0378 10.1754 21.8742 10.3386 21.6693 10.3439H8.57931C8.37581 10.3372 8.21219 10.1741 8.20806 9.97451V8.26213C8.19294 6.5565 9.58994 5.16368 11.3279 5.14615Z" fill="var(--fill-0, #FF6347)"/>
</g>
</svg>
