<svg preserveAspectRatio="none" width="100%" height="100%" overflow="visible" style="display: block;" viewBox="0 0 23.3333 23.3333" fill="none" xmlns="http://www.w3.org/2000/svg">
<g id="Send">
<path id="Send_2" d="M22.6746 0.67898C22.091 0.0800311 21.2273 -0.143107 20.422 0.0917752L1.64266 5.55278C0.792981 5.78883 0.190735 6.46647 0.0285019 7.32731C-0.137233 8.20342 0.441671 9.31558 1.19798 9.78065L7.06988 13.3896C7.67213 13.7595 8.44945 13.6668 8.94782 13.1641L15.6717 6.39835C16.0102 6.04603 16.5704 6.04603 16.9089 6.39835C17.2474 6.73893 17.2474 7.2909 16.9089 7.64323L10.1733 14.4102C9.67378 14.9116 9.58041 15.6926 9.94806 16.2986L13.5359 22.2294C13.956 22.934 14.6797 23.3333 15.4733 23.3333C15.5667 23.3333 15.6717 23.3333 15.7651 23.3216C16.6755 23.2041 17.3991 22.5817 17.6676 21.7009L23.2348 2.94559C23.4799 2.14699 23.2582 1.27793 22.6746 0.67898" fill="var(--fill-0, white)"/>
</g>
</svg>
